<svg width="283" height="241" viewBox="0 0 283 241" fill="none" xmlns="http://www.w3.org/2000/svg">
<rect x="1.45915" y="1.19939" width="280.022" height="238.411" stroke="white" stroke-width="2.39877"/>
<path d="M72.3669 64.8936V56.8463H57.6012C66.0177 55.0744 70.8534 51.2722 70.8534 46.3626C70.8534 45.8089 70.8534 45.1076 70.8534 44.7753C70.8534 40.3087 67.4942 35.5837 54.3159 35.5837C43.5369 35.5837 38.7381 39.4966 37.483 44.3324C37.1508 45.4029 36.9293 46.8794 36.8186 48.8359H48.0774C48.1143 47.9869 48.1881 46.5841 48.3727 45.9197C48.8895 44.2216 50.4399 43.188 53.2454 43.188C56.863 43.188 58.4134 44.3324 58.4134 46.1781C58.4134 46.4734 58.4134 46.9902 58.4134 47.3962C58.4134 51.2722 53.1346 52.675 36.5232 56.7724V64.8936H72.3669ZM94.4678 35.5837C82.1016 35.5837 75.2725 42.339 75.2725 50.4601C75.2725 59.2826 82.3969 65.3365 94.5048 65.3365C105.948 65.3365 113.663 59.1349 113.663 50.5339C113.663 41.9329 106.502 35.5837 94.4678 35.5837ZM102.146 50.4232C102.146 55.4804 99.2667 57.8429 94.4678 57.8429C89.7797 57.8429 86.7159 55.3328 86.7159 50.4232C86.7159 46.1781 89.4106 43.188 94.5417 43.188C99.6358 43.188 102.146 46.1781 102.146 50.4232Z" fill="white"/>
<path d="M201.452 206.19V177.101H192.704C191.818 178.91 188.717 179.353 181.15 180.091V188.508L190.673 187.733V206.19H201.452ZM245.95 196.887V196.371C245.839 191.387 242.258 187.327 231.368 187.327C226.274 187.327 222.029 188.36 219.851 189.431C219.888 189.062 219.925 188.471 220.036 188.028C220.442 185.961 222.472 184.189 227.197 184.189C230.556 184.189 232.291 184.816 232.845 185.481C233.03 185.702 233.325 186.145 233.362 186.367H243.55C243.402 185.333 243.218 184.484 242.775 183.561C240.745 179.353 237.053 176.88 227.123 176.88C217.156 176.88 212.062 180.94 209.921 185.37C208.851 187.585 208.445 189.837 208.445 191.719C208.445 194.451 209.072 196.777 209.958 198.622C212.69 204.455 219.187 206.633 227.677 206.633C241.003 206.633 245.95 202.166 245.95 196.887ZM234.654 196.777C234.654 198.179 232.771 199.656 228.009 199.656C224.096 199.656 221.771 198.512 220.663 196.887C220.22 196.334 220.036 195.632 219.962 194.82C221.143 194.34 224.133 193.344 228.083 193.344C233.288 193.344 234.654 194.82 234.654 196.075V196.777Z" fill="white"/>
<path d="M72.4653 115.73V101.877H81.6444V104.512H75.61V107.295H80.7308V109.909H75.61V113.096H81.8569V115.73H72.4653ZM84.7808 115.73V105.191H87.3306L87.5643 106.594H87.6493C88.1026 106.141 88.6196 105.751 89.2004 105.425C89.7953 105.099 90.4894 104.937 91.2827 104.937C92.4726 104.937 93.3437 105.319 93.8962 106.084C94.4486 106.849 94.7249 107.897 94.7249 109.229V115.73H91.6014V109.632C91.6014 108.924 91.4881 108.407 91.2614 108.081C91.0348 107.755 90.6311 107.593 90.0503 107.593C89.6253 107.593 89.25 107.685 88.9242 107.869C88.6125 108.053 88.2726 108.329 87.9043 108.697V115.73H84.7808ZM101.431 115.985C100.765 115.985 100.156 115.858 99.6036 115.603C99.0653 115.348 98.5978 114.987 98.2012 114.519C97.8188 114.038 97.5213 113.457 97.3088 112.777C97.0963 112.097 96.9901 111.325 96.9901 110.461C96.9901 109.597 97.1176 108.825 97.3725 108.145C97.6275 107.465 97.9604 106.891 98.3712 106.424C98.7962 105.942 99.2778 105.574 99.8161 105.319C100.354 105.064 100.914 104.937 101.495 104.937C102.09 104.937 102.592 105.036 103.003 105.234C103.414 105.418 103.797 105.694 104.151 106.063H104.236L104.087 104.427V100.836H107.21V115.73H104.661L104.427 114.647H104.363C103.966 115.029 103.513 115.348 103.003 115.603C102.493 115.858 101.969 115.985 101.431 115.985ZM102.238 113.436C102.592 113.436 102.918 113.365 103.216 113.223C103.513 113.067 103.804 112.812 104.087 112.458V108.187C103.804 107.932 103.513 107.755 103.216 107.656C102.932 107.543 102.635 107.486 102.323 107.486C101.743 107.486 101.24 107.727 100.815 108.209C100.404 108.69 100.199 109.427 100.199 110.418C100.199 111.467 100.376 112.232 100.73 112.713C101.084 113.195 101.587 113.436 102.238 113.436ZM127.847 115.985C127.153 115.985 126.48 115.865 125.828 115.624C125.191 115.369 124.617 115.008 124.107 114.541C123.611 114.073 123.215 113.499 122.917 112.819C122.62 112.125 122.471 111.339 122.471 110.461C122.471 109.583 122.62 108.804 122.917 108.124C123.215 107.43 123.611 106.849 124.107 106.381C124.617 105.914 125.191 105.56 125.828 105.319C126.48 105.064 127.153 104.937 127.847 104.937C128.541 104.937 129.207 105.064 129.844 105.319C130.496 105.56 131.069 105.914 131.565 106.381C132.075 106.849 132.479 107.43 132.776 108.124C133.074 108.804 133.222 109.583 133.222 110.461C133.222 111.339 133.074 112.125 132.776 112.819C132.479 113.499 132.075 114.073 131.565 114.541C131.069 115.008 130.496 115.369 129.844 115.624C129.207 115.865 128.541 115.985 127.847 115.985ZM127.847 113.457C128.569 113.457 129.107 113.188 129.462 112.65C129.83 112.111 130.014 111.382 130.014 110.461C130.014 109.54 129.83 108.811 129.462 108.272C129.107 107.734 128.569 107.465 127.847 107.465C127.124 107.465 126.579 107.734 126.211 108.272C125.857 108.811 125.679 109.54 125.679 110.461C125.679 111.382 125.857 112.111 126.211 112.65C126.579 113.188 127.124 113.457 127.847 113.457ZM138.739 115.73V107.635H135.955V105.319L138.739 105.191V104.915C138.739 104.306 138.831 103.74 139.015 103.215C139.199 102.691 139.482 102.238 139.865 101.856C140.247 101.459 140.736 101.147 141.331 100.921C141.926 100.694 142.634 100.581 143.456 100.581C144.065 100.581 144.631 100.637 145.156 100.751C145.694 100.864 146.19 100.999 146.643 101.154L146.048 103.449C145.354 103.18 144.617 103.045 143.838 103.045C143.158 103.045 142.655 103.194 142.33 103.492C142.018 103.789 141.862 104.257 141.862 104.894V105.191H145.496V107.635H141.862V115.73H138.739ZM161.967 115.73V101.877H165.091V113.096H171.253V115.73H161.967ZM178.341 115.73V107.635H174.113V105.191H181.465V115.73H178.341ZM179.765 103.534C179.156 103.534 178.653 103.364 178.256 103.024C177.874 102.684 177.683 102.224 177.683 101.643C177.683 101.062 177.874 100.595 178.256 100.241C178.653 99.8724 179.156 99.6883 179.765 99.6883C180.374 99.6883 180.87 99.8724 181.252 100.241C181.649 100.595 181.847 101.062 181.847 101.643C181.847 102.224 181.649 102.684 181.252 103.024C180.87 103.364 180.374 103.534 179.765 103.534ZM189.701 115.73V107.635H186.917V105.319L189.701 105.191V104.915C189.701 104.306 189.793 103.74 189.977 103.215C190.161 102.691 190.444 102.238 190.827 101.856C191.209 101.459 191.698 101.147 192.293 100.921C192.888 100.694 193.596 100.581 194.418 100.581C195.027 100.581 195.593 100.637 196.117 100.751C196.656 100.864 197.151 100.999 197.605 101.154L197.01 103.449C196.316 103.18 195.579 103.045 194.8 103.045C194.12 103.045 193.617 103.194 193.291 103.492C192.98 103.789 192.824 104.257 192.824 104.894V105.191H196.457V107.635H192.824V115.73H189.701ZM204.927 115.985C204.105 115.985 203.333 115.865 202.611 115.624C201.903 115.369 201.287 115.008 200.762 114.541C200.238 114.073 199.828 113.499 199.53 112.819C199.233 112.125 199.084 111.339 199.084 110.461C199.084 109.597 199.233 108.825 199.53 108.145C199.842 107.451 200.252 106.87 200.762 106.403C201.272 105.921 201.853 105.56 202.505 105.319C203.171 105.064 203.858 104.937 204.566 104.937C205.373 104.937 206.089 105.064 206.712 105.319C207.335 105.574 207.852 105.928 208.263 106.381C208.688 106.835 209.007 107.373 209.219 107.996C209.432 108.605 209.538 109.271 209.538 109.994C209.538 110.277 209.517 110.553 209.474 110.822C209.446 111.077 209.417 111.268 209.389 111.396H202.207C202.363 112.161 202.71 112.72 203.248 113.074C203.787 113.429 204.488 113.606 205.352 113.606C205.834 113.606 206.287 113.542 206.712 113.414C207.151 113.287 207.604 113.103 208.072 112.862L209.113 114.753C208.504 115.136 207.831 115.44 207.094 115.667C206.358 115.879 205.635 115.985 204.927 115.985ZM204.672 107.316C204.049 107.316 203.525 107.479 203.1 107.805C202.689 108.131 202.406 108.627 202.25 109.292H206.754C206.599 107.975 205.904 107.316 204.672 107.316ZM78.8355 142.73V128.877H88.0146V131.512H81.9802V134.295H87.101V136.909H81.9802V140.096H88.2271V142.73H78.8355ZM90.4074 142.73L94.062 137.248L90.6411 132.191H93.9983L95.0819 133.891C95.2377 134.189 95.4148 134.493 95.6131 134.805C95.8114 135.102 96.0027 135.4 96.1868 135.697H96.2718C96.4135 135.4 96.5551 135.095 96.6968 134.784C96.8526 134.472 97.0013 134.175 97.143 133.891L98.0779 132.191H101.35L97.9079 137.61L101.563 142.73H98.2054L96.9942 140.988C96.7959 140.691 96.5905 140.386 96.378 140.074C96.1797 139.763 95.9814 139.458 95.7831 139.161H95.6981C95.5423 139.458 95.3794 139.763 95.2094 140.074C95.0394 140.372 94.8765 140.677 94.7207 140.988L93.6796 142.73H90.4074ZM103.892 146.64V132.191H106.441L106.675 133.254H106.739C107.164 132.871 107.652 132.56 108.205 132.319C108.757 132.064 109.317 131.937 109.883 131.937C110.535 131.937 111.123 132.064 111.647 132.319C112.171 132.574 112.617 132.935 112.986 133.403C113.354 133.87 113.63 134.437 113.814 135.102C114.013 135.754 114.112 136.484 114.112 137.291C114.112 138.198 113.984 139.005 113.729 139.713C113.474 140.407 113.134 141.002 112.709 141.498C112.284 141.98 111.796 142.348 111.243 142.603C110.705 142.858 110.138 142.985 109.543 142.985C108.58 142.985 107.716 142.603 106.951 141.838H106.866L107.015 143.559V146.64H103.892ZM108.821 140.436C109.416 140.436 109.912 140.195 110.308 139.713C110.705 139.217 110.903 138.424 110.903 137.333C110.903 135.435 110.259 134.486 108.97 134.486C108.304 134.486 107.652 134.812 107.015 135.464V139.735C107.312 139.989 107.617 140.174 107.929 140.287C108.254 140.386 108.552 140.436 108.821 140.436ZM122.114 142.985C121.292 142.985 120.52 142.865 119.798 142.624C119.09 142.369 118.473 142.008 117.949 141.541C117.425 141.073 117.014 140.499 116.717 139.819C116.42 139.125 116.271 138.339 116.271 137.461C116.271 136.597 116.42 135.825 116.717 135.145C117.029 134.451 117.439 133.87 117.949 133.403C118.459 132.921 119.04 132.56 119.692 132.319C120.357 132.064 121.044 131.937 121.753 131.937C122.56 131.937 123.276 132.064 123.899 132.319C124.522 132.574 125.039 132.928 125.45 133.381C125.875 133.835 126.194 134.373 126.406 134.996C126.619 135.605 126.725 136.271 126.725 136.994C126.725 137.277 126.704 137.553 126.661 137.822C126.633 138.077 126.604 138.268 126.576 138.396H119.394C119.55 139.161 119.897 139.72 120.435 140.074C120.974 140.429 121.675 140.606 122.539 140.606C123.021 140.606 123.474 140.542 123.899 140.414C124.338 140.287 124.791 140.103 125.259 139.862L126.3 141.753C125.691 142.136 125.018 142.44 124.281 142.667C123.545 142.879 122.822 142.985 122.114 142.985ZM121.859 134.316C121.236 134.316 120.712 134.479 120.287 134.805C119.876 135.131 119.593 135.627 119.437 136.292H123.941C123.785 134.975 123.091 134.316 121.859 134.316ZM130.307 142.73V132.191H132.857L133.112 134.486H133.176C133.7 133.622 134.33 132.985 135.067 132.574C135.804 132.149 136.597 131.937 137.447 131.937C137.914 131.937 138.29 131.972 138.573 132.043C138.87 132.114 139.175 132.22 139.486 132.361L138.849 134.975C138.523 134.876 138.226 134.805 137.957 134.762C137.702 134.706 137.376 134.677 136.979 134.677C136.328 134.677 135.683 134.869 135.046 135.251C134.422 135.634 133.884 136.299 133.431 137.248V142.73H130.307ZM146.49 142.73V134.635H142.262V132.191H149.613V142.73H146.49ZM147.914 130.534C147.305 130.534 146.802 130.364 146.405 130.024C146.023 129.684 145.831 129.224 145.831 128.643C145.831 128.062 146.023 127.595 146.405 127.241C146.802 126.872 147.305 126.688 147.914 126.688C148.523 126.688 149.019 126.872 149.401 127.241C149.798 127.595 149.996 128.062 149.996 128.643C149.996 129.224 149.798 129.684 149.401 130.024C149.019 130.364 148.523 130.534 147.914 130.534ZM160.335 142.985C159.514 142.985 158.742 142.865 158.019 142.624C157.311 142.369 156.695 142.008 156.171 141.541C155.647 141.073 155.236 140.499 154.938 139.819C154.641 139.125 154.492 138.339 154.492 137.461C154.492 136.597 154.641 135.825 154.938 135.145C155.25 134.451 155.661 133.87 156.171 133.403C156.681 132.921 157.262 132.56 157.913 132.319C158.579 132.064 159.266 131.937 159.974 131.937C160.782 131.937 161.497 132.064 162.12 132.319C162.743 132.574 163.261 132.928 163.671 133.381C164.096 133.835 164.415 134.373 164.627 134.996C164.84 135.605 164.946 136.271 164.946 136.994C164.946 137.277 164.925 137.553 164.882 137.822C164.854 138.077 164.826 138.268 164.797 138.396H157.616C157.771 139.161 158.119 139.72 158.657 140.074C159.195 140.429 159.896 140.606 160.76 140.606C161.242 140.606 161.695 140.542 162.12 140.414C162.559 140.287 163.013 140.103 163.48 139.862L164.521 141.753C163.912 142.136 163.239 142.44 162.503 142.667C161.766 142.879 161.044 142.985 160.335 142.985ZM160.08 134.316C159.457 134.316 158.933 134.479 158.508 134.805C158.097 135.131 157.814 135.627 157.658 136.292H162.163C162.007 134.975 161.313 134.316 160.08 134.316ZM167.594 142.73V132.191H170.144L170.377 133.594H170.462C170.916 133.141 171.433 132.751 172.013 132.425C172.608 132.099 173.302 131.937 174.096 131.937C175.286 131.937 176.157 132.319 176.709 133.084C177.262 133.849 177.538 134.897 177.538 136.229V142.73H174.414V136.632C174.414 135.924 174.301 135.407 174.075 135.081C173.848 134.755 173.444 134.593 172.863 134.593C172.438 134.593 172.063 134.685 171.737 134.869C171.426 135.053 171.086 135.329 170.717 135.697V142.73H167.594ZM186.093 142.985C185.257 142.985 184.485 142.865 183.777 142.624C183.068 142.369 182.445 142.008 181.907 141.541C181.383 141.073 180.972 140.499 180.674 139.819C180.377 139.125 180.228 138.339 180.228 137.461C180.228 136.583 180.391 135.804 180.717 135.124C181.057 134.43 181.503 133.849 182.055 133.381C182.622 132.914 183.274 132.56 184.01 132.319C184.747 132.064 185.519 131.937 186.326 131.937C187.162 131.937 187.913 132.071 188.579 132.34C189.258 132.609 189.825 132.949 190.278 133.36L188.834 135.294C188.054 134.741 187.275 134.465 186.496 134.465C185.59 134.465 184.853 134.734 184.286 135.272C183.72 135.811 183.437 136.54 183.437 137.461C183.437 138.382 183.706 139.111 184.244 139.65C184.796 140.188 185.512 140.457 186.39 140.457C186.942 140.457 187.445 140.358 187.899 140.159C188.366 139.961 188.791 139.727 189.173 139.458L190.427 141.434C189.79 141.973 189.088 142.369 188.324 142.624C187.559 142.865 186.815 142.985 186.093 142.985ZM198.557 142.985C197.735 142.985 196.963 142.865 196.241 142.624C195.532 142.369 194.916 142.008 194.392 141.541C193.868 141.073 193.457 140.499 193.16 139.819C192.862 139.125 192.714 138.339 192.714 137.461C192.714 136.597 192.862 135.825 193.16 135.145C193.471 134.451 193.882 133.87 194.392 133.403C194.902 132.921 195.483 132.56 196.135 132.319C196.8 132.064 197.487 131.937 198.196 131.937C199.003 131.937 199.718 132.064 200.342 132.319C200.965 132.574 201.482 132.928 201.893 133.381C202.318 133.835 202.636 134.373 202.849 134.996C203.061 135.605 203.168 136.271 203.168 136.994C203.168 137.277 203.146 137.553 203.104 137.822C203.076 138.077 203.047 138.268 203.019 138.396H195.837C195.993 139.161 196.34 139.72 196.878 140.074C197.416 140.429 198.118 140.606 198.982 140.606C199.463 140.606 199.917 140.542 200.342 140.414C200.781 140.287 201.234 140.103 201.701 139.862L202.743 141.753C202.134 142.136 201.461 142.44 200.724 142.667C199.987 142.879 199.265 142.985 198.557 142.985ZM198.302 134.316C197.679 134.316 197.154 134.479 196.729 134.805C196.319 135.131 196.035 135.627 195.88 136.292H200.384C200.228 134.975 199.534 134.316 198.302 134.316Z" fill="white"/>
</svg>
