<svg width="284" height="241" viewBox="0 0 284 241" fill="none" xmlns="http://www.w3.org/2000/svg">
<rect x="2.03923" y="1.19939" width="280.022" height="238.411" stroke="black" stroke-width="2.39877"/>
<path d="M72.7556 64.8667V56.8194H57.9899C66.4064 55.0475 71.2421 51.2454 71.2421 46.3358C71.2421 45.7821 71.2421 45.0807 71.2421 44.7485C71.2421 40.2819 67.8829 35.5568 54.7046 35.5568C43.9256 35.5568 39.1268 39.4697 37.8717 44.3055C37.5395 45.376 37.318 46.8526 37.2072 48.809H48.4661C48.503 47.96 48.5768 46.5573 48.7614 45.8928C49.2782 44.1948 50.8286 43.1612 53.634 43.1612C57.2516 43.1612 58.802 44.3055 58.802 46.1512C58.802 46.4465 58.802 46.9633 58.802 47.3694C58.802 51.2454 53.5233 52.6481 36.9119 56.7456V64.8667H72.7556ZM94.8565 35.5568C82.4903 35.5568 75.6611 42.3121 75.6611 50.4333C75.6611 59.2557 82.7856 65.3097 94.8934 65.3097C106.337 65.3097 114.052 59.1081 114.052 50.5071C114.052 41.9061 106.891 35.5568 94.8565 35.5568ZM102.535 50.3963C102.535 55.4536 99.6554 57.8161 94.8565 57.8161C90.1684 57.8161 87.1045 55.3059 87.1045 50.3963C87.1045 46.1512 89.7993 43.1612 94.9303 43.1612C100.024 43.1612 102.535 46.1512 102.535 50.3963Z" fill="black"/>
<path d="M207.537 206.163V177.074H198.788C197.902 178.883 194.801 179.326 187.234 180.065V188.481L196.758 187.706V206.163H207.537ZM246.571 184.457V177.333H213.348V185.011H234.241L217.556 206.163H230.218L246.571 184.457Z" fill="black"/>
<path d="M97.3618 115.73V101.877H100.634L101.994 106.785L102.461 108.697H102.546L103.014 106.785L104.374 101.877H107.646V115.73H105.011V111.438C105.011 111.056 105.025 110.574 105.054 109.994C105.082 109.413 105.117 108.818 105.16 108.209C105.202 107.6 105.245 107.012 105.287 106.445C105.344 105.864 105.386 105.39 105.415 105.022H105.351L104.289 108.719L103.226 112.055H101.696L100.613 108.719L99.6141 105.022H99.5503C99.5928 105.39 99.6353 105.864 99.6778 106.445C99.7203 107.012 99.7628 107.6 99.8053 108.209C99.8478 108.818 99.8832 109.413 99.9115 109.994C99.9399 110.574 99.954 111.056 99.954 111.438V115.73H97.3618ZM115.244 115.985C114.55 115.985 113.877 115.865 113.226 115.624C112.588 115.369 112.015 115.008 111.505 114.541C111.009 114.073 110.612 113.499 110.315 112.819C110.017 112.125 109.869 111.339 109.869 110.461C109.869 109.583 110.017 108.804 110.315 108.124C110.612 107.43 111.009 106.849 111.505 106.381C112.015 105.914 112.588 105.56 113.226 105.319C113.877 105.064 114.55 104.937 115.244 104.937C115.938 104.937 116.604 105.064 117.242 105.319C117.893 105.56 118.467 105.914 118.963 106.381C119.473 106.849 119.876 107.43 120.174 108.124C120.471 108.804 120.62 109.583 120.62 110.461C120.62 111.339 120.471 112.125 120.174 112.819C119.876 113.499 119.473 114.073 118.963 114.541C118.467 115.008 117.893 115.369 117.242 115.624C116.604 115.865 115.938 115.985 115.244 115.985ZM115.244 113.457C115.967 113.457 116.505 113.188 116.859 112.65C117.227 112.111 117.412 111.382 117.412 110.461C117.412 109.54 117.227 108.811 116.859 108.272C116.505 107.734 115.967 107.465 115.244 107.465C114.522 107.465 113.976 107.734 113.608 108.272C113.254 108.811 113.077 109.54 113.077 110.461C113.077 111.382 113.254 112.111 113.608 112.65C113.976 113.188 114.522 113.457 115.244 113.457ZM124.075 115.73V105.191H126.625L126.88 107.486H126.944C127.468 106.622 128.098 105.985 128.835 105.574C129.571 105.149 130.365 104.937 131.214 104.937C131.682 104.937 132.057 104.972 132.341 105.043C132.638 105.114 132.943 105.22 133.254 105.361L132.617 107.975C132.291 107.876 131.994 107.805 131.724 107.762C131.469 107.706 131.144 107.677 130.747 107.677C130.095 107.677 129.451 107.869 128.813 108.251C128.19 108.634 127.652 109.299 127.199 110.248V115.73H124.075ZM135.881 115.73V105.191H138.43L138.664 106.594H138.749C139.202 106.141 139.719 105.751 140.3 105.425C140.895 105.099 141.589 104.937 142.383 104.937C143.572 104.937 144.444 105.319 144.996 106.084C145.548 106.849 145.825 107.897 145.825 109.229V115.73H142.701V109.632C142.701 108.924 142.588 108.407 142.361 108.081C142.135 107.755 141.731 107.593 141.15 107.593C140.725 107.593 140.35 107.685 140.024 107.869C139.712 108.053 139.372 108.329 139.004 108.697V115.73H135.881ZM152.998 115.73V107.635H148.77V105.191H156.122V115.73H152.998ZM154.422 103.534C153.813 103.534 153.31 103.364 152.913 103.024C152.531 102.684 152.34 102.224 152.34 101.643C152.34 101.062 152.531 100.595 152.913 100.241C153.31 99.8724 153.813 99.6883 154.422 99.6883C155.031 99.6883 155.527 99.8724 155.909 100.241C156.306 100.595 156.504 101.062 156.504 101.643C156.504 102.224 156.306 102.684 155.909 103.024C155.527 103.364 155.031 103.534 154.422 103.534ZM161.362 115.73V105.191H163.911L164.145 106.594H164.23C164.683 106.141 165.2 105.751 165.781 105.425C166.376 105.099 167.07 104.937 167.863 104.937C169.053 104.937 169.925 105.319 170.477 106.084C171.029 106.849 171.306 107.897 171.306 109.229V115.73H168.182V109.632C168.182 108.924 168.069 108.407 167.842 108.081C167.616 107.755 167.212 107.593 166.631 107.593C166.206 107.593 165.831 107.685 165.505 107.869C165.193 108.053 164.853 108.329 164.485 108.697V115.73H161.362ZM178.458 120.214C177.778 120.214 177.141 120.157 176.546 120.044C175.965 119.945 175.462 119.782 175.037 119.555C174.612 119.343 174.279 119.066 174.038 118.726C173.798 118.386 173.677 117.983 173.677 117.515C173.677 116.651 174.222 115.95 175.313 115.412V115.327C175.016 115.143 174.761 114.909 174.548 114.626C174.35 114.342 174.251 113.974 174.251 113.521C174.251 113.167 174.364 112.812 174.591 112.458C174.832 112.104 175.136 111.8 175.504 111.545V111.46C175.122 111.205 174.796 110.851 174.527 110.397C174.258 109.93 174.123 109.384 174.123 108.761C174.123 108.124 174.244 107.571 174.485 107.104C174.74 106.622 175.072 106.226 175.483 105.914C175.894 105.588 176.369 105.347 176.907 105.191C177.459 105.022 178.033 104.937 178.628 104.937C179.28 104.937 179.86 105.022 180.37 105.191H184.641V107.486H182.516C182.63 107.642 182.736 107.847 182.835 108.102C182.934 108.343 182.984 108.598 182.984 108.867C182.984 109.476 182.87 110.001 182.644 110.44C182.417 110.879 182.105 111.247 181.709 111.545C181.326 111.828 180.866 112.04 180.328 112.182C179.804 112.324 179.237 112.395 178.628 112.395C178.175 112.395 177.693 112.324 177.183 112.182C177.027 112.295 176.907 112.409 176.822 112.522C176.751 112.635 176.716 112.784 176.716 112.968C176.716 113.252 176.857 113.457 177.141 113.584C177.424 113.698 177.877 113.754 178.5 113.754H180.455C181.843 113.754 182.899 113.96 183.621 114.371C184.358 114.781 184.726 115.461 184.726 116.41C184.726 116.963 184.577 117.473 184.28 117.94C183.982 118.408 183.565 118.804 183.026 119.13C182.488 119.47 181.829 119.732 181.05 119.916C180.271 120.115 179.407 120.214 178.458 120.214ZM178.628 110.503C179.067 110.503 179.442 110.362 179.754 110.079C180.066 109.781 180.221 109.342 180.221 108.761C180.221 108.209 180.066 107.784 179.754 107.486C179.442 107.189 179.067 107.04 178.628 107.04C178.189 107.04 177.813 107.189 177.502 107.486C177.204 107.784 177.056 108.209 177.056 108.761C177.056 109.342 177.204 109.781 177.502 110.079C177.813 110.362 178.189 110.503 178.628 110.503ZM178.904 118.238C179.754 118.238 180.441 118.117 180.965 117.877C181.489 117.636 181.751 117.331 181.751 116.963C181.751 116.623 181.596 116.403 181.284 116.304C180.972 116.205 180.512 116.155 179.903 116.155H178.585C178.203 116.155 177.884 116.141 177.629 116.113C177.388 116.099 177.169 116.063 176.971 116.007C176.701 116.177 176.51 116.34 176.397 116.495C176.284 116.665 176.227 116.85 176.227 117.048C176.227 117.444 176.461 117.742 176.928 117.94C177.41 118.139 178.068 118.238 178.904 118.238ZM97.6168 142.73V128.877H102.525C103.262 128.877 103.949 128.948 104.586 129.089C105.238 129.231 105.804 129.472 106.286 129.812C106.782 130.138 107.171 130.577 107.455 131.129C107.738 131.682 107.88 132.369 107.88 133.19C107.88 134.21 107.653 135.053 107.2 135.719C106.746 136.37 106.151 136.859 105.415 137.185L108.538 142.73H105.032L102.376 137.737H100.74V142.73H97.6168ZM100.74 135.251H102.27C103.956 135.251 104.799 134.564 104.799 133.19C104.799 132.51 104.586 132.036 104.161 131.767C103.736 131.497 103.106 131.363 102.27 131.363H100.74V135.251ZM115.244 142.985C114.55 142.985 113.877 142.865 113.226 142.624C112.588 142.369 112.015 142.008 111.505 141.541C111.009 141.073 110.612 140.499 110.315 139.819C110.017 139.125 109.869 138.339 109.869 137.461C109.869 136.583 110.017 135.804 110.315 135.124C110.612 134.43 111.009 133.849 111.505 133.381C112.015 132.914 112.588 132.56 113.226 132.319C113.877 132.064 114.55 131.937 115.244 131.937C115.938 131.937 116.604 132.064 117.242 132.319C117.893 132.56 118.467 132.914 118.963 133.381C119.473 133.849 119.876 134.43 120.174 135.124C120.471 135.804 120.62 136.583 120.62 137.461C120.62 138.339 120.471 139.125 120.174 139.819C119.876 140.499 119.473 141.073 118.963 141.541C118.467 142.008 117.893 142.369 117.242 142.624C116.604 142.865 115.938 142.985 115.244 142.985ZM115.244 140.457C115.967 140.457 116.505 140.188 116.859 139.65C117.227 139.111 117.412 138.382 117.412 137.461C117.412 136.54 117.227 135.811 116.859 135.272C116.505 134.734 115.967 134.465 115.244 134.465C114.522 134.465 113.976 134.734 113.608 135.272C113.254 135.811 113.077 136.54 113.077 137.461C113.077 138.382 113.254 139.111 113.608 139.65C113.976 140.188 114.522 140.457 115.244 140.457ZM126.349 142.985C125.145 142.985 124.273 142.603 123.735 141.838C123.197 141.073 122.928 140.025 122.928 138.693V132.191H126.051V138.29C126.051 138.998 126.157 139.515 126.37 139.841C126.582 140.167 126.986 140.329 127.581 140.329C127.978 140.329 128.325 140.244 128.622 140.074C128.934 139.904 129.274 139.586 129.642 139.118V132.191H132.766V142.73H130.216L129.982 141.222H129.897C129.43 141.76 128.913 142.192 128.346 142.518C127.779 142.83 127.114 142.985 126.349 142.985ZM142.595 142.985C141.759 142.985 141.051 142.872 140.47 142.645C139.889 142.419 139.415 142.107 139.047 141.711C138.692 141.3 138.438 140.811 138.282 140.244C138.126 139.678 138.048 139.047 138.048 138.353V134.635H135.392V132.319L138.197 132.191L138.6 128.962H141.171V132.191H145.633V134.635H141.171V138.332C141.171 139.14 141.348 139.713 141.703 140.053C142.057 140.379 142.623 140.542 143.402 140.542C143.799 140.542 144.16 140.507 144.486 140.436C144.826 140.365 145.159 140.273 145.485 140.159L146.037 142.412C145.57 142.553 145.053 142.681 144.486 142.794C143.934 142.922 143.303 142.985 142.595 142.985ZM152.998 142.73V134.635H148.77V132.191H156.122V142.73H152.998ZM154.422 130.534C153.813 130.534 153.31 130.364 152.913 130.024C152.531 129.684 152.34 129.224 152.34 128.643C152.34 128.062 152.531 127.595 152.913 127.241C153.31 126.872 153.813 126.688 154.422 126.688C155.031 126.688 155.527 126.872 155.909 127.241C156.306 127.595 156.504 128.062 156.504 128.643C156.504 129.224 156.306 129.684 155.909 130.024C155.527 130.364 155.031 130.534 154.422 130.534ZM161.362 142.73V132.191H163.911L164.145 133.594H164.23C164.683 133.141 165.2 132.751 165.781 132.425C166.376 132.099 167.07 131.937 167.863 131.937C169.053 131.937 169.925 132.319 170.477 133.084C171.029 133.849 171.306 134.897 171.306 136.229V142.73H168.182V136.632C168.182 135.924 168.069 135.407 167.842 135.081C167.616 134.755 167.212 134.593 166.631 134.593C166.206 134.593 165.831 134.685 165.505 134.869C165.193 135.053 164.853 135.329 164.485 135.697V142.73H161.362ZM179.584 142.985C178.762 142.985 177.99 142.865 177.268 142.624C176.56 142.369 175.944 142.008 175.419 141.541C174.895 141.073 174.485 140.499 174.187 139.819C173.89 139.125 173.741 138.339 173.741 137.461C173.741 136.597 173.89 135.825 174.187 135.145C174.499 134.451 174.91 133.87 175.419 133.403C175.929 132.921 176.51 132.56 177.162 132.319C177.828 132.064 178.515 131.937 179.223 131.937C180.03 131.937 180.746 132.064 181.369 132.319C181.992 132.574 182.509 132.928 182.92 133.381C183.345 133.835 183.664 134.373 183.876 134.996C184.089 135.605 184.195 136.271 184.195 136.994C184.195 137.277 184.174 137.553 184.131 137.822C184.103 138.077 184.074 138.268 184.046 138.396H176.864C177.02 139.161 177.367 139.72 177.905 140.074C178.444 140.429 179.145 140.606 180.009 140.606C180.491 140.606 180.944 140.542 181.369 140.414C181.808 140.287 182.261 140.103 182.729 139.862L183.77 141.753C183.161 142.136 182.488 142.44 181.751 142.667C181.015 142.879 180.292 142.985 179.584 142.985ZM179.329 134.316C178.706 134.316 178.182 134.479 177.757 134.805C177.346 135.131 177.063 135.627 176.907 136.292H181.411C181.256 134.975 180.561 134.316 179.329 134.316Z" fill="black"/>
</svg>
