<svg width="283" height="241" viewBox="0 0 283 241" fill="none" xmlns="http://www.w3.org/2000/svg">
<rect x="1.61931" y="1.19939" width="280.022" height="238.411" stroke="white" stroke-width="2.39877"/>
<path d="M72.8767 64.8667V56.8194H58.111C66.5274 55.0475 71.3632 51.2454 71.3632 46.3358C71.3632 45.7821 71.3632 45.0807 71.3632 44.7485C71.3632 40.2819 68.004 35.5568 54.8257 35.5568C44.0467 35.5568 39.2479 39.4697 37.9928 44.3055C37.6606 45.376 37.4391 46.8526 37.3283 48.809H48.5872C48.6241 47.96 48.6979 46.5573 48.8825 45.8928C49.3993 44.1948 50.9497 43.1612 53.7551 43.1612C57.3727 43.1612 58.9231 44.3055 58.9231 46.1512C58.9231 46.4465 58.9231 46.9633 58.9231 47.3694C58.9231 51.2454 53.6444 52.6481 37.033 56.7456V64.8667H72.8767ZM94.9776 35.5568C82.6114 35.5568 75.7822 42.3121 75.7822 50.4333C75.7822 59.2557 82.9067 65.3097 95.0145 65.3097C106.458 65.3097 114.173 59.1081 114.173 50.5071C114.173 41.9061 107.012 35.5568 94.9776 35.5568ZM102.656 50.3963C102.656 55.4536 99.7765 57.8161 94.9776 57.8161C90.2895 57.8161 87.2256 55.3059 87.2256 50.3963C87.2256 46.1512 89.9204 43.1612 95.0514 43.1612C100.146 43.1612 102.656 46.1512 102.656 50.3963Z" fill="white"/>
<path d="M204.337 206.163V177.074H195.589C194.703 178.883 191.602 179.326 184.035 180.065V188.481L193.559 187.706V206.163H204.337ZM246.361 197.894V197.008C246.324 193.612 243.298 190.954 238.203 190.585C242.928 189.994 244.774 187.484 244.774 184.79V184.199C244.774 179.954 239.422 176.705 228.532 176.705C217.753 176.705 212.327 180.249 212.327 184.199V184.79C212.327 187.558 214.541 189.847 218.454 190.585C214.135 191.213 210.961 193.723 210.85 196.971V197.894C210.961 203.542 216.535 206.532 228.532 206.532C240.603 206.532 246.214 202.951 246.361 197.894ZM236.542 197.267C236.542 198.669 234.18 199.924 228.532 199.924C223.105 199.924 220.558 198.706 220.558 197.267V196.565C220.558 195.126 223.364 193.944 228.532 193.944C234.438 193.944 236.542 195.015 236.542 196.565V197.267ZM234.992 186.045C234.992 187.263 232.888 187.853 228.495 187.853C224.25 187.853 222.293 187.152 222.293 186.045V185.417C222.293 184.273 224.25 183.424 228.643 183.424C233.146 183.424 234.992 184.347 234.992 185.38V186.045Z" fill="white"/>
<path d="M73.0488 115.73L71.2003 101.877H74.4512L74.8762 109.25C74.8903 109.845 74.8974 110.418 74.8974 110.971C74.9116 111.509 74.9257 112.097 74.9399 112.735H75.0249C75.124 112.097 75.2303 111.509 75.3436 110.971C75.4711 110.418 75.5915 109.845 75.7048 109.25L76.6397 105.383H78.637L79.5082 109.25C79.6215 109.831 79.7349 110.397 79.8482 110.95C79.9615 111.502 80.0748 112.097 80.1881 112.735H80.2731C80.2873 112.097 80.2944 111.502 80.2944 110.95C80.3085 110.397 80.3298 109.831 80.3581 109.25L80.7406 101.877H83.779L82.0792 115.73H78.722L77.9146 111.438C77.8296 110.999 77.7517 110.553 77.6809 110.1C77.6101 109.646 77.5605 109.214 77.5321 108.804H77.4684C77.4259 109.214 77.3763 109.646 77.3197 110.1C77.263 110.553 77.1922 110.999 77.1072 111.438L76.2998 115.73H73.0488ZM90.2301 115.985C89.536 115.985 88.8632 115.865 88.2116 115.624C87.5741 115.369 87.0004 115.008 86.4905 114.541C85.9947 114.073 85.5981 113.499 85.3006 112.819C85.0031 112.125 84.8544 111.339 84.8544 110.461C84.8544 109.583 85.0031 108.804 85.3006 108.124C85.5981 107.43 85.9947 106.849 86.4905 106.381C87.0004 105.914 87.5741 105.56 88.2116 105.319C88.8632 105.064 89.536 104.937 90.2301 104.937C90.9242 104.937 91.59 105.064 92.2274 105.319C92.879 105.56 93.4527 105.914 93.9485 106.381C94.4585 106.849 94.8622 107.43 95.1596 108.124C95.4571 108.804 95.6059 109.583 95.6059 110.461C95.6059 111.339 95.4571 112.125 95.1596 112.819C94.8622 113.499 94.4585 114.073 93.9485 114.541C93.4527 115.008 92.879 115.369 92.2274 115.624C91.59 115.865 90.9242 115.985 90.2301 115.985ZM90.2301 113.457C90.9526 113.457 91.4908 113.188 91.845 112.65C92.2133 112.111 92.3974 111.382 92.3974 110.461C92.3974 109.54 92.2133 108.811 91.845 108.272C91.4908 107.734 90.9526 107.465 90.2301 107.465C89.5077 107.465 88.9623 107.734 88.594 108.272C88.2399 108.811 88.0628 109.54 88.0628 110.461C88.0628 111.382 88.2399 112.111 88.594 112.65C88.9623 113.188 89.5077 113.457 90.2301 113.457ZM99.061 115.73V105.191H101.611L101.866 107.486H101.929C102.454 106.622 103.084 105.985 103.821 105.574C104.557 105.149 105.35 104.937 106.2 104.937C106.668 104.937 107.043 104.972 107.326 105.043C107.624 105.114 107.928 105.22 108.24 105.361L107.603 107.975C107.277 107.876 106.979 107.805 106.71 107.762C106.455 107.706 106.129 107.677 105.733 107.677C105.081 107.677 104.437 107.869 103.799 108.251C103.176 108.634 102.638 109.299 102.184 110.248V115.73H99.061ZM110.952 115.73V100.836H114.075V109.441H114.16L118.027 105.191H121.448L117.432 109.484L121.767 115.73H118.388L115.626 111.417L114.075 113.074V115.73H110.952ZM136.39 119.13L143.381 100.644H145.994L139.003 119.13H136.39ZM162.572 115.73V101.877H165.696V113.096H171.857V115.73H162.572ZM178.946 115.73V107.635H174.718V105.191H182.069V115.73H178.946ZM180.37 103.534C179.76 103.534 179.258 103.364 178.861 103.024C178.479 102.684 178.287 102.224 178.287 101.643C178.287 101.062 178.479 100.595 178.861 100.241C179.258 99.8724 179.76 99.6883 180.37 99.6883C180.979 99.6883 181.474 99.8724 181.857 100.241C182.254 100.595 182.452 101.062 182.452 101.643C182.452 102.224 182.254 102.684 181.857 103.024C181.474 103.364 180.979 103.534 180.37 103.534ZM190.305 115.73V107.635H187.522V105.319L190.305 105.191V104.915C190.305 104.306 190.397 103.74 190.582 103.215C190.766 102.691 191.049 102.238 191.431 101.856C191.814 101.459 192.303 101.147 192.898 100.921C193.493 100.694 194.201 100.581 195.022 100.581C195.631 100.581 196.198 100.637 196.722 100.751C197.26 100.864 197.756 100.999 198.21 101.154L197.615 103.449C196.921 103.18 196.184 103.045 195.405 103.045C194.725 103.045 194.222 103.194 193.896 103.492C193.585 103.789 193.429 104.257 193.429 104.894V105.191H197.062V107.635H193.429V115.73H190.305ZM205.532 115.985C204.71 115.985 203.938 115.865 203.216 115.624C202.508 115.369 201.891 115.008 201.367 114.541C200.843 114.073 200.432 113.499 200.135 112.819C199.837 112.125 199.689 111.339 199.689 110.461C199.689 109.597 199.837 108.825 200.135 108.145C200.446 107.451 200.857 106.87 201.367 106.403C201.877 105.921 202.458 105.56 203.11 105.319C203.775 105.064 204.462 104.937 205.171 104.937C205.978 104.937 206.693 105.064 207.317 105.319C207.94 105.574 208.457 105.928 208.868 106.381C209.293 106.835 209.611 107.373 209.824 107.996C210.036 108.605 210.143 109.271 210.143 109.994C210.143 110.277 210.121 110.553 210.079 110.822C210.051 111.077 210.022 111.268 209.994 111.396H202.812C202.968 112.161 203.315 112.72 203.853 113.074C204.391 113.429 205.093 113.606 205.957 113.606C206.438 113.606 206.892 113.542 207.317 113.414C207.756 113.287 208.209 113.103 208.676 112.862L209.718 114.753C209.109 115.136 208.436 115.44 207.699 115.667C206.962 115.879 206.24 115.985 205.532 115.985ZM205.277 107.316C204.654 107.316 204.129 107.479 203.704 107.805C203.294 108.131 203.01 108.627 202.855 109.292H207.359C207.203 107.975 206.509 107.316 205.277 107.316ZM98.1686 142.73V128.877H102.822C103.544 128.877 104.21 128.933 104.819 129.047C105.442 129.146 105.981 129.33 106.434 129.599C106.887 129.868 107.241 130.223 107.496 130.662C107.766 131.101 107.9 131.653 107.9 132.319C107.9 132.631 107.851 132.942 107.751 133.254C107.666 133.566 107.525 133.856 107.326 134.125C107.128 134.394 106.88 134.635 106.583 134.847C106.285 135.06 105.931 135.216 105.52 135.315V135.4C106.512 135.584 107.263 135.938 107.773 136.462C108.283 136.986 108.538 137.716 108.538 138.651C108.538 139.359 108.403 139.968 108.134 140.478C107.865 140.988 107.489 141.413 107.008 141.753C106.526 142.079 105.959 142.327 105.308 142.497C104.67 142.653 103.976 142.73 103.226 142.73H98.1686ZM101.292 134.444H102.673C103.438 134.444 103.99 134.295 104.33 133.998C104.67 133.7 104.84 133.282 104.84 132.744C104.84 132.234 104.663 131.873 104.309 131.66C103.969 131.434 103.431 131.32 102.694 131.32H101.292V134.444ZM101.292 140.287H102.971C104.642 140.287 105.478 139.664 105.478 138.417C105.478 137.808 105.272 137.369 104.862 137.1C104.465 136.831 103.835 136.696 102.971 136.696H101.292V140.287ZM114.096 142.985C113.558 142.985 113.076 142.9 112.651 142.73C112.226 142.575 111.865 142.355 111.568 142.072C111.27 141.774 111.037 141.434 110.867 141.052C110.711 140.669 110.633 140.252 110.633 139.798C110.633 139.203 110.76 138.686 111.015 138.247C111.27 137.794 111.674 137.411 112.226 137.1C112.793 136.788 113.515 136.54 114.394 136.356C115.272 136.158 116.334 136.023 117.581 135.952C117.524 135.471 117.312 135.095 116.943 134.826C116.589 134.557 116.051 134.423 115.329 134.423C114.819 134.423 114.302 134.515 113.777 134.699C113.268 134.869 112.715 135.102 112.12 135.4L111.015 133.36C111.738 132.949 112.51 132.609 113.331 132.34C114.167 132.071 115.038 131.937 115.945 131.937C117.418 131.937 118.58 132.326 119.429 133.105C120.279 133.884 120.704 135.081 120.704 136.696V142.73H118.155L117.921 141.541H117.836C117.298 141.951 116.71 142.298 116.072 142.582C115.435 142.851 114.776 142.985 114.096 142.985ZM115.095 140.563C115.562 140.563 116.001 140.471 116.412 140.287C116.823 140.089 117.213 139.848 117.581 139.565V137.822C116.802 137.865 116.157 137.936 115.647 138.035C115.137 138.134 114.734 138.261 114.436 138.417C114.139 138.559 113.926 138.729 113.799 138.927C113.685 139.125 113.629 139.338 113.629 139.565C113.629 139.904 113.756 140.159 114.011 140.329C114.28 140.485 114.642 140.563 115.095 140.563ZM130.47 142.985C129.139 142.985 128.133 142.596 127.453 141.817C126.787 141.024 126.454 139.954 126.454 138.608V130.3H123.14V127.836H129.578V138.736C129.578 139.062 129.62 139.338 129.705 139.565C129.804 139.777 129.932 139.954 130.088 140.096C130.258 140.223 130.442 140.315 130.64 140.372C130.853 140.429 131.072 140.457 131.299 140.457C131.54 140.457 131.787 140.436 132.042 140.393C132.312 140.337 132.609 140.244 132.935 140.117L133.636 142.412C133.353 142.497 133.091 142.575 132.85 142.645C132.609 142.716 132.368 142.773 132.127 142.815C131.887 142.872 131.632 142.915 131.363 142.943C131.093 142.971 130.796 142.985 130.47 142.985ZM139.577 142.985C139.039 142.985 138.557 142.9 138.132 142.73C137.707 142.575 137.346 142.355 137.049 142.072C136.751 141.774 136.517 141.434 136.347 141.052C136.192 140.669 136.114 140.252 136.114 139.798C136.114 139.203 136.241 138.686 136.496 138.247C136.751 137.794 137.155 137.411 137.707 137.1C138.274 136.788 138.996 136.54 139.875 136.356C140.753 136.158 141.815 136.023 143.062 135.952C143.005 135.471 142.793 135.095 142.424 134.826C142.07 134.557 141.532 134.423 140.81 134.423C140.3 134.423 139.783 134.515 139.258 134.699C138.748 134.869 138.196 135.102 137.601 135.4L136.496 133.36C137.219 132.949 137.991 132.609 138.812 132.34C139.648 132.071 140.519 131.937 141.426 131.937C142.899 131.937 144.06 132.326 144.91 133.105C145.76 133.884 146.185 135.081 146.185 136.696V142.73H143.636L143.402 141.541H143.317C142.779 141.951 142.191 142.298 141.553 142.582C140.916 142.851 140.257 142.985 139.577 142.985ZM140.576 140.563C141.043 140.563 141.482 140.471 141.893 140.287C142.304 140.089 142.694 139.848 143.062 139.565V137.822C142.283 137.865 141.638 137.936 141.128 138.035C140.618 138.134 140.215 138.261 139.917 138.417C139.62 138.559 139.407 138.729 139.28 138.927C139.166 139.125 139.11 139.338 139.11 139.565C139.11 139.904 139.237 140.159 139.492 140.329C139.761 140.485 140.123 140.563 140.576 140.563ZM149.088 142.73V132.191H151.638L151.871 133.594H151.956C152.41 133.141 152.927 132.751 153.508 132.425C154.102 132.099 154.797 131.937 155.59 131.937C156.78 131.937 157.651 132.319 158.203 133.084C158.756 133.849 159.032 134.897 159.032 136.229V142.73H155.909V136.632C155.909 135.924 155.795 135.407 155.569 135.081C155.342 134.755 154.938 134.593 154.357 134.593C153.932 134.593 153.557 134.685 153.231 134.869C152.92 135.053 152.58 135.329 152.211 135.697V142.73H149.088ZM167.587 142.985C166.751 142.985 165.979 142.865 165.271 142.624C164.562 142.369 163.939 142.008 163.401 141.541C162.877 141.073 162.466 140.499 162.168 139.819C161.871 139.125 161.722 138.339 161.722 137.461C161.722 136.583 161.885 135.804 162.211 135.124C162.551 134.43 162.997 133.849 163.549 133.381C164.116 132.914 164.768 132.56 165.504 132.319C166.241 132.064 167.013 131.937 167.82 131.937C168.656 131.937 169.407 132.071 170.073 132.34C170.753 132.609 171.319 132.949 171.772 133.36L170.328 135.294C169.548 134.741 168.769 134.465 167.99 134.465C167.084 134.465 166.347 134.734 165.781 135.272C165.214 135.811 164.931 136.54 164.931 137.461C164.931 138.382 165.2 139.111 165.738 139.65C166.29 140.188 167.006 140.457 167.884 140.457C168.437 140.457 168.939 140.358 169.393 140.159C169.86 139.961 170.285 139.727 170.668 139.458L171.921 141.434C171.284 141.973 170.583 142.369 169.818 142.624C169.053 142.865 168.309 142.985 167.587 142.985ZM180.051 142.985C179.229 142.985 178.457 142.865 177.735 142.624C177.027 142.369 176.41 142.008 175.886 141.541C175.362 141.073 174.951 140.499 174.654 139.819C174.356 139.125 174.208 138.339 174.208 137.461C174.208 136.597 174.356 135.825 174.654 135.145C174.966 134.451 175.376 133.87 175.886 133.403C176.396 132.921 176.977 132.56 177.629 132.319C178.294 132.064 178.981 131.937 179.69 131.937C180.497 131.937 181.212 132.064 181.836 132.319C182.459 132.574 182.976 132.928 183.387 133.381C183.812 133.835 184.13 134.373 184.343 134.996C184.555 135.605 184.662 136.271 184.662 136.994C184.662 137.277 184.64 137.553 184.598 137.822C184.57 138.077 184.541 138.268 184.513 138.396H177.331C177.487 139.161 177.834 139.72 178.372 140.074C178.911 140.429 179.612 140.606 180.476 140.606C180.957 140.606 181.411 140.542 181.836 140.414C182.275 140.287 182.728 140.103 183.196 139.862L184.237 141.753C183.628 142.136 182.955 142.44 182.218 142.667C181.482 142.879 180.759 142.985 180.051 142.985ZM179.796 134.316C179.173 134.316 178.648 134.479 178.224 134.805C177.813 135.131 177.529 135.627 177.374 136.292H181.878C181.722 134.975 181.028 134.316 179.796 134.316Z" fill="white"/>
</svg>
