<svg width="283" height="241" viewBox="0 0 283 241" fill="none" xmlns="http://www.w3.org/2000/svg">
<rect x="1.19939" y="1.19939" width="280.022" height="238.411" stroke="black" stroke-width="2.39877"/>
<path d="M72.1072 64.8667V56.8194H57.3415C65.7579 55.0475 70.5937 51.2454 70.5937 46.3358C70.5937 45.7821 70.5937 45.0807 70.5937 44.7485C70.5937 40.2819 67.2345 35.5568 54.0561 35.5568C43.2772 35.5568 38.4783 39.4697 37.2233 44.3055C36.891 45.376 36.6695 46.8526 36.5588 48.809H47.8176C47.8545 47.96 47.9284 46.5573 48.1129 45.8928C48.6297 44.1948 50.1801 43.1612 52.9856 43.1612C56.6032 43.1612 58.1536 44.3055 58.1536 46.1512C58.1536 46.4465 58.1536 46.9633 58.1536 47.3694C58.1536 51.2454 52.8749 52.6481 36.2635 56.7456V64.8667H72.1072ZM94.2081 35.5568C81.8418 35.5568 75.0127 42.3121 75.0127 50.4333C75.0127 59.2557 82.1371 65.3097 94.245 65.3097C105.688 65.3097 113.403 59.1081 113.403 50.5071C113.403 41.9061 106.242 35.5568 94.2081 35.5568ZM101.886 50.3963C101.886 55.4536 99.0069 57.8161 94.2081 57.8161C89.52 57.8161 86.4561 55.3059 86.4561 50.3963C86.4561 46.1512 89.1508 43.1612 94.2819 43.1612C99.3761 43.1612 101.886 46.1512 101.886 50.3963Z" fill="black"/>
<path d="M202.022 206.163V177.074H193.273C192.387 178.883 189.286 179.326 181.719 180.065V188.481L191.243 187.706V206.163H202.022ZM242.274 200.81C244.304 198.411 245.227 195.199 245.227 191.692C245.227 187.816 244.119 184.014 241.019 181.283C238.029 178.514 233.23 176.816 226.474 176.816C213.924 176.816 208.571 181.32 208.571 186.672C208.571 186.967 208.571 187.263 208.571 187.521C208.645 192.135 213.518 196.085 222.562 196.085C227.397 196.085 230.35 195.199 233.747 194.055C233.747 194.424 233.673 195.162 233.636 195.421C233.377 197.267 231.458 199.444 226.954 199.444C223.484 199.444 221.749 198.891 221.048 197.968C220.827 197.673 220.679 197.303 220.679 197.082H209.863C210.011 198.448 210.232 199.001 210.749 200.109C212.816 204.243 217.467 206.569 226.954 206.569C234.19 206.569 239.321 204.317 242.274 200.81ZM233.931 188.85C232.934 189.256 230.055 190.327 226.548 190.327C221.343 190.327 219.682 188.85 219.682 187.558C219.682 187.337 219.682 186.931 219.682 186.783C219.682 185.343 221.934 183.904 226.622 183.904C230.203 183.904 233.193 185.269 233.71 187.3C233.857 187.927 233.857 188.001 233.931 188.85Z" fill="black"/>
<path d="M96.9277 115.985C96.0636 115.985 95.242 115.837 94.4629 115.539C93.698 115.228 93.018 114.774 92.4231 114.179C91.8423 113.584 91.3749 112.848 91.0207 111.97C90.6808 111.077 90.5108 110.05 90.5108 108.889C90.5108 107.741 90.6808 106.721 91.0207 105.829C91.3607 104.922 91.8281 104.157 92.4231 103.534C93.018 102.911 93.7192 102.436 94.5266 102.111C95.3341 101.785 96.1981 101.622 97.1189 101.622C97.9971 101.622 98.7904 101.806 99.4987 102.174C100.207 102.528 100.795 102.932 101.262 103.385L99.5411 105.319C99.2153 105.022 98.8541 104.781 98.4575 104.597C98.075 104.412 97.6288 104.32 97.1189 104.32C96.6231 104.32 96.1698 104.427 95.759 104.639C95.3482 104.837 94.987 105.128 94.6754 105.51C94.3779 105.893 94.1442 106.36 93.9742 106.913C93.8042 107.465 93.7192 108.088 93.7192 108.782C93.7192 110.213 94.045 111.325 94.6966 112.118C95.3482 112.897 96.1981 113.287 97.2464 113.287C97.7422 113.287 98.1954 113.174 98.6062 112.947C99.0312 112.72 99.4137 112.423 99.7536 112.055L101.475 113.946C100.327 115.306 98.8116 115.985 96.9277 115.985ZM104.569 115.73V105.191H107.118L107.373 107.486H107.437C107.961 106.622 108.592 105.985 109.328 105.574C110.065 105.149 110.858 104.937 111.708 104.937C112.175 104.937 112.551 104.972 112.834 105.043C113.132 105.114 113.436 105.22 113.748 105.361L113.11 107.975C112.784 107.876 112.487 107.805 112.218 107.762C111.963 107.706 111.637 107.677 111.24 107.677C110.589 107.677 109.944 107.869 109.307 108.251C108.684 108.634 108.145 109.299 107.692 110.248V115.73H104.569ZM121.856 115.985C121.035 115.985 120.263 115.865 119.54 115.624C118.832 115.369 118.216 115.008 117.692 114.541C117.167 114.073 116.757 113.499 116.459 112.819C116.162 112.125 116.013 111.339 116.013 110.461C116.013 109.597 116.162 108.825 116.459 108.145C116.771 107.451 117.182 106.87 117.692 106.403C118.201 105.921 118.782 105.56 119.434 105.319C120.1 105.064 120.787 104.937 121.495 104.937C122.302 104.937 123.018 105.064 123.641 105.319C124.264 105.574 124.781 105.928 125.192 106.381C125.617 106.835 125.936 107.373 126.148 107.996C126.361 108.605 126.467 109.271 126.467 109.994C126.467 110.277 126.446 110.553 126.403 110.822C126.375 111.077 126.347 111.268 126.318 111.396H119.136C119.292 112.161 119.639 112.72 120.178 113.074C120.716 113.429 121.417 113.606 122.281 113.606C122.763 113.606 123.216 113.542 123.641 113.414C124.08 113.287 124.533 113.103 125.001 112.862L126.042 114.753C125.433 115.136 124.76 115.44 124.023 115.667C123.287 115.879 122.564 115.985 121.856 115.985ZM121.601 107.316C120.978 107.316 120.454 107.479 120.029 107.805C119.618 108.131 119.335 108.627 119.179 109.292H123.683C123.528 107.975 122.834 107.316 121.601 107.316ZM132.344 115.985C131.806 115.985 131.324 115.9 130.899 115.73C130.475 115.575 130.113 115.355 129.816 115.072C129.518 114.774 129.285 114.434 129.115 114.052C128.959 113.669 128.881 113.252 128.881 112.798C128.881 112.203 129.008 111.686 129.263 111.247C129.518 110.794 129.922 110.411 130.475 110.1C131.041 109.788 131.764 109.54 132.642 109.356C133.52 109.158 134.582 109.023 135.829 108.952C135.772 108.471 135.56 108.095 135.192 107.826C134.837 107.557 134.299 107.423 133.577 107.423C133.067 107.423 132.55 107.515 132.026 107.699C131.516 107.869 130.963 108.102 130.368 108.4L129.263 106.36C129.986 105.949 130.758 105.609 131.579 105.34C132.415 105.071 133.286 104.937 134.193 104.937C135.666 104.937 136.828 105.326 137.678 106.105C138.527 106.884 138.952 108.081 138.952 109.696V115.73H136.403L136.169 114.541H136.084C135.546 114.951 134.958 115.298 134.32 115.582C133.683 115.851 133.024 115.985 132.344 115.985ZM133.343 113.563C133.81 113.563 134.25 113.471 134.66 113.287C135.071 113.089 135.461 112.848 135.829 112.565V110.822C135.05 110.865 134.405 110.936 133.895 111.035C133.385 111.134 132.982 111.261 132.684 111.417C132.387 111.559 132.174 111.729 132.047 111.927C131.934 112.125 131.877 112.338 131.877 112.565C131.877 112.904 132.004 113.159 132.259 113.329C132.528 113.485 132.89 113.563 133.343 113.563ZM148.569 115.985C147.734 115.985 147.025 115.872 146.445 115.645C145.864 115.419 145.389 115.107 145.021 114.711C144.667 114.3 144.412 113.811 144.256 113.244C144.1 112.678 144.022 112.047 144.022 111.353V107.635H141.366V105.319L144.171 105.191L144.575 101.962H147.146V105.191H151.608V107.635H147.146V111.332C147.146 112.14 147.323 112.713 147.677 113.053C148.031 113.379 148.598 113.542 149.377 113.542C149.774 113.542 150.135 113.507 150.461 113.436C150.801 113.365 151.133 113.273 151.459 113.159L152.012 115.412C151.544 115.553 151.027 115.681 150.461 115.794C149.908 115.922 149.278 115.985 148.569 115.985ZM158.973 115.73V107.635H154.744V105.191H162.096V115.73H158.973ZM160.396 103.534C159.787 103.534 159.284 103.364 158.888 103.024C158.505 102.684 158.314 102.224 158.314 101.643C158.314 101.062 158.505 100.595 158.888 100.241C159.284 99.8724 159.787 99.6883 160.396 99.6883C161.005 99.6883 161.501 99.8724 161.884 100.241C162.28 100.595 162.479 101.062 162.479 101.643C162.479 102.224 162.28 102.684 161.884 103.024C161.501 103.364 161.005 103.534 160.396 103.534ZM167.336 115.73V105.191H169.886L170.12 106.594H170.205C170.658 106.141 171.175 105.751 171.756 105.425C172.351 105.099 173.045 104.937 173.838 104.937C175.028 104.937 175.899 105.319 176.451 106.084C177.004 106.849 177.28 107.897 177.28 109.229V115.73H174.157V109.632C174.157 108.924 174.043 108.407 173.817 108.081C173.59 107.755 173.186 107.593 172.606 107.593C172.181 107.593 171.805 107.685 171.479 107.869C171.168 108.053 170.828 108.329 170.46 108.697V115.73H167.336ZM184.432 120.214C183.752 120.214 183.115 120.157 182.52 120.044C181.939 119.945 181.436 119.782 181.011 119.555C180.586 119.343 180.254 119.066 180.013 118.726C179.772 118.386 179.652 117.983 179.652 117.515C179.652 116.651 180.197 115.95 181.288 115.412V115.327C180.99 115.143 180.735 114.909 180.523 114.626C180.324 114.342 180.225 113.974 180.225 113.521C180.225 113.167 180.339 112.812 180.565 112.458C180.806 112.104 181.111 111.8 181.479 111.545V111.46C181.096 111.205 180.771 110.851 180.501 110.397C180.232 109.93 180.098 109.384 180.098 108.761C180.098 108.124 180.218 107.571 180.459 107.104C180.714 106.622 181.047 106.226 181.458 105.914C181.868 105.588 182.343 105.347 182.881 105.191C183.434 105.022 184.007 104.937 184.602 104.937C185.254 104.937 185.835 105.022 186.345 105.191H190.616V107.486H188.491C188.604 107.642 188.71 107.847 188.809 108.102C188.909 108.343 188.958 108.598 188.958 108.867C188.958 109.476 188.845 110.001 188.618 110.44C188.392 110.879 188.08 111.247 187.683 111.545C187.301 111.828 186.84 112.04 186.302 112.182C185.778 112.324 185.211 112.395 184.602 112.395C184.149 112.395 183.667 112.324 183.157 112.182C183.002 112.295 182.881 112.409 182.796 112.522C182.725 112.635 182.69 112.784 182.69 112.968C182.69 113.252 182.832 113.457 183.115 113.584C183.398 113.698 183.852 113.754 184.475 113.754H186.43C187.818 113.754 188.873 113.96 189.596 114.371C190.332 114.781 190.701 115.461 190.701 116.41C190.701 116.963 190.552 117.473 190.254 117.94C189.957 118.408 189.539 118.804 189.001 119.13C188.462 119.47 187.804 119.732 187.025 119.916C186.246 120.115 185.381 120.214 184.432 120.214ZM184.602 110.503C185.041 110.503 185.417 110.362 185.728 110.079C186.04 109.781 186.196 109.342 186.196 108.761C186.196 108.209 186.04 107.784 185.728 107.486C185.417 107.189 185.041 107.04 184.602 107.04C184.163 107.04 183.788 107.189 183.476 107.486C183.179 107.784 183.03 108.209 183.03 108.761C183.03 109.342 183.179 109.781 183.476 110.079C183.788 110.362 184.163 110.503 184.602 110.503ZM184.879 118.238C185.728 118.238 186.416 118.117 186.94 117.877C187.464 117.636 187.726 117.331 187.726 116.963C187.726 116.623 187.57 116.403 187.258 116.304C186.947 116.205 186.486 116.155 185.877 116.155H184.56C184.177 116.155 183.859 116.141 183.604 116.113C183.363 116.099 183.143 116.063 182.945 116.007C182.676 116.177 182.485 116.34 182.371 116.495C182.258 116.665 182.201 116.85 182.201 117.048C182.201 117.444 182.435 117.742 182.903 117.94C183.384 118.139 184.043 118.238 184.879 118.238ZM106.863 142.985C106.325 142.985 105.843 142.9 105.419 142.73C104.994 142.575 104.632 142.355 104.335 142.072C104.037 141.774 103.804 141.434 103.634 141.052C103.478 140.669 103.4 140.252 103.4 139.798C103.4 139.203 103.527 138.686 103.782 138.247C104.037 137.794 104.441 137.411 104.994 137.1C105.56 136.788 106.283 136.54 107.161 136.356C108.039 136.158 109.102 136.023 110.348 135.952C110.291 135.471 110.079 135.095 109.711 134.826C109.356 134.557 108.818 134.423 108.096 134.423C107.586 134.423 107.069 134.515 106.545 134.699C106.035 134.869 105.482 135.102 104.887 135.4L103.782 133.36C104.505 132.949 105.277 132.609 106.098 132.34C106.934 132.071 107.805 131.937 108.712 131.937C110.185 131.937 111.347 132.326 112.197 133.105C113.047 133.884 113.472 135.081 113.472 136.696V142.73H110.922L110.688 141.541H110.603C110.065 141.951 109.477 142.298 108.839 142.582C108.202 142.851 107.543 142.985 106.863 142.985ZM107.862 140.563C108.33 140.563 108.769 140.471 109.179 140.287C109.59 140.089 109.98 139.848 110.348 139.565V137.822C109.569 137.865 108.924 137.936 108.414 138.035C107.905 138.134 107.501 138.261 107.203 138.417C106.906 138.559 106.693 138.729 106.566 138.927C106.453 139.125 106.396 139.338 106.396 139.565C106.396 139.904 106.523 140.159 106.778 140.329C107.048 140.485 107.409 140.563 107.862 140.563ZM128.945 142.73V128.877H132.068V134.21H135.85V128.877H138.974V142.73H135.85V136.951H132.068V142.73H128.945ZM146.7 142.985C146.006 142.985 145.333 142.865 144.681 142.624C144.044 142.369 143.47 142.008 142.96 141.541C142.464 141.073 142.068 140.499 141.77 139.819C141.473 139.125 141.324 138.339 141.324 137.461C141.324 136.583 141.473 135.804 141.77 135.124C142.068 134.43 142.464 133.849 142.96 133.381C143.47 132.914 144.044 132.56 144.681 132.319C145.333 132.064 146.006 131.937 146.7 131.937C147.394 131.937 148.06 132.064 148.697 132.319C149.349 132.56 149.922 132.914 150.418 133.381C150.928 133.849 151.332 134.43 151.629 135.124C151.927 135.804 152.075 136.583 152.075 137.461C152.075 138.339 151.927 139.125 151.629 139.819C151.332 140.499 150.928 141.073 150.418 141.541C149.922 142.008 149.349 142.369 148.697 142.624C148.06 142.865 147.394 142.985 146.7 142.985ZM146.7 140.457C147.422 140.457 147.96 140.188 148.314 139.65C148.683 139.111 148.867 138.382 148.867 137.461C148.867 136.54 148.683 135.811 148.314 135.272C147.96 134.734 147.422 134.465 146.7 134.465C145.977 134.465 145.432 134.734 145.064 135.272C144.709 135.811 144.532 136.54 144.532 137.461C144.532 138.382 144.709 139.111 145.064 139.65C145.432 140.188 145.977 140.457 146.7 140.457ZM153.809 142.73V132.191H156.168L156.38 133.488H156.465C156.664 133.063 156.94 132.701 157.294 132.404C157.648 132.092 158.13 131.937 158.739 131.937C159.192 131.937 159.575 132.085 159.886 132.383C160.212 132.666 160.439 133.091 160.566 133.658C160.765 133.176 161.048 132.772 161.416 132.446C161.799 132.106 162.294 131.937 162.904 131.937C163.668 131.937 164.249 132.241 164.646 132.85C165.057 133.445 165.262 134.274 165.262 135.336V142.73H162.287V135.549C162.287 135.223 162.245 134.982 162.16 134.826C162.075 134.67 161.926 134.593 161.714 134.593C161.515 134.593 161.345 134.677 161.204 134.847C161.062 135.017 160.913 135.272 160.757 135.612V142.73H158.314V135.549C158.314 134.911 158.116 134.593 157.719 134.593C157.521 134.593 157.351 134.677 157.209 134.847C157.067 135.017 156.926 135.272 156.784 135.612V142.73H153.809ZM172.818 142.985C171.996 142.985 171.224 142.865 170.502 142.624C169.794 142.369 169.178 142.008 168.653 141.541C168.129 141.073 167.719 140.499 167.421 139.819C167.124 139.125 166.975 138.339 166.975 137.461C166.975 136.597 167.124 135.825 167.421 135.145C167.733 134.451 168.143 133.87 168.653 133.403C169.163 132.921 169.744 132.56 170.396 132.319C171.062 132.064 171.749 131.937 172.457 131.937C173.264 131.937 173.98 132.064 174.603 132.319C175.226 132.574 175.743 132.928 176.154 133.381C176.579 133.835 176.898 134.373 177.11 134.996C177.323 135.605 177.429 136.271 177.429 136.994C177.429 137.277 177.408 137.553 177.365 137.822C177.337 138.077 177.308 138.268 177.28 138.396H170.098C170.254 139.161 170.601 139.72 171.139 140.074C171.678 140.429 172.379 140.606 173.243 140.606C173.725 140.606 174.178 140.542 174.603 140.414C175.042 140.287 175.495 140.103 175.963 139.862L177.004 141.753C176.395 142.136 175.722 142.44 174.985 142.667C174.249 142.879 173.526 142.985 172.818 142.985ZM172.563 134.316C171.94 134.316 171.416 134.479 170.991 134.805C170.58 135.131 170.297 135.627 170.141 136.292H174.645C174.49 134.975 173.795 134.316 172.563 134.316Z" fill="black"/>
</svg>
