<svg width="335" height="324" viewBox="0 0 335 324" fill="none" xmlns="http://www.w3.org/2000/svg">
<path opacity="0.5" fill-rule="evenodd" clip-rule="evenodd" d="M0.509766 108.203L3.94002 106.925C29.1578 97.5248 58.2127 84.5249 76.7707 75.8244C85.4498 71.4844 90.3622 67.8967 93.1251 64.6262C95.6775 61.6049 96.5807 58.6398 96.5807 54.7713C96.5807 51.7985 95.3824 49.3798 92.9164 47.5476C90.3025 45.6056 85.9281 44.1078 79.4508 44.1078C72.4903 44.1078 67.6382 45.6018 64.6372 47.9168C61.8569 50.0616 60.0425 53.3855 60.0425 58.7542V58.7802C60.0425 59.6377 60.0425 60.6012 60.2107 62.4499L60.781 68.7168L1.69065 63.6241L1.29088 59.2312C1.26807 58.9805 1.24463 58.7299 1.2211 58.4783C1.0577 56.7308 0.889493 54.9319 0.889493 52.6849C0.889493 35.2573 10.4077 22.0374 25.0648 13.4338C39.5457 4.93348 59.2195 0.758666 80.7798 0.758666C101.978 0.758666 120.882 4.07051 134.673 11.9023C148.815 19.9332 157.443 32.6928 157.443 50.4089C157.443 60.5443 155.192 68.9239 149.819 76.2196C144.567 83.3511 136.678 88.967 126.351 94.3236C121.093 97.172 115.111 99.8023 108.704 102.23H159.341V146.907H0.509766V108.203ZM73.7549 107.498C80.0497 105.878 86.3446 104.124 92.4347 102.23C104.162 98.5823 115.131 94.4136 123.879 89.6697C144.004 79.2381 152.169 68.9962 152.169 50.4089C152.169 19.1141 122.36 6.02716 80.7798 6.02716C38.82 6.02716 6.16348 22.3384 6.16348 52.6849C6.16348 54.6719 6.30818 56.2251 6.47125 57.9757C6.49498 58.2304 6.51909 58.4893 6.54321 58.7542L54.9584 62.9269C54.7685 60.8406 54.7685 59.7026 54.7685 58.7542C54.7685 58.372 54.7762 57.9954 54.7914 57.6244C55.3121 44.9271 64.6929 38.8393 79.4508 38.8393C93.8804 38.8393 101.855 45.4776 101.855 54.7713C101.855 64.6339 96.9182 71.6515 79.0711 80.5658C60.4644 89.2904 31.2255 102.377 5.78375 111.861V141.638H154.067V107.498H73.7549ZM309.643 132.201C294.154 145.056 272.824 151.459 249.052 151.459C225.281 151.459 203.951 145.056 188.462 132.201C172.851 119.244 163.656 100.12 163.656 75.8242C163.656 51.5306 172.85 32.3625 188.454 19.3596C203.94 6.45504 225.271 0 249.052 0C272.833 0 294.165 6.45504 309.651 19.3596C325.255 32.3625 334.449 51.5306 334.449 75.8242C334.449 100.12 325.253 119.244 309.643 132.201ZM231.164 101.668C235.673 106.358 241.936 108.489 249.052 108.489C256.169 108.489 262.432 106.358 266.94 101.668C271.46 96.9663 274.916 88.9657 274.916 75.8242C274.916 62.5786 271.455 54.5295 266.933 49.8069C262.426 45.0997 256.168 42.9698 249.052 42.9698C241.937 42.9698 235.679 45.0997 231.172 49.8069C226.65 54.5295 223.189 62.5786 223.189 75.8242C223.189 88.9657 226.645 96.9663 231.164 101.668ZM329.175 75.8242C329.175 121.534 294.809 146.19 249.052 146.19C203.295 146.19 168.93 121.534 168.93 75.8242C168.93 30.1147 203.295 5.26849 249.052 5.26849C294.809 5.26849 329.175 30.1147 329.175 75.8242ZM217.915 75.8242C217.915 103.895 232.724 113.757 249.052 113.757C265.381 113.757 280.19 103.895 280.19 75.8242C280.19 47.564 265.381 37.7013 249.052 37.7013C232.724 37.7013 217.915 47.564 217.915 75.8242Z" fill="#3E3E3E"/>
<path opacity="0.5" fill-rule="evenodd" clip-rule="evenodd" d="M0.509705 280.343L3.93996 279.064C29.1577 269.664 58.2126 256.665 76.7706 247.964C85.4497 243.624 90.3621 240.036 93.125 236.766C95.6774 233.745 96.5806 230.779 96.5806 226.911C96.5806 223.938 95.3824 221.519 92.9163 219.687C90.3025 217.745 85.928 216.247 79.4507 216.247C72.4902 216.247 67.6381 217.741 64.6371 220.056C61.8568 222.201 60.0425 225.525 60.0425 230.894V230.92C60.0425 231.777 60.0424 232.741 60.2107 234.59L60.781 240.856L1.69059 235.764L1.29082 231.371C1.268 231.12 1.24457 230.87 1.22104 230.618C1.05764 228.87 0.889432 227.072 0.889432 224.825C0.889432 207.397 10.4077 194.177 25.0648 185.573C39.5457 177.073 59.2195 172.898 80.7798 172.898C101.978 172.898 120.882 176.21 134.673 184.042C148.815 192.073 157.442 204.832 157.442 222.549C157.442 232.684 155.192 241.064 149.819 248.359C144.567 255.491 136.678 261.107 126.351 266.463C121.093 269.312 115.111 271.942 108.704 274.369H159.341V319.046H0.509705V280.343ZM73.7548 279.638C80.0497 278.017 86.3445 276.264 92.4346 274.369C104.162 270.722 115.131 266.553 123.879 261.809C144.004 251.378 152.168 241.136 152.168 222.549C152.168 191.254 122.36 178.167 80.7798 178.167C38.8199 178.167 6.16342 194.478 6.16342 224.825C6.16342 226.811 6.30811 228.365 6.47119 230.115C6.49492 230.37 6.51903 230.629 6.54315 230.894L54.9583 235.067C54.7685 232.98 54.7685 231.842 54.7685 230.894C54.7685 230.512 54.7761 230.135 54.7913 229.764C55.312 217.067 64.6928 210.979 79.4507 210.979C93.8804 210.979 101.855 217.617 101.855 226.911C101.855 236.774 96.9182 243.791 79.071 252.705C60.4644 261.43 31.2254 274.517 5.78369 284V313.778H154.067V279.638H73.7548ZM309.643 304.34C294.154 317.196 272.824 323.598 249.052 323.598C225.28 323.598 203.951 317.196 188.462 304.34C172.851 291.384 163.656 272.259 163.656 247.964C163.656 223.67 172.85 204.502 188.454 191.499C203.94 178.595 225.271 172.14 249.052 172.14C272.833 172.14 294.165 178.595 309.651 191.499C325.255 204.502 334.449 223.67 334.449 247.964C334.449 272.259 325.253 291.384 309.643 304.34ZM231.164 273.808C235.673 278.498 241.936 280.628 249.052 280.628C256.169 280.628 262.432 278.498 266.94 273.808C271.46 269.106 274.916 261.105 274.916 247.964C274.916 234.718 271.455 226.669 266.933 221.947C262.426 217.239 256.168 215.109 249.052 215.109C241.937 215.109 235.679 217.239 231.172 221.947C226.65 226.669 223.189 234.718 223.189 247.964C223.189 261.105 226.645 269.106 231.164 273.808ZM329.175 247.964C329.175 293.673 294.809 318.33 249.052 318.33C203.295 318.33 168.93 293.673 168.93 247.964C168.93 202.254 203.295 177.408 249.052 177.408C294.809 177.408 329.175 202.254 329.175 247.964ZM217.915 247.964C217.915 276.034 232.724 285.897 249.052 285.897C265.381 285.897 280.19 276.034 280.19 247.964C280.19 219.704 265.381 209.841 249.052 209.841C232.724 209.841 217.915 219.704 217.915 247.964Z" fill="#3E3E3E"/>
</svg>
