<svg width="537" height="121" viewBox="0 0 537 121" fill="none" xmlns="http://www.w3.org/2000/svg">
<g style="mix-blend-mode:overlay" opacity="0.4">
<path fill-rule="evenodd" clip-rule="evenodd" d="M0 86.3293L2.73589 85.3092C22.849 77.8096 46.0225 67.4377 60.824 60.4961C67.7462 57.0334 71.6642 54.171 73.8679 51.5617C75.9036 49.1511 76.624 46.7854 76.624 43.6989C76.624 41.3272 75.6683 39.3974 73.7014 37.9356C71.6167 36.3862 68.1277 35.1912 62.9616 35.1912C57.4101 35.1912 53.5401 36.3832 51.1466 38.2302C48.9291 39.9414 47.482 42.5933 47.482 46.8767V46.8975C47.482 47.5816 47.482 48.3503 47.6161 49.8253L48.071 54.8253L0.941845 50.7621L0.622999 47.2573C0.604803 47.0573 0.586115 46.8574 0.567347 46.6566C0.437022 45.2623 0.302862 43.8271 0.302862 42.0344C0.302862 28.1298 7.8944 17.5825 19.5846 10.7181C31.1342 3.93615 46.8256 0.605297 64.0216 0.605297C80.9287 0.605297 96.0062 3.24763 107.006 9.49622C118.285 15.9036 125.166 26.0838 125.166 40.2185C125.166 48.3049 123.371 54.9905 119.086 60.8114C114.897 66.5012 108.604 70.9818 100.368 75.2556C96.1743 77.5281 91.4035 79.6267 86.2933 81.5635H126.68V117.209H0V86.3293ZM58.4187 85.7669C63.4393 84.4739 68.4599 83.0748 73.3172 81.5635C82.671 78.6533 91.4194 75.3274 98.3964 71.5425C114.448 63.2197 120.96 55.0482 120.96 40.2185C120.96 15.2501 97.1849 4.80873 64.0216 4.80873C30.5554 4.80873 4.50927 17.8226 4.50927 42.0344C4.50927 43.6196 4.62468 44.8589 4.75475 46.2556C4.77367 46.4588 4.7929 46.6653 4.81214 46.8767L43.427 50.2059C43.2756 48.5413 43.2756 47.6334 43.2756 46.8767C43.2756 46.5718 43.2817 46.2713 43.2938 45.9753C43.7091 35.8448 51.191 30.9877 62.9616 30.9877C74.4703 30.9877 80.8304 36.2841 80.8304 43.6989C80.8304 51.5678 76.8932 57.1668 62.6587 64.279C47.8185 71.2399 24.4981 81.6812 4.20641 89.2474V113.005H122.474V85.7669H58.4187ZM246.558 105.475C234.204 115.732 217.192 120.84 198.232 120.84C179.272 120.84 162.26 115.732 149.906 105.475C137.456 95.1383 130.122 79.8798 130.122 60.4959C130.122 41.1134 137.454 25.8202 149.9 15.4459C162.251 5.15012 179.265 0 198.232 0C217.199 0 234.212 5.15012 246.564 15.4459C259.009 25.8202 266.342 41.1134 266.342 60.4959C266.342 79.8798 259.008 95.1383 246.558 105.475ZM183.965 81.1152C187.561 84.8571 192.556 86.5572 198.232 86.5572C203.908 86.5572 208.903 84.8571 212.499 81.1152C216.104 77.3641 218.86 70.9808 218.86 60.4959C218.86 49.928 216.1 43.506 212.493 39.7381C208.898 35.9825 203.907 34.2832 198.232 34.2832C192.557 34.2832 187.566 35.9825 183.971 39.7381C180.364 43.506 177.604 49.928 177.604 60.4959C177.604 70.9808 180.36 77.3641 183.965 81.1152ZM262.136 60.4959C262.136 96.9649 234.727 116.637 198.232 116.637C161.737 116.637 134.328 96.9649 134.328 60.4959C134.328 24.0269 161.737 4.20344 198.232 4.20344C234.727 4.20344 262.136 24.0269 262.136 60.4959ZM173.397 60.4959C173.397 82.8918 185.209 90.7606 198.232 90.7606C211.255 90.7606 223.067 82.8918 223.067 60.4959C223.067 37.9486 211.255 30.0798 198.232 30.0798C185.209 30.0798 173.397 37.9486 173.397 60.4959Z" fill="#383838"/>
</g>
<g style="mix-blend-mode:overlay" opacity="0.4">
<path fill-rule="evenodd" clip-rule="evenodd" d="M270.658 86.3293L273.394 85.3092C293.507 77.8096 316.681 67.4377 331.482 60.4961C338.404 57.0334 342.322 54.171 344.526 51.5617C346.562 49.1511 347.282 46.7854 347.282 43.6989C347.282 41.3272 346.326 39.3974 344.36 37.9356C342.275 36.3862 338.786 35.1912 333.62 35.1912C328.068 35.1912 324.198 36.3832 321.805 38.2302C319.587 39.9414 318.14 42.5933 318.14 46.8767V46.8975C318.14 47.5816 318.14 48.3503 318.274 49.8253L318.729 54.8253L271.6 50.7621L271.281 47.2573C271.263 47.0573 271.244 46.8574 271.226 46.6566C271.095 45.2623 270.961 43.8271 270.961 42.0344C270.961 28.1298 278.553 17.5825 290.243 10.7181C301.792 3.93615 317.484 0.605297 334.68 0.605297C351.587 0.605297 366.664 3.24763 377.664 9.49622C388.943 15.9036 395.824 26.0838 395.824 40.2185C395.824 48.3049 394.029 54.9905 389.744 60.8114C385.555 66.5012 379.263 70.9818 371.027 75.2556C366.832 77.5281 362.062 79.6267 356.952 81.5635H397.339V117.209H270.658V86.3293ZM329.077 85.7669C334.097 84.4739 339.118 83.0748 343.975 81.5635C353.329 78.6533 362.078 75.3274 369.055 71.5425C385.106 63.2197 391.618 55.0482 391.618 40.2185C391.618 15.2501 367.843 4.80873 334.68 4.80873C301.214 4.80873 275.167 17.8226 275.167 42.0344C275.167 43.6196 275.283 44.8589 275.413 46.2556C275.432 46.4588 275.451 46.6653 275.47 46.8767L314.085 50.2059C313.934 48.5413 313.934 47.6334 313.934 46.8767C313.934 46.5718 313.94 46.2713 313.952 45.9753C314.367 35.8448 321.849 30.9877 333.62 30.9877C345.129 30.9877 351.489 36.2841 351.489 43.6989C351.489 51.5678 347.551 57.1668 333.317 64.279C318.477 71.2399 295.156 81.6812 274.865 89.2474V113.005H393.132V85.7669H329.077ZM517.216 105.475C504.862 115.732 487.85 120.84 468.89 120.84C449.93 120.84 432.918 115.732 420.565 105.475C408.114 95.1383 400.78 79.8798 400.78 60.4959C400.78 41.1134 408.113 25.8202 420.558 15.4459C432.91 5.15012 449.923 0 468.89 0C487.857 0 504.871 5.15012 517.222 15.4459C529.668 25.8202 537 41.1134 537 60.4959C537 79.8798 529.666 95.1383 517.216 105.475ZM454.623 81.1152C458.219 84.8571 463.214 86.5572 468.89 86.5572C474.566 86.5572 479.561 84.8571 483.157 81.1152C486.762 77.3641 489.518 70.9808 489.518 60.4959C489.518 49.928 486.758 43.506 483.151 39.7381C479.557 35.9825 474.565 34.2832 468.89 34.2832C463.215 34.2832 458.224 35.9825 454.629 39.7381C451.022 43.506 448.262 49.928 448.262 60.4959C448.262 70.9808 451.018 77.3641 454.623 81.1152ZM532.794 60.4959C532.794 96.9649 505.385 116.637 468.89 116.637C432.395 116.637 404.986 96.9649 404.986 60.4959C404.986 24.0269 432.395 4.20344 468.89 4.20344C505.385 4.20344 532.794 24.0269 532.794 60.4959ZM444.055 60.4959C444.055 82.8918 455.867 90.7606 468.89 90.7606C481.913 90.7606 493.725 82.8918 493.725 60.4959C493.725 37.9486 481.913 30.0798 468.89 30.0798C455.867 30.0798 444.055 37.9486 444.055 60.4959Z" fill="#383838"/>
</g>
</svg>
