<svg width="1828" height="46" viewBox="0 0 1828 46" fill="none" xmlns="http://www.w3.org/2000/svg">
<rect width="1828" height="46" fill="url(#paint0_linear)"/>
<path d="M406.117 29H408.072L409.041 24.784C409.211 24.104 409.313 23.424 409.415 22.744H409.466C409.551 23.424 409.687 24.104 409.84 24.784L410.826 29H412.832L414.396 17.848H412.628L411.965 24.58C411.88 25.498 411.846 26.127 411.795 27.198H411.727C411.54 26.127 411.404 25.498 411.183 24.58L410.231 20.704H408.803L407.8 24.58C407.596 25.515 407.443 26.127 407.256 27.198H407.205C407.154 26.127 407.103 25.515 407.018 24.58L406.338 17.848H404.485L406.117 29ZM420.135 29.204C421.41 29.204 422.515 28.779 423.365 28.218L422.77 27.147C422.022 27.606 421.274 27.878 420.356 27.878C418.724 27.878 417.5 27.045 417.313 25.328H423.637C423.671 25.107 423.705 24.767 423.705 24.41C423.705 22.098 422.328 20.483 419.88 20.483C417.67 20.483 415.63 22.132 415.63 24.835C415.63 27.606 417.619 29.204 420.135 29.204ZM419.931 21.809C421.223 21.809 422.073 22.574 422.192 24.087H417.347C417.602 22.608 418.673 21.809 419.931 21.809ZM428.867 23.322C430.499 22.506 431.434 21.095 431.434 19.361C431.434 17.95 430.771 17.134 429.785 17.134C429.003 17.134 428.442 17.712 428.442 18.545C428.442 19.327 428.969 19.854 429.734 19.854C429.87 19.854 430.006 19.82 430.142 19.769C430.074 20.925 429.428 21.792 428.34 22.37L428.867 23.322ZM439.094 29H440.998L444.33 20.687H442.715L440.964 25.209C440.641 26.042 440.386 26.858 440.097 27.674H440.029C439.74 26.858 439.468 26.042 439.145 25.209L437.394 20.687H435.694L439.094 29ZM450.715 29.204C451.99 29.204 453.095 28.779 453.945 28.218L453.35 27.147C452.602 27.606 451.854 27.878 450.936 27.878C449.304 27.878 448.08 27.045 447.893 25.328H454.217C454.251 25.107 454.285 24.767 454.285 24.41C454.285 22.098 452.908 20.483 450.46 20.483C448.25 20.483 446.21 22.132 446.21 24.835C446.21 27.606 448.199 29.204 450.715 29.204ZM450.511 21.809C451.803 21.809 452.653 22.574 452.772 24.087H447.927C448.182 22.608 449.253 21.809 450.511 21.809ZM471.102 29.204C472.377 29.204 473.482 28.779 474.332 28.218L473.737 27.147C472.989 27.606 472.241 27.878 471.323 27.878C469.691 27.878 468.467 27.045 468.28 25.328H474.604C474.638 25.107 474.672 24.767 474.672 24.41C474.672 22.098 473.295 20.483 470.847 20.483C468.637 20.483 466.597 22.132 466.597 24.835C466.597 27.606 468.586 29.204 471.102 29.204ZM470.898 21.809C472.19 21.809 473.04 22.574 473.159 24.087H468.314C468.569 22.608 469.64 21.809 470.898 21.809ZM476.655 29H478.44L479.664 27.232C479.987 26.722 480.31 26.229 480.616 25.736H480.684C481.041 26.212 481.415 26.756 481.738 27.232L483.064 29H484.9L481.806 24.852L484.696 20.687H482.911L481.806 22.37C481.534 22.829 481.211 23.339 480.922 23.798H480.854C480.548 23.339 480.208 22.846 479.919 22.387L478.712 20.687H476.876L479.749 24.682L476.655 29ZM492.543 29.204C493.614 29.204 494.43 28.983 495.178 28.728L494.838 27.487C494.26 27.708 493.665 27.844 492.934 27.844C491.421 27.844 490.928 27.147 490.928 25.719V22.047H494.855V20.687H490.928V18.052H489.534L489.313 20.687L486.967 20.772V22.047H489.245V25.719C489.245 27.793 490.078 29.204 492.543 29.204ZM501.682 29.204C502.957 29.204 504.062 28.779 504.912 28.218L504.317 27.147C503.569 27.606 502.821 27.878 501.903 27.878C500.271 27.878 499.047 27.045 498.86 25.328H505.184C505.218 25.107 505.252 24.767 505.252 24.41C505.252 22.098 503.875 20.483 501.427 20.483C499.217 20.483 497.177 22.132 497.177 24.835C497.177 27.606 499.166 29.204 501.682 29.204ZM501.478 21.809C502.77 21.809 503.62 22.574 503.739 24.087H498.894C499.149 22.608 500.22 21.809 501.478 21.809ZM507.762 29H509.445V23.271C510.295 22.387 510.924 21.945 511.808 21.945C513.066 21.945 513.542 22.625 513.542 24.07V29H515.225V23.849C515.225 21.69 514.341 20.483 512.403 20.483C511.111 20.483 510.176 21.163 509.343 22.03H509.275L509.139 20.687H507.762V29ZM520.998 29.204C521.984 29.204 522.936 28.643 523.599 27.98H523.65L523.786 29H525.163V16.947H523.48V20.041L523.565 21.52H523.514C522.834 20.857 522.103 20.483 521.134 20.483C519.213 20.483 517.411 22.149 517.411 24.852C517.411 27.606 518.839 29.204 520.998 29.204ZM521.389 27.81C519.978 27.81 519.145 26.739 519.145 24.835C519.145 23.033 520.216 21.894 521.508 21.894C522.171 21.894 522.817 22.115 523.48 22.744V26.688C522.834 27.436 522.137 27.81 521.389 27.81ZM532.262 29.204C533.537 29.204 534.642 28.779 535.492 28.218L534.897 27.147C534.149 27.606 533.401 27.878 532.483 27.878C530.851 27.878 529.627 27.045 529.44 25.328H535.764C535.798 25.107 535.832 24.767 535.832 24.41C535.832 22.098 534.455 20.483 532.007 20.483C529.797 20.483 527.757 22.132 527.757 24.835C527.757 27.606 529.746 29.204 532.262 29.204ZM532.058 21.809C533.35 21.809 534.2 22.574 534.319 24.087H529.474C529.729 22.608 530.8 21.809 532.058 21.809ZM541.385 29.204C542.371 29.204 543.323 28.643 543.986 27.98H544.037L544.173 29H545.55V16.947H543.867V20.041L543.952 21.52H543.901C543.221 20.857 542.49 20.483 541.521 20.483C539.6 20.483 537.798 22.149 537.798 24.852C537.798 27.606 539.226 29.204 541.385 29.204ZM541.776 27.81C540.365 27.81 539.532 26.739 539.532 24.835C539.532 23.033 540.603 21.894 541.895 21.894C542.558 21.894 543.204 22.115 543.867 22.744V26.688C543.221 27.436 542.524 27.81 541.776 27.81ZM562.332 29.204C564.508 29.204 566.48 27.606 566.48 24.852C566.48 22.081 564.508 20.483 562.332 20.483C560.156 20.483 558.184 22.081 558.184 24.852C558.184 27.606 560.156 29.204 562.332 29.204ZM562.332 27.827C560.853 27.827 559.918 26.637 559.918 24.852C559.918 23.067 560.853 21.877 562.332 21.877C563.811 21.877 564.746 23.067 564.746 24.852C564.746 26.637 563.811 27.827 562.332 27.827ZM571.506 29.204C572.764 29.204 573.699 28.558 574.515 27.623H574.583L574.719 29H576.096V20.687H574.413V26.382C573.597 27.368 572.951 27.759 572.084 27.759C570.826 27.759 570.35 27.079 570.35 25.617V20.687H568.667V25.838C568.667 28.014 569.551 29.204 571.506 29.204ZM579.965 29H581.648V24.274C582.566 22.608 583.722 21.996 584.912 21.996C585.541 21.996 585.864 22.081 586.425 22.268L586.799 20.823C586.289 20.585 585.813 20.483 585.167 20.483C583.688 20.483 582.396 21.282 581.546 22.625H581.495L581.359 20.687H579.965V29ZM603.208 29.204C605.656 29.204 607.016 28.065 607.016 26.671C607.016 25.379 606.336 24.682 603.616 24.087C602.001 23.747 601.338 23.475 601.338 22.829C601.338 22.251 601.797 21.775 603.055 21.775C604.075 21.775 605.027 22.098 605.826 22.625L606.608 21.571C605.775 21.01 604.517 20.483 603.208 20.483C600.896 20.483 599.655 21.52 599.655 22.914C599.655 24.172 600.692 24.92 602.885 25.379C604.976 25.821 605.316 26.178 605.316 26.773C605.316 27.402 604.704 27.912 603.429 27.912C601.984 27.912 600.862 27.504 599.893 26.824L599.145 27.912C600.148 28.609 601.627 29.204 603.208 29.204ZM613.401 29H615.084V20.687H609.678V22.047H613.401V29ZM614.098 19.072C614.812 19.072 615.356 18.596 615.356 17.865C615.356 17.151 614.812 16.658 614.098 16.658C613.384 16.658 612.84 17.151 612.84 17.865C612.84 18.596 613.384 19.072 614.098 19.072ZM623.34 32.757C626.213 32.757 628.049 31.431 628.049 29.816C628.049 28.405 626.978 27.827 624.819 27.827H623.051C621.98 27.827 621.402 27.555 621.402 26.96C621.402 26.603 621.606 26.331 621.98 26.093C622.422 26.28 622.915 26.365 623.323 26.365C625.142 26.365 626.587 25.345 626.587 23.526C626.587 22.931 626.298 22.37 625.975 22.013H627.998V20.687H624.581C624.207 20.551 623.799 20.483 623.323 20.483C621.521 20.483 619.974 21.622 619.974 23.475C619.974 24.461 620.433 25.192 621.011 25.617V25.685C620.399 26.11 620.025 26.705 620.025 27.249C620.025 27.946 620.433 28.371 620.875 28.626V28.694C619.991 29.187 619.532 29.816 619.532 30.496C619.532 31.958 620.977 32.757 623.34 32.757ZM623.323 25.277C622.371 25.277 621.572 24.597 621.572 23.475C621.572 22.387 622.371 21.673 623.323 21.673C624.275 21.673 625.057 22.387 625.057 23.475C625.057 24.597 624.275 25.277 623.323 25.277ZM623.51 31.584C621.861 31.584 620.943 31.091 620.943 30.292C620.943 29.867 621.198 29.442 621.895 29.051C622.235 29.153 622.643 29.187 623.153 29.187H624.632C625.805 29.187 626.4 29.374 626.4 30.105C626.4 30.87 625.278 31.584 623.51 31.584ZM630.082 29H631.765V23.271C632.615 22.387 633.244 21.945 634.128 21.945C635.386 21.945 635.862 22.625 635.862 24.07V29H637.545V23.849C637.545 21.69 636.661 20.483 634.723 20.483C633.431 20.483 632.496 21.163 631.663 22.03H631.595L631.459 20.687H630.082V29ZM640.156 24.002H647.602V22.778H640.156V24.002ZM653.053 29.204C654.311 29.204 655.246 28.558 656.062 27.623H656.13L656.266 29H657.643V20.687H655.96V26.382C655.144 27.368 654.498 27.759 653.631 27.759C652.373 27.759 651.897 27.079 651.897 25.617V20.687H650.214V25.838C650.214 28.014 651.098 29.204 653.053 29.204ZM660.662 32.4H662.345V29.68L662.26 28.184H662.311C663.008 28.83 663.909 29.204 664.674 29.204C666.629 29.204 668.414 27.555 668.414 24.716C668.414 22.149 667.19 20.483 664.997 20.483C664.011 20.483 662.974 20.993 662.226 21.707H662.175L662.039 20.687H660.662V32.4ZM664.351 27.81C663.824 27.81 663.042 27.572 662.345 26.943V23.016C663.093 22.234 663.858 21.894 664.538 21.894C666.034 21.894 666.68 22.999 666.68 24.733C666.68 26.705 665.677 27.81 664.351 27.81ZM674.561 29.204C677.009 29.204 678.369 28.065 678.369 26.671C678.369 25.379 677.689 24.682 674.969 24.087C673.354 23.747 672.691 23.475 672.691 22.829C672.691 22.251 673.15 21.775 674.408 21.775C675.428 21.775 676.38 22.098 677.179 22.625L677.961 21.571C677.128 21.01 675.87 20.483 674.561 20.483C672.249 20.483 671.008 21.52 671.008 22.914C671.008 24.172 672.045 24.92 674.238 25.379C676.329 25.821 676.669 26.178 676.669 26.773C676.669 27.402 676.057 27.912 674.782 27.912C673.337 27.912 672.215 27.504 671.246 26.824L670.498 27.912C671.501 28.609 672.98 29.204 674.561 29.204ZM684.092 24.954H685.214L685.435 19.378L685.486 17.61H683.82L683.871 19.378L684.092 24.954ZM684.653 29.204C685.401 29.204 686.013 28.643 686.013 27.776C686.013 26.926 685.401 26.365 684.653 26.365C683.905 26.365 683.293 26.926 683.293 27.776C683.293 28.643 683.905 29.204 684.653 29.204ZM701.503 29H703.203V24.478H705.022L707.555 29H709.476L706.739 24.257C708.15 23.832 709.085 22.795 709.085 21.078C709.085 18.681 707.385 17.865 705.09 17.865H701.503V29ZM703.203 23.101V19.225H704.886C706.518 19.225 707.402 19.718 707.402 21.078C707.402 22.438 706.518 23.101 704.886 23.101H703.203ZM715.743 29.204C717.018 29.204 718.123 28.779 718.973 28.218L718.378 27.147C717.63 27.606 716.882 27.878 715.964 27.878C714.332 27.878 713.108 27.045 712.921 25.328H719.245C719.279 25.107 719.313 24.767 719.313 24.41C719.313 22.098 717.936 20.483 715.488 20.483C713.278 20.483 711.238 22.132 711.238 24.835C711.238 27.606 713.227 29.204 715.743 29.204ZM715.539 21.809C716.831 21.809 717.681 22.574 717.8 24.087H712.955C713.21 22.608 714.281 21.809 715.539 21.809ZM725.273 32.757C728.146 32.757 729.982 31.431 729.982 29.816C729.982 28.405 728.911 27.827 726.752 27.827H724.984C723.913 27.827 723.335 27.555 723.335 26.96C723.335 26.603 723.539 26.331 723.913 26.093C724.355 26.28 724.848 26.365 725.256 26.365C727.075 26.365 728.52 25.345 728.52 23.526C728.52 22.931 728.231 22.37 727.908 22.013H729.931V20.687H726.514C726.14 20.551 725.732 20.483 725.256 20.483C723.454 20.483 721.907 21.622 721.907 23.475C721.907 24.461 722.366 25.192 722.944 25.617V25.685C722.332 26.11 721.958 26.705 721.958 27.249C721.958 27.946 722.366 28.371 722.808 28.626V28.694C721.924 29.187 721.465 29.816 721.465 30.496C721.465 31.958 722.91 32.757 725.273 32.757ZM725.256 25.277C724.304 25.277 723.505 24.597 723.505 23.475C723.505 22.387 724.304 21.673 725.256 21.673C726.208 21.673 726.99 22.387 726.99 23.475C726.99 24.597 726.208 25.277 725.256 25.277ZM725.443 31.584C723.794 31.584 722.876 31.091 722.876 30.292C722.876 29.867 723.131 29.442 723.828 29.051C724.168 29.153 724.576 29.187 725.086 29.187H726.565C727.738 29.187 728.333 29.374 728.333 30.105C728.333 30.87 727.211 31.584 725.443 31.584ZM735.722 29H737.405V20.687H731.999V22.047H735.722V29ZM736.419 19.072C737.133 19.072 737.677 18.596 737.677 17.865C737.677 17.151 737.133 16.658 736.419 16.658C735.705 16.658 735.161 17.151 735.161 17.865C735.161 18.596 735.705 19.072 736.419 19.072ZM745.915 29.204C748.363 29.204 749.723 28.065 749.723 26.671C749.723 25.379 749.043 24.682 746.323 24.087C744.708 23.747 744.045 23.475 744.045 22.829C744.045 22.251 744.504 21.775 745.762 21.775C746.782 21.775 747.734 22.098 748.533 22.625L749.315 21.571C748.482 21.01 747.224 20.483 745.915 20.483C743.603 20.483 742.362 21.52 742.362 22.914C742.362 24.172 743.399 24.92 745.592 25.379C747.683 25.821 748.023 26.178 748.023 26.773C748.023 27.402 747.411 27.912 746.136 27.912C744.691 27.912 743.569 27.504 742.6 26.824L741.852 27.912C742.855 28.609 744.334 29.204 745.915 29.204ZM757.57 29.204C758.641 29.204 759.457 28.983 760.205 28.728L759.865 27.487C759.287 27.708 758.692 27.844 757.961 27.844C756.448 27.844 755.955 27.147 755.955 25.719V22.047H759.882V20.687H755.955V18.052H754.561L754.34 20.687L751.994 20.772V22.047H754.272V25.719C754.272 27.793 755.105 29.204 757.57 29.204ZM766.71 29.204C767.985 29.204 769.09 28.779 769.94 28.218L769.345 27.147C768.597 27.606 767.849 27.878 766.931 27.878C765.299 27.878 764.075 27.045 763.888 25.328H770.212C770.246 25.107 770.28 24.767 770.28 24.41C770.28 22.098 768.903 20.483 766.455 20.483C764.245 20.483 762.205 22.132 762.205 24.835C762.205 27.606 764.194 29.204 766.71 29.204ZM766.506 21.809C767.798 21.809 768.648 22.574 768.767 24.087H763.922C764.177 22.608 765.248 21.809 766.506 21.809ZM773.639 29H775.322V24.274C776.24 22.608 777.396 21.996 778.586 21.996C779.215 21.996 779.538 22.081 780.099 22.268L780.473 20.823C779.963 20.585 779.487 20.483 778.841 20.483C777.362 20.483 776.07 21.282 775.22 22.625H775.169L775.033 20.687H773.639V29ZM793.958 32.485C795.896 32.485 796.916 31.295 797.579 29.527L801.132 20.687H799.534L797.885 25.022C797.613 25.787 797.307 26.654 797.035 27.453H796.967C796.627 26.637 796.304 25.77 795.998 25.022L794.128 20.687H792.445L796.236 28.949L796.015 29.527C795.641 30.445 794.978 31.125 793.873 31.125C793.618 31.125 793.363 31.074 793.159 31.006L792.819 32.315C793.125 32.417 793.55 32.485 793.958 32.485ZM806.973 29.204C809.149 29.204 811.121 27.606 811.121 24.852C811.121 22.081 809.149 20.483 806.973 20.483C804.797 20.483 802.825 22.081 802.825 24.852C802.825 27.606 804.797 29.204 806.973 29.204ZM806.973 27.827C805.494 27.827 804.559 26.637 804.559 24.852C804.559 23.067 805.494 21.877 806.973 21.877C808.452 21.877 809.387 23.067 809.387 24.852C809.387 26.637 808.452 27.827 806.973 27.827ZM816.146 29.204C817.404 29.204 818.339 28.558 819.155 27.623H819.223L819.359 29H820.736V20.687H819.053V26.382C818.237 27.368 817.591 27.759 816.724 27.759C815.466 27.759 814.99 27.079 814.99 25.617V20.687H813.307V25.838C813.307 28.014 814.191 29.204 816.146 29.204ZM824.606 29H826.289V24.274C827.207 22.608 828.363 21.996 829.553 21.996C830.182 21.996 830.505 22.081 831.066 22.268L831.44 20.823C830.93 20.585 830.454 20.483 829.808 20.483C828.329 20.483 827.037 21.282 826.187 22.625H826.136L826 20.687H824.606V29ZM849.31 29.204C850.381 29.204 851.197 28.983 851.945 28.728L851.605 27.487C851.027 27.708 850.432 27.844 849.701 27.844C848.188 27.844 847.695 27.147 847.695 25.719V22.047H851.622V20.687H847.695V18.052H846.301L846.08 20.687L843.734 20.772V22.047H846.012V25.719C846.012 27.793 846.845 29.204 849.31 29.204ZM858.45 29.204C859.725 29.204 860.83 28.779 861.68 28.218L861.085 27.147C860.337 27.606 859.589 27.878 858.671 27.878C857.039 27.878 855.815 27.045 855.628 25.328H861.952C861.986 25.107 862.02 24.767 862.02 24.41C862.02 22.098 860.643 20.483 858.195 20.483C855.985 20.483 853.945 22.132 853.945 24.835C853.945 27.606 855.934 29.204 858.45 29.204ZM858.246 21.809C859.538 21.809 860.388 22.574 860.507 24.087H855.662C855.917 22.608 856.988 21.809 858.246 21.809ZM867.13 29.204C868.269 29.204 869.425 28.609 870.309 27.929H870.36L870.496 29H871.873V24.002C871.873 21.809 870.7 20.483 868.405 20.483C866.96 20.483 865.583 21.095 864.665 21.656L865.294 22.795C866.11 22.319 867.096 21.86 868.116 21.86C869.595 21.86 870.139 22.693 870.19 23.713C866.008 24.036 864.325 24.937 864.325 26.807C864.325 28.269 865.532 29.204 867.13 29.204ZM867.606 27.861C866.705 27.861 865.957 27.521 865.957 26.688C865.957 25.685 866.926 25.039 870.19 24.784V26.756C869.34 27.453 868.49 27.861 867.606 27.861ZM874.111 29H875.76V23.084C876.117 22.319 876.457 21.928 876.967 21.928C877.494 21.928 877.715 22.37 877.715 23.203V29H879.177V23.084C879.568 22.319 879.857 21.928 880.367 21.928C880.894 21.928 881.132 22.37 881.132 23.203V29H882.781V23.084C882.781 21.418 882.101 20.483 880.928 20.483C879.976 20.483 879.449 21.061 879.007 21.911C878.786 20.959 878.276 20.483 877.477 20.483C876.525 20.483 875.998 21.027 875.607 21.775H875.573L875.437 20.687H874.111V29ZM899.138 29.204C901.076 29.204 902.861 27.555 902.861 24.716C902.861 22.149 901.62 20.483 899.427 20.483C898.492 20.483 897.489 20.959 896.775 21.673H896.724L896.792 20.143V16.947H895.109V29H896.435L896.588 28.082H896.639C897.387 28.796 898.339 29.204 899.138 29.204ZM898.815 27.81C898.271 27.81 897.489 27.572 896.792 26.943V23.016C897.54 22.234 898.305 21.894 898.985 21.894C900.481 21.894 901.127 22.999 901.127 24.733C901.127 26.705 900.124 27.81 898.815 27.81ZM906.085 32.485C908.023 32.485 909.043 31.295 909.706 29.527L913.259 20.687H911.661L910.012 25.022C909.74 25.787 909.434 26.654 909.162 27.453H909.094C908.754 26.637 908.431 25.77 908.125 25.022L906.255 20.687H904.572L908.363 28.949L908.142 29.527C907.768 30.445 907.105 31.125 906 31.125C905.745 31.125 905.49 31.074 905.286 31.006L904.946 32.315C905.252 32.417 905.677 32.485 906.085 32.485ZM1063.37 29.204C1064.44 29.204 1065.26 28.983 1066.01 28.728L1065.67 27.487C1065.09 27.708 1064.49 27.844 1063.76 27.844C1062.25 27.844 1061.76 27.147 1061.76 25.719V22.047H1065.68V20.687H1061.76V18.052H1060.36L1060.14 20.687L1057.8 20.772V22.047H1060.07V25.719C1060.07 27.793 1060.91 29.204 1063.37 29.204ZM1072 29.204C1074.18 29.204 1076.15 27.606 1076.15 24.852C1076.15 22.081 1074.18 20.483 1072 20.483C1069.82 20.483 1067.85 22.081 1067.85 24.852C1067.85 27.606 1069.82 29.204 1072 29.204ZM1072 27.827C1070.52 27.827 1069.59 26.637 1069.59 24.852C1069.59 23.067 1070.52 21.877 1072 21.877C1073.48 21.877 1074.41 23.067 1074.41 24.852C1074.41 26.637 1073.48 27.827 1072 27.827ZM1092.49 29.204C1094.94 29.204 1096.3 28.065 1096.3 26.671C1096.3 25.379 1095.62 24.682 1092.9 24.087C1091.28 23.747 1090.62 23.475 1090.62 22.829C1090.62 22.251 1091.08 21.775 1092.34 21.775C1093.36 21.775 1094.31 22.098 1095.11 22.625L1095.89 21.571C1095.06 21.01 1093.8 20.483 1092.49 20.483C1090.18 20.483 1088.94 21.52 1088.94 22.914C1088.94 24.172 1089.97 24.92 1092.17 25.379C1094.26 25.821 1094.6 26.178 1094.6 26.773C1094.6 27.402 1093.99 27.912 1092.71 27.912C1091.27 27.912 1090.14 27.504 1089.17 26.824L1088.43 27.912C1089.43 28.609 1090.91 29.204 1092.49 29.204ZM1103.09 29.204C1104.37 29.204 1105.47 28.779 1106.32 28.218L1105.73 27.147C1104.98 27.606 1104.23 27.878 1103.31 27.878C1101.68 27.878 1100.46 27.045 1100.27 25.328H1106.59C1106.63 25.107 1106.66 24.767 1106.66 24.41C1106.66 22.098 1105.28 20.483 1102.84 20.483C1100.63 20.483 1098.59 22.132 1098.59 24.835C1098.59 27.606 1100.57 29.204 1103.09 29.204ZM1102.89 21.809C1104.18 21.809 1105.03 22.574 1105.15 24.087H1100.3C1100.56 22.608 1101.63 21.809 1102.89 21.809ZM1113.54 29.204C1114.75 29.204 1115.94 28.745 1116.87 27.929L1116.14 26.841C1115.48 27.385 1114.68 27.827 1113.67 27.827C1111.91 27.827 1110.7 26.637 1110.7 24.852C1110.7 23.067 1111.94 21.877 1113.73 21.877C1114.54 21.877 1115.22 22.2 1115.88 22.744L1116.7 21.673C1116.02 21.01 1115 20.483 1113.64 20.483C1111.12 20.483 1108.97 22.081 1108.97 24.852C1108.97 27.606 1110.94 29.204 1113.54 29.204ZM1121.95 29.204C1123.21 29.204 1124.14 28.558 1124.96 27.623H1125.02L1125.16 29H1126.54V20.687H1124.85V26.382C1124.04 27.368 1123.39 27.759 1122.53 27.759C1121.27 27.759 1120.79 27.079 1120.79 25.617V20.687H1119.11V25.838C1119.11 28.014 1119.99 29.204 1121.95 29.204ZM1130.41 29H1132.09V24.274C1133.01 22.608 1134.16 21.996 1135.35 21.996C1135.98 21.996 1136.31 22.081 1136.87 22.268L1137.24 20.823C1136.73 20.585 1136.25 20.483 1135.61 20.483C1134.13 20.483 1132.84 21.282 1131.99 22.625H1131.94L1131.8 20.687H1130.41V29ZM1143.86 29.204C1145.14 29.204 1146.24 28.779 1147.09 28.218L1146.5 27.147C1145.75 27.606 1145 27.878 1144.08 27.878C1142.45 27.878 1141.23 27.045 1141.04 25.328H1147.37C1147.4 25.107 1147.43 24.767 1147.43 24.41C1147.43 22.098 1146.06 20.483 1143.61 20.483C1141.4 20.483 1139.36 22.132 1139.36 24.835C1139.36 27.606 1141.35 29.204 1143.86 29.204ZM1143.66 21.809C1144.95 21.809 1145.8 22.574 1145.92 24.087H1141.08C1141.33 22.608 1142.4 21.809 1143.66 21.809ZM1160.92 32.485C1162.86 32.485 1163.88 31.295 1164.54 29.527L1168.09 20.687H1166.49L1164.85 25.022C1164.57 25.787 1164.27 26.654 1164 27.453H1163.93C1163.59 26.637 1163.26 25.77 1162.96 25.022L1161.09 20.687H1159.41L1163.2 28.949L1162.98 29.527C1162.6 30.445 1161.94 31.125 1160.83 31.125C1160.58 31.125 1160.32 31.074 1160.12 31.006L1159.78 32.315C1160.09 32.417 1160.51 32.485 1160.92 32.485ZM1173.93 29.204C1176.11 29.204 1178.08 27.606 1178.08 24.852C1178.08 22.081 1176.11 20.483 1173.93 20.483C1171.76 20.483 1169.79 22.081 1169.79 24.852C1169.79 27.606 1171.76 29.204 1173.93 29.204ZM1173.93 27.827C1172.45 27.827 1171.52 26.637 1171.52 24.852C1171.52 23.067 1172.45 21.877 1173.93 21.877C1175.41 21.877 1176.35 23.067 1176.35 24.852C1176.35 26.637 1175.41 27.827 1173.93 27.827ZM1183.11 29.204C1184.37 29.204 1185.3 28.558 1186.12 27.623H1186.18L1186.32 29H1187.7V20.687H1186.01V26.382C1185.2 27.368 1184.55 27.759 1183.69 27.759C1182.43 27.759 1181.95 27.079 1181.95 25.617V20.687H1180.27V25.838C1180.27 28.014 1181.15 29.204 1183.11 29.204ZM1191.57 29H1193.25V24.274C1194.17 22.608 1195.32 21.996 1196.51 21.996C1197.14 21.996 1197.47 22.081 1198.03 22.268L1198.4 20.823C1197.89 20.585 1197.41 20.483 1196.77 20.483C1195.29 20.483 1194 21.282 1193.15 22.625H1193.1L1192.96 20.687H1191.57V29ZM1214.81 29.204C1217.26 29.204 1218.62 28.065 1218.62 26.671C1218.62 25.379 1217.94 24.682 1215.22 24.087C1213.6 23.747 1212.94 23.475 1212.94 22.829C1212.94 22.251 1213.4 21.775 1214.66 21.775C1215.68 21.775 1216.63 22.098 1217.43 22.625L1218.21 21.571C1217.38 21.01 1216.12 20.483 1214.81 20.483C1212.5 20.483 1211.26 21.52 1211.26 22.914C1211.26 24.172 1212.29 24.92 1214.49 25.379C1216.58 25.821 1216.92 26.178 1216.92 26.773C1216.92 27.402 1216.31 27.912 1215.03 27.912C1213.59 27.912 1212.46 27.504 1211.49 26.824L1210.75 27.912C1211.75 28.609 1213.23 29.204 1214.81 29.204ZM1221.3 32.4H1222.98V29.68L1222.89 28.184H1222.95C1223.64 28.83 1224.54 29.204 1225.31 29.204C1227.26 29.204 1229.05 27.555 1229.05 24.716C1229.05 22.149 1227.82 20.483 1225.63 20.483C1224.65 20.483 1223.61 20.993 1222.86 21.707H1222.81L1222.67 20.687H1221.3V32.4ZM1224.99 27.81C1224.46 27.81 1223.68 27.572 1222.98 26.943V23.016C1223.73 22.234 1224.49 21.894 1225.17 21.894C1226.67 21.894 1227.31 22.999 1227.31 24.733C1227.31 26.705 1226.31 27.81 1224.99 27.81ZM1235.09 29.204C1237.27 29.204 1239.24 27.606 1239.24 24.852C1239.24 22.081 1237.27 20.483 1235.09 20.483C1232.92 20.483 1230.95 22.081 1230.95 24.852C1230.95 27.606 1232.92 29.204 1235.09 29.204ZM1235.09 27.827C1233.62 27.827 1232.68 26.637 1232.68 24.852C1232.68 23.067 1233.62 21.877 1235.09 21.877C1236.57 21.877 1237.51 23.067 1237.51 24.852C1237.51 26.637 1236.57 27.827 1235.09 27.827ZM1246.85 29.204C1247.92 29.204 1248.74 28.983 1249.49 28.728L1249.15 27.487C1248.57 27.708 1247.97 27.844 1247.24 27.844C1245.73 27.844 1245.24 27.147 1245.24 25.719V22.047H1249.16V20.687H1245.24V18.052H1243.84L1243.62 20.687L1241.28 20.772V22.047H1243.55V25.719C1243.55 27.793 1244.39 29.204 1246.85 29.204ZM1265.78 29H1267.46V20.687H1262.05V22.047H1265.78V29ZM1266.47 19.072C1267.19 19.072 1267.73 18.596 1267.73 17.865C1267.73 17.151 1267.19 16.658 1266.47 16.658C1265.76 16.658 1265.22 17.151 1265.22 17.865C1265.22 18.596 1265.76 19.072 1266.47 19.072ZM1272.26 29H1273.95V23.271C1274.8 22.387 1275.43 21.945 1276.31 21.945C1277.57 21.945 1278.04 22.625 1278.04 24.07V29H1279.73V23.849C1279.73 21.69 1278.84 20.483 1276.9 20.483C1275.61 20.483 1274.68 21.163 1273.84 22.03H1273.78L1273.64 20.687H1272.26V29ZM1296.31 29.204C1298.84 29.204 1300.35 27.742 1300.35 25.957C1300.35 24.325 1299.3 23.526 1297.9 22.982L1296.39 22.319C1295.4 21.928 1294.45 21.571 1294.45 20.602C1294.45 19.701 1295.23 19.14 1296.41 19.14C1297.55 19.14 1298.36 19.514 1299.09 20.143L1299.98 19.055C1299.11 18.205 1297.87 17.661 1296.49 17.661C1294.28 17.661 1292.74 18.97 1292.74 20.704C1292.74 22.336 1293.98 23.169 1295.12 23.611L1296.68 24.308C1297.8 24.767 1298.62 25.073 1298.62 26.161C1298.62 27.079 1297.82 27.725 1296.41 27.725C1295.18 27.725 1294.06 27.198 1293.21 26.399L1292.23 27.555C1293.28 28.592 1294.71 29.204 1296.31 29.204ZM1308.01 29.204C1309.08 29.204 1309.9 28.983 1310.65 28.728L1310.31 27.487C1309.73 27.708 1309.13 27.844 1308.4 27.844C1306.89 27.844 1306.4 27.147 1306.4 25.719V22.047H1310.32V20.687H1306.4V18.052H1305L1304.78 20.687L1302.44 20.772V22.047H1304.71V25.719C1304.71 27.793 1305.55 29.204 1308.01 29.204ZM1315.64 29.204C1316.78 29.204 1317.93 28.609 1318.82 27.929H1318.87L1319 29H1320.38V24.002C1320.38 21.809 1319.21 20.483 1316.91 20.483C1315.47 20.483 1314.09 21.095 1313.17 21.656L1313.8 22.795C1314.62 22.319 1315.6 21.86 1316.62 21.86C1318.1 21.86 1318.65 22.693 1318.7 23.713C1314.52 24.036 1312.83 24.937 1312.83 26.807C1312.83 28.269 1314.04 29.204 1315.64 29.204ZM1316.11 27.861C1315.21 27.861 1314.47 27.521 1314.47 26.688C1314.47 25.685 1315.43 25.039 1318.7 24.784V26.756C1317.85 27.453 1317 27.861 1316.11 27.861ZM1324.08 29H1325.76V24.274C1326.68 22.608 1327.84 21.996 1329.03 21.996C1329.66 21.996 1329.98 22.081 1330.54 22.268L1330.91 20.823C1330.4 20.585 1329.93 20.483 1329.28 20.483C1327.8 20.483 1326.51 21.282 1325.66 22.625H1325.61L1325.47 20.687H1324.08V29ZM1338.59 29.204C1339.66 29.204 1340.48 28.983 1341.23 28.728L1340.89 27.487C1340.31 27.708 1339.71 27.844 1338.98 27.844C1337.47 27.844 1336.98 27.147 1336.98 25.719V22.047H1340.9V20.687H1336.98V18.052H1335.58L1335.36 20.687L1333.02 20.772V22.047H1335.29V25.719C1335.29 27.793 1336.13 29.204 1338.59 29.204ZM1347.24 29.204C1349.55 29.204 1351.05 27.895 1351.05 24.767V17.865H1349.4V24.869C1349.4 26.909 1348.51 27.725 1347.24 27.725C1345.98 27.725 1345.11 26.909 1345.11 24.869V17.865H1343.4V24.767C1343.4 27.895 1344.93 29.204 1347.24 29.204ZM1353.81 32.4H1355.49V29.68L1355.41 28.184H1355.46C1356.16 28.83 1357.06 29.204 1357.82 29.204C1359.78 29.204 1361.56 27.555 1361.56 24.716C1361.56 22.149 1360.34 20.483 1358.15 20.483C1357.16 20.483 1356.12 20.993 1355.37 21.707H1355.32L1355.19 20.687H1353.81V32.4ZM1357.5 27.81C1356.97 27.81 1356.19 27.572 1355.49 26.943V23.016C1356.24 22.234 1357.01 21.894 1357.69 21.894C1359.18 21.894 1359.83 22.999 1359.83 24.733C1359.83 26.705 1358.83 27.81 1357.5 27.81ZM1373.87 29H1381.63V27.572H1378.31C1377.7 27.572 1376.97 27.623 1376.32 27.674C1379.04 25.209 1381.05 23.203 1381.05 21.214C1381.05 19.259 1379.64 17.967 1377.44 17.967C1375.88 17.967 1374.81 18.596 1373.79 19.633L1374.74 20.568C1375.4 19.888 1376.25 19.31 1377.22 19.31C1378.7 19.31 1379.43 20.109 1379.43 21.299C1379.43 23.05 1377.41 24.937 1373.87 28.014V29ZM1387.99 29.204C1390.43 29.204 1391.96 27.164 1391.96 23.543C1391.96 19.905 1390.43 17.967 1387.99 17.967C1385.56 17.967 1384.03 19.905 1384.03 23.543C1384.03 27.164 1385.56 29.204 1387.99 29.204ZM1387.99 27.861C1386.6 27.861 1385.58 26.586 1385.58 23.543C1385.58 20.5 1386.6 19.293 1387.99 19.293C1389.39 19.293 1390.41 20.5 1390.41 23.543C1390.41 26.586 1389.39 27.861 1387.99 27.861ZM1387.99 24.631C1388.61 24.631 1389.12 24.189 1389.12 23.458C1389.12 22.727 1388.61 22.285 1387.99 22.285C1387.38 22.285 1386.87 22.727 1386.87 23.458C1386.87 24.189 1387.38 24.631 1387.99 24.631ZM1394.26 29H1402.01V27.572H1398.7C1398.09 27.572 1397.35 27.623 1396.71 27.674C1399.43 25.209 1401.43 23.203 1401.43 21.214C1401.43 19.259 1400.02 17.967 1397.83 17.967C1396.27 17.967 1395.2 18.596 1394.18 19.633L1395.13 20.568C1395.79 19.888 1396.64 19.31 1397.61 19.31C1399.09 19.31 1399.82 20.109 1399.82 21.299C1399.82 23.05 1397.8 24.937 1394.26 28.014V29ZM1408.38 29.204C1410.81 29.204 1412.34 27.164 1412.34 23.543C1412.34 19.905 1410.81 17.967 1408.38 17.967C1405.95 17.967 1404.42 19.905 1404.42 23.543C1404.42 27.164 1405.95 29.204 1408.38 29.204ZM1408.38 27.861C1406.99 27.861 1405.97 26.586 1405.97 23.543C1405.97 20.5 1406.99 19.293 1408.38 19.293C1409.78 19.293 1410.8 20.5 1410.8 23.543C1410.8 26.586 1409.78 27.861 1408.38 27.861ZM1408.38 24.631C1408.99 24.631 1409.5 24.189 1409.5 23.458C1409.5 22.727 1408.99 22.285 1408.38 22.285C1407.77 22.285 1407.26 22.727 1407.26 23.458C1407.26 24.189 1407.77 24.631 1408.38 24.631ZM1418.57 29.204C1419.44 29.204 1420.1 28.558 1420.1 27.623C1420.1 26.705 1419.44 26.042 1418.57 26.042C1417.71 26.042 1417.04 26.705 1417.04 27.623C1417.04 28.558 1417.71 29.204 1418.57 29.204Z" fill="white"/>
<path d="M925.978 29H928.477V24.699H932.625V22.591H928.477V20.024H933.339V17.916H925.978V29ZM939.997 29.204C941.119 29.204 942.377 28.83 943.346 28.218L942.513 26.705C941.765 27.096 941.102 27.3 940.337 27.3C938.96 27.3 938.059 26.756 937.821 25.532H943.567C943.601 25.328 943.686 24.869 943.686 24.41C943.686 22.115 942.309 20.364 939.708 20.364C937.447 20.364 935.322 22.013 935.322 24.784C935.322 27.589 937.362 29.204 939.997 29.204ZM939.793 22.268C940.762 22.268 941.34 22.812 941.459 23.849H937.855C938.11 22.795 938.807 22.268 939.793 22.268ZM950.326 29.204C952.213 29.204 953.981 27.538 953.981 24.631C953.981 22.047 952.689 20.364 950.581 20.364C949.765 20.364 948.898 20.721 948.269 21.333H948.218L948.303 20.007V17.083H945.804V29H947.759L947.963 28.082H948.031C948.728 28.813 949.544 29.204 950.326 29.204ZM949.765 27.164C949.323 27.164 948.779 27.011 948.303 26.603V23.186C948.83 22.642 949.323 22.404 949.867 22.404C950.921 22.404 951.414 23.169 951.414 24.682C951.414 26.416 950.683 27.164 949.765 27.164ZM956.745 29H959.244V24.614C959.958 23.101 961.046 22.557 962.083 22.557C962.712 22.557 963.052 22.642 963.579 22.795L964.089 20.704C963.596 20.483 963.205 20.364 962.457 20.364C961.114 20.364 959.873 21.027 959.04 22.404H958.989L958.785 20.568H956.745V29ZM968.758 29.204C969.965 29.204 970.849 28.643 971.597 27.793H971.665L971.852 29H973.892V20.568H971.393V26.11C970.815 26.858 970.373 27.079 969.744 27.079C968.809 27.079 968.52 26.569 968.52 25.447V20.568H966.021V25.77C966.021 27.895 966.837 29.204 968.758 29.204ZM978.968 29.204C980.056 29.204 981.11 28.694 981.96 28.048H982.028L982.215 29H984.255V24.172C984.255 21.588 982.81 20.364 980.447 20.364C979.002 20.364 977.659 20.84 976.503 21.503L977.387 23.135C978.339 22.659 979.138 22.353 979.954 22.353C981.093 22.353 981.671 22.812 981.756 23.577C977.761 23.815 976.197 24.767 976.197 26.654C976.197 28.082 977.268 29.204 978.968 29.204ZM979.767 27.266C979.053 27.266 978.594 27.011 978.594 26.467C978.594 25.736 979.274 25.209 981.756 25.073V26.467C981.161 26.926 980.515 27.266 979.767 27.266ZM987.326 29H989.825V24.614C990.539 23.101 991.627 22.557 992.664 22.557C993.293 22.557 993.633 22.642 994.16 22.795L994.67 20.704C994.177 20.483 993.786 20.364 993.038 20.364C991.695 20.364 990.454 21.027 989.621 22.404H989.57L989.366 20.568H987.326V29ZM997.978 32.298C1000.1 32.298 1001.11 31.21 1001.92 29.085L1005.25 20.568H1002.89L1001.65 24.189C1001.39 25.022 1001.11 25.889 1000.88 26.722H1000.82C1000.54 25.838 1000.27 24.988 999.967 24.189L998.556 20.568H996.074L999.729 28.779L999.559 29.221C999.287 29.884 998.76 30.326 997.791 30.326C997.57 30.326 997.349 30.292 997.128 30.224L996.686 32.128C997.043 32.23 997.485 32.298 997.978 32.298ZM1020.74 29.204C1022.97 29.204 1024.98 27.827 1024.98 25.43C1024.98 23.135 1023.26 22.081 1021.27 22.081C1020.73 22.081 1020.34 22.149 1019.84 22.336L1020.03 20.313H1024.48V18.205H1017.87L1017.58 23.662L1018.69 24.376C1019.42 23.968 1019.79 23.832 1020.51 23.832C1021.65 23.832 1022.48 24.41 1022.48 25.498C1022.48 26.603 1021.61 27.181 1020.39 27.181C1019.37 27.181 1018.55 26.705 1017.84 26.11L1016.72 27.691C1017.6 28.541 1018.87 29.204 1020.74 29.204ZM1032.72 29.204C1033.84 29.204 1034.73 28.966 1035.48 28.745L1035.03 26.943C1034.52 27.113 1034 27.249 1033.37 27.249C1032.13 27.249 1031.58 26.756 1031.58 25.481V22.523H1035.15V20.568H1031.58V17.984H1029.53L1029.2 20.568L1026.96 20.67V22.523H1029.08V25.498C1029.08 27.708 1030.04 29.204 1032.72 29.204ZM1037.54 29H1040.04V23.373C1040.64 22.795 1041.08 22.489 1041.76 22.489C1042.68 22.489 1043 22.999 1043 24.121V29H1045.5V23.798C1045.5 21.673 1044.65 20.364 1042.76 20.364C1041.49 20.364 1040.59 20.976 1039.96 21.622H1039.91L1040.04 20.007V17.083H1037.54V29Z" fill="#FAEB6B"/>
<defs>
<linearGradient id="paint0_linear" x1="-2.57144e-06" y1="22.7473" x2="1828" y2="22.7473" gradientUnits="userSpaceOnUse">
<stop stop-color="#D69B1C"/>
<stop offset="1" stop-color="#B158DC"/>
</linearGradient>
</defs>
</svg>
