<svg width="173" height="141" viewBox="0 0 173 141" fill="none" xmlns="http://www.w3.org/2000/svg">
<g style="mix-blend-mode:overlay">
<circle cx="13.6642" cy="17.7962" r="1.19163" fill="white"/>
<circle cx="18.4313" cy="17.7953" r="1.19163" fill="white"/>
<circle cx="18.4313" cy="22.5617" r="1.19163" fill="white"/>
<circle cx="13.6643" cy="22.5617" r="1.19163" fill="white"/>
<circle cx="13.6643" cy="27.3282" r="1.19163" fill="white"/>
<circle cx="18.4313" cy="27.3282" r="1.19163" fill="white"/>
<circle cx="18.4313" cy="32.0947" r="1.19163" fill="white"/>
<circle cx="13.6643" cy="32.0947" r="1.19163" fill="white"/>
<circle cx="13.6643" cy="36.8614" r="1.19163" fill="white"/>
<circle cx="18.4313" cy="36.8614" r="1.19163" fill="white"/>
<circle cx="18.4313" cy="41.6279" r="1.19163" fill="white"/>
<circle cx="13.6643" cy="41.6279" r="1.19163" fill="white"/>
<circle cx="13.6643" cy="46.3944" r="1.19163" fill="white"/>
<circle cx="18.4313" cy="46.3944" r="1.19163" fill="white"/>
<circle cx="18.4313" cy="51.1609" r="1.19163" fill="white"/>
<circle cx="13.6643" cy="51.1609" r="1.19163" fill="white"/>
<circle cx="13.6643" cy="55.9273" r="1.19163" fill="white"/>
<circle cx="18.4313" cy="55.9273" r="1.19163" fill="white"/>
<circle cx="18.4313" cy="60.6938" r="1.19163" fill="white"/>
<circle cx="13.6643" cy="60.6938" r="1.19163" fill="white"/>
<circle cx="13.6643" cy="65.4607" r="1.19163" fill="white"/>
<circle cx="18.4313" cy="65.4607" r="1.19163" fill="white"/>
<circle cx="18.4313" cy="70.227" r="1.19163" fill="white"/>
<circle cx="13.6643" cy="70.227" r="1.19163" fill="white"/>
<circle cx="13.6643" cy="74.9935" r="1.19163" fill="white"/>
<circle cx="18.4313" cy="74.9935" r="1.19163" fill="white"/>
<circle cx="18.4313" cy="79.76" r="1.19163" fill="white"/>
<circle cx="13.6643" cy="79.76" r="1.19163" fill="white"/>
<circle cx="13.6643" cy="84.5265" r="1.19163" fill="white"/>
<circle cx="18.4313" cy="84.5265" r="1.19163" fill="white"/>
<circle cx="18.4313" cy="89.2929" r="1.19163" fill="white"/>
<circle cx="13.6643" cy="89.2929" r="1.19163" fill="white"/>
<circle cx="13.6643" cy="94.0594" r="1.19163" fill="white"/>
<circle cx="18.4313" cy="94.0594" r="1.19163" fill="white"/>
<circle cx="18.4313" cy="98.8258" r="1.19163" fill="white"/>
<circle cx="13.6643" cy="98.8258" r="1.19163" fill="white"/>
<circle cx="8.81693" cy="17.7077" r="1.19163" fill="white"/>
<circle cx="8.817" cy="22.4742" r="1.19163" fill="white"/>
<circle cx="8.817" cy="27.2403" r="1.19163" fill="white"/>
<circle cx="8.817" cy="32.0069" r="1.19163" fill="white"/>
<circle cx="8.817" cy="36.7735" r="1.19163" fill="white"/>
<circle cx="8.817" cy="41.5403" r="1.19163" fill="white"/>
<circle cx="8.817" cy="46.3069" r="1.19163" fill="white"/>
<circle cx="8.817" cy="51.0733" r="1.19163" fill="white"/>
<circle cx="8.817" cy="55.8398" r="1.19163" fill="white"/>
<circle cx="8.817" cy="60.6064" r="1.19163" fill="white"/>
<circle cx="8.817" cy="65.3728" r="1.19163" fill="white"/>
<circle cx="8.817" cy="70.1393" r="1.19163" fill="white"/>
<circle cx="8.817" cy="74.9057" r="1.19163" fill="white"/>
<circle cx="8.817" cy="79.6722" r="1.19163" fill="white"/>
<circle cx="8.817" cy="84.4386" r="1.19163" fill="white"/>
<circle cx="8.817" cy="89.2052" r="1.19163" fill="white"/>
<circle cx="8.817" cy="93.9719" r="1.19163" fill="white"/>
<circle cx="8.817" cy="98.7384" r="1.19163" fill="white"/>
<ellipse cx="8.81695" cy="13.2604" rx="1.19163" ry="1.19335" transform="rotate(-90 8.81695 13.2604)" fill="white"/>
<ellipse cx="13.5896" cy="13.2611" rx="1.19163" ry="1.19335" transform="rotate(-90 13.5896 13.2611)" fill="white"/>
<ellipse cx="18.3628" cy="13.2611" rx="1.19163" ry="1.19335" transform="rotate(-90 18.3628 13.2611)" fill="white"/>
<ellipse cx="23.1362" cy="13.2611" rx="1.19163" ry="1.19335" transform="rotate(-90 23.1362 13.2611)" fill="white"/>
<ellipse cx="27.9095" cy="13.2611" rx="1.19163" ry="1.19335" transform="rotate(-90 27.9095 13.2611)" fill="white"/>
<ellipse cx="32.684" cy="13.2611" rx="1.19163" ry="1.19335" transform="rotate(-90 32.684 13.2611)" fill="white"/>
<ellipse cx="37.4559" cy="13.2611" rx="1.19163" ry="1.19335" transform="rotate(-90 37.4559 13.2611)" fill="white"/>
<ellipse cx="42.2305" cy="13.2611" rx="1.19163" ry="1.19335" transform="rotate(-90 42.2305 13.2611)" fill="white"/>
<ellipse cx="47.0026" cy="13.2611" rx="1.19163" ry="1.19335" transform="rotate(-90 47.0026 13.2611)" fill="white"/>
<ellipse cx="51.777" cy="13.2611" rx="1.19163" ry="1.19335" transform="rotate(-90 51.777 13.2611)" fill="white"/>
<ellipse cx="56.5503" cy="13.2611" rx="1.19163" ry="1.19335" transform="rotate(-90 56.5503 13.2611)" fill="white"/>
<ellipse cx="61.3235" cy="13.2611" rx="1.19163" ry="1.19335" transform="rotate(-90 61.3235 13.2611)" fill="white"/>
<ellipse cx="66.0968" cy="13.2611" rx="1.19163" ry="1.19335" transform="rotate(-90 66.0968 13.2611)" fill="white"/>
<ellipse cx="70.87" cy="13.2611" rx="1.19163" ry="1.19335" transform="rotate(-90 70.87 13.2611)" fill="white"/>
<ellipse cx="75.6434" cy="13.2611" rx="1.19163" ry="1.19335" transform="rotate(-90 75.6434 13.2611)" fill="white"/>
<ellipse cx="80.4179" cy="13.2611" rx="1.19163" ry="1.19335" transform="rotate(-90 80.4179 13.2611)" fill="white"/>
<ellipse cx="85.1899" cy="13.2611" rx="1.19163" ry="1.19335" transform="rotate(-90 85.1899 13.2611)" fill="white"/>
<ellipse cx="89.9644" cy="13.2611" rx="1.19163" ry="1.19335" transform="rotate(-90 89.9644 13.2611)" fill="white"/>
<ellipse cx="94.5751" cy="13.2606" rx="1.19163" ry="1.19335" transform="rotate(-90 94.5751 13.2606)" fill="white"/>
<ellipse cx="99.3479" cy="13.2611" rx="1.19163" ry="1.19335" transform="rotate(-90 99.3479 13.2611)" fill="white"/>
<ellipse cx="104.121" cy="13.2611" rx="1.19163" ry="1.19335" transform="rotate(-90 104.121 13.2611)" fill="white"/>
<ellipse cx="108.893" cy="13.2611" rx="1.19163" ry="1.19335" transform="rotate(-90 108.893 13.2611)" fill="white"/>
<ellipse cx="113.668" cy="13.2611" rx="1.19163" ry="1.19335" transform="rotate(-90 113.668 13.2611)" fill="white"/>
<ellipse cx="118.441" cy="13.2611" rx="1.19163" ry="1.19335" transform="rotate(-90 118.441 13.2611)" fill="white"/>
<ellipse cx="123.214" cy="13.2611" rx="1.19163" ry="1.19335" transform="rotate(-90 123.214 13.2611)" fill="white"/>
<ellipse cx="127.989" cy="13.2611" rx="1.19163" ry="1.19335" transform="rotate(-90 127.989 13.2611)" fill="white"/>
<ellipse cx="132.761" cy="13.2611" rx="1.19163" ry="1.19335" transform="rotate(-90 132.761 13.2611)" fill="white"/>
<ellipse cx="137.535" cy="13.2611" rx="1.19163" ry="1.19335" transform="rotate(-90 137.535 13.2611)" fill="white"/>
<ellipse cx="142.309" cy="13.2611" rx="1.19163" ry="1.19335" transform="rotate(-90 142.309 13.2611)" fill="white"/>
<ellipse cx="147.082" cy="13.2611" rx="1.19163" ry="1.19335" transform="rotate(-90 147.082 13.2611)" fill="white"/>
<ellipse cx="151.855" cy="13.2611" rx="1.19163" ry="1.19335" transform="rotate(-90 151.855 13.2611)" fill="white"/>
<ellipse cx="156.627" cy="13.2611" rx="1.19163" ry="1.19335" transform="rotate(-90 156.627 13.2611)" fill="white"/>
<ellipse cx="161.4" cy="13.2611" rx="1.19163" ry="1.19335" transform="rotate(-90 161.4 13.2611)" fill="white"/>
<ellipse cx="166.175" cy="13.2611" rx="1.19163" ry="1.19335" transform="rotate(-90 166.175 13.2611)" fill="white"/>
<ellipse cx="170.948" cy="13.2611" rx="1.19163" ry="1.19335" transform="rotate(-90 170.948 13.2611)" fill="white"/>
<circle cx="23.1976" cy="17.7959" r="1.19163" fill="white"/>
<circle cx="27.9649" cy="17.796" r="1.19163" fill="white"/>
<circle cx="27.9649" cy="22.5625" r="1.19163" fill="white"/>
<circle cx="23.1978" cy="22.5625" r="1.19163" fill="white"/>
<circle cx="23.1978" cy="27.329" r="1.19163" fill="white"/>
<circle cx="27.9649" cy="27.329" r="1.19163" fill="white"/>
<circle cx="27.9649" cy="32.0954" r="1.19163" fill="white"/>
<circle cx="23.1978" cy="32.0954" r="1.19163" fill="white"/>
<circle cx="23.1978" cy="36.8622" r="1.19163" fill="white"/>
<circle cx="27.9649" cy="36.8622" r="1.19163" fill="white"/>
<circle cx="27.9649" cy="41.6288" r="1.19163" fill="white"/>
<circle cx="23.1978" cy="41.6288" r="1.19163" fill="white"/>
<circle cx="23.1978" cy="46.3951" r="1.19163" fill="white"/>
<circle cx="27.9649" cy="46.3951" r="1.19163" fill="white"/>
<circle cx="27.9649" cy="51.1616" r="1.19163" fill="white"/>
<circle cx="23.1978" cy="51.1616" r="1.19163" fill="white"/>
<circle cx="23.1978" cy="55.9281" r="1.19163" fill="white"/>
<circle cx="27.9649" cy="55.9281" r="1.19163" fill="white"/>
<circle cx="27.9649" cy="60.6946" r="1.19163" fill="white"/>
<circle cx="23.1978" cy="60.6946" r="1.19163" fill="white"/>
<circle cx="23.1978" cy="65.4613" r="1.19163" fill="white"/>
<circle cx="27.9649" cy="65.4613" r="1.19163" fill="white"/>
<circle cx="27.9649" cy="70.2278" r="1.19163" fill="white"/>
<circle cx="23.1978" cy="70.2278" r="1.19163" fill="white"/>
<circle cx="23.1978" cy="74.9944" r="1.19163" fill="white"/>
<circle cx="27.9649" cy="74.9944" r="1.19163" fill="white"/>
<circle cx="27.9649" cy="79.7607" r="1.19163" fill="white"/>
<circle cx="23.1978" cy="79.7607" r="1.19163" fill="white"/>
<circle cx="23.1978" cy="84.5272" r="1.19163" fill="white"/>
<circle cx="27.9649" cy="84.5272" r="1.19163" fill="white"/>
<circle cx="27.9649" cy="89.2937" r="1.19163" fill="white"/>
<circle cx="23.1978" cy="89.2937" r="1.19163" fill="white"/>
<circle cx="23.1978" cy="94.0605" r="1.19163" fill="white"/>
<circle cx="27.9649" cy="94.0605" r="1.19163" fill="white"/>
<circle cx="27.9649" cy="98.8269" r="1.19163" fill="white"/>
<circle cx="23.1978" cy="98.8269" r="1.19163" fill="white"/>
<circle cx="32.7306" cy="17.7959" r="1.19163" fill="white"/>
<circle cx="37.4979" cy="17.7958" r="1.19163" fill="white"/>
<circle cx="37.4979" cy="22.5621" r="1.19163" fill="white"/>
<circle cx="32.7309" cy="22.5621" r="1.19163" fill="white"/>
<circle cx="32.7309" cy="27.3286" r="1.19163" fill="white"/>
<circle cx="37.4979" cy="27.3286" r="1.19163" fill="white"/>
<circle cx="37.4979" cy="32.0954" r="1.19163" fill="white"/>
<circle cx="32.7309" cy="32.0954" r="1.19163" fill="white"/>
<circle cx="32.7309" cy="36.8619" r="1.19163" fill="white"/>
<circle cx="37.4979" cy="36.8619" r="1.19163" fill="white"/>
<circle cx="37.4979" cy="41.6284" r="1.19163" fill="white"/>
<circle cx="32.7309" cy="41.6284" r="1.19163" fill="white"/>
<circle cx="32.7309" cy="46.3948" r="1.19163" fill="white"/>
<circle cx="37.4979" cy="46.3948" r="1.19163" fill="white"/>
<circle cx="37.4979" cy="51.1614" r="1.19163" fill="white"/>
<circle cx="32.7309" cy="51.1614" r="1.19163" fill="white"/>
<circle cx="32.7309" cy="55.9278" r="1.19163" fill="white"/>
<circle cx="37.4979" cy="55.9278" r="1.19163" fill="white"/>
<circle cx="37.4979" cy="60.6946" r="1.19163" fill="white"/>
<circle cx="32.7309" cy="60.6946" r="1.19163" fill="white"/>
<circle cx="32.7309" cy="65.4609" r="1.19163" fill="white"/>
<circle cx="37.4979" cy="65.4609" r="1.19163" fill="white"/>
<circle cx="37.4979" cy="70.2275" r="1.19163" fill="white"/>
<circle cx="32.7309" cy="70.2275" r="1.19163" fill="white"/>
<circle cx="32.7309" cy="74.994" r="1.19163" fill="white"/>
<circle cx="37.4979" cy="74.994" r="1.19163" fill="white"/>
<circle cx="37.4979" cy="79.7604" r="1.19163" fill="white"/>
<circle cx="32.7309" cy="79.7604" r="1.19163" fill="white"/>
<circle cx="32.7309" cy="84.527" r="1.19163" fill="white"/>
<circle cx="37.4979" cy="84.527" r="1.19163" fill="white"/>
<circle cx="37.4979" cy="89.2933" r="1.19163" fill="white"/>
<circle cx="32.7309" cy="89.2933" r="1.19163" fill="white"/>
<circle cx="32.7309" cy="94.0598" r="1.19163" fill="white"/>
<circle cx="37.4979" cy="94.0598" r="1.19163" fill="white"/>
<circle cx="37.4979" cy="98.8263" r="1.19163" fill="white"/>
<circle cx="32.7309" cy="98.8263" r="1.19163" fill="white"/>
<circle cx="42.2629" cy="17.796" r="1.19163" fill="white"/>
<circle cx="47.0299" cy="17.7955" r="1.19163" fill="white"/>
<circle cx="47.0299" cy="22.5619" r="1.19163" fill="white"/>
<circle cx="42.2629" cy="22.5619" r="1.19163" fill="white"/>
<circle cx="42.2629" cy="27.3283" r="1.19163" fill="white"/>
<circle cx="47.0299" cy="27.3283" r="1.19163" fill="white"/>
<circle cx="47.0299" cy="32.0948" r="1.19163" fill="white"/>
<circle cx="42.2629" cy="32.0948" r="1.19163" fill="white"/>
<circle cx="42.2629" cy="36.8617" r="1.19163" fill="white"/>
<circle cx="47.0299" cy="36.8617" r="1.19163" fill="white"/>
<circle cx="47.0299" cy="41.628" r="1.19163" fill="white"/>
<circle cx="42.2629" cy="41.628" r="1.19163" fill="white"/>
<circle cx="42.2629" cy="46.3946" r="1.19163" fill="white"/>
<circle cx="47.0299" cy="46.3946" r="1.19163" fill="white"/>
<circle cx="47.0299" cy="51.1607" r="1.19163" fill="white"/>
<circle cx="42.2629" cy="51.1607" r="1.19163" fill="white"/>
<circle cx="42.2629" cy="55.9275" r="1.19163" fill="white"/>
<circle cx="47.0299" cy="55.9275" r="1.19163" fill="white"/>
<circle cx="47.0299" cy="60.6941" r="1.19163" fill="white"/>
<circle cx="42.2629" cy="60.6941" r="1.19163" fill="white"/>
<circle cx="42.2629" cy="65.4608" r="1.19163" fill="white"/>
<circle cx="47.0299" cy="65.4608" r="1.19163" fill="white"/>
<circle cx="47.0299" cy="70.2273" r="1.19163" fill="white"/>
<circle cx="42.2629" cy="70.2273" r="1.19163" fill="white"/>
<circle cx="42.2629" cy="74.9938" r="1.19163" fill="white"/>
<circle cx="47.0299" cy="74.9938" r="1.19163" fill="white"/>
<circle cx="47.0299" cy="79.7602" r="1.19163" fill="white"/>
<circle cx="42.2629" cy="79.7602" r="1.19163" fill="white"/>
<circle cx="42.2629" cy="84.5266" r="1.19163" fill="white"/>
<circle cx="47.0299" cy="84.5266" r="1.19163" fill="white"/>
<circle cx="47.0299" cy="89.2931" r="1.19163" fill="white"/>
<circle cx="42.2629" cy="89.2931" r="1.19163" fill="white"/>
<circle cx="42.2629" cy="94.0595" r="1.19163" fill="white"/>
<circle cx="47.0299" cy="94.0595" r="1.19163" fill="white"/>
<circle cx="47.0299" cy="98.826" r="1.19163" fill="white"/>
<circle cx="42.2629" cy="98.826" r="1.19163" fill="white"/>
<circle cx="51.7962" cy="17.7959" r="1.19163" fill="white"/>
<circle cx="56.5624" cy="17.7958" r="1.19163" fill="white"/>
<circle cx="56.5624" cy="22.5621" r="1.19163" fill="white"/>
<circle cx="51.7967" cy="22.5621" r="1.19163" fill="white"/>
<circle cx="51.7967" cy="27.3286" r="1.19163" fill="white"/>
<circle cx="56.5624" cy="27.3286" r="1.19163" fill="white"/>
<circle cx="56.5624" cy="32.0951" r="1.19163" fill="white"/>
<circle cx="51.7967" cy="32.0951" r="1.19163" fill="white"/>
<circle cx="51.7967" cy="36.8619" r="1.19163" fill="white"/>
<circle cx="56.5624" cy="36.8619" r="1.19163" fill="white"/>
<circle cx="56.5624" cy="41.6284" r="1.19163" fill="white"/>
<circle cx="51.7967" cy="41.6284" r="1.19163" fill="white"/>
<circle cx="51.7967" cy="46.3948" r="1.19163" fill="white"/>
<circle cx="56.5624" cy="46.3948" r="1.19163" fill="white"/>
<circle cx="56.5624" cy="51.1614" r="1.19163" fill="white"/>
<circle cx="51.7967" cy="51.1614" r="1.19163" fill="white"/>
<circle cx="51.7967" cy="55.9278" r="1.19163" fill="white"/>
<circle cx="56.5624" cy="55.9278" r="1.19163" fill="white"/>
<circle cx="56.5624" cy="60.6942" r="1.19163" fill="white"/>
<circle cx="51.7967" cy="60.6942" r="1.19163" fill="white"/>
<circle cx="51.7967" cy="65.4609" r="1.19163" fill="white"/>
<circle cx="56.5624" cy="65.4609" r="1.19163" fill="white"/>
<circle cx="56.5624" cy="70.2275" r="1.19163" fill="white"/>
<circle cx="51.7967" cy="70.2275" r="1.19163" fill="white"/>
<circle cx="51.7967" cy="74.994" r="1.19163" fill="white"/>
<circle cx="56.5624" cy="74.994" r="1.19163" fill="white"/>
<circle cx="56.5624" cy="79.7604" r="1.19163" fill="white"/>
<circle cx="51.7967" cy="79.7604" r="1.19163" fill="white"/>
<circle cx="51.7967" cy="84.527" r="1.19163" fill="white"/>
<circle cx="56.5624" cy="84.527" r="1.19163" fill="white"/>
<circle cx="56.5624" cy="89.2933" r="1.19163" fill="white"/>
<circle cx="51.7967" cy="89.2933" r="1.19163" fill="white"/>
<circle cx="51.7967" cy="94.0598" r="1.19163" fill="white"/>
<circle cx="56.5624" cy="94.0598" r="1.19163" fill="white"/>
<circle cx="56.5624" cy="98.8263" r="1.19163" fill="white"/>
<circle cx="51.7967" cy="98.8263" r="1.19163" fill="white"/>
<circle cx="61.3279" cy="17.7953" r="1.19163" fill="white"/>
<circle cx="66.0949" cy="17.7953" r="1.19163" fill="white"/>
<circle cx="66.0949" cy="22.5621" r="1.19163" fill="white"/>
<circle cx="61.3279" cy="22.5621" r="1.19163" fill="white"/>
<circle cx="61.3279" cy="27.3285" r="1.19163" fill="white"/>
<circle cx="66.0949" cy="27.3285" r="1.19163" fill="white"/>
<circle cx="66.0949" cy="32.0951" r="1.19163" fill="white"/>
<circle cx="61.3279" cy="32.0951" r="1.19163" fill="white"/>
<circle cx="61.3279" cy="36.8614" r="1.19163" fill="white"/>
<circle cx="66.0949" cy="36.8614" r="1.19163" fill="white"/>
<circle cx="66.0949" cy="41.6279" r="1.19163" fill="white"/>
<circle cx="61.3279" cy="41.6279" r="1.19163" fill="white"/>
<circle cx="61.3279" cy="46.3944" r="1.19163" fill="white"/>
<circle cx="66.0949" cy="46.3944" r="1.19163" fill="white"/>
<circle cx="66.0949" cy="51.1609" r="1.19163" fill="white"/>
<circle cx="61.3279" cy="51.1609" r="1.19163" fill="white"/>
<circle cx="61.3279" cy="55.9276" r="1.19163" fill="white"/>
<circle cx="66.0949" cy="55.9276" r="1.19163" fill="white"/>
<circle cx="66.0949" cy="60.6941" r="1.19163" fill="white"/>
<circle cx="61.3279" cy="60.6941" r="1.19163" fill="white"/>
<circle cx="61.3279" cy="65.4607" r="1.19163" fill="white"/>
<circle cx="66.0949" cy="65.4607" r="1.19163" fill="white"/>
<circle cx="66.0949" cy="70.227" r="1.19163" fill="white"/>
<circle cx="61.3279" cy="70.227" r="1.19163" fill="white"/>
<circle cx="61.3279" cy="74.9935" r="1.19163" fill="white"/>
<circle cx="66.0949" cy="74.9935" r="1.19163" fill="white"/>
<circle cx="66.0949" cy="79.76" r="1.19163" fill="white"/>
<circle cx="61.3279" cy="79.76" r="1.19163" fill="white"/>
<circle cx="61.3279" cy="84.5268" r="1.19163" fill="white"/>
<circle cx="66.0949" cy="84.5268" r="1.19163" fill="white"/>
<circle cx="66.0949" cy="89.2929" r="1.19163" fill="white"/>
<circle cx="61.3279" cy="89.2929" r="1.19163" fill="white"/>
<circle cx="61.3279" cy="94.0594" r="1.19163" fill="white"/>
<circle cx="66.0949" cy="94.0594" r="1.19163" fill="white"/>
<circle cx="66.0949" cy="98.8258" r="1.19163" fill="white"/>
<circle cx="61.3279" cy="98.8258" r="1.19163" fill="white"/>
<circle cx="70.8618" cy="17.7954" r="1.19163" fill="white"/>
<circle cx="75.6276" cy="17.7954" r="1.19163" fill="white"/>
<circle cx="75.6276" cy="22.5617" r="1.19163" fill="white"/>
<circle cx="70.8617" cy="22.5617" r="1.19163" fill="white"/>
<circle cx="70.8617" cy="27.3283" r="1.19163" fill="white"/>
<circle cx="75.6276" cy="27.3283" r="1.19163" fill="white"/>
<circle cx="75.6276" cy="32.0947" r="1.19163" fill="white"/>
<circle cx="70.8617" cy="32.0947" r="1.19163" fill="white"/>
<circle cx="70.8617" cy="36.8615" r="1.19163" fill="white"/>
<circle cx="75.6276" cy="36.8615" r="1.19163" fill="white"/>
<circle cx="75.6276" cy="41.6279" r="1.19163" fill="white"/>
<circle cx="70.8617" cy="41.6279" r="1.19163" fill="white"/>
<circle cx="70.8617" cy="46.3945" r="1.19163" fill="white"/>
<circle cx="75.6276" cy="46.3945" r="1.19163" fill="white"/>
<circle cx="75.6276" cy="51.1609" r="1.19163" fill="white"/>
<circle cx="70.8617" cy="51.1609" r="1.19163" fill="white"/>
<circle cx="70.8617" cy="55.9275" r="1.19163" fill="white"/>
<circle cx="75.6276" cy="55.9275" r="1.19163" fill="white"/>
<circle cx="75.6276" cy="60.6939" r="1.19163" fill="white"/>
<circle cx="70.8617" cy="60.6939" r="1.19163" fill="white"/>
<circle cx="70.8617" cy="65.4607" r="1.19163" fill="white"/>
<circle cx="75.6276" cy="65.4607" r="1.19163" fill="white"/>
<circle cx="75.6276" cy="70.2271" r="1.19163" fill="white"/>
<circle cx="70.8617" cy="70.2271" r="1.19163" fill="white"/>
<circle cx="70.8617" cy="74.9936" r="1.19163" fill="white"/>
<circle cx="75.6276" cy="74.9936" r="1.19163" fill="white"/>
<circle cx="75.6276" cy="79.7601" r="1.19163" fill="white"/>
<circle cx="70.8617" cy="79.7601" r="1.19163" fill="white"/>
<circle cx="70.8617" cy="84.5266" r="1.19163" fill="white"/>
<circle cx="75.6276" cy="84.5266" r="1.19163" fill="white"/>
<circle cx="75.6276" cy="89.2929" r="1.19163" fill="white"/>
<circle cx="70.8617" cy="89.2929" r="1.19163" fill="white"/>
<circle cx="70.8617" cy="94.0598" r="1.19163" fill="white"/>
<circle cx="75.6276" cy="94.0598" r="1.19163" fill="white"/>
<circle cx="75.6276" cy="98.8263" r="1.19163" fill="white"/>
<circle cx="70.8617" cy="98.8263" r="1.19163" fill="white"/>
<circle cx="80.3946" cy="17.7954" r="1.19163" fill="white"/>
<circle cx="85.1617" cy="17.7954" r="1.19163" fill="white"/>
<circle cx="85.1617" cy="22.5621" r="1.19163" fill="white"/>
<circle cx="80.3946" cy="22.5621" r="1.19163" fill="white"/>
<circle cx="80.3946" cy="27.3286" r="1.19163" fill="white"/>
<circle cx="85.1617" cy="27.3286" r="1.19163" fill="white"/>
<circle cx="85.1617" cy="32.0951" r="1.19163" fill="white"/>
<circle cx="80.3946" cy="32.0951" r="1.19163" fill="white"/>
<circle cx="80.3946" cy="36.8615" r="1.19163" fill="white"/>
<circle cx="85.1617" cy="36.8615" r="1.19163" fill="white"/>
<circle cx="85.1617" cy="41.6279" r="1.19163" fill="white"/>
<circle cx="80.3946" cy="41.6279" r="1.19163" fill="white"/>
<circle cx="80.3946" cy="46.3945" r="1.19163" fill="white"/>
<circle cx="85.1617" cy="46.3945" r="1.19163" fill="white"/>
<circle cx="85.1617" cy="51.1609" r="1.19163" fill="white"/>
<circle cx="80.3946" cy="51.1609" r="1.19163" fill="white"/>
<circle cx="80.3946" cy="55.9277" r="1.19163" fill="white"/>
<circle cx="85.1617" cy="55.9277" r="1.19163" fill="white"/>
<circle cx="85.1617" cy="60.6941" r="1.19163" fill="white"/>
<circle cx="80.3946" cy="60.6941" r="1.19163" fill="white"/>
<circle cx="80.3946" cy="65.4607" r="1.19163" fill="white"/>
<circle cx="85.1617" cy="65.4607" r="1.19163" fill="white"/>
<circle cx="85.1617" cy="70.2271" r="1.19163" fill="white"/>
<circle cx="80.3946" cy="70.2271" r="1.19163" fill="white"/>
<circle cx="80.3946" cy="74.9936" r="1.19163" fill="white"/>
<circle cx="85.1617" cy="74.9936" r="1.19163" fill="white"/>
<circle cx="85.1617" cy="79.7601" r="1.19163" fill="white"/>
<circle cx="80.3946" cy="79.7601" r="1.19163" fill="white"/>
<circle cx="80.3946" cy="84.5266" r="1.19163" fill="white"/>
<circle cx="85.1617" cy="84.5266" r="1.19163" fill="white"/>
<circle cx="85.1617" cy="89.2929" r="1.19163" fill="white"/>
<circle cx="80.3946" cy="89.2929" r="1.19163" fill="white"/>
<circle cx="80.3946" cy="94.0598" r="1.19163" fill="white"/>
<circle cx="85.1617" cy="94.0598" r="1.19163" fill="white"/>
<circle cx="85.1617" cy="98.8263" r="1.19163" fill="white"/>
<circle cx="80.3946" cy="98.8263" r="1.19163" fill="white"/>
<circle cx="89.928" cy="17.7953" r="1.19163" fill="white"/>
<circle cx="94.6938" cy="17.7953" r="1.19163" fill="white"/>
<circle cx="94.6938" cy="22.5617" r="1.19163" fill="white"/>
<circle cx="89.9279" cy="22.5617" r="1.19163" fill="white"/>
<circle cx="89.9279" cy="27.3282" r="1.19163" fill="white"/>
<circle cx="94.6938" cy="27.3282" r="1.19163" fill="white"/>
<circle cx="94.6938" cy="32.0947" r="1.19163" fill="white"/>
<circle cx="89.9279" cy="32.0947" r="1.19163" fill="white"/>
<circle cx="89.9279" cy="36.8614" r="1.19163" fill="white"/>
<circle cx="94.6938" cy="36.8614" r="1.19163" fill="white"/>
<circle cx="94.6938" cy="41.6279" r="1.19163" fill="white"/>
<circle cx="89.9279" cy="41.6279" r="1.19163" fill="white"/>
<circle cx="89.9279" cy="46.3944" r="1.19163" fill="white"/>
<circle cx="94.6938" cy="46.3944" r="1.19163" fill="white"/>
<circle cx="94.6938" cy="51.1605" r="1.19163" fill="white"/>
<circle cx="89.9279" cy="51.1605" r="1.19163" fill="white"/>
<circle cx="89.9279" cy="55.9273" r="1.19163" fill="white"/>
<circle cx="94.6938" cy="55.9273" r="1.19163" fill="white"/>
<circle cx="94.6938" cy="60.6938" r="1.19163" fill="white"/>
<circle cx="89.9279" cy="60.6938" r="1.19163" fill="white"/>
<circle cx="89.9279" cy="65.4607" r="1.19163" fill="white"/>
<circle cx="94.6938" cy="65.4607" r="1.19163" fill="white"/>
<circle cx="94.6938" cy="70.227" r="1.19163" fill="white"/>
<circle cx="89.9279" cy="70.227" r="1.19163" fill="white"/>
<circle cx="89.9279" cy="74.9935" r="1.19163" fill="white"/>
<circle cx="94.6938" cy="74.9935" r="1.19163" fill="white"/>
<circle cx="94.6938" cy="79.76" r="1.19163" fill="white"/>
<circle cx="89.9279" cy="79.76" r="1.19163" fill="white"/>
<circle cx="89.9279" cy="84.5265" r="1.19163" fill="white"/>
<circle cx="94.6938" cy="84.5265" r="1.19163" fill="white"/>
<circle cx="94.6938" cy="89.2929" r="1.19163" fill="white"/>
<circle cx="89.9279" cy="89.2929" r="1.19163" fill="white"/>
<circle cx="89.9279" cy="94.0594" r="1.19163" fill="white"/>
<circle cx="94.6938" cy="94.0594" r="1.19163" fill="white"/>
<circle cx="94.6938" cy="98.8258" r="1.19163" fill="white"/>
<circle cx="89.9279" cy="98.8258" r="1.19163" fill="white"/>
<circle cx="99.4617" cy="17.7954" r="1.19163" fill="white"/>
<circle cx="104.229" cy="17.7954" r="1.19163" fill="white"/>
<circle cx="104.229" cy="22.5617" r="1.19163" fill="white"/>
<circle cx="99.4618" cy="22.5617" r="1.19163" fill="white"/>
<circle cx="99.4618" cy="27.3283" r="1.19163" fill="white"/>
<circle cx="104.229" cy="27.3283" r="1.19163" fill="white"/>
<circle cx="104.229" cy="32.0947" r="1.19163" fill="white"/>
<circle cx="99.4618" cy="32.0947" r="1.19163" fill="white"/>
<circle cx="99.4618" cy="36.8615" r="1.19163" fill="white"/>
<circle cx="104.229" cy="36.8615" r="1.19163" fill="white"/>
<circle cx="104.229" cy="41.6279" r="1.19163" fill="white"/>
<circle cx="99.4618" cy="41.6279" r="1.19163" fill="white"/>
<circle cx="99.4618" cy="46.3945" r="1.19163" fill="white"/>
<circle cx="104.229" cy="46.3945" r="1.19163" fill="white"/>
<circle cx="104.229" cy="51.1609" r="1.19163" fill="white"/>
<circle cx="99.4618" cy="51.1609" r="1.19163" fill="white"/>
<circle cx="99.4618" cy="55.9275" r="1.19163" fill="white"/>
<circle cx="104.229" cy="55.9275" r="1.19163" fill="white"/>
<circle cx="104.229" cy="60.6939" r="1.19163" fill="white"/>
<circle cx="99.4618" cy="60.6939" r="1.19163" fill="white"/>
<circle cx="99.4618" cy="65.4607" r="1.19163" fill="white"/>
<circle cx="104.229" cy="65.4607" r="1.19163" fill="white"/>
<circle cx="104.229" cy="70.2271" r="1.19163" fill="white"/>
<circle cx="99.4618" cy="70.2271" r="1.19163" fill="white"/>
<circle cx="99.4618" cy="74.9936" r="1.19163" fill="white"/>
<circle cx="104.229" cy="74.9936" r="1.19163" fill="white"/>
<circle cx="104.229" cy="79.7601" r="1.19163" fill="white"/>
<circle cx="99.4618" cy="79.7601" r="1.19163" fill="white"/>
<circle cx="99.4618" cy="84.5266" r="1.19163" fill="white"/>
<circle cx="104.229" cy="84.5266" r="1.19163" fill="white"/>
<circle cx="104.229" cy="89.2929" r="1.19163" fill="white"/>
<circle cx="99.4618" cy="89.2929" r="1.19163" fill="white"/>
<circle cx="99.4618" cy="94.0598" r="1.19163" fill="white"/>
<circle cx="104.229" cy="94.0598" r="1.19163" fill="white"/>
<circle cx="104.229" cy="98.8263" r="1.19163" fill="white"/>
<circle cx="99.4618" cy="98.8263" r="1.19163" fill="white"/>
<circle cx="108.993" cy="17.7958" r="1.19163" fill="white"/>
<circle cx="113.76" cy="17.7954" r="1.19163" fill="white"/>
<circle cx="113.76" cy="22.5621" r="1.19163" fill="white"/>
<circle cx="108.993" cy="22.5621" r="1.19163" fill="white"/>
<circle cx="108.993" cy="27.3286" r="1.19163" fill="white"/>
<circle cx="113.76" cy="27.3286" r="1.19163" fill="white"/>
<circle cx="113.76" cy="32.0951" r="1.19163" fill="white"/>
<circle cx="108.993" cy="32.0951" r="1.19163" fill="white"/>
<circle cx="108.993" cy="36.8615" r="1.19163" fill="white"/>
<circle cx="113.76" cy="36.8615" r="1.19163" fill="white"/>
<circle cx="113.76" cy="41.6279" r="1.19163" fill="white"/>
<circle cx="108.993" cy="41.6279" r="1.19163" fill="white"/>
<circle cx="108.993" cy="46.3945" r="1.19163" fill="white"/>
<circle cx="113.76" cy="46.3945" r="1.19163" fill="white"/>
<circle cx="113.76" cy="51.1609" r="1.19163" fill="white"/>
<circle cx="108.993" cy="51.1609" r="1.19163" fill="white"/>
<circle cx="108.993" cy="55.9277" r="1.19163" fill="white"/>
<circle cx="113.76" cy="55.9277" r="1.19163" fill="white"/>
<circle cx="113.76" cy="60.6941" r="1.19163" fill="white"/>
<circle cx="108.993" cy="60.6941" r="1.19163" fill="white"/>
<circle cx="108.993" cy="65.4607" r="1.19163" fill="white"/>
<circle cx="113.76" cy="65.4607" r="1.19163" fill="white"/>
<circle cx="113.76" cy="70.2271" r="1.19163" fill="white"/>
<circle cx="108.993" cy="70.2271" r="1.19163" fill="white"/>
<circle cx="108.993" cy="74.9936" r="1.19163" fill="white"/>
<circle cx="113.76" cy="74.9936" r="1.19163" fill="white"/>
<circle cx="113.76" cy="79.7601" r="1.19163" fill="white"/>
<circle cx="108.993" cy="79.7601" r="1.19163" fill="white"/>
<circle cx="108.993" cy="84.527" r="1.19163" fill="white"/>
<circle cx="113.76" cy="84.527" r="1.19163" fill="white"/>
<circle cx="113.76" cy="89.2929" r="1.19163" fill="white"/>
<circle cx="108.993" cy="89.2929" r="1.19163" fill="white"/>
<circle cx="108.993" cy="94.0595" r="1.19163" fill="white"/>
<circle cx="113.76" cy="94.0595" r="1.19163" fill="white"/>
<circle cx="113.76" cy="98.8259" r="1.19163" fill="white"/>
<circle cx="108.993" cy="98.8259" r="1.19163" fill="white"/>
<circle cx="118.527" cy="17.7953" r="1.19163" fill="white"/>
<circle cx="123.293" cy="17.7953" r="1.19163" fill="white"/>
<circle cx="123.293" cy="22.5621" r="1.19163" fill="white"/>
<circle cx="118.527" cy="22.5621" r="1.19163" fill="white"/>
<circle cx="118.527" cy="27.3285" r="1.19163" fill="white"/>
<circle cx="123.293" cy="27.3285" r="1.19163" fill="white"/>
<circle cx="123.293" cy="32.0947" r="1.19163" fill="white"/>
<circle cx="118.527" cy="32.0947" r="1.19163" fill="white"/>
<circle cx="118.527" cy="36.8611" r="1.19163" fill="white"/>
<circle cx="123.293" cy="36.8611" r="1.19163" fill="white"/>
<circle cx="123.293" cy="41.6279" r="1.19163" fill="white"/>
<circle cx="118.527" cy="41.6279" r="1.19163" fill="white"/>
<circle cx="118.527" cy="46.3944" r="1.19163" fill="white"/>
<circle cx="123.293" cy="46.3944" r="1.19163" fill="white"/>
<circle cx="123.293" cy="51.1609" r="1.19163" fill="white"/>
<circle cx="118.527" cy="51.1609" r="1.19163" fill="white"/>
<circle cx="118.527" cy="55.9276" r="1.19163" fill="white"/>
<circle cx="123.293" cy="55.9276" r="1.19163" fill="white"/>
<circle cx="123.293" cy="60.6941" r="1.19163" fill="white"/>
<circle cx="118.527" cy="60.6941" r="1.19163" fill="white"/>
<circle cx="118.527" cy="65.4607" r="1.19163" fill="white"/>
<circle cx="123.293" cy="65.4607" r="1.19163" fill="white"/>
<circle cx="123.293" cy="70.2268" r="1.19163" fill="white"/>
<circle cx="118.527" cy="70.2268" r="1.19163" fill="white"/>
<circle cx="118.527" cy="74.9935" r="1.19163" fill="white"/>
<circle cx="123.293" cy="74.9935" r="1.19163" fill="white"/>
<circle cx="123.293" cy="79.76" r="1.19163" fill="white"/>
<circle cx="118.527" cy="79.76" r="1.19163" fill="white"/>
<circle cx="118.527" cy="84.5265" r="1.19163" fill="white"/>
<circle cx="123.293" cy="84.5265" r="1.19163" fill="white"/>
<circle cx="123.293" cy="89.2929" r="1.19163" fill="white"/>
<circle cx="118.527" cy="89.2929" r="1.19163" fill="white"/>
<circle cx="118.527" cy="94.0597" r="1.19163" fill="white"/>
<circle cx="123.293" cy="94.0597" r="1.19163" fill="white"/>
<circle cx="123.293" cy="98.8261" r="1.19163" fill="white"/>
<circle cx="118.527" cy="98.8261" r="1.19163" fill="white"/>
<circle cx="128.061" cy="17.796" r="1.19163" fill="white"/>
<circle cx="132.828" cy="17.7955" r="1.19163" fill="white"/>
<circle cx="132.828" cy="22.5619" r="1.19163" fill="white"/>
<circle cx="128.061" cy="22.5619" r="1.19163" fill="white"/>
<circle cx="128.061" cy="27.3283" r="1.19163" fill="white"/>
<circle cx="132.828" cy="27.3283" r="1.19163" fill="white"/>
<circle cx="132.828" cy="32.0948" r="1.19163" fill="white"/>
<circle cx="128.061" cy="32.0948" r="1.19163" fill="white"/>
<circle cx="128.061" cy="36.8617" r="1.19163" fill="white"/>
<circle cx="132.828" cy="36.8617" r="1.19163" fill="white"/>
<circle cx="132.828" cy="41.628" r="1.19163" fill="white"/>
<circle cx="128.061" cy="41.628" r="1.19163" fill="white"/>
<circle cx="128.061" cy="46.3946" r="1.19163" fill="white"/>
<circle cx="132.828" cy="46.3946" r="1.19163" fill="white"/>
<circle cx="132.828" cy="51.1607" r="1.19163" fill="white"/>
<circle cx="128.061" cy="51.1607" r="1.19163" fill="white"/>
<circle cx="128.061" cy="55.9275" r="1.19163" fill="white"/>
<circle cx="132.828" cy="55.9275" r="1.19163" fill="white"/>
<circle cx="132.828" cy="60.6941" r="1.19163" fill="white"/>
<circle cx="128.061" cy="60.6941" r="1.19163" fill="white"/>
<circle cx="128.061" cy="65.4608" r="1.19163" fill="white"/>
<circle cx="132.828" cy="65.4608" r="1.19163" fill="white"/>
<circle cx="132.828" cy="70.2273" r="1.19163" fill="white"/>
<circle cx="128.061" cy="70.2273" r="1.19163" fill="white"/>
<circle cx="128.061" cy="74.9938" r="1.19163" fill="white"/>
<circle cx="132.828" cy="74.9938" r="1.19163" fill="white"/>
<circle cx="132.828" cy="79.7602" r="1.19163" fill="white"/>
<circle cx="128.061" cy="79.7602" r="1.19163" fill="white"/>
<circle cx="128.061" cy="84.5266" r="1.19163" fill="white"/>
<circle cx="132.828" cy="84.5266" r="1.19163" fill="white"/>
<circle cx="132.828" cy="89.2931" r="1.19163" fill="white"/>
<circle cx="128.061" cy="89.2931" r="1.19163" fill="white"/>
<circle cx="128.061" cy="94.0595" r="1.19163" fill="white"/>
<circle cx="132.828" cy="94.0595" r="1.19163" fill="white"/>
<circle cx="132.828" cy="98.826" r="1.19163" fill="white"/>
<circle cx="128.061" cy="98.826" r="1.19163" fill="white"/>
<circle cx="137.594" cy="17.7958" r="1.19163" fill="white"/>
<circle cx="142.36" cy="17.7953" r="1.19163" fill="white"/>
<circle cx="142.36" cy="22.5617" r="1.19163" fill="white"/>
<circle cx="137.594" cy="22.5617" r="1.19163" fill="white"/>
<circle cx="137.594" cy="27.3282" r="1.19163" fill="white"/>
<circle cx="142.36" cy="27.3282" r="1.19163" fill="white"/>
<circle cx="142.36" cy="32.0947" r="1.19163" fill="white"/>
<circle cx="137.594" cy="32.0947" r="1.19163" fill="white"/>
<circle cx="137.594" cy="36.8614" r="1.19163" fill="white"/>
<circle cx="142.36" cy="36.8614" r="1.19163" fill="white"/>
<circle cx="142.36" cy="41.6279" r="1.19163" fill="white"/>
<circle cx="137.594" cy="41.6279" r="1.19163" fill="white"/>
<circle cx="137.594" cy="46.3944" r="1.19163" fill="white"/>
<circle cx="142.36" cy="46.3944" r="1.19163" fill="white"/>
<circle cx="142.36" cy="51.1609" r="1.19163" fill="white"/>
<circle cx="137.594" cy="51.1609" r="1.19163" fill="white"/>
<circle cx="137.594" cy="55.9273" r="1.19163" fill="white"/>
<circle cx="142.36" cy="55.9273" r="1.19163" fill="white"/>
<circle cx="142.36" cy="60.6938" r="1.19163" fill="white"/>
<circle cx="137.594" cy="60.6938" r="1.19163" fill="white"/>
<circle cx="137.594" cy="65.4607" r="1.19163" fill="white"/>
<circle cx="142.36" cy="65.4607" r="1.19163" fill="white"/>
<circle cx="142.36" cy="70.227" r="1.19163" fill="white"/>
<circle cx="137.594" cy="70.227" r="1.19163" fill="white"/>
<circle cx="137.594" cy="74.9935" r="1.19163" fill="white"/>
<circle cx="142.36" cy="74.9935" r="1.19163" fill="white"/>
<circle cx="142.36" cy="79.76" r="1.19163" fill="white"/>
<circle cx="137.594" cy="79.76" r="1.19163" fill="white"/>
<circle cx="137.594" cy="84.5265" r="1.19163" fill="white"/>
<circle cx="142.36" cy="84.5265" r="1.19163" fill="white"/>
<circle cx="142.36" cy="89.2929" r="1.19163" fill="white"/>
<circle cx="137.594" cy="89.2929" r="1.19163" fill="white"/>
<circle cx="137.594" cy="94.0597" r="1.19163" fill="white"/>
<circle cx="142.36" cy="94.0597" r="1.19163" fill="white"/>
<circle cx="142.36" cy="98.8261" r="1.19163" fill="white"/>
<circle cx="137.594" cy="98.8261" r="1.19163" fill="white"/>
<circle cx="147.127" cy="17.795" r="1.19163" fill="white"/>
<circle cx="151.894" cy="17.795" r="1.19163" fill="white"/>
<circle cx="151.894" cy="22.5615" r="1.19163" fill="white"/>
<circle cx="147.127" cy="22.5615" r="1.19163" fill="white"/>
<circle cx="147.127" cy="27.328" r="1.19163" fill="white"/>
<circle cx="151.894" cy="27.328" r="1.19163" fill="white"/>
<circle cx="151.894" cy="32.0947" r="1.19163" fill="white"/>
<circle cx="147.127" cy="32.0947" r="1.19163" fill="white"/>
<circle cx="147.127" cy="36.8612" r="1.19163" fill="white"/>
<circle cx="151.894" cy="36.8612" r="1.19163" fill="white"/>
<circle cx="151.894" cy="41.6277" r="1.19163" fill="white"/>
<circle cx="147.127" cy="41.6277" r="1.19163" fill="white"/>
<circle cx="147.127" cy="46.3941" r="1.19163" fill="white"/>
<circle cx="151.894" cy="46.3941" r="1.19163" fill="white"/>
<circle cx="151.894" cy="51.1605" r="1.19163" fill="white"/>
<circle cx="147.127" cy="51.1605" r="1.19163" fill="white"/>
<circle cx="147.127" cy="55.9272" r="1.19163" fill="white"/>
<circle cx="151.894" cy="55.9272" r="1.19163" fill="white"/>
<circle cx="151.894" cy="60.6938" r="1.19163" fill="white"/>
<circle cx="147.127" cy="60.6938" r="1.19163" fill="white"/>
<circle cx="147.127" cy="65.4603" r="1.19163" fill="white"/>
<circle cx="151.894" cy="65.4603" r="1.19163" fill="white"/>
<circle cx="151.894" cy="70.2268" r="1.19163" fill="white"/>
<circle cx="147.127" cy="70.2268" r="1.19163" fill="white"/>
<circle cx="147.127" cy="74.9934" r="1.19163" fill="white"/>
<circle cx="151.894" cy="74.9934" r="1.19163" fill="white"/>
<circle cx="151.894" cy="79.7597" r="1.19163" fill="white"/>
<circle cx="147.127" cy="79.7597" r="1.19163" fill="white"/>
<circle cx="147.127" cy="84.5262" r="1.19163" fill="white"/>
<circle cx="151.894" cy="84.5262" r="1.19163" fill="white"/>
<circle cx="151.894" cy="89.2927" r="1.19163" fill="white"/>
<circle cx="147.127" cy="89.2927" r="1.19163" fill="white"/>
<circle cx="147.127" cy="94.0592" r="1.19163" fill="white"/>
<circle cx="151.894" cy="94.0592" r="1.19163" fill="white"/>
<circle cx="151.894" cy="98.8257" r="1.19163" fill="white"/>
<circle cx="147.127" cy="98.8257" r="1.19163" fill="white"/>
<circle cx="156.66" cy="17.7959" r="1.19163" fill="white"/>
<circle cx="161.427" cy="17.7958" r="1.19163" fill="white"/>
<circle cx="161.427" cy="22.5621" r="1.19163" fill="white"/>
<circle cx="156.66" cy="22.5621" r="1.19163" fill="white"/>
<circle cx="156.66" cy="27.3286" r="1.19163" fill="white"/>
<circle cx="161.427" cy="27.3286" r="1.19163" fill="white"/>
<circle cx="161.427" cy="32.0954" r="1.19163" fill="white"/>
<circle cx="156.66" cy="32.0954" r="1.19163" fill="white"/>
<circle cx="156.66" cy="36.8619" r="1.19163" fill="white"/>
<circle cx="161.427" cy="36.8619" r="1.19163" fill="white"/>
<circle cx="161.427" cy="41.6284" r="1.19163" fill="white"/>
<circle cx="156.66" cy="41.6284" r="1.19163" fill="white"/>
<circle cx="156.66" cy="46.3948" r="1.19163" fill="white"/>
<circle cx="161.427" cy="46.3948" r="1.19163" fill="white"/>
<circle cx="161.427" cy="51.1614" r="1.19163" fill="white"/>
<circle cx="156.66" cy="51.1614" r="1.19163" fill="white"/>
<circle cx="156.66" cy="55.9278" r="1.19163" fill="white"/>
<circle cx="161.427" cy="55.9278" r="1.19163" fill="white"/>
<circle cx="161.427" cy="60.6942" r="1.19163" fill="white"/>
<circle cx="156.66" cy="60.6942" r="1.19163" fill="white"/>
<circle cx="156.66" cy="65.4608" r="1.19163" fill="white"/>
<circle cx="161.427" cy="65.4608" r="1.19163" fill="white"/>
<circle cx="161.427" cy="70.2275" r="1.19163" fill="white"/>
<circle cx="156.66" cy="70.2275" r="1.19163" fill="white"/>
<circle cx="156.66" cy="74.994" r="1.19163" fill="white"/>
<circle cx="161.427" cy="74.994" r="1.19163" fill="white"/>
<circle cx="161.427" cy="79.7604" r="1.19163" fill="white"/>
<circle cx="156.66" cy="79.7604" r="1.19163" fill="white"/>
<circle cx="156.66" cy="84.527" r="1.19163" fill="white"/>
<circle cx="161.427" cy="84.527" r="1.19163" fill="white"/>
<circle cx="161.427" cy="89.2933" r="1.19163" fill="white"/>
<circle cx="156.66" cy="89.2933" r="1.19163" fill="white"/>
<circle cx="156.66" cy="94.0598" r="1.19163" fill="white"/>
<circle cx="161.427" cy="94.0598" r="1.19163" fill="white"/>
<circle cx="161.427" cy="98.8265" r="1.19163" fill="white"/>
<circle cx="156.66" cy="98.8265" r="1.19163" fill="white"/>
<circle cx="166.193" cy="17.795" r="1.19163" fill="white"/>
<circle cx="170.959" cy="17.795" r="1.19163" fill="white"/>
<circle cx="170.959" cy="22.5615" r="1.19163" fill="white"/>
<circle cx="166.193" cy="22.5615" r="1.19163" fill="white"/>
<circle cx="166.193" cy="27.328" r="1.19163" fill="white"/>
<circle cx="170.959" cy="27.328" r="1.19163" fill="white"/>
<circle cx="170.959" cy="32.0943" r="1.19163" fill="white"/>
<circle cx="166.193" cy="32.0943" r="1.19163" fill="white"/>
<circle cx="166.193" cy="36.8612" r="1.19163" fill="white"/>
<circle cx="170.959" cy="36.8612" r="1.19163" fill="white"/>
<circle cx="170.959" cy="41.6277" r="1.19163" fill="white"/>
<circle cx="166.193" cy="41.6277" r="1.19163" fill="white"/>
<circle cx="166.193" cy="46.3941" r="1.19163" fill="white"/>
<circle cx="170.959" cy="46.3941" r="1.19163" fill="white"/>
<circle cx="170.959" cy="51.1605" r="1.19163" fill="white"/>
<circle cx="166.193" cy="51.1605" r="1.19163" fill="white"/>
<circle cx="166.193" cy="55.9272" r="1.19163" fill="white"/>
<circle cx="170.959" cy="55.9272" r="1.19163" fill="white"/>
<circle cx="170.959" cy="60.6936" r="1.19163" fill="white"/>
<circle cx="166.193" cy="60.6936" r="1.19163" fill="white"/>
<circle cx="166.193" cy="65.4603" r="1.19163" fill="white"/>
<circle cx="170.959" cy="65.4603" r="1.19163" fill="white"/>
<circle cx="170.959" cy="70.2268" r="1.19163" fill="white"/>
<circle cx="166.193" cy="70.2268" r="1.19163" fill="white"/>
<circle cx="166.193" cy="74.9934" r="1.19163" fill="white"/>
<circle cx="170.959" cy="74.9934" r="1.19163" fill="white"/>
<circle cx="170.959" cy="79.7597" r="1.19163" fill="white"/>
<circle cx="166.193" cy="79.7597" r="1.19163" fill="white"/>
<circle cx="166.193" cy="84.5262" r="1.19163" fill="white"/>
<circle cx="170.959" cy="84.5262" r="1.19163" fill="white"/>
<circle cx="170.959" cy="89.2927" r="1.19163" fill="white"/>
<circle cx="166.193" cy="89.2927" r="1.19163" fill="white"/>
<circle cx="166.193" cy="94.0592" r="1.19163" fill="white"/>
<circle cx="170.959" cy="94.0592" r="1.19163" fill="white"/>
<circle cx="170.959" cy="98.8257" r="1.19163" fill="white"/>
<circle cx="166.193" cy="98.8257" r="1.19163" fill="white"/>
</g>
<rect x="0.794055" y="5.87609" width="165.163" height="87.9812" stroke="white" stroke-width="1.58811"/>
<rect x="81.7875" y="0.794177" width="2.8586" height="4.44671" stroke="white" stroke-width="1.58811"/>
<rect x="81.8246" y="94.6348" width="2.8805" height="44.8854" stroke="white" stroke-width="1.58811"/>
<path d="M47.9273 139.52L65.1909 94.6348H67.958L50.6944 139.52H47.9273Z" stroke="white" stroke-width="1.58811"/>
<path d="M118.603 139.52L101.339 94.6348H98.5724L115.836 139.52H118.603Z" stroke="white" stroke-width="1.58811"/>
</svg>
