<svg width="542" height="442" viewBox="0 0 542 442" fill="none" xmlns="http://www.w3.org/2000/svg">
<g style="mix-blend-mode:overlay">
<circle cx="43.0213" cy="56.0286" r="3.75172" fill="white"/>
<circle cx="58.0271" cy="56.0276" r="3.75172" fill="white"/>
<circle cx="58.0271" cy="71.0344" r="3.75172" fill="white"/>
<circle cx="43.0213" cy="71.0344" r="3.75172" fill="white"/>
<circle cx="43.0213" cy="86.0413" r="3.75172" fill="white"/>
<circle cx="58.0271" cy="86.0413" r="3.75172" fill="white"/>
<circle cx="58.0271" cy="101.048" r="3.75172" fill="white"/>
<circle cx="43.0213" cy="101.048" r="3.75172" fill="white"/>
<circle cx="43.0213" cy="116.055" r="3.75172" fill="white"/>
<circle cx="58.0271" cy="116.055" r="3.75172" fill="white"/>
<circle cx="58.0271" cy="131.062" r="3.75172" fill="white"/>
<circle cx="43.0213" cy="131.062" r="3.75172" fill="white"/>
<circle cx="43.0213" cy="146.069" r="3.75172" fill="white"/>
<circle cx="58.0271" cy="146.069" r="3.75172" fill="white"/>
<circle cx="58.0271" cy="161.076" r="3.75172" fill="white"/>
<circle cx="43.0213" cy="161.076" r="3.75172" fill="white"/>
<circle cx="43.0213" cy="176.083" r="3.75172" fill="white"/>
<circle cx="58.0271" cy="176.083" r="3.75172" fill="white"/>
<circle cx="58.0271" cy="191.09" r="3.75172" fill="white"/>
<circle cx="43.0213" cy="191.09" r="3.75172" fill="white"/>
<circle cx="43.0213" cy="206.096" r="3.75172" fill="white"/>
<circle cx="58.0271" cy="206.096" r="3.75172" fill="white"/>
<circle cx="58.0271" cy="221.103" r="3.75172" fill="white"/>
<circle cx="43.0213" cy="221.103" r="3.75172" fill="white"/>
<circle cx="43.0213" cy="236.11" r="3.75172" fill="white"/>
<circle cx="58.0271" cy="236.11" r="3.75172" fill="white"/>
<circle cx="58.0271" cy="251.117" r="3.75172" fill="white"/>
<circle cx="43.0213" cy="251.117" r="3.75172" fill="white"/>
<circle cx="43.0213" cy="266.124" r="3.75172" fill="white"/>
<circle cx="58.0271" cy="266.124" r="3.75172" fill="white"/>
<circle cx="58.0271" cy="281.131" r="3.75172" fill="white"/>
<circle cx="43.0213" cy="281.131" r="3.75172" fill="white"/>
<circle cx="43.0213" cy="296.137" r="3.75172" fill="white"/>
<circle cx="58.0271" cy="296.137" r="3.75172" fill="white"/>
<circle cx="58.0271" cy="311.144" r="3.75172" fill="white"/>
<circle cx="43.0213" cy="311.144" r="3.75172" fill="white"/>
<circle cx="27.7576" cy="55.7517" r="3.75172" fill="white"/>
<circle cx="27.7576" cy="70.7586" r="3.75172" fill="white"/>
<circle cx="27.7576" cy="85.7654" r="3.75172" fill="white"/>
<circle cx="27.7576" cy="100.772" r="3.75172" fill="white"/>
<circle cx="27.7576" cy="115.779" r="3.75172" fill="white"/>
<circle cx="27.7576" cy="130.786" r="3.75172" fill="white"/>
<circle cx="27.7576" cy="145.793" r="3.75172" fill="white"/>
<circle cx="27.7576" cy="160.8" r="3.75172" fill="white"/>
<circle cx="27.7576" cy="175.807" r="3.75172" fill="white"/>
<circle cx="27.7576" cy="190.814" r="3.75172" fill="white"/>
<circle cx="27.7576" cy="205.821" r="3.75172" fill="white"/>
<circle cx="27.7576" cy="220.827" r="3.75172" fill="white"/>
<circle cx="27.7576" cy="235.834" r="3.75172" fill="white"/>
<circle cx="27.7576" cy="250.841" r="3.75172" fill="white"/>
<circle cx="27.7576" cy="265.848" r="3.75172" fill="white"/>
<circle cx="27.7576" cy="280.855" r="3.75172" fill="white"/>
<circle cx="27.7576" cy="295.862" r="3.75172" fill="white"/>
<circle cx="27.7576" cy="310.868" r="3.75172" fill="white"/>
<ellipse cx="27.7571" cy="41.7517" rx="3.75172" ry="3.75715" transform="rotate(-90 27.7571 41.7517)" fill="white"/>
<ellipse cx="42.7864" cy="41.7517" rx="3.75172" ry="3.75715" transform="rotate(-90 42.7864 41.7517)" fill="white"/>
<ellipse cx="57.8138" cy="41.7517" rx="3.75172" ry="3.75715" transform="rotate(-90 57.8138 41.7517)" fill="white"/>
<ellipse cx="72.8431" cy="41.7517" rx="3.75172" ry="3.75715" transform="rotate(-90 72.8431 41.7517)" fill="white"/>
<ellipse cx="87.8704" cy="41.7517" rx="3.75172" ry="3.75715" transform="rotate(-90 87.8704 41.7517)" fill="white"/>
<ellipse cx="102.902" cy="41.7517" rx="3.75172" ry="3.75715" transform="rotate(-90 102.902 41.7517)" fill="white"/>
<ellipse cx="117.929" cy="41.7517" rx="3.75172" ry="3.75715" transform="rotate(-90 117.929 41.7517)" fill="white"/>
<ellipse cx="132.958" cy="41.7517" rx="3.75172" ry="3.75715" transform="rotate(-90 132.958 41.7517)" fill="white"/>
<ellipse cx="147.986" cy="41.7517" rx="3.75172" ry="3.75715" transform="rotate(-90 147.986 41.7517)" fill="white"/>
<ellipse cx="163.015" cy="41.7517" rx="3.75172" ry="3.75715" transform="rotate(-90 163.015 41.7517)" fill="white"/>
<ellipse cx="178.042" cy="41.7517" rx="3.75172" ry="3.75715" transform="rotate(-90 178.042 41.7517)" fill="white"/>
<ellipse cx="193.072" cy="41.7517" rx="3.75172" ry="3.75715" transform="rotate(-90 193.072 41.7517)" fill="white"/>
<ellipse cx="208.099" cy="41.7517" rx="3.75172" ry="3.75715" transform="rotate(-90 208.099 41.7517)" fill="white"/>
<ellipse cx="223.128" cy="41.7517" rx="3.75172" ry="3.75715" transform="rotate(-90 223.128 41.7517)" fill="white"/>
<ellipse cx="238.156" cy="41.7517" rx="3.75172" ry="3.75715" transform="rotate(-90 238.156 41.7517)" fill="white"/>
<ellipse cx="253.187" cy="41.7517" rx="3.75172" ry="3.75715" transform="rotate(-90 253.187 41.7517)" fill="white"/>
<ellipse cx="268.214" cy="41.7517" rx="3.75172" ry="3.75715" transform="rotate(-90 268.214 41.7517)" fill="white"/>
<ellipse cx="283.243" cy="41.7517" rx="3.75172" ry="3.75715" transform="rotate(-90 283.243 41.7517)" fill="white"/>
<ellipse cx="297.757" cy="41.7517" rx="3.75172" ry="3.75715" transform="rotate(-90 297.757 41.7517)" fill="white"/>
<ellipse cx="312.786" cy="41.7517" rx="3.75172" ry="3.75715" transform="rotate(-90 312.786 41.7517)" fill="white"/>
<ellipse cx="327.814" cy="41.7517" rx="3.75172" ry="3.75715" transform="rotate(-90 327.814 41.7517)" fill="white"/>
<ellipse cx="342.843" cy="41.7517" rx="3.75172" ry="3.75715" transform="rotate(-90 342.843 41.7517)" fill="white"/>
<ellipse cx="357.87" cy="41.7517" rx="3.75172" ry="3.75715" transform="rotate(-90 357.87 41.7517)" fill="white"/>
<ellipse cx="372.902" cy="41.7517" rx="3.75172" ry="3.75715" transform="rotate(-90 372.902 41.7517)" fill="white"/>
<ellipse cx="387.929" cy="41.7517" rx="3.75172" ry="3.75715" transform="rotate(-90 387.929 41.7517)" fill="white"/>
<ellipse cx="402.958" cy="41.7517" rx="3.75172" ry="3.75715" transform="rotate(-90 402.958 41.7517)" fill="white"/>
<ellipse cx="417.986" cy="41.7517" rx="3.75172" ry="3.75715" transform="rotate(-90 417.986 41.7517)" fill="white"/>
<ellipse cx="433.015" cy="41.7517" rx="3.75172" ry="3.75715" transform="rotate(-90 433.015 41.7517)" fill="white"/>
<ellipse cx="448.042" cy="41.7517" rx="3.75172" ry="3.75715" transform="rotate(-90 448.042 41.7517)" fill="white"/>
<ellipse cx="463.072" cy="41.7517" rx="3.75172" ry="3.75715" transform="rotate(-90 463.072 41.7517)" fill="white"/>
<ellipse cx="478.099" cy="41.7517" rx="3.75172" ry="3.75715" transform="rotate(-90 478.099 41.7517)" fill="white"/>
<ellipse cx="493.128" cy="41.7517" rx="3.75172" ry="3.75715" transform="rotate(-90 493.128 41.7517)" fill="white"/>
<ellipse cx="508.156" cy="41.7517" rx="3.75172" ry="3.75715" transform="rotate(-90 508.156 41.7517)" fill="white"/>
<ellipse cx="523.187" cy="41.7517" rx="3.75172" ry="3.75715" transform="rotate(-90 523.187 41.7517)" fill="white"/>
<ellipse cx="538.214" cy="41.7517" rx="3.75172" ry="3.75715" transform="rotate(-90 538.214 41.7517)" fill="white"/>
<circle cx="73.033" cy="56.0281" r="3.75172" fill="white"/>
<circle cx="88.0388" cy="56.0281" r="3.75172" fill="white"/>
<circle cx="88.0388" cy="71.0349" r="3.75172" fill="white"/>
<circle cx="73.033" cy="71.0349" r="3.75172" fill="white"/>
<circle cx="73.033" cy="86.0418" r="3.75172" fill="white"/>
<circle cx="88.0388" cy="86.0418" r="3.75172" fill="white"/>
<circle cx="88.0388" cy="101.049" r="3.75172" fill="white"/>
<circle cx="73.033" cy="101.049" r="3.75172" fill="white"/>
<circle cx="73.033" cy="116.055" r="3.75172" fill="white"/>
<circle cx="88.0388" cy="116.055" r="3.75172" fill="white"/>
<circle cx="88.0388" cy="131.063" r="3.75172" fill="white"/>
<circle cx="73.033" cy="131.063" r="3.75172" fill="white"/>
<circle cx="73.033" cy="146.07" r="3.75172" fill="white"/>
<circle cx="88.0388" cy="146.07" r="3.75172" fill="white"/>
<circle cx="88.0388" cy="161.076" r="3.75172" fill="white"/>
<circle cx="73.033" cy="161.076" r="3.75172" fill="white"/>
<circle cx="73.033" cy="176.083" r="3.75172" fill="white"/>
<circle cx="88.0388" cy="176.083" r="3.75172" fill="white"/>
<circle cx="88.0388" cy="191.09" r="3.75172" fill="white"/>
<circle cx="73.033" cy="191.09" r="3.75172" fill="white"/>
<circle cx="73.033" cy="206.097" r="3.75172" fill="white"/>
<circle cx="88.0388" cy="206.097" r="3.75172" fill="white"/>
<circle cx="88.0388" cy="221.104" r="3.75172" fill="white"/>
<circle cx="73.033" cy="221.104" r="3.75172" fill="white"/>
<circle cx="73.033" cy="236.111" r="3.75172" fill="white"/>
<circle cx="88.0388" cy="236.111" r="3.75172" fill="white"/>
<circle cx="88.0388" cy="251.117" r="3.75172" fill="white"/>
<circle cx="73.033" cy="251.117" r="3.75172" fill="white"/>
<circle cx="73.033" cy="266.124" r="3.75172" fill="white"/>
<circle cx="88.0388" cy="266.124" r="3.75172" fill="white"/>
<circle cx="88.0388" cy="281.131" r="3.75172" fill="white"/>
<circle cx="73.033" cy="281.131" r="3.75172" fill="white"/>
<circle cx="73.033" cy="296.138" r="3.75172" fill="white"/>
<circle cx="88.0388" cy="296.138" r="3.75172" fill="white"/>
<circle cx="88.0388" cy="311.145" r="3.75172" fill="white"/>
<circle cx="73.033" cy="311.145" r="3.75172" fill="white"/>
<circle cx="103.049" cy="56.0271" r="3.75172" fill="white"/>
<circle cx="118.054" cy="56.0271" r="3.75172" fill="white"/>
<circle cx="118.054" cy="71.034" r="3.75172" fill="white"/>
<circle cx="103.049" cy="71.034" r="3.75172" fill="white"/>
<circle cx="103.049" cy="86.0408" r="3.75172" fill="white"/>
<circle cx="118.054" cy="86.0408" r="3.75172" fill="white"/>
<circle cx="118.054" cy="101.048" r="3.75172" fill="white"/>
<circle cx="103.049" cy="101.048" r="3.75172" fill="white"/>
<circle cx="103.049" cy="116.054" r="3.75172" fill="white"/>
<circle cx="118.054" cy="116.054" r="3.75172" fill="white"/>
<circle cx="118.054" cy="131.061" r="3.75172" fill="white"/>
<circle cx="103.049" cy="131.061" r="3.75172" fill="white"/>
<circle cx="103.049" cy="146.069" r="3.75172" fill="white"/>
<circle cx="118.054" cy="146.069" r="3.75172" fill="white"/>
<circle cx="118.054" cy="161.075" r="3.75172" fill="white"/>
<circle cx="103.049" cy="161.075" r="3.75172" fill="white"/>
<circle cx="103.049" cy="176.082" r="3.75172" fill="white"/>
<circle cx="118.054" cy="176.082" r="3.75172" fill="white"/>
<circle cx="118.054" cy="191.089" r="3.75172" fill="white"/>
<circle cx="103.049" cy="191.089" r="3.75172" fill="white"/>
<circle cx="103.049" cy="206.096" r="3.75172" fill="white"/>
<circle cx="118.054" cy="206.096" r="3.75172" fill="white"/>
<circle cx="118.054" cy="221.103" r="3.75172" fill="white"/>
<circle cx="103.049" cy="221.103" r="3.75172" fill="white"/>
<circle cx="103.049" cy="236.11" r="3.75172" fill="white"/>
<circle cx="118.054" cy="236.11" r="3.75172" fill="white"/>
<circle cx="118.054" cy="251.116" r="3.75172" fill="white"/>
<circle cx="103.049" cy="251.116" r="3.75172" fill="white"/>
<circle cx="103.049" cy="266.123" r="3.75172" fill="white"/>
<circle cx="118.054" cy="266.123" r="3.75172" fill="white"/>
<circle cx="118.054" cy="281.13" r="3.75172" fill="white"/>
<circle cx="103.049" cy="281.13" r="3.75172" fill="white"/>
<circle cx="103.049" cy="296.137" r="3.75172" fill="white"/>
<circle cx="118.054" cy="296.137" r="3.75172" fill="white"/>
<circle cx="118.054" cy="311.144" r="3.75172" fill="white"/>
<circle cx="103.049" cy="311.144" r="3.75172" fill="white"/>
<circle cx="133.06" cy="56.0281" r="3.75172" fill="white"/>
<circle cx="148.07" cy="56.0276" r="3.75172" fill="white"/>
<circle cx="148.07" cy="71.0344" r="3.75172" fill="white"/>
<circle cx="133.06" cy="71.0344" r="3.75172" fill="white"/>
<circle cx="133.06" cy="86.0413" r="3.75172" fill="white"/>
<circle cx="148.07" cy="86.0413" r="3.75172" fill="white"/>
<circle cx="148.07" cy="101.048" r="3.75172" fill="white"/>
<circle cx="133.06" cy="101.048" r="3.75172" fill="white"/>
<circle cx="133.06" cy="116.055" r="3.75172" fill="white"/>
<circle cx="148.07" cy="116.055" r="3.75172" fill="white"/>
<circle cx="148.07" cy="131.062" r="3.75172" fill="white"/>
<circle cx="133.06" cy="131.062" r="3.75172" fill="white"/>
<circle cx="133.06" cy="146.069" r="3.75172" fill="white"/>
<circle cx="148.07" cy="146.069" r="3.75172" fill="white"/>
<circle cx="148.07" cy="161.075" r="3.75172" fill="white"/>
<circle cx="133.06" cy="161.075" r="3.75172" fill="white"/>
<circle cx="133.06" cy="176.083" r="3.75172" fill="white"/>
<circle cx="148.07" cy="176.083" r="3.75172" fill="white"/>
<circle cx="148.07" cy="191.09" r="3.75172" fill="white"/>
<circle cx="133.06" cy="191.09" r="3.75172" fill="white"/>
<circle cx="133.06" cy="206.096" r="3.75172" fill="white"/>
<circle cx="148.07" cy="206.096" r="3.75172" fill="white"/>
<circle cx="148.07" cy="221.103" r="3.75172" fill="white"/>
<circle cx="133.06" cy="221.103" r="3.75172" fill="white"/>
<circle cx="133.06" cy="236.11" r="3.75172" fill="white"/>
<circle cx="148.07" cy="236.11" r="3.75172" fill="white"/>
<circle cx="148.07" cy="251.117" r="3.75172" fill="white"/>
<circle cx="133.06" cy="251.117" r="3.75172" fill="white"/>
<circle cx="133.06" cy="266.124" r="3.75172" fill="white"/>
<circle cx="148.07" cy="266.124" r="3.75172" fill="white"/>
<circle cx="148.07" cy="281.131" r="3.75172" fill="white"/>
<circle cx="133.06" cy="281.131" r="3.75172" fill="white"/>
<circle cx="133.06" cy="296.137" r="3.75172" fill="white"/>
<circle cx="148.07" cy="296.137" r="3.75172" fill="white"/>
<circle cx="148.07" cy="311.144" r="3.75172" fill="white"/>
<circle cx="133.06" cy="311.144" r="3.75172" fill="white"/>
<circle cx="163.076" cy="56.0271" r="3.75172" fill="white"/>
<circle cx="178.082" cy="56.0271" r="3.75172" fill="white"/>
<circle cx="178.082" cy="71.034" r="3.75172" fill="white"/>
<circle cx="163.076" cy="71.034" r="3.75172" fill="white"/>
<circle cx="163.076" cy="86.0408" r="3.75172" fill="white"/>
<circle cx="178.082" cy="86.0408" r="3.75172" fill="white"/>
<circle cx="178.082" cy="101.048" r="3.75172" fill="white"/>
<circle cx="163.076" cy="101.048" r="3.75172" fill="white"/>
<circle cx="163.076" cy="116.054" r="3.75172" fill="white"/>
<circle cx="178.082" cy="116.054" r="3.75172" fill="white"/>
<circle cx="178.082" cy="131.061" r="3.75172" fill="white"/>
<circle cx="163.076" cy="131.061" r="3.75172" fill="white"/>
<circle cx="163.076" cy="146.069" r="3.75172" fill="white"/>
<circle cx="178.082" cy="146.069" r="3.75172" fill="white"/>
<circle cx="178.082" cy="161.075" r="3.75172" fill="white"/>
<circle cx="163.076" cy="161.075" r="3.75172" fill="white"/>
<circle cx="163.076" cy="176.082" r="3.75172" fill="white"/>
<circle cx="178.082" cy="176.082" r="3.75172" fill="white"/>
<circle cx="178.082" cy="191.089" r="3.75172" fill="white"/>
<circle cx="163.076" cy="191.089" r="3.75172" fill="white"/>
<circle cx="163.076" cy="206.096" r="3.75172" fill="white"/>
<circle cx="178.082" cy="206.096" r="3.75172" fill="white"/>
<circle cx="178.082" cy="221.103" r="3.75172" fill="white"/>
<circle cx="163.076" cy="221.103" r="3.75172" fill="white"/>
<circle cx="163.076" cy="236.11" r="3.75172" fill="white"/>
<circle cx="178.082" cy="236.11" r="3.75172" fill="white"/>
<circle cx="178.082" cy="251.116" r="3.75172" fill="white"/>
<circle cx="163.076" cy="251.116" r="3.75172" fill="white"/>
<circle cx="163.076" cy="266.123" r="3.75172" fill="white"/>
<circle cx="178.082" cy="266.123" r="3.75172" fill="white"/>
<circle cx="178.082" cy="281.13" r="3.75172" fill="white"/>
<circle cx="163.076" cy="281.13" r="3.75172" fill="white"/>
<circle cx="163.076" cy="296.137" r="3.75172" fill="white"/>
<circle cx="178.082" cy="296.137" r="3.75172" fill="white"/>
<circle cx="178.082" cy="311.144" r="3.75172" fill="white"/>
<circle cx="163.076" cy="311.144" r="3.75172" fill="white"/>
<circle cx="193.088" cy="56.0276" r="3.75172" fill="white"/>
<circle cx="208.095" cy="56.0276" r="3.75172" fill="white"/>
<circle cx="208.095" cy="71.0344" r="3.75172" fill="white"/>
<circle cx="193.088" cy="71.0344" r="3.75172" fill="white"/>
<circle cx="193.088" cy="86.0413" r="3.75172" fill="white"/>
<circle cx="208.095" cy="86.0413" r="3.75172" fill="white"/>
<circle cx="208.095" cy="101.048" r="3.75172" fill="white"/>
<circle cx="193.088" cy="101.048" r="3.75172" fill="white"/>
<circle cx="193.088" cy="116.055" r="3.75172" fill="white"/>
<circle cx="208.095" cy="116.055" r="3.75172" fill="white"/>
<circle cx="208.095" cy="131.062" r="3.75172" fill="white"/>
<circle cx="193.088" cy="131.062" r="3.75172" fill="white"/>
<circle cx="193.088" cy="146.069" r="3.75172" fill="white"/>
<circle cx="208.095" cy="146.069" r="3.75172" fill="white"/>
<circle cx="208.095" cy="161.075" r="3.75172" fill="white"/>
<circle cx="193.088" cy="161.075" r="3.75172" fill="white"/>
<circle cx="193.088" cy="176.083" r="3.75172" fill="white"/>
<circle cx="208.095" cy="176.083" r="3.75172" fill="white"/>
<circle cx="208.095" cy="191.09" r="3.75172" fill="white"/>
<circle cx="193.088" cy="191.09" r="3.75172" fill="white"/>
<circle cx="193.088" cy="206.096" r="3.75172" fill="white"/>
<circle cx="208.095" cy="206.096" r="3.75172" fill="white"/>
<circle cx="208.095" cy="221.103" r="3.75172" fill="white"/>
<circle cx="193.088" cy="221.103" r="3.75172" fill="white"/>
<circle cx="193.088" cy="236.11" r="3.75172" fill="white"/>
<circle cx="208.095" cy="236.11" r="3.75172" fill="white"/>
<circle cx="208.095" cy="251.117" r="3.75172" fill="white"/>
<circle cx="193.088" cy="251.117" r="3.75172" fill="white"/>
<circle cx="193.088" cy="266.124" r="3.75172" fill="white"/>
<circle cx="208.095" cy="266.124" r="3.75172" fill="white"/>
<circle cx="208.095" cy="281.131" r="3.75172" fill="white"/>
<circle cx="193.088" cy="281.131" r="3.75172" fill="white"/>
<circle cx="193.088" cy="296.137" r="3.75172" fill="white"/>
<circle cx="208.095" cy="296.137" r="3.75172" fill="white"/>
<circle cx="208.095" cy="311.144" r="3.75172" fill="white"/>
<circle cx="193.088" cy="311.144" r="3.75172" fill="white"/>
<circle cx="223.103" cy="56.0276" r="3.75172" fill="white"/>
<circle cx="238.109" cy="56.0276" r="3.75172" fill="white"/>
<circle cx="238.109" cy="71.0344" r="3.75172" fill="white"/>
<circle cx="223.103" cy="71.0344" r="3.75172" fill="white"/>
<circle cx="223.103" cy="86.0413" r="3.75172" fill="white"/>
<circle cx="238.109" cy="86.0413" r="3.75172" fill="white"/>
<circle cx="238.109" cy="101.048" r="3.75172" fill="white"/>
<circle cx="223.103" cy="101.048" r="3.75172" fill="white"/>
<circle cx="223.103" cy="116.055" r="3.75172" fill="white"/>
<circle cx="238.109" cy="116.055" r="3.75172" fill="white"/>
<circle cx="238.109" cy="131.062" r="3.75172" fill="white"/>
<circle cx="223.103" cy="131.062" r="3.75172" fill="white"/>
<circle cx="223.103" cy="146.069" r="3.75172" fill="white"/>
<circle cx="238.109" cy="146.069" r="3.75172" fill="white"/>
<circle cx="238.109" cy="161.075" r="3.75172" fill="white"/>
<circle cx="223.103" cy="161.075" r="3.75172" fill="white"/>
<circle cx="223.103" cy="176.083" r="3.75172" fill="white"/>
<circle cx="238.109" cy="176.083" r="3.75172" fill="white"/>
<circle cx="238.109" cy="191.09" r="3.75172" fill="white"/>
<circle cx="223.103" cy="191.09" r="3.75172" fill="white"/>
<circle cx="223.103" cy="206.096" r="3.75172" fill="white"/>
<circle cx="238.109" cy="206.096" r="3.75172" fill="white"/>
<circle cx="238.109" cy="221.103" r="3.75172" fill="white"/>
<circle cx="223.103" cy="221.103" r="3.75172" fill="white"/>
<circle cx="223.103" cy="236.11" r="3.75172" fill="white"/>
<circle cx="238.109" cy="236.11" r="3.75172" fill="white"/>
<circle cx="238.109" cy="251.117" r="3.75172" fill="white"/>
<circle cx="223.103" cy="251.117" r="3.75172" fill="white"/>
<circle cx="223.103" cy="266.124" r="3.75172" fill="white"/>
<circle cx="238.109" cy="266.124" r="3.75172" fill="white"/>
<circle cx="238.109" cy="281.131" r="3.75172" fill="white"/>
<circle cx="223.103" cy="281.131" r="3.75172" fill="white"/>
<circle cx="223.103" cy="296.137" r="3.75172" fill="white"/>
<circle cx="238.109" cy="296.137" r="3.75172" fill="white"/>
<circle cx="238.109" cy="311.144" r="3.75172" fill="white"/>
<circle cx="223.103" cy="311.144" r="3.75172" fill="white"/>
<circle cx="253.117" cy="56.0281" r="3.75172" fill="white"/>
<circle cx="268.123" cy="56.0281" r="3.75172" fill="white"/>
<circle cx="268.123" cy="71.0349" r="3.75172" fill="white"/>
<circle cx="253.117" cy="71.0349" r="3.75172" fill="white"/>
<circle cx="253.117" cy="86.0418" r="3.75172" fill="white"/>
<circle cx="268.123" cy="86.0418" r="3.75172" fill="white"/>
<circle cx="268.123" cy="101.049" r="3.75172" fill="white"/>
<circle cx="253.117" cy="101.049" r="3.75172" fill="white"/>
<circle cx="253.117" cy="116.055" r="3.75172" fill="white"/>
<circle cx="268.123" cy="116.055" r="3.75172" fill="white"/>
<circle cx="268.123" cy="131.063" r="3.75172" fill="white"/>
<circle cx="253.117" cy="131.063" r="3.75172" fill="white"/>
<circle cx="253.117" cy="146.07" r="3.75172" fill="white"/>
<circle cx="268.123" cy="146.07" r="3.75172" fill="white"/>
<circle cx="268.123" cy="161.076" r="3.75172" fill="white"/>
<circle cx="253.117" cy="161.076" r="3.75172" fill="white"/>
<circle cx="253.117" cy="176.083" r="3.75172" fill="white"/>
<circle cx="268.123" cy="176.083" r="3.75172" fill="white"/>
<circle cx="268.123" cy="191.09" r="3.75172" fill="white"/>
<circle cx="253.117" cy="191.09" r="3.75172" fill="white"/>
<circle cx="253.117" cy="206.097" r="3.75172" fill="white"/>
<circle cx="268.123" cy="206.097" r="3.75172" fill="white"/>
<circle cx="268.123" cy="221.104" r="3.75172" fill="white"/>
<circle cx="253.117" cy="221.104" r="3.75172" fill="white"/>
<circle cx="253.117" cy="236.111" r="3.75172" fill="white"/>
<circle cx="268.123" cy="236.111" r="3.75172" fill="white"/>
<circle cx="268.123" cy="251.117" r="3.75172" fill="white"/>
<circle cx="253.117" cy="251.117" r="3.75172" fill="white"/>
<circle cx="253.117" cy="266.124" r="3.75172" fill="white"/>
<circle cx="268.123" cy="266.124" r="3.75172" fill="white"/>
<circle cx="268.123" cy="281.131" r="3.75172" fill="white"/>
<circle cx="253.117" cy="281.131" r="3.75172" fill="white"/>
<circle cx="253.117" cy="296.138" r="3.75172" fill="white"/>
<circle cx="268.123" cy="296.138" r="3.75172" fill="white"/>
<circle cx="268.123" cy="311.145" r="3.75172" fill="white"/>
<circle cx="253.117" cy="311.145" r="3.75172" fill="white"/>
<circle cx="283.131" cy="56.0276" r="3.75172" fill="white"/>
<circle cx="298.136" cy="56.0276" r="3.75172" fill="white"/>
<circle cx="298.136" cy="71.0344" r="3.75172" fill="white"/>
<circle cx="283.131" cy="71.0344" r="3.75172" fill="white"/>
<circle cx="283.131" cy="86.0413" r="3.75172" fill="white"/>
<circle cx="298.136" cy="86.0413" r="3.75172" fill="white"/>
<circle cx="298.136" cy="101.048" r="3.75172" fill="white"/>
<circle cx="283.131" cy="101.048" r="3.75172" fill="white"/>
<circle cx="283.131" cy="116.055" r="3.75172" fill="white"/>
<circle cx="298.136" cy="116.055" r="3.75172" fill="white"/>
<circle cx="298.136" cy="131.062" r="3.75172" fill="white"/>
<circle cx="283.131" cy="131.062" r="3.75172" fill="white"/>
<circle cx="283.131" cy="146.069" r="3.75172" fill="white"/>
<circle cx="298.136" cy="146.069" r="3.75172" fill="white"/>
<circle cx="298.136" cy="161.075" r="3.75172" fill="white"/>
<circle cx="283.131" cy="161.075" r="3.75172" fill="white"/>
<circle cx="283.131" cy="176.083" r="3.75172" fill="white"/>
<circle cx="298.136" cy="176.083" r="3.75172" fill="white"/>
<circle cx="298.136" cy="191.09" r="3.75172" fill="white"/>
<circle cx="283.131" cy="191.09" r="3.75172" fill="white"/>
<circle cx="283.131" cy="206.096" r="3.75172" fill="white"/>
<circle cx="298.136" cy="206.096" r="3.75172" fill="white"/>
<circle cx="298.136" cy="221.103" r="3.75172" fill="white"/>
<circle cx="283.131" cy="221.103" r="3.75172" fill="white"/>
<circle cx="283.131" cy="236.11" r="3.75172" fill="white"/>
<circle cx="298.136" cy="236.11" r="3.75172" fill="white"/>
<circle cx="298.136" cy="251.117" r="3.75172" fill="white"/>
<circle cx="283.131" cy="251.117" r="3.75172" fill="white"/>
<circle cx="283.131" cy="266.124" r="3.75172" fill="white"/>
<circle cx="298.136" cy="266.124" r="3.75172" fill="white"/>
<circle cx="298.136" cy="281.131" r="3.75172" fill="white"/>
<circle cx="283.131" cy="281.131" r="3.75172" fill="white"/>
<circle cx="283.131" cy="296.137" r="3.75172" fill="white"/>
<circle cx="298.136" cy="296.137" r="3.75172" fill="white"/>
<circle cx="298.136" cy="311.144" r="3.75172" fill="white"/>
<circle cx="283.131" cy="311.144" r="3.75172" fill="white"/>
<circle cx="313.146" cy="56.0281" r="3.75172" fill="white"/>
<circle cx="328.152" cy="56.0281" r="3.75172" fill="white"/>
<circle cx="328.152" cy="71.0349" r="3.75172" fill="white"/>
<circle cx="313.146" cy="71.0349" r="3.75172" fill="white"/>
<circle cx="313.146" cy="86.0418" r="3.75172" fill="white"/>
<circle cx="328.152" cy="86.0418" r="3.75172" fill="white"/>
<circle cx="328.152" cy="101.049" r="3.75172" fill="white"/>
<circle cx="313.146" cy="101.049" r="3.75172" fill="white"/>
<circle cx="313.146" cy="116.055" r="3.75172" fill="white"/>
<circle cx="328.152" cy="116.055" r="3.75172" fill="white"/>
<circle cx="328.152" cy="131.063" r="3.75172" fill="white"/>
<circle cx="313.146" cy="131.063" r="3.75172" fill="white"/>
<circle cx="313.146" cy="146.07" r="3.75172" fill="white"/>
<circle cx="328.152" cy="146.07" r="3.75172" fill="white"/>
<circle cx="328.152" cy="161.076" r="3.75172" fill="white"/>
<circle cx="313.146" cy="161.076" r="3.75172" fill="white"/>
<circle cx="313.146" cy="176.083" r="3.75172" fill="white"/>
<circle cx="328.152" cy="176.083" r="3.75172" fill="white"/>
<circle cx="328.152" cy="191.09" r="3.75172" fill="white"/>
<circle cx="313.146" cy="191.09" r="3.75172" fill="white"/>
<circle cx="313.146" cy="206.097" r="3.75172" fill="white"/>
<circle cx="328.152" cy="206.097" r="3.75172" fill="white"/>
<circle cx="328.152" cy="221.104" r="3.75172" fill="white"/>
<circle cx="313.146" cy="221.104" r="3.75172" fill="white"/>
<circle cx="313.146" cy="236.111" r="3.75172" fill="white"/>
<circle cx="328.152" cy="236.111" r="3.75172" fill="white"/>
<circle cx="328.152" cy="251.117" r="3.75172" fill="white"/>
<circle cx="313.146" cy="251.117" r="3.75172" fill="white"/>
<circle cx="313.146" cy="266.124" r="3.75172" fill="white"/>
<circle cx="328.152" cy="266.124" r="3.75172" fill="white"/>
<circle cx="328.152" cy="281.131" r="3.75172" fill="white"/>
<circle cx="313.146" cy="281.131" r="3.75172" fill="white"/>
<circle cx="313.146" cy="296.138" r="3.75172" fill="white"/>
<circle cx="328.152" cy="296.138" r="3.75172" fill="white"/>
<circle cx="328.152" cy="311.145" r="3.75172" fill="white"/>
<circle cx="313.146" cy="311.145" r="3.75172" fill="white"/>
<circle cx="343.158" cy="56.0276" r="3.75172" fill="white"/>
<circle cx="358.164" cy="56.0276" r="3.75172" fill="white"/>
<circle cx="358.164" cy="71.0344" r="3.75172" fill="white"/>
<circle cx="343.158" cy="71.0344" r="3.75172" fill="white"/>
<circle cx="343.158" cy="86.0413" r="3.75172" fill="white"/>
<circle cx="358.164" cy="86.0413" r="3.75172" fill="white"/>
<circle cx="358.164" cy="101.048" r="3.75172" fill="white"/>
<circle cx="343.158" cy="101.048" r="3.75172" fill="white"/>
<circle cx="343.158" cy="116.055" r="3.75172" fill="white"/>
<circle cx="358.164" cy="116.055" r="3.75172" fill="white"/>
<circle cx="358.164" cy="131.062" r="3.75172" fill="white"/>
<circle cx="343.158" cy="131.062" r="3.75172" fill="white"/>
<circle cx="343.158" cy="146.069" r="3.75172" fill="white"/>
<circle cx="358.164" cy="146.069" r="3.75172" fill="white"/>
<circle cx="358.164" cy="161.075" r="3.75172" fill="white"/>
<circle cx="343.158" cy="161.075" r="3.75172" fill="white"/>
<circle cx="343.158" cy="176.083" r="3.75172" fill="white"/>
<circle cx="358.164" cy="176.083" r="3.75172" fill="white"/>
<circle cx="358.164" cy="191.09" r="3.75172" fill="white"/>
<circle cx="343.158" cy="191.09" r="3.75172" fill="white"/>
<circle cx="343.158" cy="206.096" r="3.75172" fill="white"/>
<circle cx="358.164" cy="206.096" r="3.75172" fill="white"/>
<circle cx="358.164" cy="221.103" r="3.75172" fill="white"/>
<circle cx="343.158" cy="221.103" r="3.75172" fill="white"/>
<circle cx="343.158" cy="236.11" r="3.75172" fill="white"/>
<circle cx="358.164" cy="236.11" r="3.75172" fill="white"/>
<circle cx="358.164" cy="251.117" r="3.75172" fill="white"/>
<circle cx="343.158" cy="251.117" r="3.75172" fill="white"/>
<circle cx="343.158" cy="266.124" r="3.75172" fill="white"/>
<circle cx="358.164" cy="266.124" r="3.75172" fill="white"/>
<circle cx="358.164" cy="281.131" r="3.75172" fill="white"/>
<circle cx="343.158" cy="281.131" r="3.75172" fill="white"/>
<circle cx="343.158" cy="296.137" r="3.75172" fill="white"/>
<circle cx="358.164" cy="296.137" r="3.75172" fill="white"/>
<circle cx="358.164" cy="311.144" r="3.75172" fill="white"/>
<circle cx="343.158" cy="311.144" r="3.75172" fill="white"/>
<circle cx="373.17" cy="56.0276" r="3.75172" fill="white"/>
<circle cx="388.176" cy="56.0281" r="3.75172" fill="white"/>
<circle cx="388.176" cy="71.0349" r="3.75172" fill="white"/>
<circle cx="373.17" cy="71.0349" r="3.75172" fill="white"/>
<circle cx="373.17" cy="86.0418" r="3.75172" fill="white"/>
<circle cx="388.176" cy="86.0418" r="3.75172" fill="white"/>
<circle cx="388.176" cy="101.049" r="3.75172" fill="white"/>
<circle cx="373.17" cy="101.049" r="3.75172" fill="white"/>
<circle cx="373.17" cy="116.055" r="3.75172" fill="white"/>
<circle cx="388.176" cy="116.055" r="3.75172" fill="white"/>
<circle cx="388.176" cy="131.063" r="3.75172" fill="white"/>
<circle cx="373.17" cy="131.063" r="3.75172" fill="white"/>
<circle cx="373.17" cy="146.07" r="3.75172" fill="white"/>
<circle cx="388.176" cy="146.07" r="3.75172" fill="white"/>
<circle cx="388.176" cy="161.076" r="3.75172" fill="white"/>
<circle cx="373.17" cy="161.076" r="3.75172" fill="white"/>
<circle cx="373.17" cy="176.083" r="3.75172" fill="white"/>
<circle cx="388.176" cy="176.083" r="3.75172" fill="white"/>
<circle cx="388.176" cy="191.09" r="3.75172" fill="white"/>
<circle cx="373.17" cy="191.09" r="3.75172" fill="white"/>
<circle cx="373.17" cy="206.097" r="3.75172" fill="white"/>
<circle cx="388.176" cy="206.097" r="3.75172" fill="white"/>
<circle cx="388.176" cy="221.104" r="3.75172" fill="white"/>
<circle cx="373.17" cy="221.104" r="3.75172" fill="white"/>
<circle cx="373.17" cy="236.111" r="3.75172" fill="white"/>
<circle cx="388.176" cy="236.111" r="3.75172" fill="white"/>
<circle cx="388.176" cy="251.117" r="3.75172" fill="white"/>
<circle cx="373.17" cy="251.117" r="3.75172" fill="white"/>
<circle cx="373.17" cy="266.124" r="3.75172" fill="white"/>
<circle cx="388.176" cy="266.124" r="3.75172" fill="white"/>
<circle cx="388.176" cy="281.131" r="3.75172" fill="white"/>
<circle cx="373.17" cy="281.131" r="3.75172" fill="white"/>
<circle cx="373.17" cy="296.138" r="3.75172" fill="white"/>
<circle cx="388.176" cy="296.138" r="3.75172" fill="white"/>
<circle cx="388.176" cy="311.145" r="3.75172" fill="white"/>
<circle cx="373.17" cy="311.145" r="3.75172" fill="white"/>
<circle cx="403.185" cy="56.0281" r="3.75172" fill="white"/>
<circle cx="418.191" cy="56.0276" r="3.75172" fill="white"/>
<circle cx="418.191" cy="71.0344" r="3.75172" fill="white"/>
<circle cx="403.185" cy="71.0344" r="3.75172" fill="white"/>
<circle cx="403.185" cy="86.0413" r="3.75172" fill="white"/>
<circle cx="418.191" cy="86.0413" r="3.75172" fill="white"/>
<circle cx="418.191" cy="101.048" r="3.75172" fill="white"/>
<circle cx="403.185" cy="101.048" r="3.75172" fill="white"/>
<circle cx="403.185" cy="116.055" r="3.75172" fill="white"/>
<circle cx="418.191" cy="116.055" r="3.75172" fill="white"/>
<circle cx="418.191" cy="131.062" r="3.75172" fill="white"/>
<circle cx="403.185" cy="131.062" r="3.75172" fill="white"/>
<circle cx="403.185" cy="146.069" r="3.75172" fill="white"/>
<circle cx="418.191" cy="146.069" r="3.75172" fill="white"/>
<circle cx="418.191" cy="161.075" r="3.75172" fill="white"/>
<circle cx="403.185" cy="161.075" r="3.75172" fill="white"/>
<circle cx="403.185" cy="176.083" r="3.75172" fill="white"/>
<circle cx="418.191" cy="176.083" r="3.75172" fill="white"/>
<circle cx="418.191" cy="191.09" r="3.75172" fill="white"/>
<circle cx="403.185" cy="191.09" r="3.75172" fill="white"/>
<circle cx="403.185" cy="206.096" r="3.75172" fill="white"/>
<circle cx="418.191" cy="206.096" r="3.75172" fill="white"/>
<circle cx="418.191" cy="221.103" r="3.75172" fill="white"/>
<circle cx="403.185" cy="221.103" r="3.75172" fill="white"/>
<circle cx="403.185" cy="236.11" r="3.75172" fill="white"/>
<circle cx="418.191" cy="236.11" r="3.75172" fill="white"/>
<circle cx="418.191" cy="251.117" r="3.75172" fill="white"/>
<circle cx="403.185" cy="251.117" r="3.75172" fill="white"/>
<circle cx="403.185" cy="266.124" r="3.75172" fill="white"/>
<circle cx="418.191" cy="266.124" r="3.75172" fill="white"/>
<circle cx="418.191" cy="281.131" r="3.75172" fill="white"/>
<circle cx="403.185" cy="281.131" r="3.75172" fill="white"/>
<circle cx="403.185" cy="296.137" r="3.75172" fill="white"/>
<circle cx="418.191" cy="296.137" r="3.75172" fill="white"/>
<circle cx="418.191" cy="311.144" r="3.75172" fill="white"/>
<circle cx="403.185" cy="311.144" r="3.75172" fill="white"/>
<circle cx="433.201" cy="56.0281" r="3.75172" fill="white"/>
<circle cx="448.207" cy="56.0281" r="3.75172" fill="white"/>
<circle cx="448.207" cy="71.0349" r="3.75172" fill="white"/>
<circle cx="433.201" cy="71.0349" r="3.75172" fill="white"/>
<circle cx="433.201" cy="86.0418" r="3.75172" fill="white"/>
<circle cx="448.207" cy="86.0418" r="3.75172" fill="white"/>
<circle cx="448.207" cy="101.049" r="3.75172" fill="white"/>
<circle cx="433.201" cy="101.049" r="3.75172" fill="white"/>
<circle cx="433.201" cy="116.055" r="3.75172" fill="white"/>
<circle cx="448.207" cy="116.055" r="3.75172" fill="white"/>
<circle cx="448.207" cy="131.063" r="3.75172" fill="white"/>
<circle cx="433.201" cy="131.063" r="3.75172" fill="white"/>
<circle cx="433.201" cy="146.07" r="3.75172" fill="white"/>
<circle cx="448.207" cy="146.07" r="3.75172" fill="white"/>
<circle cx="448.207" cy="161.076" r="3.75172" fill="white"/>
<circle cx="433.201" cy="161.076" r="3.75172" fill="white"/>
<circle cx="433.201" cy="176.083" r="3.75172" fill="white"/>
<circle cx="448.207" cy="176.083" r="3.75172" fill="white"/>
<circle cx="448.207" cy="191.09" r="3.75172" fill="white"/>
<circle cx="433.201" cy="191.09" r="3.75172" fill="white"/>
<circle cx="433.201" cy="206.097" r="3.75172" fill="white"/>
<circle cx="448.207" cy="206.097" r="3.75172" fill="white"/>
<circle cx="448.207" cy="221.104" r="3.75172" fill="white"/>
<circle cx="433.201" cy="221.104" r="3.75172" fill="white"/>
<circle cx="433.201" cy="236.111" r="3.75172" fill="white"/>
<circle cx="448.207" cy="236.111" r="3.75172" fill="white"/>
<circle cx="448.207" cy="251.117" r="3.75172" fill="white"/>
<circle cx="433.201" cy="251.117" r="3.75172" fill="white"/>
<circle cx="433.201" cy="266.124" r="3.75172" fill="white"/>
<circle cx="448.207" cy="266.124" r="3.75172" fill="white"/>
<circle cx="448.207" cy="281.131" r="3.75172" fill="white"/>
<circle cx="433.201" cy="281.131" r="3.75172" fill="white"/>
<circle cx="433.201" cy="296.138" r="3.75172" fill="white"/>
<circle cx="448.207" cy="296.138" r="3.75172" fill="white"/>
<circle cx="448.207" cy="311.145" r="3.75172" fill="white"/>
<circle cx="433.201" cy="311.145" r="3.75172" fill="white"/>
<circle cx="463.215" cy="56.0271" r="3.75172" fill="white"/>
<circle cx="478.22" cy="56.0271" r="3.75172" fill="white"/>
<circle cx="478.22" cy="71.034" r="3.75172" fill="white"/>
<circle cx="463.215" cy="71.034" r="3.75172" fill="white"/>
<circle cx="463.215" cy="86.0408" r="3.75172" fill="white"/>
<circle cx="478.22" cy="86.0408" r="3.75172" fill="white"/>
<circle cx="478.22" cy="101.048" r="3.75172" fill="white"/>
<circle cx="463.215" cy="101.048" r="3.75172" fill="white"/>
<circle cx="463.215" cy="116.054" r="3.75172" fill="white"/>
<circle cx="478.22" cy="116.054" r="3.75172" fill="white"/>
<circle cx="478.22" cy="131.061" r="3.75172" fill="white"/>
<circle cx="463.215" cy="131.061" r="3.75172" fill="white"/>
<circle cx="463.215" cy="146.069" r="3.75172" fill="white"/>
<circle cx="478.22" cy="146.069" r="3.75172" fill="white"/>
<circle cx="478.22" cy="161.075" r="3.75172" fill="white"/>
<circle cx="463.215" cy="161.075" r="3.75172" fill="white"/>
<circle cx="463.215" cy="176.082" r="3.75172" fill="white"/>
<circle cx="478.22" cy="176.082" r="3.75172" fill="white"/>
<circle cx="478.22" cy="191.089" r="3.75172" fill="white"/>
<circle cx="463.215" cy="191.089" r="3.75172" fill="white"/>
<circle cx="463.215" cy="206.096" r="3.75172" fill="white"/>
<circle cx="478.22" cy="206.096" r="3.75172" fill="white"/>
<circle cx="478.22" cy="221.103" r="3.75172" fill="white"/>
<circle cx="463.215" cy="221.103" r="3.75172" fill="white"/>
<circle cx="463.215" cy="236.11" r="3.75172" fill="white"/>
<circle cx="478.22" cy="236.11" r="3.75172" fill="white"/>
<circle cx="478.22" cy="251.116" r="3.75172" fill="white"/>
<circle cx="463.215" cy="251.116" r="3.75172" fill="white"/>
<circle cx="463.215" cy="266.123" r="3.75172" fill="white"/>
<circle cx="478.22" cy="266.123" r="3.75172" fill="white"/>
<circle cx="478.22" cy="281.13" r="3.75172" fill="white"/>
<circle cx="463.215" cy="281.13" r="3.75172" fill="white"/>
<circle cx="463.215" cy="296.137" r="3.75172" fill="white"/>
<circle cx="478.22" cy="296.137" r="3.75172" fill="white"/>
<circle cx="478.22" cy="311.144" r="3.75172" fill="white"/>
<circle cx="463.215" cy="311.144" r="3.75172" fill="white"/>
<circle cx="493.226" cy="56.0271" r="3.75172" fill="white"/>
<circle cx="508.232" cy="56.0276" r="3.75172" fill="white"/>
<circle cx="508.232" cy="71.0344" r="3.75172" fill="white"/>
<circle cx="493.226" cy="71.0344" r="3.75172" fill="white"/>
<circle cx="493.226" cy="86.0413" r="3.75172" fill="white"/>
<circle cx="508.232" cy="86.0413" r="3.75172" fill="white"/>
<circle cx="508.232" cy="101.049" r="3.75172" fill="white"/>
<circle cx="493.226" cy="101.049" r="3.75172" fill="white"/>
<circle cx="493.226" cy="116.055" r="3.75172" fill="white"/>
<circle cx="508.232" cy="116.055" r="3.75172" fill="white"/>
<circle cx="508.232" cy="131.062" r="3.75172" fill="white"/>
<circle cx="493.226" cy="131.062" r="3.75172" fill="white"/>
<circle cx="493.226" cy="146.069" r="3.75172" fill="white"/>
<circle cx="508.232" cy="146.069" r="3.75172" fill="white"/>
<circle cx="508.232" cy="161.076" r="3.75172" fill="white"/>
<circle cx="493.226" cy="161.076" r="3.75172" fill="white"/>
<circle cx="493.226" cy="176.083" r="3.75172" fill="white"/>
<circle cx="508.232" cy="176.083" r="3.75172" fill="white"/>
<circle cx="508.232" cy="191.09" r="3.75172" fill="white"/>
<circle cx="493.226" cy="191.09" r="3.75172" fill="white"/>
<circle cx="493.226" cy="206.096" r="3.75172" fill="white"/>
<circle cx="508.232" cy="206.096" r="3.75172" fill="white"/>
<circle cx="508.232" cy="221.103" r="3.75172" fill="white"/>
<circle cx="493.226" cy="221.103" r="3.75172" fill="white"/>
<circle cx="493.226" cy="236.11" r="3.75172" fill="white"/>
<circle cx="508.232" cy="236.11" r="3.75172" fill="white"/>
<circle cx="508.232" cy="251.117" r="3.75172" fill="white"/>
<circle cx="493.226" cy="251.117" r="3.75172" fill="white"/>
<circle cx="493.226" cy="266.124" r="3.75172" fill="white"/>
<circle cx="508.232" cy="266.124" r="3.75172" fill="white"/>
<circle cx="508.232" cy="281.131" r="3.75172" fill="white"/>
<circle cx="493.226" cy="281.131" r="3.75172" fill="white"/>
<circle cx="493.226" cy="296.138" r="3.75172" fill="white"/>
<circle cx="508.232" cy="296.138" r="3.75172" fill="white"/>
<circle cx="508.232" cy="311.145" r="3.75172" fill="white"/>
<circle cx="493.226" cy="311.145" r="3.75172" fill="white"/>
<circle cx="523.242" cy="56.0276" r="3.75172" fill="white"/>
<circle cx="538.248" cy="56.0271" r="3.75172" fill="white"/>
<circle cx="538.248" cy="71.034" r="3.75172" fill="white"/>
<circle cx="523.242" cy="71.034" r="3.75172" fill="white"/>
<circle cx="523.242" cy="86.0408" r="3.75172" fill="white"/>
<circle cx="538.248" cy="86.0408" r="3.75172" fill="white"/>
<circle cx="538.248" cy="101.048" r="3.75172" fill="white"/>
<circle cx="523.242" cy="101.048" r="3.75172" fill="white"/>
<circle cx="523.242" cy="116.054" r="3.75172" fill="white"/>
<circle cx="538.248" cy="116.054" r="3.75172" fill="white"/>
<circle cx="538.248" cy="131.061" r="3.75172" fill="white"/>
<circle cx="523.242" cy="131.061" r="3.75172" fill="white"/>
<circle cx="523.242" cy="146.069" r="3.75172" fill="white"/>
<circle cx="538.248" cy="146.069" r="3.75172" fill="white"/>
<circle cx="538.248" cy="161.075" r="3.75172" fill="white"/>
<circle cx="523.242" cy="161.075" r="3.75172" fill="white"/>
<circle cx="523.242" cy="176.082" r="3.75172" fill="white"/>
<circle cx="538.248" cy="176.082" r="3.75172" fill="white"/>
<circle cx="538.248" cy="191.089" r="3.75172" fill="white"/>
<circle cx="523.242" cy="191.089" r="3.75172" fill="white"/>
<circle cx="523.242" cy="206.096" r="3.75172" fill="white"/>
<circle cx="538.248" cy="206.096" r="3.75172" fill="white"/>
<circle cx="538.248" cy="221.103" r="3.75172" fill="white"/>
<circle cx="523.242" cy="221.103" r="3.75172" fill="white"/>
<circle cx="523.242" cy="236.11" r="3.75172" fill="white"/>
<circle cx="538.248" cy="236.11" r="3.75172" fill="white"/>
<circle cx="538.248" cy="251.116" r="3.75172" fill="white"/>
<circle cx="523.242" cy="251.116" r="3.75172" fill="white"/>
<circle cx="523.242" cy="266.123" r="3.75172" fill="white"/>
<circle cx="538.248" cy="266.123" r="3.75172" fill="white"/>
<circle cx="538.248" cy="281.13" r="3.75172" fill="white"/>
<circle cx="523.242" cy="281.13" r="3.75172" fill="white"/>
<circle cx="523.242" cy="296.137" r="3.75172" fill="white"/>
<circle cx="538.248" cy="296.137" r="3.75172" fill="white"/>
<circle cx="538.248" cy="311.144" r="3.75172" fill="white"/>
<circle cx="523.242" cy="311.144" r="3.75172" fill="white"/>
</g>
<rect x="2.5" y="18.5" width="520" height="277" stroke="white" stroke-width="5"/>
<rect x="257.5" y="2.5" width="9" height="14" stroke="white" stroke-width="5"/>
<rect x="257.617" y="297.948" width="9.06896" height="141.317" stroke="white" stroke-width="5"/>
<path d="M150.894 439.265L205.247 297.948H213.959L159.606 439.265H150.894Z" stroke="white" stroke-width="5"/>
<path d="M373.409 439.265L319.056 297.948H310.344L364.697 439.265H373.409Z" stroke="white" stroke-width="5"/>
</svg>
