<svg width="186" height="112" viewBox="0 0 186 112" fill="none" xmlns="http://www.w3.org/2000/svg">
<g style="mix-blend-mode:overlay">
<circle cx="14.3116" cy="23.3659" r="0.998976" fill="white"/>
<circle cx="18.3082" cy="23.3654" r="0.998976" fill="white"/>
<circle cx="18.3082" cy="27.3612" r="0.998976" fill="white"/>
<circle cx="14.3117" cy="27.3612" r="0.998976" fill="white"/>
<circle cx="14.3117" cy="31.3573" r="0.998976" fill="white"/>
<circle cx="18.3082" cy="31.3573" r="0.998976" fill="white"/>
<circle cx="18.3082" cy="35.353" r="0.998976" fill="white"/>
<circle cx="14.3117" cy="35.353" r="0.998976" fill="white"/>
<circle cx="14.3117" cy="39.3492" r="0.998976" fill="white"/>
<circle cx="18.3082" cy="39.3492" r="0.998976" fill="white"/>
<circle cx="18.3082" cy="43.3449" r="0.998976" fill="white"/>
<circle cx="14.3117" cy="43.3449" r="0.998976" fill="white"/>
<circle cx="14.3117" cy="47.3407" r="0.998976" fill="white"/>
<circle cx="18.3082" cy="47.3407" r="0.998976" fill="white"/>
<circle cx="18.3082" cy="51.3367" r="0.998976" fill="white"/>
<circle cx="14.3117" cy="51.3367" r="0.998976" fill="white"/>
<circle cx="14.3117" cy="55.3325" r="0.998976" fill="white"/>
<circle cx="18.3082" cy="55.3325" r="0.998976" fill="white"/>
<circle cx="18.3082" cy="59.3288" r="0.998976" fill="white"/>
<circle cx="14.3117" cy="59.3288" r="0.998976" fill="white"/>
<circle cx="14.3117" cy="63.3244" r="0.998976" fill="white"/>
<circle cx="18.3082" cy="63.3244" r="0.998976" fill="white"/>
<circle cx="18.3082" cy="67.3201" r="0.998976" fill="white"/>
<circle cx="14.3117" cy="67.3201" r="0.998976" fill="white"/>
<circle cx="14.3117" cy="71.3164" r="0.998976" fill="white"/>
<circle cx="18.3082" cy="71.3164" r="0.998976" fill="white"/>
<circle cx="18.3082" cy="75.3121" r="0.998976" fill="white"/>
<circle cx="14.3117" cy="75.3121" r="0.998976" fill="white"/>
<circle cx="14.3117" cy="79.3082" r="0.998976" fill="white"/>
<circle cx="18.3082" cy="79.3082" r="0.998976" fill="white"/>
<circle cx="18.3082" cy="83.3039" r="0.998976" fill="white"/>
<circle cx="14.3117" cy="83.3039" r="0.998976" fill="white"/>
<circle cx="14.3117" cy="87.2996" r="0.998976" fill="white"/>
<circle cx="18.3082" cy="87.2996" r="0.998976" fill="white"/>
<circle cx="18.3082" cy="91.2959" r="0.998976" fill="white"/>
<circle cx="14.3117" cy="91.2959" r="0.998976" fill="white"/>
</g>
<g style="mix-blend-mode:overlay">
<circle cx="120.82" cy="23.366" r="0.998976" fill="white"/>
<circle cx="124.816" cy="23.366" r="0.998976" fill="white"/>
<circle cx="120.82" cy="18.8391" r="0.998976" fill="white"/>
<circle cx="124.816" cy="18.8393" r="0.998976" fill="white"/>
<circle cx="124.816" cy="27.3616" r="0.998976" fill="white"/>
<circle cx="120.82" cy="27.3616" r="0.998976" fill="white"/>
<circle cx="120.82" cy="31.358" r="0.998976" fill="white"/>
<circle cx="124.816" cy="31.358" r="0.998976" fill="white"/>
<circle cx="124.816" cy="35.3537" r="0.998976" fill="white"/>
<circle cx="120.82" cy="35.3537" r="0.998976" fill="white"/>
<circle cx="120.82" cy="39.3493" r="0.998976" fill="white"/>
<circle cx="124.816" cy="39.3493" r="0.998976" fill="white"/>
<circle cx="124.816" cy="43.3455" r="0.998976" fill="white"/>
<circle cx="120.82" cy="43.3455" r="0.998976" fill="white"/>
<circle cx="120.82" cy="47.3413" r="0.998976" fill="white"/>
<circle cx="124.816" cy="47.3413" r="0.998976" fill="white"/>
<circle cx="124.816" cy="51.3374" r="0.998976" fill="white"/>
<circle cx="120.82" cy="51.3374" r="0.998976" fill="white"/>
<circle cx="120.82" cy="55.3331" r="0.998976" fill="white"/>
<circle cx="124.816" cy="55.3331" r="0.998976" fill="white"/>
<circle cx="124.816" cy="59.3288" r="0.998976" fill="white"/>
<circle cx="120.82" cy="59.3288" r="0.998976" fill="white"/>
<circle cx="120.82" cy="63.325" r="0.998976" fill="white"/>
<circle cx="124.816" cy="63.325" r="0.998976" fill="white"/>
<circle cx="124.816" cy="67.3208" r="0.998976" fill="white"/>
<circle cx="120.82" cy="67.3208" r="0.998976" fill="white"/>
<circle cx="120.82" cy="71.3168" r="0.998976" fill="white"/>
<circle cx="124.816" cy="71.3168" r="0.998976" fill="white"/>
<circle cx="124.816" cy="75.3126" r="0.998976" fill="white"/>
<circle cx="120.82" cy="75.3126" r="0.998976" fill="white"/>
<circle cx="120.82" cy="79.3083" r="0.998976" fill="white"/>
<circle cx="124.816" cy="79.3083" r="0.998976" fill="white"/>
<circle cx="124.816" cy="83.3045" r="0.998976" fill="white"/>
<circle cx="120.82" cy="83.3045" r="0.998976" fill="white"/>
<circle cx="120.82" cy="87.3002" r="0.998976" fill="white"/>
<circle cx="124.816" cy="87.3002" r="0.998976" fill="white"/>
<circle cx="124.816" cy="91.2963" r="0.998976" fill="white"/>
<circle cx="120.82" cy="91.2963" r="0.998976" fill="white"/>
</g>
<g style="mix-blend-mode:overlay">
<circle cx="67.566" cy="23.3662" r="0.998976" fill="white"/>
<circle cx="71.5617" cy="23.3662" r="0.998976" fill="white"/>
<circle cx="71.5617" cy="27.3619" r="0.998976" fill="white"/>
<circle cx="67.566" cy="27.3619" r="0.998976" fill="white"/>
<circle cx="67.566" cy="31.3576" r="0.998976" fill="white"/>
<circle cx="71.5617" cy="31.3576" r="0.998976" fill="white"/>
<circle cx="67.566" cy="11.1182" r="0.998976" fill="white"/>
<circle cx="71.5617" cy="11.1175" r="0.998976" fill="white"/>
<circle cx="71.5617" cy="15.1132" r="0.998976" fill="white"/>
<circle cx="67.566" cy="15.1132" r="0.998976" fill="white"/>
<circle cx="67.566" cy="19.1094" r="0.998976" fill="white"/>
<circle cx="71.5617" cy="19.1094" r="0.998976" fill="white"/>
<circle cx="71.5617" cy="35.3538" r="0.998976" fill="white"/>
<circle cx="67.566" cy="35.3538" r="0.998976" fill="white"/>
<circle cx="67.566" cy="39.3494" r="0.998976" fill="white"/>
<circle cx="71.5617" cy="39.3494" r="0.998976" fill="white"/>
<circle cx="71.5617" cy="43.3458" r="0.998976" fill="white"/>
<circle cx="67.566" cy="43.3458" r="0.998976" fill="white"/>
<circle cx="67.566" cy="47.3415" r="0.998976" fill="white"/>
<circle cx="71.5617" cy="47.3415" r="0.998976" fill="white"/>
<circle cx="71.5617" cy="51.3371" r="0.998976" fill="white"/>
<circle cx="67.566" cy="51.3371" r="0.998976" fill="white"/>
<circle cx="67.566" cy="55.3333" r="0.998976" fill="white"/>
<circle cx="71.5617" cy="55.3333" r="0.998976" fill="white"/>
<circle cx="71.5617" cy="59.3291" r="0.998976" fill="white"/>
<circle cx="67.566" cy="59.3291" r="0.998976" fill="white"/>
<circle cx="67.566" cy="63.3253" r="0.998976" fill="white"/>
<circle cx="71.5617" cy="63.3253" r="0.998976" fill="white"/>
<circle cx="71.5617" cy="67.321" r="0.998976" fill="white"/>
<circle cx="67.566" cy="67.321" r="0.998976" fill="white"/>
<circle cx="67.566" cy="71.3167" r="0.998976" fill="white"/>
<circle cx="71.5617" cy="71.3167" r="0.998976" fill="white"/>
<circle cx="71.5617" cy="75.3128" r="0.998976" fill="white"/>
<circle cx="67.566" cy="75.3128" r="0.998976" fill="white"/>
<circle cx="67.566" cy="79.3085" r="0.998976" fill="white"/>
<circle cx="71.5617" cy="79.3085" r="0.998976" fill="white"/>
<circle cx="71.5617" cy="83.3043" r="0.998976" fill="white"/>
<circle cx="67.566" cy="83.3043" r="0.998976" fill="white"/>
<circle cx="67.566" cy="87.3004" r="0.998976" fill="white"/>
<circle cx="71.5617" cy="87.3004" r="0.998976" fill="white"/>
<circle cx="71.5617" cy="91.2966" r="0.998976" fill="white"/>
<circle cx="67.566" cy="91.2966" r="0.998976" fill="white"/>
</g>
<g style="mix-blend-mode:overlay">
<circle cx="94.1932" cy="87.3004" r="0.998976" fill="white"/>
<circle cx="98.1892" cy="87.3004" r="0.998976" fill="white"/>
<circle cx="98.1892" cy="91.2965" r="0.998976" fill="white"/>
<circle cx="94.1935" cy="91.2965" r="0.998976" fill="white"/>
</g>
<g style="mix-blend-mode:overlay">
<circle cx="54.2518" cy="31.3573" r="0.998976" fill="white"/>
<circle cx="58.2476" cy="31.3573" r="0.998976" fill="white"/>
<circle cx="58.2476" cy="35.353" r="0.998976" fill="white"/>
<circle cx="54.2519" cy="35.353" r="0.998976" fill="white"/>
<circle cx="54.2519" cy="39.3492" r="0.998976" fill="white"/>
<circle cx="58.2476" cy="39.3492" r="0.998976" fill="white"/>
<circle cx="58.2476" cy="43.3449" r="0.998976" fill="white"/>
<circle cx="54.2519" cy="43.3449" r="0.998976" fill="white"/>
<circle cx="54.2519" cy="47.341" r="0.998976" fill="white"/>
<circle cx="58.2476" cy="47.341" r="0.998976" fill="white"/>
<circle cx="58.2476" cy="51.3367" r="0.998976" fill="white"/>
<circle cx="54.2519" cy="51.3367" r="0.998976" fill="white"/>
<circle cx="54.2519" cy="55.3325" r="0.998976" fill="white"/>
<circle cx="58.2476" cy="55.3325" r="0.998976" fill="white"/>
<circle cx="58.2476" cy="59.3287" r="0.998976" fill="white"/>
<circle cx="54.2519" cy="59.3287" r="0.998976" fill="white"/>
<circle cx="54.2519" cy="63.3244" r="0.998976" fill="white"/>
<circle cx="58.2476" cy="63.3244" r="0.998976" fill="white"/>
<circle cx="58.2476" cy="67.3206" r="0.998976" fill="white"/>
<circle cx="54.2519" cy="67.3206" r="0.998976" fill="white"/>
<circle cx="54.2519" cy="71.3164" r="0.998976" fill="white"/>
<circle cx="58.2476" cy="71.3164" r="0.998976" fill="white"/>
<circle cx="58.2476" cy="75.312" r="0.998976" fill="white"/>
<circle cx="54.2519" cy="75.312" r="0.998976" fill="white"/>
<circle cx="54.2519" cy="79.3082" r="0.998976" fill="white"/>
<circle cx="58.2476" cy="79.3082" r="0.998976" fill="white"/>
<circle cx="58.2476" cy="83.3039" r="0.998976" fill="white"/>
<circle cx="54.2519" cy="83.3039" r="0.998976" fill="white"/>
<circle cx="54.2519" cy="87.3001" r="0.998976" fill="white"/>
<circle cx="58.2476" cy="87.3001" r="0.998976" fill="white"/>
<circle cx="58.2476" cy="91.2959" r="0.998976" fill="white"/>
<circle cx="54.2519" cy="91.2959" r="0.998976" fill="white"/>
</g>
<g style="mix-blend-mode:overlay">
<circle cx="80.8789" cy="55.3336" r="0.998976" fill="white"/>
<circle cx="84.8748" cy="55.3333" r="0.998976" fill="white"/>
<circle cx="84.8748" cy="59.3295" r="0.998976" fill="white"/>
<circle cx="80.8792" cy="59.3295" r="0.998976" fill="white"/>
<circle cx="80.8792" cy="63.3253" r="0.998976" fill="white"/>
<circle cx="84.8748" cy="63.3253" r="0.998976" fill="white"/>
<circle cx="84.8748" cy="67.321" r="0.998976" fill="white"/>
<circle cx="80.8792" cy="67.321" r="0.998976" fill="white"/>
<circle cx="80.8792" cy="71.3171" r="0.998976" fill="white"/>
<circle cx="84.8748" cy="71.3171" r="0.998976" fill="white"/>
<circle cx="84.8748" cy="75.3129" r="0.998976" fill="white"/>
<circle cx="80.8792" cy="75.3129" r="0.998976" fill="white"/>
<circle cx="80.8792" cy="79.309" r="0.998976" fill="white"/>
<circle cx="84.8748" cy="79.309" r="0.998976" fill="white"/>
<circle cx="84.8748" cy="83.3048" r="0.998976" fill="white"/>
<circle cx="80.8792" cy="83.3048" r="0.998976" fill="white"/>
<circle cx="80.8792" cy="87.3004" r="0.998976" fill="white"/>
<circle cx="84.8748" cy="87.3004" r="0.998976" fill="white"/>
<circle cx="84.8748" cy="91.2967" r="0.998976" fill="white"/>
<circle cx="80.8792" cy="91.2967" r="0.998976" fill="white"/>
</g>
<g style="mix-blend-mode:overlay">
<circle cx="134.134" cy="63.3249" r="0.998976" fill="white"/>
<circle cx="138.131" cy="63.3242" r="0.998976" fill="white"/>
<circle cx="138.131" cy="67.3199" r="0.998976" fill="white"/>
<circle cx="134.135" cy="67.3199" r="0.998976" fill="white"/>
<circle cx="134.135" cy="71.3161" r="0.998976" fill="white"/>
<circle cx="138.131" cy="71.3161" r="0.998976" fill="white"/>
<circle cx="138.131" cy="75.3117" r="0.998976" fill="white"/>
<circle cx="134.135" cy="75.3117" r="0.998976" fill="white"/>
<circle cx="134.135" cy="79.3076" r="0.998976" fill="white"/>
<circle cx="138.131" cy="79.3076" r="0.998976" fill="white"/>
<circle cx="138.131" cy="83.3038" r="0.998976" fill="white"/>
<circle cx="134.135" cy="83.3038" r="0.998976" fill="white"/>
<circle cx="134.135" cy="87.2999" r="0.998976" fill="white"/>
<circle cx="138.131" cy="87.2999" r="0.998976" fill="white"/>
<circle cx="138.131" cy="91.2956" r="0.998976" fill="white"/>
<circle cx="134.135" cy="91.2956" r="0.998976" fill="white"/>
</g>
<g style="mix-blend-mode:overlay">
<circle cx="147.447" cy="79.3088" r="0.998976" fill="white"/>
<circle cx="151.443" cy="79.3083" r="0.998976" fill="white"/>
<circle cx="151.443" cy="83.304" r="0.998976" fill="white"/>
<circle cx="147.447" cy="83.304" r="0.998976" fill="white"/>
<circle cx="147.447" cy="87.3004" r="0.998976" fill="white"/>
<circle cx="151.443" cy="87.3004" r="0.998976" fill="white"/>
<circle cx="151.443" cy="91.296" r="0.998976" fill="white"/>
<circle cx="147.447" cy="91.296" r="0.998976" fill="white"/>
</g>
<g style="mix-blend-mode:overlay">
<circle cx="26.8265" cy="39.3496" r="0.998976" fill="white"/>
<circle cx="30.8219" cy="39.3491" r="0.998976" fill="white"/>
<circle cx="30.8219" cy="43.3448" r="0.998976" fill="white"/>
<circle cx="26.8261" cy="43.3448" r="0.998976" fill="white"/>
<circle cx="26.8261" cy="47.3409" r="0.998976" fill="white"/>
<circle cx="30.8219" cy="47.3409" r="0.998976" fill="white"/>
<circle cx="30.8219" cy="51.3366" r="0.998976" fill="white"/>
<circle cx="26.8261" cy="51.3366" r="0.998976" fill="white"/>
<circle cx="26.8261" cy="55.3328" r="0.998976" fill="white"/>
<circle cx="30.8219" cy="55.3328" r="0.998976" fill="white"/>
<circle cx="30.8219" cy="59.3286" r="0.998976" fill="white"/>
<circle cx="26.8261" cy="59.3286" r="0.998976" fill="white"/>
<circle cx="26.8261" cy="63.3248" r="0.998976" fill="white"/>
<circle cx="30.8219" cy="63.3248" r="0.998976" fill="white"/>
<circle cx="30.8219" cy="67.3204" r="0.998976" fill="white"/>
<circle cx="26.8261" cy="67.3204" r="0.998976" fill="white"/>
<circle cx="26.8261" cy="71.3161" r="0.998976" fill="white"/>
<circle cx="30.8219" cy="71.3161" r="0.998976" fill="white"/>
<circle cx="30.8219" cy="75.3125" r="0.998976" fill="white"/>
<circle cx="26.8261" cy="75.3125" r="0.998976" fill="white"/>
<circle cx="26.8261" cy="79.3082" r="0.998976" fill="white"/>
<circle cx="30.8219" cy="79.3082" r="0.998976" fill="white"/>
<circle cx="30.8219" cy="83.3038" r="0.998976" fill="white"/>
<circle cx="26.8261" cy="83.3038" r="0.998976" fill="white"/>
<circle cx="26.8261" cy="87.3" r="0.998976" fill="white"/>
<circle cx="30.8219" cy="87.3" r="0.998976" fill="white"/>
<circle cx="30.8219" cy="91.2957" r="0.998976" fill="white"/>
<circle cx="26.8261" cy="91.2957" r="0.998976" fill="white"/>
</g>
<g style="mix-blend-mode:overlay">
<circle cx="106.707" cy="39.3491" r="0.998976" fill="white"/>
<circle cx="110.703" cy="39.3497" r="0.998976" fill="white"/>
<circle cx="110.703" cy="43.3454" r="0.998976" fill="white"/>
<circle cx="106.707" cy="43.3454" r="0.998976" fill="white"/>
<circle cx="106.707" cy="47.3416" r="0.998976" fill="white"/>
<circle cx="110.703" cy="47.3416" r="0.998976" fill="white"/>
<circle cx="110.703" cy="51.3374" r="0.998976" fill="white"/>
<circle cx="106.707" cy="51.3374" r="0.998976" fill="white"/>
<circle cx="106.707" cy="55.3335" r="0.998976" fill="white"/>
<circle cx="110.703" cy="55.3335" r="0.998976" fill="white"/>
<circle cx="110.703" cy="59.3292" r="0.998976" fill="white"/>
<circle cx="106.707" cy="59.3292" r="0.998976" fill="white"/>
<circle cx="106.707" cy="63.3253" r="0.998976" fill="white"/>
<circle cx="110.703" cy="63.3253" r="0.998976" fill="white"/>
<circle cx="110.703" cy="67.321" r="0.998976" fill="white"/>
<circle cx="106.707" cy="67.321" r="0.998976" fill="white"/>
<circle cx="106.707" cy="71.3167" r="0.998976" fill="white"/>
<circle cx="110.703" cy="71.3167" r="0.998976" fill="white"/>
<circle cx="110.703" cy="75.3129" r="0.998976" fill="white"/>
<circle cx="106.707" cy="75.3129" r="0.998976" fill="white"/>
<circle cx="106.707" cy="79.3087" r="0.998976" fill="white"/>
<circle cx="110.703" cy="79.3087" r="0.998976" fill="white"/>
<circle cx="110.703" cy="83.3044" r="0.998976" fill="white"/>
<circle cx="106.707" cy="83.3044" r="0.998976" fill="white"/>
<circle cx="106.707" cy="87.3005" r="0.998976" fill="white"/>
<circle cx="110.703" cy="87.3005" r="0.998976" fill="white"/>
<circle cx="110.703" cy="91.2962" r="0.998976" fill="white"/>
<circle cx="106.707" cy="91.2962" r="0.998976" fill="white"/>
</g>
<g style="mix-blend-mode:overlay">
<circle cx="44.1362" cy="75.3122" r="0.998976" fill="white"/>
<circle cx="40.1398" cy="75.3126" r="0.998976" fill="white"/>
<circle cx="40.1405" cy="79.3084" r="0.998976" fill="white"/>
<circle cx="44.1362" cy="79.3084" r="0.998976" fill="white"/>
<circle cx="44.1362" cy="83.3042" r="0.998976" fill="white"/>
<circle cx="40.1405" cy="83.3042" r="0.998976" fill="white"/>
<circle cx="40.1405" cy="87.2998" r="0.998976" fill="white"/>
<circle cx="44.1362" cy="87.2998" r="0.998976" fill="white"/>
<circle cx="44.1362" cy="91.2961" r="0.998976" fill="white"/>
<circle cx="40.1405" cy="91.2961" r="0.998976" fill="white"/>
</g>
<path fill-rule="evenodd" clip-rule="evenodd" d="M37.5788 38.6093H49.3093V41.8573C68.7232 43.1039 76.851 49.2615 80.8223 55.7224L80.8272 55.7304C82.3078 58.201 83.3157 60.787 83.6542 63.2438L83.7847 64.1908H59.8355L59.7196 63.4946C59.5989 62.7692 59.3254 62.2749 58.4111 61.2833L58.3943 61.265L58.3785 61.2457C57.2209 59.8292 54.683 58.4109 49.0696 57.8669V65.6956C61.9984 66.5429 71.2633 68.005 77.334 70.8829C80.4515 72.3608 82.7712 74.2317 84.3041 76.6222C85.8378 79.0142 86.538 81.8551 86.538 85.1932C86.538 91.7284 82.6418 96.5689 75.9949 99.8191C69.5356 102.978 60.3797 104.698 49.3093 105.114V111.301H37.5788V105.11C15.8029 104.182 5.85499 97.7781 1.55357 88.9995L1.54817 88.9885L1.5431 88.9773C0.696687 87.113 0.362221 85.5026 0.116804 83.5369L-0.00012207 82.6004H24.0544L24.2536 83.1488C24.5564 83.9823 24.998 85.0099 25.879 86.1125L25.8909 86.1274L25.9021 86.1429C26.4027 86.8319 27.403 87.6127 29.4124 88.2705C31.283 88.883 33.9732 89.3705 37.8185 89.5946V80.5566C24.8433 80.0415 15.614 78.4425 9.58255 75.3678C6.48638 73.7894 4.20256 71.8074 2.69901 69.3591C1.19519 66.9104 0.509828 64.0569 0.509828 60.7981C0.509828 55.1065 4.00209 50.4285 10.4207 47.1486C16.6761 43.9521 25.8081 42.0181 37.5788 41.6703V38.6093ZM39.2432 40.2756V43.2959L38.4302 43.3147C26.3873 43.5933 17.2614 45.5238 11.1773 48.6328C5.11308 51.7316 2.1742 55.9319 2.1742 60.7981C2.1742 63.8181 2.80703 66.3535 4.11683 68.4864C5.42691 70.6196 7.45216 72.4119 10.3378 73.8829C16.1463 76.844 25.3152 78.4424 38.6804 78.9217L39.4828 78.9505V91.3444L38.6125 91.3044C34.2185 91.1027 31.1005 90.5764 28.8951 89.8543C26.7012 89.1361 25.3473 88.2029 24.5677 87.1389C23.7322 86.0899 23.2359 85.097 22.8994 84.2667H1.89812C2.12051 85.7014 2.43527 86.9127 3.05325 88.2767C7.01104 96.3423 16.3668 102.682 38.4409 103.477L39.2432 103.506V109.635H47.6449V103.502L48.4508 103.477C59.7873 103.118 68.9577 101.406 75.2645 98.3218C81.5399 95.2532 84.8737 90.8956 84.8737 85.1932C84.8737 82.0926 84.2257 79.5846 82.9035 77.5225C81.5803 75.4589 79.5359 73.7705 76.6217 72.389C70.7505 69.6056 61.5316 68.1486 48.1852 67.3085L47.4053 67.2594V56.0601L48.3005 56.1281C54.6599 56.6117 57.9864 58.1509 59.6505 60.1708C60.4361 61.0247 60.9261 61.6936 61.1943 62.5244H81.8395C81.4351 60.6129 80.5971 58.5862 79.4025 56.592C75.7566 50.663 68.0707 44.5837 48.4302 43.4736L47.6449 43.4292V40.2756H39.2432ZM39.5627 55.7155V66.7299L38.6731 66.6683C32.3406 66.2297 28.314 65.7868 25.8666 65.0778C24.6403 64.7225 23.7031 64.2722 23.0728 63.633C22.406 62.9568 22.16 62.1502 22.16 61.278C22.16 60.3869 22.3625 59.5199 22.9707 58.7599C23.5652 58.0171 24.4757 57.4672 25.7119 57.0493C28.1577 56.2225 32.2143 55.8058 38.7203 55.7259L39.5627 55.7155ZM24.2695 59.8019C23.9615 60.1868 23.8244 60.6495 23.8244 61.278C23.8244 61.8055 23.9579 62.1587 24.2572 62.4623C24.5931 62.803 25.2088 63.1525 26.3292 63.4771C28.4688 64.0969 32.057 64.5228 37.8983 64.9431V57.4046C31.8933 57.5099 28.317 57.9274 26.2443 58.6281C25.1737 58.99 24.5912 59.4 24.2695 59.8019ZM47.3254 79.3575L48.1999 79.4021C54.4682 79.7219 58.3509 80.3034 60.681 81.2408C61.8624 81.716 62.7179 82.3106 63.2691 83.0765C63.8282 83.8533 64.0091 84.7154 64.0091 85.5931C64.0091 86.5159 63.7001 87.3718 63.0298 88.1096C62.3781 88.8269 61.4201 89.3949 60.1745 89.8459C57.6939 90.7442 53.8255 91.2648 48.1753 91.3851L47.3254 91.4032V79.3575ZM48.9897 81.1136V89.6976C54.1246 89.5455 57.5091 89.0392 59.6083 88.279C60.7095 87.8802 61.3942 87.4334 61.7986 86.9883C62.1842 86.5639 62.3447 86.1101 62.3447 85.5931C62.3447 84.9512 62.216 84.4635 61.9188 84.0506C61.6136 83.6267 61.0661 83.1915 60.0605 82.7869C58.1135 82.0037 54.7299 81.4418 48.9897 81.1136Z" fill="white"/>
<path fill-rule="evenodd" clip-rule="evenodd" d="M136.898 0H148.629V3.24806C168.043 4.49467 176.17 10.6523 180.142 17.1131L180.147 17.1211C181.627 19.5917 182.635 22.1777 182.974 24.6345L183.104 25.5815H159.155L159.039 24.8853C158.918 24.1599 158.645 23.6657 157.731 22.674L157.714 22.6557L157.698 22.6365C156.54 21.22 154.002 19.8017 148.389 19.2576V27.0863C161.318 27.9336 170.583 29.3957 176.653 32.2737C179.771 33.7516 182.091 35.6225 183.624 38.013C185.157 40.405 185.857 43.2458 185.857 46.584C185.857 53.1191 181.961 57.9596 175.314 61.2098C168.855 64.3683 159.699 66.0891 148.629 66.505V72.692H136.898V66.5012C115.122 65.5725 105.174 59.1688 100.873 50.3902L100.868 50.3792L100.863 50.368C100.016 48.5037 99.6817 46.8933 99.4363 44.9277L99.3193 43.9911H123.374L123.573 44.5396C123.876 45.3731 124.317 46.4007 125.198 47.5032L125.21 47.5181L125.222 47.5336C125.722 48.2226 126.722 49.0034 128.732 49.6613C130.603 50.2737 133.293 50.7612 137.138 50.9853V41.9474C124.163 41.4323 114.933 39.8332 108.902 36.7585C105.806 35.1802 103.522 33.1982 102.018 30.7499C100.515 28.3011 99.8293 25.4476 99.8293 22.1889C99.8293 16.4972 103.322 11.8193 109.74 8.53937C115.996 5.34284 125.128 3.40888 136.898 3.06101V0ZM138.563 1.66633V4.68669L137.75 4.7055C125.707 4.98404 116.581 6.91459 110.497 10.0236C104.433 13.1224 101.494 17.3226 101.494 22.1889C101.494 25.2089 102.126 27.7443 103.436 29.8771C104.746 32.0104 106.772 33.8026 109.657 35.2736C115.466 38.2347 124.635 39.8331 138 40.3124L138.802 40.3412V52.7352L137.932 52.6952C133.538 52.4934 130.42 51.9672 128.215 51.2451C126.021 50.5268 124.667 49.5937 123.887 48.5297C123.052 47.4806 122.555 46.4878 122.219 45.6575H101.218C101.44 47.0922 101.755 48.3034 102.373 49.6674C106.331 57.733 115.686 64.0725 137.76 64.8675L138.563 64.8964V71.0257H146.964V64.8929L147.77 64.8674C159.107 64.509 168.277 62.7964 174.584 59.7125C180.859 56.644 184.193 52.2863 184.193 46.584C184.193 43.4834 183.545 40.9753 182.223 38.9132C180.9 36.8496 178.855 35.1612 175.941 33.7797C170.07 30.9963 160.851 29.5394 147.505 28.6993L146.725 28.6502V17.4508L147.62 17.5189C153.979 18.0024 157.306 19.5417 158.97 21.5615C159.756 22.4155 160.246 23.0843 160.514 23.9152H181.159C180.755 22.0037 179.917 19.9769 178.722 17.9828C175.076 12.0538 167.39 5.9744 147.75 4.86436L146.964 4.81998V1.66633H138.563ZM138.882 17.1063V28.1207L137.993 28.059C131.66 27.6204 127.633 27.1775 125.186 26.4685C123.96 26.1132 123.023 25.6629 122.392 25.0238C121.725 24.3475 121.479 23.541 121.479 22.6688C121.479 21.7776 121.682 20.9106 122.29 20.1507C122.885 19.4078 123.795 18.858 125.031 18.4401C127.477 17.6132 131.534 17.1965 138.04 17.1166L138.882 17.1063ZM123.589 21.1927C123.281 21.5775 123.144 22.0402 123.144 22.6688C123.144 23.1963 123.277 23.5495 123.577 23.8531C123.913 24.1937 124.528 24.5432 125.649 24.8678C127.788 25.4877 131.376 25.9135 137.218 26.3339V18.7953C131.213 18.9006 127.636 19.3182 125.564 20.0188C124.493 20.3808 123.911 20.7907 123.589 21.1927ZM146.645 40.7483L147.519 40.7929C153.788 41.1127 157.67 41.6941 160 42.6315C161.182 43.1068 162.037 43.7014 162.589 44.4672C163.148 45.2441 163.329 46.1062 163.329 46.9839C163.329 47.9066 163.02 48.7626 162.349 49.5004C161.698 50.2176 160.74 50.7856 159.494 51.2367C157.013 52.1349 153.145 52.6555 147.495 52.7759L146.645 52.794V40.7483ZM148.309 42.5043V51.0883C153.444 50.9362 156.829 50.4299 158.928 49.6697C160.029 49.2709 160.714 48.8241 161.118 48.3791C161.504 47.9546 161.664 47.5009 161.664 46.9839C161.664 46.3419 161.535 45.8543 161.238 45.4414C160.933 45.0174 160.386 44.5822 159.38 44.1777C157.433 43.3944 154.049 42.8325 148.309 42.5043Z" fill="white"/>
</svg>
