<svg width="256" height="209" viewBox="0 0 256 209" fill="none" xmlns="http://www.w3.org/2000/svg">
<g style="mix-blend-mode:overlay">
<circle cx="20.2439" cy="27.2208" r="1.7654" fill="white"/>
<circle cx="27.3064" cy="27.2199" r="1.7654" fill="white"/>
<circle cx="27.3064" cy="34.2815" r="1.7654" fill="white"/>
<circle cx="20.2439" cy="34.2815" r="1.7654" fill="white"/>
<circle cx="20.2439" cy="41.343" r="1.7654" fill="white"/>
<circle cx="27.3064" cy="41.343" r="1.7654" fill="white"/>
<circle cx="27.3064" cy="48.4045" r="1.7654" fill="white"/>
<circle cx="20.2439" cy="48.4045" r="1.7654" fill="white"/>
<circle cx="20.2439" cy="55.4665" r="1.7654" fill="white"/>
<circle cx="27.3064" cy="55.4665" r="1.7654" fill="white"/>
<circle cx="27.3064" cy="62.5281" r="1.7654" fill="white"/>
<circle cx="20.2439" cy="62.5281" r="1.7654" fill="white"/>
<circle cx="20.2439" cy="69.5896" r="1.7654" fill="white"/>
<circle cx="27.3064" cy="69.5896" r="1.7654" fill="white"/>
<circle cx="27.3064" cy="76.6511" r="1.7654" fill="white"/>
<circle cx="20.2439" cy="76.6511" r="1.7654" fill="white"/>
<circle cx="20.2439" cy="83.7127" r="1.7654" fill="white"/>
<circle cx="27.3064" cy="83.7127" r="1.7654" fill="white"/>
<circle cx="27.3064" cy="90.7742" r="1.7654" fill="white"/>
<circle cx="20.2439" cy="90.7742" r="1.7654" fill="white"/>
<circle cx="20.2439" cy="97.8362" r="1.7654" fill="white"/>
<circle cx="27.3064" cy="97.8362" r="1.7654" fill="white"/>
<circle cx="27.3064" cy="104.898" r="1.7654" fill="white"/>
<circle cx="20.2439" cy="104.898" r="1.7654" fill="white"/>
<circle cx="20.2439" cy="111.959" r="1.7654" fill="white"/>
<circle cx="27.3064" cy="111.959" r="1.7654" fill="white"/>
<circle cx="27.3064" cy="119.021" r="1.7654" fill="white"/>
<circle cx="20.2439" cy="119.021" r="1.7654" fill="white"/>
<circle cx="20.2439" cy="126.082" r="1.7654" fill="white"/>
<circle cx="27.3064" cy="126.082" r="1.7654" fill="white"/>
<circle cx="27.3064" cy="133.144" r="1.7654" fill="white"/>
<circle cx="20.2439" cy="133.144" r="1.7654" fill="white"/>
<circle cx="20.2439" cy="140.205" r="1.7654" fill="white"/>
<circle cx="27.3064" cy="140.205" r="1.7654" fill="white"/>
<circle cx="27.3064" cy="147.267" r="1.7654" fill="white"/>
<circle cx="20.2439" cy="147.267" r="1.7654" fill="white"/>
<circle cx="13.0623" cy="27.0903" r="1.7654" fill="white"/>
<circle cx="13.0623" cy="34.1518" r="1.7654" fill="white"/>
<circle cx="13.0623" cy="41.2129" r="1.7654" fill="white"/>
<circle cx="13.0623" cy="48.2744" r="1.7654" fill="white"/>
<circle cx="13.0623" cy="55.3364" r="1.7654" fill="white"/>
<circle cx="13.0623" cy="62.398" r="1.7654" fill="white"/>
<circle cx="13.0623" cy="69.46" r="1.7654" fill="white"/>
<circle cx="13.0623" cy="76.5215" r="1.7654" fill="white"/>
<circle cx="13.0623" cy="83.583" r="1.7654" fill="white"/>
<circle cx="13.0623" cy="90.6446" r="1.7654" fill="white"/>
<circle cx="13.0623" cy="97.7061" r="1.7654" fill="white"/>
<circle cx="13.0623" cy="104.768" r="1.7654" fill="white"/>
<circle cx="13.0623" cy="111.829" r="1.7654" fill="white"/>
<circle cx="13.0623" cy="118.891" r="1.7654" fill="white"/>
<circle cx="13.0623" cy="125.952" r="1.7654" fill="white"/>
<circle cx="13.0623" cy="133.014" r="1.7654" fill="white"/>
<circle cx="13.0623" cy="140.076" r="1.7654" fill="white"/>
<circle cx="13.0623" cy="147.137" r="1.7654" fill="white"/>
<ellipse cx="13.0624" cy="20.5018" rx="1.7654" ry="1.76795" transform="rotate(-90 13.0624 20.5018)" fill="white"/>
<ellipse cx="20.1332" cy="20.5025" rx="1.7654" ry="1.76795" transform="rotate(-90 20.1332 20.5025)" fill="white"/>
<ellipse cx="27.205" cy="20.5025" rx="1.7654" ry="1.76795" transform="rotate(-90 27.205 20.5025)" fill="white"/>
<ellipse cx="34.2763" cy="20.5025" rx="1.7654" ry="1.76795" transform="rotate(-90 34.2763 20.5025)" fill="white"/>
<ellipse cx="41.348" cy="20.5025" rx="1.7654" ry="1.76795" transform="rotate(-90 41.348 20.5025)" fill="white"/>
<ellipse cx="48.4213" cy="20.5025" rx="1.7654" ry="1.76795" transform="rotate(-90 48.4213 20.5025)" fill="white"/>
<ellipse cx="55.4911" cy="20.5025" rx="1.7654" ry="1.76795" transform="rotate(-90 55.4911 20.5025)" fill="white"/>
<ellipse cx="62.5648" cy="20.5025" rx="1.7654" ry="1.76795" transform="rotate(-90 62.5648 20.5025)" fill="white"/>
<ellipse cx="69.6342" cy="20.5025" rx="1.7654" ry="1.76795" transform="rotate(-90 69.6342 20.5025)" fill="white"/>
<ellipse cx="76.7079" cy="20.5025" rx="1.7654" ry="1.76795" transform="rotate(-90 76.7079 20.5025)" fill="white"/>
<ellipse cx="83.7797" cy="20.5025" rx="1.7654" ry="1.76795" transform="rotate(-90 83.7797 20.5025)" fill="white"/>
<ellipse cx="90.851" cy="20.5025" rx="1.7654" ry="1.76795" transform="rotate(-90 90.851 20.5025)" fill="white"/>
<ellipse cx="97.9227" cy="20.5025" rx="1.7654" ry="1.76795" transform="rotate(-90 97.9227 20.5025)" fill="white"/>
<ellipse cx="104.994" cy="20.5025" rx="1.7654" ry="1.76795" transform="rotate(-90 104.994 20.5025)" fill="white"/>
<ellipse cx="112.066" cy="20.5025" rx="1.7654" ry="1.76795" transform="rotate(-90 112.066 20.5025)" fill="white"/>
<ellipse cx="119.139" cy="20.5025" rx="1.7654" ry="1.76795" transform="rotate(-90 119.139 20.5025)" fill="white"/>
<ellipse cx="126.209" cy="20.5025" rx="1.7654" ry="1.76795" transform="rotate(-90 126.209 20.5025)" fill="white"/>
<ellipse cx="133.283" cy="20.5025" rx="1.7654" ry="1.76795" transform="rotate(-90 133.283 20.5025)" fill="white"/>
<ellipse cx="140.113" cy="20.502" rx="1.7654" ry="1.76795" transform="rotate(-90 140.113 20.502)" fill="white"/>
<ellipse cx="147.184" cy="20.5025" rx="1.7654" ry="1.76795" transform="rotate(-90 147.184 20.5025)" fill="white"/>
<ellipse cx="154.256" cy="20.5025" rx="1.7654" ry="1.76795" transform="rotate(-90 154.256 20.5025)" fill="white"/>
<ellipse cx="161.326" cy="20.5025" rx="1.7654" ry="1.76795" transform="rotate(-90 161.326 20.5025)" fill="white"/>
<ellipse cx="168.399" cy="20.5025" rx="1.7654" ry="1.76795" transform="rotate(-90 168.399 20.5025)" fill="white"/>
<ellipse cx="175.471" cy="20.5025" rx="1.7654" ry="1.76795" transform="rotate(-90 175.471 20.5025)" fill="white"/>
<ellipse cx="182.542" cy="20.5025" rx="1.7654" ry="1.76795" transform="rotate(-90 182.542 20.5025)" fill="white"/>
<ellipse cx="189.616" cy="20.5025" rx="1.7654" ry="1.76795" transform="rotate(-90 189.616 20.5025)" fill="white"/>
<ellipse cx="196.685" cy="20.5025" rx="1.7654" ry="1.76795" transform="rotate(-90 196.685 20.5025)" fill="white"/>
<ellipse cx="203.759" cy="20.5025" rx="1.7654" ry="1.76795" transform="rotate(-90 203.759 20.5025)" fill="white"/>
<ellipse cx="210.83" cy="20.5025" rx="1.7654" ry="1.76795" transform="rotate(-90 210.83 20.5025)" fill="white"/>
<ellipse cx="217.902" cy="20.5025" rx="1.7654" ry="1.76795" transform="rotate(-90 217.902 20.5025)" fill="white"/>
<ellipse cx="224.974" cy="20.5025" rx="1.7654" ry="1.76795" transform="rotate(-90 224.974 20.5025)" fill="white"/>
<ellipse cx="232.043" cy="20.5025" rx="1.7654" ry="1.76795" transform="rotate(-90 232.043 20.5025)" fill="white"/>
<ellipse cx="239.115" cy="20.5025" rx="1.7654" ry="1.76795" transform="rotate(-90 239.115 20.5025)" fill="white"/>
<ellipse cx="246.188" cy="20.5025" rx="1.7654" ry="1.76795" transform="rotate(-90 246.188 20.5025)" fill="white"/>
<ellipse cx="253.26" cy="20.5025" rx="1.7654" ry="1.76795" transform="rotate(-90 253.26 20.5025)" fill="white"/>
<circle cx="34.3675" cy="27.2209" r="1.7654" fill="white"/>
<circle cx="41.4304" cy="27.221" r="1.7654" fill="white"/>
<circle cx="41.4304" cy="34.2825" r="1.7654" fill="white"/>
<circle cx="34.3679" cy="34.2825" r="1.7654" fill="white"/>
<circle cx="34.3679" cy="41.344" r="1.7654" fill="white"/>
<circle cx="41.4304" cy="41.344" r="1.7654" fill="white"/>
<circle cx="41.4304" cy="48.4056" r="1.7654" fill="white"/>
<circle cx="34.3679" cy="48.4056" r="1.7654" fill="white"/>
<circle cx="34.3679" cy="55.4676" r="1.7654" fill="white"/>
<circle cx="41.4304" cy="55.4676" r="1.7654" fill="white"/>
<circle cx="41.4304" cy="62.5291" r="1.7654" fill="white"/>
<circle cx="34.3679" cy="62.5291" r="1.7654" fill="white"/>
<circle cx="34.3679" cy="69.5906" r="1.7654" fill="white"/>
<circle cx="41.4304" cy="69.5906" r="1.7654" fill="white"/>
<circle cx="41.4304" cy="76.6522" r="1.7654" fill="white"/>
<circle cx="34.3679" cy="76.6522" r="1.7654" fill="white"/>
<circle cx="34.3679" cy="83.7137" r="1.7654" fill="white"/>
<circle cx="41.4304" cy="83.7137" r="1.7654" fill="white"/>
<circle cx="41.4304" cy="90.7752" r="1.7654" fill="white"/>
<circle cx="34.3679" cy="90.7752" r="1.7654" fill="white"/>
<circle cx="34.3679" cy="97.8372" r="1.7654" fill="white"/>
<circle cx="41.4304" cy="97.8372" r="1.7654" fill="white"/>
<circle cx="41.4304" cy="104.899" r="1.7654" fill="white"/>
<circle cx="34.3679" cy="104.899" r="1.7654" fill="white"/>
<circle cx="34.3679" cy="111.96" r="1.7654" fill="white"/>
<circle cx="41.4304" cy="111.96" r="1.7654" fill="white"/>
<circle cx="41.4304" cy="119.022" r="1.7654" fill="white"/>
<circle cx="34.3679" cy="119.022" r="1.7654" fill="white"/>
<circle cx="34.3679" cy="126.083" r="1.7654" fill="white"/>
<circle cx="41.4304" cy="126.083" r="1.7654" fill="white"/>
<circle cx="41.4304" cy="133.145" r="1.7654" fill="white"/>
<circle cx="34.3679" cy="133.145" r="1.7654" fill="white"/>
<circle cx="34.3679" cy="140.207" r="1.7654" fill="white"/>
<circle cx="41.4304" cy="140.207" r="1.7654" fill="white"/>
<circle cx="41.4304" cy="147.268" r="1.7654" fill="white"/>
<circle cx="34.3679" cy="147.268" r="1.7654" fill="white"/>
<circle cx="48.4905" cy="27.2206" r="1.7654" fill="white"/>
<circle cx="55.553" cy="27.2205" r="1.7654" fill="white"/>
<circle cx="55.553" cy="34.2821" r="1.7654" fill="white"/>
<circle cx="48.491" cy="34.2821" r="1.7654" fill="white"/>
<circle cx="48.491" cy="41.3436" r="1.7654" fill="white"/>
<circle cx="55.553" cy="41.3436" r="1.7654" fill="white"/>
<circle cx="55.553" cy="48.4056" r="1.7654" fill="white"/>
<circle cx="48.491" cy="48.4056" r="1.7654" fill="white"/>
<circle cx="48.491" cy="55.4671" r="1.7654" fill="white"/>
<circle cx="55.553" cy="55.4671" r="1.7654" fill="white"/>
<circle cx="55.553" cy="62.5287" r="1.7654" fill="white"/>
<circle cx="48.491" cy="62.5287" r="1.7654" fill="white"/>
<circle cx="48.491" cy="69.5902" r="1.7654" fill="white"/>
<circle cx="55.553" cy="69.5902" r="1.7654" fill="white"/>
<circle cx="55.553" cy="76.6518" r="1.7654" fill="white"/>
<circle cx="48.491" cy="76.6518" r="1.7654" fill="white"/>
<circle cx="48.491" cy="83.7133" r="1.7654" fill="white"/>
<circle cx="55.553" cy="83.7133" r="1.7654" fill="white"/>
<circle cx="55.553" cy="90.7753" r="1.7654" fill="white"/>
<circle cx="48.491" cy="90.7753" r="1.7654" fill="white"/>
<circle cx="48.491" cy="97.8368" r="1.7654" fill="white"/>
<circle cx="55.553" cy="97.8368" r="1.7654" fill="white"/>
<circle cx="55.553" cy="104.898" r="1.7654" fill="white"/>
<circle cx="48.491" cy="104.898" r="1.7654" fill="white"/>
<circle cx="48.491" cy="111.96" r="1.7654" fill="white"/>
<circle cx="55.553" cy="111.96" r="1.7654" fill="white"/>
<circle cx="55.553" cy="119.021" r="1.7654" fill="white"/>
<circle cx="48.491" cy="119.021" r="1.7654" fill="white"/>
<circle cx="48.491" cy="126.083" r="1.7654" fill="white"/>
<circle cx="55.553" cy="126.083" r="1.7654" fill="white"/>
<circle cx="55.553" cy="133.144" r="1.7654" fill="white"/>
<circle cx="48.491" cy="133.144" r="1.7654" fill="white"/>
<circle cx="48.491" cy="140.206" r="1.7654" fill="white"/>
<circle cx="55.553" cy="140.206" r="1.7654" fill="white"/>
<circle cx="55.553" cy="147.268" r="1.7654" fill="white"/>
<circle cx="48.491" cy="147.268" r="1.7654" fill="white"/>
<circle cx="62.6126" cy="27.2206" r="1.7654" fill="white"/>
<circle cx="69.6751" cy="27.2201" r="1.7654" fill="white"/>
<circle cx="69.6751" cy="34.2816" r="1.7654" fill="white"/>
<circle cx="62.6126" cy="34.2816" r="1.7654" fill="white"/>
<circle cx="62.6126" cy="41.3432" r="1.7654" fill="white"/>
<circle cx="69.6751" cy="41.3432" r="1.7654" fill="white"/>
<circle cx="69.6751" cy="48.4047" r="1.7654" fill="white"/>
<circle cx="62.6126" cy="48.4047" r="1.7654" fill="white"/>
<circle cx="62.6126" cy="55.4667" r="1.7654" fill="white"/>
<circle cx="69.6751" cy="55.4667" r="1.7654" fill="white"/>
<circle cx="69.6751" cy="62.5282" r="1.7654" fill="white"/>
<circle cx="62.6126" cy="62.5282" r="1.7654" fill="white"/>
<circle cx="62.6126" cy="69.5898" r="1.7654" fill="white"/>
<circle cx="69.6751" cy="69.5898" r="1.7654" fill="white"/>
<circle cx="69.6751" cy="76.6509" r="1.7654" fill="white"/>
<circle cx="62.6126" cy="76.6509" r="1.7654" fill="white"/>
<circle cx="62.6126" cy="83.7129" r="1.7654" fill="white"/>
<circle cx="69.6751" cy="83.7129" r="1.7654" fill="white"/>
<circle cx="69.6751" cy="90.7744" r="1.7654" fill="white"/>
<circle cx="62.6126" cy="90.7744" r="1.7654" fill="white"/>
<circle cx="62.6126" cy="97.8364" r="1.7654" fill="white"/>
<circle cx="69.6751" cy="97.8364" r="1.7654" fill="white"/>
<circle cx="69.6751" cy="104.898" r="1.7654" fill="white"/>
<circle cx="62.6126" cy="104.898" r="1.7654" fill="white"/>
<circle cx="62.6126" cy="111.959" r="1.7654" fill="white"/>
<circle cx="69.6751" cy="111.959" r="1.7654" fill="white"/>
<circle cx="69.6751" cy="119.021" r="1.7654" fill="white"/>
<circle cx="62.6126" cy="119.021" r="1.7654" fill="white"/>
<circle cx="62.6126" cy="126.083" r="1.7654" fill="white"/>
<circle cx="69.6751" cy="126.083" r="1.7654" fill="white"/>
<circle cx="69.6751" cy="133.144" r="1.7654" fill="white"/>
<circle cx="62.6126" cy="133.144" r="1.7654" fill="white"/>
<circle cx="62.6126" cy="140.206" r="1.7654" fill="white"/>
<circle cx="69.6751" cy="140.206" r="1.7654" fill="white"/>
<circle cx="69.6751" cy="147.267" r="1.7654" fill="white"/>
<circle cx="62.6126" cy="147.267" r="1.7654" fill="white"/>
<circle cx="76.7361" cy="27.2206" r="1.7654" fill="white"/>
<circle cx="83.7971" cy="27.2205" r="1.7654" fill="white"/>
<circle cx="83.7971" cy="34.2821" r="1.7654" fill="white"/>
<circle cx="76.7366" cy="34.2821" r="1.7654" fill="white"/>
<circle cx="76.7366" cy="41.3436" r="1.7654" fill="white"/>
<circle cx="83.7971" cy="41.3436" r="1.7654" fill="white"/>
<circle cx="83.7971" cy="48.4051" r="1.7654" fill="white"/>
<circle cx="76.7366" cy="48.4051" r="1.7654" fill="white"/>
<circle cx="76.7366" cy="55.4671" r="1.7654" fill="white"/>
<circle cx="83.7971" cy="55.4671" r="1.7654" fill="white"/>
<circle cx="83.7971" cy="62.5287" r="1.7654" fill="white"/>
<circle cx="76.7366" cy="62.5287" r="1.7654" fill="white"/>
<circle cx="76.7366" cy="69.5902" r="1.7654" fill="white"/>
<circle cx="83.7971" cy="69.5902" r="1.7654" fill="white"/>
<circle cx="83.7971" cy="76.6518" r="1.7654" fill="white"/>
<circle cx="76.7366" cy="76.6518" r="1.7654" fill="white"/>
<circle cx="76.7366" cy="83.7133" r="1.7654" fill="white"/>
<circle cx="83.7971" cy="83.7133" r="1.7654" fill="white"/>
<circle cx="83.7971" cy="90.7748" r="1.7654" fill="white"/>
<circle cx="76.7366" cy="90.7748" r="1.7654" fill="white"/>
<circle cx="76.7366" cy="97.8368" r="1.7654" fill="white"/>
<circle cx="83.7971" cy="97.8368" r="1.7654" fill="white"/>
<circle cx="83.7971" cy="104.898" r="1.7654" fill="white"/>
<circle cx="76.7366" cy="104.898" r="1.7654" fill="white"/>
<circle cx="76.7366" cy="111.96" r="1.7654" fill="white"/>
<circle cx="83.7971" cy="111.96" r="1.7654" fill="white"/>
<circle cx="83.7971" cy="119.021" r="1.7654" fill="white"/>
<circle cx="76.7366" cy="119.021" r="1.7654" fill="white"/>
<circle cx="76.7366" cy="126.083" r="1.7654" fill="white"/>
<circle cx="83.7971" cy="126.083" r="1.7654" fill="white"/>
<circle cx="83.7971" cy="133.144" r="1.7654" fill="white"/>
<circle cx="76.7366" cy="133.144" r="1.7654" fill="white"/>
<circle cx="76.7366" cy="140.206" r="1.7654" fill="white"/>
<circle cx="83.7971" cy="140.206" r="1.7654" fill="white"/>
<circle cx="83.7971" cy="147.268" r="1.7654" fill="white"/>
<circle cx="76.7366" cy="147.268" r="1.7654" fill="white"/>
<circle cx="90.8577" cy="27.2199" r="1.7654" fill="white"/>
<circle cx="97.9202" cy="27.2199" r="1.7654" fill="white"/>
<circle cx="97.9202" cy="34.2819" r="1.7654" fill="white"/>
<circle cx="90.8577" cy="34.2819" r="1.7654" fill="white"/>
<circle cx="90.8577" cy="41.3435" r="1.7654" fill="white"/>
<circle cx="97.9202" cy="41.3435" r="1.7654" fill="white"/>
<circle cx="97.9202" cy="48.405" r="1.7654" fill="white"/>
<circle cx="90.8577" cy="48.405" r="1.7654" fill="white"/>
<circle cx="90.8577" cy="55.4665" r="1.7654" fill="white"/>
<circle cx="97.9202" cy="55.4665" r="1.7654" fill="white"/>
<circle cx="97.9202" cy="62.5281" r="1.7654" fill="white"/>
<circle cx="90.8577" cy="62.5281" r="1.7654" fill="white"/>
<circle cx="90.8577" cy="69.5896" r="1.7654" fill="white"/>
<circle cx="97.9202" cy="69.5896" r="1.7654" fill="white"/>
<circle cx="97.9202" cy="76.6511" r="1.7654" fill="white"/>
<circle cx="90.8577" cy="76.6511" r="1.7654" fill="white"/>
<circle cx="90.8577" cy="83.7131" r="1.7654" fill="white"/>
<circle cx="97.9202" cy="83.7131" r="1.7654" fill="white"/>
<circle cx="97.9202" cy="90.7747" r="1.7654" fill="white"/>
<circle cx="90.8577" cy="90.7747" r="1.7654" fill="white"/>
<circle cx="90.8577" cy="97.8362" r="1.7654" fill="white"/>
<circle cx="97.9202" cy="97.8362" r="1.7654" fill="white"/>
<circle cx="97.9202" cy="104.898" r="1.7654" fill="white"/>
<circle cx="90.8577" cy="104.898" r="1.7654" fill="white"/>
<circle cx="90.8577" cy="111.959" r="1.7654" fill="white"/>
<circle cx="97.9202" cy="111.959" r="1.7654" fill="white"/>
<circle cx="97.9202" cy="119.021" r="1.7654" fill="white"/>
<circle cx="90.8577" cy="119.021" r="1.7654" fill="white"/>
<circle cx="90.8577" cy="126.083" r="1.7654" fill="white"/>
<circle cx="97.9202" cy="126.083" r="1.7654" fill="white"/>
<circle cx="97.9202" cy="133.144" r="1.7654" fill="white"/>
<circle cx="90.8577" cy="133.144" r="1.7654" fill="white"/>
<circle cx="90.8577" cy="140.205" r="1.7654" fill="white"/>
<circle cx="97.9202" cy="140.205" r="1.7654" fill="white"/>
<circle cx="97.9202" cy="147.267" r="1.7654" fill="white"/>
<circle cx="90.8577" cy="147.267" r="1.7654" fill="white"/>
<circle cx="104.982" cy="27.22" r="1.7654" fill="white"/>
<circle cx="112.042" cy="27.22" r="1.7654" fill="white"/>
<circle cx="112.042" cy="34.2815" r="1.7654" fill="white"/>
<circle cx="104.982" cy="34.2815" r="1.7654" fill="white"/>
<circle cx="104.982" cy="41.3431" r="1.7654" fill="white"/>
<circle cx="112.042" cy="41.3431" r="1.7654" fill="white"/>
<circle cx="112.042" cy="48.4046" r="1.7654" fill="white"/>
<circle cx="104.982" cy="48.4046" r="1.7654" fill="white"/>
<circle cx="104.982" cy="55.4666" r="1.7654" fill="white"/>
<circle cx="112.042" cy="55.4666" r="1.7654" fill="white"/>
<circle cx="112.042" cy="62.5281" r="1.7654" fill="white"/>
<circle cx="104.982" cy="62.5281" r="1.7654" fill="white"/>
<circle cx="104.982" cy="69.5897" r="1.7654" fill="white"/>
<circle cx="112.042" cy="69.5897" r="1.7654" fill="white"/>
<circle cx="112.042" cy="76.6512" r="1.7654" fill="white"/>
<circle cx="104.982" cy="76.6512" r="1.7654" fill="white"/>
<circle cx="104.982" cy="83.7127" r="1.7654" fill="white"/>
<circle cx="112.042" cy="83.7127" r="1.7654" fill="white"/>
<circle cx="112.042" cy="90.7743" r="1.7654" fill="white"/>
<circle cx="104.982" cy="90.7743" r="1.7654" fill="white"/>
<circle cx="104.982" cy="97.8363" r="1.7654" fill="white"/>
<circle cx="112.042" cy="97.8363" r="1.7654" fill="white"/>
<circle cx="112.042" cy="104.898" r="1.7654" fill="white"/>
<circle cx="104.982" cy="104.898" r="1.7654" fill="white"/>
<circle cx="104.982" cy="111.959" r="1.7654" fill="white"/>
<circle cx="112.042" cy="111.959" r="1.7654" fill="white"/>
<circle cx="112.042" cy="119.021" r="1.7654" fill="white"/>
<circle cx="104.982" cy="119.021" r="1.7654" fill="white"/>
<circle cx="104.982" cy="126.082" r="1.7654" fill="white"/>
<circle cx="112.042" cy="126.082" r="1.7654" fill="white"/>
<circle cx="112.042" cy="133.144" r="1.7654" fill="white"/>
<circle cx="104.982" cy="133.144" r="1.7654" fill="white"/>
<circle cx="104.982" cy="140.206" r="1.7654" fill="white"/>
<circle cx="112.042" cy="140.206" r="1.7654" fill="white"/>
<circle cx="112.042" cy="147.267" r="1.7654" fill="white"/>
<circle cx="104.982" cy="147.267" r="1.7654" fill="white"/>
<circle cx="119.105" cy="27.22" r="1.7654" fill="white"/>
<circle cx="126.167" cy="27.22" r="1.7654" fill="white"/>
<circle cx="126.167" cy="34.282" r="1.7654" fill="white"/>
<circle cx="119.105" cy="34.282" r="1.7654" fill="white"/>
<circle cx="119.105" cy="41.3435" r="1.7654" fill="white"/>
<circle cx="126.167" cy="41.3435" r="1.7654" fill="white"/>
<circle cx="126.167" cy="48.405" r="1.7654" fill="white"/>
<circle cx="119.105" cy="48.405" r="1.7654" fill="white"/>
<circle cx="119.105" cy="55.4666" r="1.7654" fill="white"/>
<circle cx="126.167" cy="55.4666" r="1.7654" fill="white"/>
<circle cx="126.167" cy="62.5281" r="1.7654" fill="white"/>
<circle cx="119.105" cy="62.5281" r="1.7654" fill="white"/>
<circle cx="119.105" cy="69.5897" r="1.7654" fill="white"/>
<circle cx="126.167" cy="69.5897" r="1.7654" fill="white"/>
<circle cx="126.167" cy="76.6512" r="1.7654" fill="white"/>
<circle cx="119.105" cy="76.6512" r="1.7654" fill="white"/>
<circle cx="119.105" cy="83.7132" r="1.7654" fill="white"/>
<circle cx="126.167" cy="83.7132" r="1.7654" fill="white"/>
<circle cx="126.167" cy="90.7747" r="1.7654" fill="white"/>
<circle cx="119.105" cy="90.7747" r="1.7654" fill="white"/>
<circle cx="119.105" cy="97.8363" r="1.7654" fill="white"/>
<circle cx="126.167" cy="97.8363" r="1.7654" fill="white"/>
<circle cx="126.167" cy="104.898" r="1.7654" fill="white"/>
<circle cx="119.105" cy="104.898" r="1.7654" fill="white"/>
<circle cx="119.105" cy="111.959" r="1.7654" fill="white"/>
<circle cx="126.167" cy="111.959" r="1.7654" fill="white"/>
<circle cx="126.167" cy="119.021" r="1.7654" fill="white"/>
<circle cx="119.105" cy="119.021" r="1.7654" fill="white"/>
<circle cx="119.105" cy="126.082" r="1.7654" fill="white"/>
<circle cx="126.167" cy="126.082" r="1.7654" fill="white"/>
<circle cx="126.167" cy="133.144" r="1.7654" fill="white"/>
<circle cx="119.105" cy="133.144" r="1.7654" fill="white"/>
<circle cx="119.105" cy="140.206" r="1.7654" fill="white"/>
<circle cx="126.167" cy="140.206" r="1.7654" fill="white"/>
<circle cx="126.167" cy="147.267" r="1.7654" fill="white"/>
<circle cx="119.105" cy="147.267" r="1.7654" fill="white"/>
<circle cx="133.228" cy="27.2199" r="1.7654" fill="white"/>
<circle cx="140.289" cy="27.2199" r="1.7654" fill="white"/>
<circle cx="140.289" cy="34.2815" r="1.7654" fill="white"/>
<circle cx="133.228" cy="34.2815" r="1.7654" fill="white"/>
<circle cx="133.228" cy="41.343" r="1.7654" fill="white"/>
<circle cx="140.289" cy="41.343" r="1.7654" fill="white"/>
<circle cx="140.289" cy="48.4045" r="1.7654" fill="white"/>
<circle cx="133.228" cy="48.4045" r="1.7654" fill="white"/>
<circle cx="133.228" cy="55.4665" r="1.7654" fill="white"/>
<circle cx="140.289" cy="55.4665" r="1.7654" fill="white"/>
<circle cx="140.289" cy="62.5281" r="1.7654" fill="white"/>
<circle cx="133.228" cy="62.5281" r="1.7654" fill="white"/>
<circle cx="133.228" cy="69.5896" r="1.7654" fill="white"/>
<circle cx="140.289" cy="69.5896" r="1.7654" fill="white"/>
<circle cx="140.289" cy="76.6507" r="1.7654" fill="white"/>
<circle cx="133.228" cy="76.6507" r="1.7654" fill="white"/>
<circle cx="133.228" cy="83.7127" r="1.7654" fill="white"/>
<circle cx="140.289" cy="83.7127" r="1.7654" fill="white"/>
<circle cx="140.289" cy="90.7742" r="1.7654" fill="white"/>
<circle cx="133.228" cy="90.7742" r="1.7654" fill="white"/>
<circle cx="133.228" cy="97.8362" r="1.7654" fill="white"/>
<circle cx="140.289" cy="97.8362" r="1.7654" fill="white"/>
<circle cx="140.289" cy="104.898" r="1.7654" fill="white"/>
<circle cx="133.228" cy="104.898" r="1.7654" fill="white"/>
<circle cx="133.228" cy="111.959" r="1.7654" fill="white"/>
<circle cx="140.289" cy="111.959" r="1.7654" fill="white"/>
<circle cx="140.289" cy="119.021" r="1.7654" fill="white"/>
<circle cx="133.228" cy="119.021" r="1.7654" fill="white"/>
<circle cx="133.228" cy="126.082" r="1.7654" fill="white"/>
<circle cx="140.289" cy="126.082" r="1.7654" fill="white"/>
<circle cx="140.289" cy="133.144" r="1.7654" fill="white"/>
<circle cx="133.228" cy="133.144" r="1.7654" fill="white"/>
<circle cx="133.228" cy="140.205" r="1.7654" fill="white"/>
<circle cx="140.289" cy="140.205" r="1.7654" fill="white"/>
<circle cx="140.289" cy="147.267" r="1.7654" fill="white"/>
<circle cx="133.228" cy="147.267" r="1.7654" fill="white"/>
<circle cx="147.353" cy="27.22" r="1.7654" fill="white"/>
<circle cx="154.415" cy="27.22" r="1.7654" fill="white"/>
<circle cx="154.415" cy="34.2815" r="1.7654" fill="white"/>
<circle cx="147.353" cy="34.2815" r="1.7654" fill="white"/>
<circle cx="147.353" cy="41.3431" r="1.7654" fill="white"/>
<circle cx="154.415" cy="41.3431" r="1.7654" fill="white"/>
<circle cx="154.415" cy="48.4046" r="1.7654" fill="white"/>
<circle cx="147.353" cy="48.4046" r="1.7654" fill="white"/>
<circle cx="147.353" cy="55.4666" r="1.7654" fill="white"/>
<circle cx="154.415" cy="55.4666" r="1.7654" fill="white"/>
<circle cx="154.415" cy="62.5281" r="1.7654" fill="white"/>
<circle cx="147.353" cy="62.5281" r="1.7654" fill="white"/>
<circle cx="147.353" cy="69.5897" r="1.7654" fill="white"/>
<circle cx="154.415" cy="69.5897" r="1.7654" fill="white"/>
<circle cx="154.415" cy="76.6512" r="1.7654" fill="white"/>
<circle cx="147.353" cy="76.6512" r="1.7654" fill="white"/>
<circle cx="147.353" cy="83.7127" r="1.7654" fill="white"/>
<circle cx="154.415" cy="83.7127" r="1.7654" fill="white"/>
<circle cx="154.415" cy="90.7743" r="1.7654" fill="white"/>
<circle cx="147.353" cy="90.7743" r="1.7654" fill="white"/>
<circle cx="147.353" cy="97.8363" r="1.7654" fill="white"/>
<circle cx="154.415" cy="97.8363" r="1.7654" fill="white"/>
<circle cx="154.415" cy="104.898" r="1.7654" fill="white"/>
<circle cx="147.353" cy="104.898" r="1.7654" fill="white"/>
<circle cx="147.353" cy="111.959" r="1.7654" fill="white"/>
<circle cx="154.415" cy="111.959" r="1.7654" fill="white"/>
<circle cx="154.415" cy="119.021" r="1.7654" fill="white"/>
<circle cx="147.353" cy="119.021" r="1.7654" fill="white"/>
<circle cx="147.353" cy="126.082" r="1.7654" fill="white"/>
<circle cx="154.415" cy="126.082" r="1.7654" fill="white"/>
<circle cx="154.415" cy="133.144" r="1.7654" fill="white"/>
<circle cx="147.353" cy="133.144" r="1.7654" fill="white"/>
<circle cx="147.353" cy="140.206" r="1.7654" fill="white"/>
<circle cx="154.415" cy="140.206" r="1.7654" fill="white"/>
<circle cx="154.415" cy="147.267" r="1.7654" fill="white"/>
<circle cx="147.353" cy="147.267" r="1.7654" fill="white"/>
<circle cx="161.473" cy="27.2204" r="1.7654" fill="white"/>
<circle cx="168.535" cy="27.2201" r="1.7654" fill="white"/>
<circle cx="168.535" cy="34.2821" r="1.7654" fill="white"/>
<circle cx="161.473" cy="34.2821" r="1.7654" fill="white"/>
<circle cx="161.473" cy="41.3436" r="1.7654" fill="white"/>
<circle cx="168.535" cy="41.3436" r="1.7654" fill="white"/>
<circle cx="168.535" cy="48.4051" r="1.7654" fill="white"/>
<circle cx="161.473" cy="48.4051" r="1.7654" fill="white"/>
<circle cx="161.473" cy="55.4667" r="1.7654" fill="white"/>
<circle cx="168.535" cy="55.4667" r="1.7654" fill="white"/>
<circle cx="168.535" cy="62.5282" r="1.7654" fill="white"/>
<circle cx="161.473" cy="62.5282" r="1.7654" fill="white"/>
<circle cx="161.473" cy="69.5897" r="1.7654" fill="white"/>
<circle cx="168.535" cy="69.5897" r="1.7654" fill="white"/>
<circle cx="168.535" cy="76.6513" r="1.7654" fill="white"/>
<circle cx="161.473" cy="76.6513" r="1.7654" fill="white"/>
<circle cx="161.473" cy="83.7133" r="1.7654" fill="white"/>
<circle cx="168.535" cy="83.7133" r="1.7654" fill="white"/>
<circle cx="168.535" cy="90.7748" r="1.7654" fill="white"/>
<circle cx="161.473" cy="90.7748" r="1.7654" fill="white"/>
<circle cx="161.473" cy="97.8363" r="1.7654" fill="white"/>
<circle cx="168.535" cy="97.8363" r="1.7654" fill="white"/>
<circle cx="168.535" cy="104.898" r="1.7654" fill="white"/>
<circle cx="161.473" cy="104.898" r="1.7654" fill="white"/>
<circle cx="161.473" cy="111.959" r="1.7654" fill="white"/>
<circle cx="168.535" cy="111.959" r="1.7654" fill="white"/>
<circle cx="168.535" cy="119.021" r="1.7654" fill="white"/>
<circle cx="161.473" cy="119.021" r="1.7654" fill="white"/>
<circle cx="161.473" cy="126.083" r="1.7654" fill="white"/>
<circle cx="168.535" cy="126.083" r="1.7654" fill="white"/>
<circle cx="168.535" cy="133.144" r="1.7654" fill="white"/>
<circle cx="161.473" cy="133.144" r="1.7654" fill="white"/>
<circle cx="161.473" cy="140.206" r="1.7654" fill="white"/>
<circle cx="168.535" cy="140.206" r="1.7654" fill="white"/>
<circle cx="168.535" cy="147.267" r="1.7654" fill="white"/>
<circle cx="161.473" cy="147.267" r="1.7654" fill="white"/>
<circle cx="175.598" cy="27.2199" r="1.7654" fill="white"/>
<circle cx="182.658" cy="27.2199" r="1.7654" fill="white"/>
<circle cx="182.658" cy="34.2819" r="1.7654" fill="white"/>
<circle cx="175.598" cy="34.2819" r="1.7654" fill="white"/>
<circle cx="175.598" cy="41.3435" r="1.7654" fill="white"/>
<circle cx="182.658" cy="41.3435" r="1.7654" fill="white"/>
<circle cx="182.658" cy="48.4045" r="1.7654" fill="white"/>
<circle cx="175.598" cy="48.4045" r="1.7654" fill="white"/>
<circle cx="175.598" cy="55.4661" r="1.7654" fill="white"/>
<circle cx="182.658" cy="55.4661" r="1.7654" fill="white"/>
<circle cx="182.658" cy="62.5281" r="1.7654" fill="white"/>
<circle cx="175.598" cy="62.5281" r="1.7654" fill="white"/>
<circle cx="175.598" cy="69.5896" r="1.7654" fill="white"/>
<circle cx="182.658" cy="69.5896" r="1.7654" fill="white"/>
<circle cx="182.658" cy="76.6511" r="1.7654" fill="white"/>
<circle cx="175.598" cy="76.6511" r="1.7654" fill="white"/>
<circle cx="175.598" cy="83.7131" r="1.7654" fill="white"/>
<circle cx="182.658" cy="83.7131" r="1.7654" fill="white"/>
<circle cx="182.658" cy="90.7747" r="1.7654" fill="white"/>
<circle cx="175.598" cy="90.7747" r="1.7654" fill="white"/>
<circle cx="175.598" cy="97.8362" r="1.7654" fill="white"/>
<circle cx="182.658" cy="97.8362" r="1.7654" fill="white"/>
<circle cx="182.658" cy="104.897" r="1.7654" fill="white"/>
<circle cx="175.598" cy="104.897" r="1.7654" fill="white"/>
<circle cx="175.598" cy="111.959" r="1.7654" fill="white"/>
<circle cx="182.658" cy="111.959" r="1.7654" fill="white"/>
<circle cx="182.658" cy="119.021" r="1.7654" fill="white"/>
<circle cx="175.598" cy="119.021" r="1.7654" fill="white"/>
<circle cx="175.598" cy="126.082" r="1.7654" fill="white"/>
<circle cx="182.658" cy="126.082" r="1.7654" fill="white"/>
<circle cx="182.658" cy="133.144" r="1.7654" fill="white"/>
<circle cx="175.598" cy="133.144" r="1.7654" fill="white"/>
<circle cx="175.598" cy="140.206" r="1.7654" fill="white"/>
<circle cx="182.658" cy="140.206" r="1.7654" fill="white"/>
<circle cx="182.658" cy="147.267" r="1.7654" fill="white"/>
<circle cx="175.598" cy="147.267" r="1.7654" fill="white"/>
<circle cx="189.722" cy="27.2206" r="1.7654" fill="white"/>
<circle cx="196.785" cy="27.2201" r="1.7654" fill="white"/>
<circle cx="196.785" cy="34.2816" r="1.7654" fill="white"/>
<circle cx="189.722" cy="34.2816" r="1.7654" fill="white"/>
<circle cx="189.722" cy="41.3432" r="1.7654" fill="white"/>
<circle cx="196.785" cy="41.3432" r="1.7654" fill="white"/>
<circle cx="196.785" cy="48.4047" r="1.7654" fill="white"/>
<circle cx="189.722" cy="48.4047" r="1.7654" fill="white"/>
<circle cx="189.722" cy="55.4667" r="1.7654" fill="white"/>
<circle cx="196.785" cy="55.4667" r="1.7654" fill="white"/>
<circle cx="196.785" cy="62.5282" r="1.7654" fill="white"/>
<circle cx="189.722" cy="62.5282" r="1.7654" fill="white"/>
<circle cx="189.722" cy="69.5898" r="1.7654" fill="white"/>
<circle cx="196.785" cy="69.5898" r="1.7654" fill="white"/>
<circle cx="196.785" cy="76.6509" r="1.7654" fill="white"/>
<circle cx="189.722" cy="76.6509" r="1.7654" fill="white"/>
<circle cx="189.722" cy="83.7129" r="1.7654" fill="white"/>
<circle cx="196.785" cy="83.7129" r="1.7654" fill="white"/>
<circle cx="196.785" cy="90.7744" r="1.7654" fill="white"/>
<circle cx="189.722" cy="90.7744" r="1.7654" fill="white"/>
<circle cx="189.722" cy="97.8364" r="1.7654" fill="white"/>
<circle cx="196.785" cy="97.8364" r="1.7654" fill="white"/>
<circle cx="196.785" cy="104.898" r="1.7654" fill="white"/>
<circle cx="189.722" cy="104.898" r="1.7654" fill="white"/>
<circle cx="189.722" cy="111.959" r="1.7654" fill="white"/>
<circle cx="196.785" cy="111.959" r="1.7654" fill="white"/>
<circle cx="196.785" cy="119.021" r="1.7654" fill="white"/>
<circle cx="189.722" cy="119.021" r="1.7654" fill="white"/>
<circle cx="189.722" cy="126.083" r="1.7654" fill="white"/>
<circle cx="196.785" cy="126.083" r="1.7654" fill="white"/>
<circle cx="196.785" cy="133.144" r="1.7654" fill="white"/>
<circle cx="189.722" cy="133.144" r="1.7654" fill="white"/>
<circle cx="189.722" cy="140.206" r="1.7654" fill="white"/>
<circle cx="196.785" cy="140.206" r="1.7654" fill="white"/>
<circle cx="196.785" cy="147.267" r="1.7654" fill="white"/>
<circle cx="189.722" cy="147.267" r="1.7654" fill="white"/>
<circle cx="203.845" cy="27.2204" r="1.7654" fill="white"/>
<circle cx="210.906" cy="27.2199" r="1.7654" fill="white"/>
<circle cx="210.906" cy="34.2815" r="1.7654" fill="white"/>
<circle cx="203.845" cy="34.2815" r="1.7654" fill="white"/>
<circle cx="203.845" cy="41.343" r="1.7654" fill="white"/>
<circle cx="210.906" cy="41.343" r="1.7654" fill="white"/>
<circle cx="210.906" cy="48.4045" r="1.7654" fill="white"/>
<circle cx="203.845" cy="48.4045" r="1.7654" fill="white"/>
<circle cx="203.845" cy="55.4665" r="1.7654" fill="white"/>
<circle cx="210.906" cy="55.4665" r="1.7654" fill="white"/>
<circle cx="210.906" cy="62.5281" r="1.7654" fill="white"/>
<circle cx="203.845" cy="62.5281" r="1.7654" fill="white"/>
<circle cx="203.845" cy="69.5896" r="1.7654" fill="white"/>
<circle cx="210.906" cy="69.5896" r="1.7654" fill="white"/>
<circle cx="210.906" cy="76.6511" r="1.7654" fill="white"/>
<circle cx="203.845" cy="76.6511" r="1.7654" fill="white"/>
<circle cx="203.845" cy="83.7127" r="1.7654" fill="white"/>
<circle cx="210.906" cy="83.7127" r="1.7654" fill="white"/>
<circle cx="210.906" cy="90.7742" r="1.7654" fill="white"/>
<circle cx="203.845" cy="90.7742" r="1.7654" fill="white"/>
<circle cx="203.845" cy="97.8362" r="1.7654" fill="white"/>
<circle cx="210.906" cy="97.8362" r="1.7654" fill="white"/>
<circle cx="210.906" cy="104.898" r="1.7654" fill="white"/>
<circle cx="203.845" cy="104.898" r="1.7654" fill="white"/>
<circle cx="203.845" cy="111.959" r="1.7654" fill="white"/>
<circle cx="210.906" cy="111.959" r="1.7654" fill="white"/>
<circle cx="210.906" cy="119.021" r="1.7654" fill="white"/>
<circle cx="203.845" cy="119.021" r="1.7654" fill="white"/>
<circle cx="203.845" cy="126.082" r="1.7654" fill="white"/>
<circle cx="210.906" cy="126.082" r="1.7654" fill="white"/>
<circle cx="210.906" cy="133.144" r="1.7654" fill="white"/>
<circle cx="203.845" cy="133.144" r="1.7654" fill="white"/>
<circle cx="203.845" cy="140.206" r="1.7654" fill="white"/>
<circle cx="210.906" cy="140.206" r="1.7654" fill="white"/>
<circle cx="210.906" cy="147.267" r="1.7654" fill="white"/>
<circle cx="203.845" cy="147.267" r="1.7654" fill="white"/>
<circle cx="217.969" cy="27.2195" r="1.7654" fill="white"/>
<circle cx="225.031" cy="27.2195" r="1.7654" fill="white"/>
<circle cx="225.031" cy="34.281" r="1.7654" fill="white"/>
<circle cx="217.969" cy="34.281" r="1.7654" fill="white"/>
<circle cx="217.969" cy="41.3426" r="1.7654" fill="white"/>
<circle cx="225.031" cy="41.3426" r="1.7654" fill="white"/>
<circle cx="225.031" cy="48.4046" r="1.7654" fill="white"/>
<circle cx="217.969" cy="48.4046" r="1.7654" fill="white"/>
<circle cx="217.969" cy="55.4661" r="1.7654" fill="white"/>
<circle cx="225.031" cy="55.4661" r="1.7654" fill="white"/>
<circle cx="225.031" cy="62.5276" r="1.7654" fill="white"/>
<circle cx="217.969" cy="62.5276" r="1.7654" fill="white"/>
<circle cx="217.969" cy="69.5892" r="1.7654" fill="white"/>
<circle cx="225.031" cy="69.5892" r="1.7654" fill="white"/>
<circle cx="225.031" cy="76.6507" r="1.7654" fill="white"/>
<circle cx="217.969" cy="76.6507" r="1.7654" fill="white"/>
<circle cx="217.969" cy="83.7122" r="1.7654" fill="white"/>
<circle cx="225.031" cy="83.7122" r="1.7654" fill="white"/>
<circle cx="225.031" cy="90.7742" r="1.7654" fill="white"/>
<circle cx="217.969" cy="90.7742" r="1.7654" fill="white"/>
<circle cx="217.969" cy="97.8358" r="1.7654" fill="white"/>
<circle cx="225.031" cy="97.8358" r="1.7654" fill="white"/>
<circle cx="225.031" cy="104.897" r="1.7654" fill="white"/>
<circle cx="217.969" cy="104.897" r="1.7654" fill="white"/>
<circle cx="217.969" cy="111.959" r="1.7654" fill="white"/>
<circle cx="225.031" cy="111.959" r="1.7654" fill="white"/>
<circle cx="225.031" cy="119.02" r="1.7654" fill="white"/>
<circle cx="217.969" cy="119.02" r="1.7654" fill="white"/>
<circle cx="217.969" cy="126.082" r="1.7654" fill="white"/>
<circle cx="225.031" cy="126.082" r="1.7654" fill="white"/>
<circle cx="225.031" cy="133.143" r="1.7654" fill="white"/>
<circle cx="217.969" cy="133.143" r="1.7654" fill="white"/>
<circle cx="217.969" cy="140.205" r="1.7654" fill="white"/>
<circle cx="225.031" cy="140.205" r="1.7654" fill="white"/>
<circle cx="225.031" cy="147.267" r="1.7654" fill="white"/>
<circle cx="217.969" cy="147.267" r="1.7654" fill="white"/>
<circle cx="232.092" cy="27.2207" r="1.7654" fill="white"/>
<circle cx="239.155" cy="27.2205" r="1.7654" fill="white"/>
<circle cx="239.155" cy="34.2821" r="1.7654" fill="white"/>
<circle cx="232.093" cy="34.2821" r="1.7654" fill="white"/>
<circle cx="232.093" cy="41.3436" r="1.7654" fill="white"/>
<circle cx="239.155" cy="41.3436" r="1.7654" fill="white"/>
<circle cx="239.155" cy="48.4056" r="1.7654" fill="white"/>
<circle cx="232.093" cy="48.4056" r="1.7654" fill="white"/>
<circle cx="232.093" cy="55.4671" r="1.7654" fill="white"/>
<circle cx="239.155" cy="55.4671" r="1.7654" fill="white"/>
<circle cx="239.155" cy="62.5287" r="1.7654" fill="white"/>
<circle cx="232.093" cy="62.5287" r="1.7654" fill="white"/>
<circle cx="232.093" cy="69.5902" r="1.7654" fill="white"/>
<circle cx="239.155" cy="69.5902" r="1.7654" fill="white"/>
<circle cx="239.155" cy="76.6518" r="1.7654" fill="white"/>
<circle cx="232.093" cy="76.6518" r="1.7654" fill="white"/>
<circle cx="232.093" cy="83.7133" r="1.7654" fill="white"/>
<circle cx="239.155" cy="83.7133" r="1.7654" fill="white"/>
<circle cx="239.155" cy="90.7748" r="1.7654" fill="white"/>
<circle cx="232.093" cy="90.7748" r="1.7654" fill="white"/>
<circle cx="232.093" cy="97.8364" r="1.7654" fill="white"/>
<circle cx="239.155" cy="97.8364" r="1.7654" fill="white"/>
<circle cx="239.155" cy="104.898" r="1.7654" fill="white"/>
<circle cx="232.093" cy="104.898" r="1.7654" fill="white"/>
<circle cx="232.093" cy="111.96" r="1.7654" fill="white"/>
<circle cx="239.155" cy="111.96" r="1.7654" fill="white"/>
<circle cx="239.155" cy="119.021" r="1.7654" fill="white"/>
<circle cx="232.093" cy="119.021" r="1.7654" fill="white"/>
<circle cx="232.093" cy="126.083" r="1.7654" fill="white"/>
<circle cx="239.155" cy="126.083" r="1.7654" fill="white"/>
<circle cx="239.155" cy="133.144" r="1.7654" fill="white"/>
<circle cx="232.093" cy="133.144" r="1.7654" fill="white"/>
<circle cx="232.093" cy="140.206" r="1.7654" fill="white"/>
<circle cx="239.155" cy="140.206" r="1.7654" fill="white"/>
<circle cx="239.155" cy="147.268" r="1.7654" fill="white"/>
<circle cx="232.093" cy="147.268" r="1.7654" fill="white"/>
<circle cx="246.215" cy="27.2195" r="1.7654" fill="white"/>
<circle cx="253.276" cy="27.2195" r="1.7654" fill="white"/>
<circle cx="253.276" cy="34.281" r="1.7654" fill="white"/>
<circle cx="246.215" cy="34.281" r="1.7654" fill="white"/>
<circle cx="246.215" cy="41.3426" r="1.7654" fill="white"/>
<circle cx="253.276" cy="41.3426" r="1.7654" fill="white"/>
<circle cx="253.276" cy="48.4041" r="1.7654" fill="white"/>
<circle cx="246.215" cy="48.4041" r="1.7654" fill="white"/>
<circle cx="246.215" cy="55.4661" r="1.7654" fill="white"/>
<circle cx="253.276" cy="55.4661" r="1.7654" fill="white"/>
<circle cx="253.276" cy="62.5276" r="1.7654" fill="white"/>
<circle cx="246.215" cy="62.5276" r="1.7654" fill="white"/>
<circle cx="246.215" cy="69.5892" r="1.7654" fill="white"/>
<circle cx="253.276" cy="69.5892" r="1.7654" fill="white"/>
<circle cx="253.276" cy="76.6507" r="1.7654" fill="white"/>
<circle cx="246.215" cy="76.6507" r="1.7654" fill="white"/>
<circle cx="246.215" cy="83.7122" r="1.7654" fill="white"/>
<circle cx="253.276" cy="83.7122" r="1.7654" fill="white"/>
<circle cx="253.276" cy="90.7738" r="1.7654" fill="white"/>
<circle cx="246.215" cy="90.7738" r="1.7654" fill="white"/>
<circle cx="246.215" cy="97.8358" r="1.7654" fill="white"/>
<circle cx="253.276" cy="97.8358" r="1.7654" fill="white"/>
<circle cx="253.276" cy="104.897" r="1.7654" fill="white"/>
<circle cx="246.215" cy="104.897" r="1.7654" fill="white"/>
<circle cx="246.215" cy="111.959" r="1.7654" fill="white"/>
<circle cx="253.276" cy="111.959" r="1.7654" fill="white"/>
<circle cx="253.276" cy="119.02" r="1.7654" fill="white"/>
<circle cx="246.215" cy="119.02" r="1.7654" fill="white"/>
<circle cx="246.215" cy="126.082" r="1.7654" fill="white"/>
<circle cx="253.276" cy="126.082" r="1.7654" fill="white"/>
<circle cx="253.276" cy="133.143" r="1.7654" fill="white"/>
<circle cx="246.215" cy="133.143" r="1.7654" fill="white"/>
<circle cx="246.215" cy="140.205" r="1.7654" fill="white"/>
<circle cx="253.276" cy="140.205" r="1.7654" fill="white"/>
<circle cx="253.276" cy="147.267" r="1.7654" fill="white"/>
<circle cx="246.215" cy="147.267" r="1.7654" fill="white"/>
</g>
<rect x="1.17639" y="9.56153" width="244.69" height="130.344" stroke="white" stroke-width="2.35279"/>
<rect x="121.169" y="2.0326" width="4.23502" height="6.58781" stroke="white" stroke-width="2.35279"/>
<rect x="121.223" y="141.058" width="4.26747" height="66.4979" stroke="white" stroke-width="2.35279"/>
<path d="M71.0044 207.556L96.5805 141.058H100.68L75.1038 207.556H71.0044Z" stroke="white" stroke-width="2.35279"/>
<path d="M175.711 207.556L150.135 141.058H146.035L171.612 207.556H175.711Z" stroke="white" stroke-width="2.35279"/>
</svg>
