<svg width="594" height="356" viewBox="0 0 594 356" fill="none" xmlns="http://www.w3.org/2000/svg">
<g style="mix-blend-mode:overlay">
<circle cx="45.7416" cy="74.8182" r="3.19273" fill="white"/>
<circle cx="58.513" cy="74.8172" r="3.19273" fill="white"/>
<circle cx="58.513" cy="87.5882" r="3.19273" fill="white"/>
<circle cx="45.7416" cy="87.5882" r="3.19273" fill="white"/>
<circle cx="45.7416" cy="100.359" r="3.19273" fill="white"/>
<circle cx="58.513" cy="100.359" r="3.19273" fill="white"/>
<circle cx="58.513" cy="113.13" r="3.19273" fill="white"/>
<circle cx="45.7416" cy="113.13" r="3.19273" fill="white"/>
<circle cx="45.7416" cy="125.901" r="3.19273" fill="white"/>
<circle cx="58.513" cy="125.901" r="3.19273" fill="white"/>
<circle cx="58.513" cy="138.672" r="3.19273" fill="white"/>
<circle cx="45.7416" cy="138.672" r="3.19273" fill="white"/>
<circle cx="45.7416" cy="151.443" r="3.19273" fill="white"/>
<circle cx="58.513" cy="151.443" r="3.19273" fill="white"/>
<circle cx="58.513" cy="164.214" r="3.19273" fill="white"/>
<circle cx="45.7416" cy="164.214" r="3.19273" fill="white"/>
<circle cx="45.7416" cy="176.985" r="3.19273" fill="white"/>
<circle cx="58.513" cy="176.985" r="3.19273" fill="white"/>
<circle cx="58.513" cy="189.755" r="3.19273" fill="white"/>
<circle cx="45.7416" cy="189.755" r="3.19273" fill="white"/>
<circle cx="45.7416" cy="202.527" r="3.19273" fill="white"/>
<circle cx="58.513" cy="202.527" r="3.19273" fill="white"/>
<circle cx="58.513" cy="215.297" r="3.19273" fill="white"/>
<circle cx="45.7416" cy="215.297" r="3.19273" fill="white"/>
<circle cx="45.7416" cy="228.068" r="3.19273" fill="white"/>
<circle cx="58.513" cy="228.068" r="3.19273" fill="white"/>
<circle cx="58.513" cy="240.839" r="3.19273" fill="white"/>
<circle cx="45.7416" cy="240.839" r="3.19273" fill="white"/>
<circle cx="45.7416" cy="253.61" r="3.19273" fill="white"/>
<circle cx="58.513" cy="253.61" r="3.19273" fill="white"/>
<circle cx="58.513" cy="266.38" r="3.19273" fill="white"/>
<circle cx="45.7416" cy="266.38" r="3.19273" fill="white"/>
<circle cx="45.7416" cy="279.152" r="3.19273" fill="white"/>
<circle cx="58.513" cy="279.152" r="3.19273" fill="white"/>
<circle cx="58.513" cy="291.922" r="3.19273" fill="white"/>
<circle cx="45.7416" cy="291.922" r="3.19273" fill="white"/>
</g>
<g style="mix-blend-mode:overlay">
<circle cx="386.142" cy="74.8182" r="3.19273" fill="white"/>
<circle cx="398.911" cy="74.8177" r="3.19273" fill="white"/>
<circle cx="386.142" cy="60.3509" r="3.19273" fill="white"/>
<circle cx="398.911" cy="60.3504" r="3.19273" fill="white"/>
<circle cx="398.911" cy="87.5882" r="3.19273" fill="white"/>
<circle cx="386.142" cy="87.5882" r="3.19273" fill="white"/>
<circle cx="386.142" cy="100.359" r="3.19273" fill="white"/>
<circle cx="398.911" cy="100.359" r="3.19273" fill="white"/>
<circle cx="398.911" cy="113.13" r="3.19273" fill="white"/>
<circle cx="386.142" cy="113.13" r="3.19273" fill="white"/>
<circle cx="386.142" cy="125.901" r="3.19273" fill="white"/>
<circle cx="398.911" cy="125.901" r="3.19273" fill="white"/>
<circle cx="398.911" cy="138.672" r="3.19273" fill="white"/>
<circle cx="386.142" cy="138.672" r="3.19273" fill="white"/>
<circle cx="386.142" cy="151.443" r="3.19273" fill="white"/>
<circle cx="398.911" cy="151.443" r="3.19273" fill="white"/>
<circle cx="398.911" cy="164.214" r="3.19273" fill="white"/>
<circle cx="386.142" cy="164.214" r="3.19273" fill="white"/>
<circle cx="386.142" cy="176.985" r="3.19273" fill="white"/>
<circle cx="398.911" cy="176.985" r="3.19273" fill="white"/>
<circle cx="398.911" cy="189.756" r="3.19273" fill="white"/>
<circle cx="386.142" cy="189.756" r="3.19273" fill="white"/>
<circle cx="386.142" cy="202.527" r="3.19273" fill="white"/>
<circle cx="398.911" cy="202.527" r="3.19273" fill="white"/>
<circle cx="398.911" cy="215.297" r="3.19273" fill="white"/>
<circle cx="386.142" cy="215.297" r="3.19273" fill="white"/>
<circle cx="386.142" cy="228.069" r="3.19273" fill="white"/>
<circle cx="398.911" cy="228.069" r="3.19273" fill="white"/>
<circle cx="398.911" cy="240.839" r="3.19273" fill="white"/>
<circle cx="386.142" cy="240.839" r="3.19273" fill="white"/>
<circle cx="386.142" cy="253.61" r="3.19273" fill="white"/>
<circle cx="398.911" cy="253.61" r="3.19273" fill="white"/>
<circle cx="398.911" cy="266.381" r="3.19273" fill="white"/>
<circle cx="386.142" cy="266.381" r="3.19273" fill="white"/>
<circle cx="386.142" cy="279.152" r="3.19273" fill="white"/>
<circle cx="398.911" cy="279.152" r="3.19273" fill="white"/>
<circle cx="398.911" cy="291.923" r="3.19273" fill="white"/>
<circle cx="386.142" cy="291.923" r="3.19273" fill="white"/>
</g>
<g style="mix-blend-mode:overlay">
<circle cx="215.943" cy="74.8182" r="3.19273" fill="white"/>
<circle cx="228.712" cy="74.8172" r="3.19273" fill="white"/>
<circle cx="228.712" cy="87.5882" r="3.19273" fill="white"/>
<circle cx="215.943" cy="87.5882" r="3.19273" fill="white"/>
<circle cx="215.943" cy="100.359" r="3.19273" fill="white"/>
<circle cx="228.712" cy="100.359" r="3.19273" fill="white"/>
<circle cx="215.943" cy="35.6722" r="3.19273" fill="white"/>
<circle cx="228.712" cy="35.6712" r="3.19273" fill="white"/>
<circle cx="228.712" cy="48.4422" r="3.19273" fill="white"/>
<circle cx="215.943" cy="48.4422" r="3.19273" fill="white"/>
<circle cx="215.943" cy="61.2127" r="3.19273" fill="white"/>
<circle cx="228.712" cy="61.2127" r="3.19273" fill="white"/>
<circle cx="228.712" cy="113.13" r="3.19273" fill="white"/>
<circle cx="215.943" cy="113.13" r="3.19273" fill="white"/>
<circle cx="215.943" cy="125.901" r="3.19273" fill="white"/>
<circle cx="228.712" cy="125.901" r="3.19273" fill="white"/>
<circle cx="228.712" cy="138.672" r="3.19273" fill="white"/>
<circle cx="215.943" cy="138.672" r="3.19273" fill="white"/>
<circle cx="215.943" cy="151.443" r="3.19273" fill="white"/>
<circle cx="228.712" cy="151.443" r="3.19273" fill="white"/>
<circle cx="228.712" cy="164.214" r="3.19273" fill="white"/>
<circle cx="215.943" cy="164.214" r="3.19273" fill="white"/>
<circle cx="215.943" cy="176.985" r="3.19273" fill="white"/>
<circle cx="228.712" cy="176.985" r="3.19273" fill="white"/>
<circle cx="228.712" cy="189.756" r="3.19273" fill="white"/>
<circle cx="215.943" cy="189.756" r="3.19273" fill="white"/>
<circle cx="215.943" cy="202.527" r="3.19273" fill="white"/>
<circle cx="228.712" cy="202.527" r="3.19273" fill="white"/>
<circle cx="228.712" cy="215.297" r="3.19273" fill="white"/>
<circle cx="215.943" cy="215.297" r="3.19273" fill="white"/>
<circle cx="215.943" cy="228.068" r="3.19273" fill="white"/>
<circle cx="228.712" cy="228.068" r="3.19273" fill="white"/>
<circle cx="228.712" cy="240.839" r="3.19273" fill="white"/>
<circle cx="215.943" cy="240.839" r="3.19273" fill="white"/>
<circle cx="215.943" cy="253.61" r="3.19273" fill="white"/>
<circle cx="228.712" cy="253.61" r="3.19273" fill="white"/>
<circle cx="228.712" cy="266.38" r="3.19273" fill="white"/>
<circle cx="215.943" cy="266.38" r="3.19273" fill="white"/>
<circle cx="215.943" cy="279.152" r="3.19273" fill="white"/>
<circle cx="228.712" cy="279.152" r="3.19273" fill="white"/>
<circle cx="228.712" cy="291.923" r="3.19273" fill="white"/>
<circle cx="215.943" cy="291.923" r="3.19273" fill="white"/>
</g>
<g style="mix-blend-mode:overlay">
<circle cx="301.042" cy="279.152" r="3.19273" fill="white"/>
<circle cx="313.814" cy="279.152" r="3.19273" fill="white"/>
<circle cx="313.814" cy="291.923" r="3.19273" fill="white"/>
<circle cx="301.042" cy="291.923" r="3.19273" fill="white"/>
</g>
<g style="mix-blend-mode:overlay">
<circle cx="173.392" cy="100.359" r="3.19273" fill="white"/>
<circle cx="186.163" cy="100.359" r="3.19273" fill="white"/>
<circle cx="186.163" cy="113.13" r="3.19273" fill="white"/>
<circle cx="173.392" cy="113.13" r="3.19273" fill="white"/>
<circle cx="173.392" cy="125.901" r="3.19273" fill="white"/>
<circle cx="186.163" cy="125.901" r="3.19273" fill="white"/>
<circle cx="186.163" cy="138.672" r="3.19273" fill="white"/>
<circle cx="173.392" cy="138.672" r="3.19273" fill="white"/>
<circle cx="173.392" cy="151.443" r="3.19273" fill="white"/>
<circle cx="186.163" cy="151.443" r="3.19273" fill="white"/>
<circle cx="186.163" cy="164.214" r="3.19273" fill="white"/>
<circle cx="173.392" cy="164.214" r="3.19273" fill="white"/>
<circle cx="173.392" cy="176.985" r="3.19273" fill="white"/>
<circle cx="186.163" cy="176.985" r="3.19273" fill="white"/>
<circle cx="186.163" cy="189.756" r="3.19273" fill="white"/>
<circle cx="173.392" cy="189.756" r="3.19273" fill="white"/>
<circle cx="173.392" cy="202.527" r="3.19273" fill="white"/>
<circle cx="186.163" cy="202.527" r="3.19273" fill="white"/>
<circle cx="186.163" cy="215.297" r="3.19273" fill="white"/>
<circle cx="173.392" cy="215.297" r="3.19273" fill="white"/>
<circle cx="173.392" cy="228.069" r="3.19273" fill="white"/>
<circle cx="186.163" cy="228.069" r="3.19273" fill="white"/>
<circle cx="186.163" cy="240.839" r="3.19273" fill="white"/>
<circle cx="173.392" cy="240.839" r="3.19273" fill="white"/>
<circle cx="173.392" cy="253.61" r="3.19273" fill="white"/>
<circle cx="186.163" cy="253.61" r="3.19273" fill="white"/>
<circle cx="186.163" cy="266.381" r="3.19273" fill="white"/>
<circle cx="173.392" cy="266.381" r="3.19273" fill="white"/>
<circle cx="173.392" cy="279.152" r="3.19273" fill="white"/>
<circle cx="186.163" cy="279.152" r="3.19273" fill="white"/>
<circle cx="186.163" cy="291.922" r="3.19273" fill="white"/>
<circle cx="173.392" cy="291.922" r="3.19273" fill="white"/>
</g>
<g style="mix-blend-mode:overlay">
<circle cx="258.492" cy="176.984" r="3.19273" fill="white"/>
<circle cx="271.261" cy="176.984" r="3.19273" fill="white"/>
<circle cx="271.261" cy="189.755" r="3.19273" fill="white"/>
<circle cx="258.492" cy="189.755" r="3.19273" fill="white"/>
<circle cx="258.492" cy="202.526" r="3.19273" fill="white"/>
<circle cx="271.261" cy="202.526" r="3.19273" fill="white"/>
<circle cx="271.261" cy="215.297" r="3.19273" fill="white"/>
<circle cx="258.492" cy="215.297" r="3.19273" fill="white"/>
<circle cx="258.492" cy="228.068" r="3.19273" fill="white"/>
<circle cx="271.261" cy="228.068" r="3.19273" fill="white"/>
<circle cx="271.261" cy="240.838" r="3.19273" fill="white"/>
<circle cx="258.492" cy="240.838" r="3.19273" fill="white"/>
<circle cx="258.492" cy="253.61" r="3.19273" fill="white"/>
<circle cx="271.261" cy="253.61" r="3.19273" fill="white"/>
<circle cx="271.261" cy="266.38" r="3.19273" fill="white"/>
<circle cx="258.492" cy="266.38" r="3.19273" fill="white"/>
<circle cx="258.492" cy="279.152" r="3.19273" fill="white"/>
<circle cx="271.261" cy="279.152" r="3.19273" fill="white"/>
<circle cx="271.261" cy="291.922" r="3.19273" fill="white"/>
<circle cx="258.492" cy="291.922" r="3.19273" fill="white"/>
</g>
<g style="mix-blend-mode:overlay">
<circle cx="428.693" cy="202.526" r="3.19273" fill="white"/>
<circle cx="441.464" cy="202.526" r="3.19273" fill="white"/>
<circle cx="441.464" cy="215.296" r="3.19273" fill="white"/>
<circle cx="428.693" cy="215.296" r="3.19273" fill="white"/>
<circle cx="428.693" cy="228.068" r="3.19273" fill="white"/>
<circle cx="441.464" cy="228.068" r="3.19273" fill="white"/>
<circle cx="441.464" cy="240.838" r="3.19273" fill="white"/>
<circle cx="428.693" cy="240.838" r="3.19273" fill="white"/>
<circle cx="428.693" cy="253.609" r="3.19273" fill="white"/>
<circle cx="441.464" cy="253.609" r="3.19273" fill="white"/>
<circle cx="441.464" cy="266.38" r="3.19273" fill="white"/>
<circle cx="428.693" cy="266.38" r="3.19273" fill="white"/>
<circle cx="428.693" cy="279.152" r="3.19273" fill="white"/>
<circle cx="441.464" cy="279.152" r="3.19273" fill="white"/>
<circle cx="441.464" cy="291.922" r="3.19273" fill="white"/>
<circle cx="428.693" cy="291.922" r="3.19273" fill="white"/>
</g>
<g style="mix-blend-mode:overlay">
<circle cx="471.242" cy="253.61" r="3.19273" fill="white"/>
<circle cx="484.011" cy="253.61" r="3.19273" fill="white"/>
<circle cx="484.011" cy="266.38" r="3.19273" fill="white"/>
<circle cx="471.242" cy="266.38" r="3.19273" fill="white"/>
<circle cx="471.242" cy="279.152" r="3.19273" fill="white"/>
<circle cx="484.011" cy="279.152" r="3.19273" fill="white"/>
<circle cx="484.011" cy="291.922" r="3.19273" fill="white"/>
<circle cx="471.242" cy="291.922" r="3.19273" fill="white"/>
</g>
<g style="mix-blend-mode:overlay">
<circle cx="85.7376" cy="125.901" r="3.19273" fill="white"/>
<circle cx="98.5072" cy="125.901" r="3.19273" fill="white"/>
<circle cx="98.5072" cy="138.672" r="3.19273" fill="white"/>
<circle cx="85.7376" cy="138.672" r="3.19273" fill="white"/>
<circle cx="85.7376" cy="151.442" r="3.19273" fill="white"/>
<circle cx="98.5072" cy="151.442" r="3.19273" fill="white"/>
<circle cx="98.5072" cy="164.213" r="3.19273" fill="white"/>
<circle cx="85.7376" cy="164.213" r="3.19273" fill="white"/>
<circle cx="85.7376" cy="176.984" r="3.19273" fill="white"/>
<circle cx="98.5072" cy="176.984" r="3.19273" fill="white"/>
<circle cx="98.5072" cy="189.755" r="3.19273" fill="white"/>
<circle cx="85.7376" cy="189.755" r="3.19273" fill="white"/>
<circle cx="85.7376" cy="202.527" r="3.19273" fill="white"/>
<circle cx="98.5072" cy="202.527" r="3.19273" fill="white"/>
<circle cx="98.5072" cy="215.297" r="3.19273" fill="white"/>
<circle cx="85.7376" cy="215.297" r="3.19273" fill="white"/>
<circle cx="85.7376" cy="228.068" r="3.19273" fill="white"/>
<circle cx="98.5072" cy="228.068" r="3.19273" fill="white"/>
<circle cx="98.5072" cy="240.839" r="3.19273" fill="white"/>
<circle cx="85.7376" cy="240.839" r="3.19273" fill="white"/>
<circle cx="85.7376" cy="253.61" r="3.19273" fill="white"/>
<circle cx="98.5072" cy="253.61" r="3.19273" fill="white"/>
<circle cx="98.5072" cy="266.38" r="3.19273" fill="white"/>
<circle cx="85.7376" cy="266.38" r="3.19273" fill="white"/>
<circle cx="85.7376" cy="279.152" r="3.19273" fill="white"/>
<circle cx="98.5072" cy="279.152" r="3.19273" fill="white"/>
<circle cx="98.5072" cy="291.922" r="3.19273" fill="white"/>
<circle cx="85.7376" cy="291.922" r="3.19273" fill="white"/>
</g>
<g style="mix-blend-mode:overlay">
<circle cx="341.038" cy="125.901" r="3.19273" fill="white"/>
<circle cx="353.808" cy="125.901" r="3.19273" fill="white"/>
<circle cx="353.808" cy="138.672" r="3.19273" fill="white"/>
<circle cx="341.038" cy="138.672" r="3.19273" fill="white"/>
<circle cx="341.038" cy="151.442" r="3.19273" fill="white"/>
<circle cx="353.808" cy="151.442" r="3.19273" fill="white"/>
<circle cx="353.808" cy="164.213" r="3.19273" fill="white"/>
<circle cx="341.038" cy="164.213" r="3.19273" fill="white"/>
<circle cx="341.038" cy="176.984" r="3.19273" fill="white"/>
<circle cx="353.808" cy="176.984" r="3.19273" fill="white"/>
<circle cx="353.808" cy="189.755" r="3.19273" fill="white"/>
<circle cx="341.038" cy="189.755" r="3.19273" fill="white"/>
<circle cx="341.038" cy="202.527" r="3.19273" fill="white"/>
<circle cx="353.808" cy="202.527" r="3.19273" fill="white"/>
<circle cx="353.808" cy="215.297" r="3.19273" fill="white"/>
<circle cx="341.038" cy="215.297" r="3.19273" fill="white"/>
<circle cx="341.038" cy="228.068" r="3.19273" fill="white"/>
<circle cx="353.808" cy="228.068" r="3.19273" fill="white"/>
<circle cx="353.808" cy="240.839" r="3.19273" fill="white"/>
<circle cx="341.038" cy="240.839" r="3.19273" fill="white"/>
<circle cx="341.038" cy="253.61" r="3.19273" fill="white"/>
<circle cx="353.808" cy="253.61" r="3.19273" fill="white"/>
<circle cx="353.808" cy="266.38" r="3.19273" fill="white"/>
<circle cx="341.038" cy="266.38" r="3.19273" fill="white"/>
<circle cx="341.038" cy="279.152" r="3.19273" fill="white"/>
<circle cx="353.808" cy="279.152" r="3.19273" fill="white"/>
<circle cx="353.808" cy="291.922" r="3.19273" fill="white"/>
<circle cx="341.038" cy="291.922" r="3.19273" fill="white"/>
</g>
<g style="mix-blend-mode:overlay">
<circle cx="141.058" cy="240.839" r="3.19273" fill="white"/>
<circle cx="128.288" cy="240.839" r="3.19273" fill="white"/>
<circle cx="128.288" cy="253.611" r="3.19273" fill="white"/>
<circle cx="141.058" cy="253.611" r="3.19273" fill="white"/>
<circle cx="141.058" cy="266.381" r="3.19273" fill="white"/>
<circle cx="128.288" cy="266.381" r="3.19273" fill="white"/>
<circle cx="128.288" cy="279.152" r="3.19273" fill="white"/>
<circle cx="141.058" cy="279.152" r="3.19273" fill="white"/>
<circle cx="141.058" cy="291.923" r="3.19273" fill="white"/>
<circle cx="128.288" cy="291.923" r="3.19273" fill="white"/>
</g>
<path fill-rule="evenodd" clip-rule="evenodd" d="M120.102 123.536H157.593V133.917C219.64 137.901 245.616 157.581 258.308 178.23L258.324 178.255C263.056 186.151 266.277 194.416 267.359 202.268L267.776 205.295H191.235L190.864 203.07C190.478 200.751 189.604 199.172 186.682 196.002L186.628 195.944L186.578 195.882C182.878 191.355 174.767 186.822 156.827 185.084V210.104C198.147 212.812 227.758 217.485 247.16 226.683C257.123 231.406 264.537 237.386 269.436 245.026C274.338 252.67 276.576 261.75 276.576 272.418C276.576 293.305 264.123 308.775 242.88 319.163C222.236 329.257 192.974 334.757 157.593 336.086V355.86H120.102V336.074C50.5063 333.106 18.713 312.64 4.96559 284.583L4.94834 284.548L4.93214 284.512C2.227 278.554 1.15805 273.407 0.373696 267.125L0 264.132H76.8783L77.515 265.885C78.4825 268.548 79.8939 271.833 82.7095 275.356L82.7477 275.404L82.7836 275.454C84.3833 277.656 87.5803 280.151 94.0023 282.254C99.981 284.211 108.579 285.769 120.868 286.485V257.6C79.3996 255.954 49.9026 250.843 30.6262 241.016C20.7309 235.972 13.4318 229.638 8.62642 221.813C3.82021 213.986 1.6298 204.867 1.6298 194.452C1.6298 176.261 12.7911 161.311 33.3049 150.828C53.2972 140.612 82.4832 134.431 120.102 133.319V123.536ZM125.422 128.862V138.515L122.823 138.575C84.3342 139.465 55.1678 145.635 35.7231 155.571C16.3418 165.475 6.94914 178.899 6.94914 194.452C6.94914 204.104 8.97165 212.207 13.1578 219.023C17.3448 225.841 23.8175 231.569 33.0398 236.271C51.6039 245.734 80.9079 250.843 123.623 252.375L126.188 252.467V292.078L123.406 291.95C109.363 291.305 99.3977 289.623 92.349 287.315C85.3375 285.02 81.0105 282.037 78.5189 278.637C75.8486 275.284 74.2624 272.111 73.1869 269.457H6.06677C6.77754 274.043 7.7835 277.914 9.75859 282.273C22.4077 308.051 52.3087 328.312 122.857 330.853L125.422 330.945V350.534H152.274V330.934L154.849 330.852C191.08 329.707 220.389 324.234 240.546 314.377C260.602 304.57 271.257 290.643 271.257 272.418C271.257 262.509 269.186 254.493 264.96 247.903C260.731 241.308 254.197 235.911 244.883 231.496C226.119 222.6 196.655 217.944 154 215.259L151.508 215.102V179.309L154.369 179.526C174.693 181.072 185.325 185.991 190.643 192.447C193.154 195.176 194.72 197.314 195.577 199.969H261.559C260.267 193.86 257.589 187.382 253.771 181.009C242.118 162.06 217.554 142.63 154.783 139.083L152.274 138.941V128.862H125.422ZM126.443 178.208V213.41L123.6 213.213C103.361 211.811 90.492 210.395 82.6701 208.129C78.7507 206.994 75.7554 205.555 73.7411 203.512C71.61 201.351 70.8238 198.773 70.8238 195.986C70.8238 193.137 71.4708 190.366 73.4147 187.938C75.3148 185.564 78.2247 183.806 82.1755 182.471C89.9924 179.828 102.957 178.496 123.751 178.241L126.443 178.208ZM77.5657 191.268C76.5813 192.498 76.1431 193.977 76.1431 195.986C76.1431 197.671 76.5698 198.8 77.5265 199.771C78.6001 200.859 80.5678 201.976 84.1486 203.014C90.9867 204.995 102.454 206.356 121.124 207.699V183.606C101.931 183.942 90.5015 185.277 83.8772 187.516C80.4555 188.673 78.5939 189.983 77.5657 191.268ZM151.252 253.768L154.047 253.91C174.081 254.932 186.49 256.791 193.937 259.786C197.713 261.305 200.447 263.206 202.208 265.653C203.995 268.136 204.573 270.891 204.573 273.697C204.573 276.646 203.586 279.381 201.443 281.739C199.361 284.032 196.299 285.847 192.318 287.289C184.39 290.159 172.027 291.823 153.968 292.208L151.252 292.266V253.768ZM156.572 259.38V286.814C172.982 286.328 183.799 284.71 190.509 282.28C194.028 281.006 196.216 279.578 197.509 278.156C198.741 276.799 199.254 275.349 199.254 273.697C199.254 271.645 198.843 270.086 197.893 268.767C196.918 267.412 195.168 266.021 191.954 264.728C185.731 262.225 174.917 260.429 156.572 259.38Z" fill="white"/>
<path fill-rule="evenodd" clip-rule="evenodd" d="M437.526 0.140625H475.017V10.5214C537.063 14.5056 563.04 34.1852 575.732 54.8342L575.748 54.8597C580.48 62.7557 583.701 71.0206 584.783 78.8725L585.2 81.8992H508.659L508.288 79.6741C507.902 77.3558 507.028 75.7761 504.106 72.6067L504.052 72.5483L504.002 72.4868C500.302 67.9596 492.191 63.4268 474.251 61.688V86.7084C515.571 89.4165 545.182 94.0894 564.584 103.287C574.547 108.011 581.961 113.99 586.86 121.63C591.762 129.275 594 138.354 594 149.023C594 169.909 581.547 185.38 560.304 195.767C539.66 205.862 510.398 211.361 475.017 212.691V232.464H437.526V212.678C367.93 209.71 336.137 189.244 322.389 161.188L322.372 161.153L322.356 161.117C319.651 155.159 318.582 150.012 317.798 143.729L317.424 140.736H394.302L394.939 142.489C395.906 145.153 397.318 148.437 400.133 151.961L400.172 152.009L400.207 152.058C401.807 154.26 405.004 156.756 411.426 158.858C417.405 160.816 426.003 162.373 438.292 163.09V134.204C396.823 132.558 367.326 127.448 348.05 117.621C338.155 112.576 330.856 106.242 326.05 98.4172C321.244 90.591 319.054 81.4712 319.054 71.0562C319.054 52.8657 330.215 37.915 350.729 27.4325C370.721 17.2163 399.907 11.0354 437.526 9.92362V0.140625ZM442.845 5.46622V15.1193L440.247 15.1794C401.758 16.0696 372.592 22.2396 353.147 32.1759C333.766 42.0797 324.373 55.5038 324.373 71.0562C324.373 80.7082 326.395 88.8113 330.582 95.6279C334.769 102.446 341.241 108.174 350.464 112.875C369.028 122.339 398.332 127.447 441.047 128.979L443.611 129.071V168.682L440.83 168.554C426.787 167.91 416.822 166.228 409.773 163.92C402.761 161.624 398.434 158.642 395.943 155.241C393.272 151.889 391.686 148.716 390.611 146.062H323.491C324.201 150.647 325.207 154.518 327.182 158.878C339.832 184.655 369.733 204.916 440.281 207.457L442.845 207.549V227.139H469.697V207.538L472.273 207.457C508.504 206.311 537.813 200.838 557.97 190.982C578.026 181.175 588.68 167.248 588.68 149.023C588.68 139.114 586.61 131.098 582.384 124.507C578.155 117.912 571.621 112.516 562.307 108.101C543.543 99.2049 514.079 94.5485 471.424 91.8634L468.931 91.7065V55.9134L471.792 56.1309C492.117 57.6764 502.749 62.5959 508.067 69.0513C510.578 71.7805 512.144 73.9182 513.001 76.5736H578.983C577.691 70.4644 575.012 63.9869 571.195 57.6136C559.542 38.6645 534.978 19.2348 472.207 15.6871L469.697 15.5453V5.46622H442.845ZM443.867 54.8123V90.0142L441.023 89.8173C420.785 88.4155 407.916 87 400.094 84.734C396.175 83.5985 393.179 82.1593 391.165 80.1166C389.034 77.9554 388.248 75.3776 388.248 72.59C388.248 69.7419 388.895 66.9709 390.838 64.5422C392.739 62.1681 395.648 60.4107 399.599 59.0751C407.416 56.4326 420.381 55.1008 441.174 54.8453L443.867 54.8123ZM394.99 67.8724C394.005 69.1023 393.567 70.5812 393.567 72.59C393.567 74.276 393.994 75.4048 394.95 76.375C396.024 77.4638 397.992 78.5808 401.572 79.6182C408.411 81.5992 419.878 82.9603 438.547 84.3037V60.2105C419.355 60.547 407.925 61.8815 401.301 64.1208C397.879 65.2776 396.018 66.5878 394.99 67.8724ZM468.676 130.372L471.471 130.515C491.505 131.537 503.914 133.395 511.361 136.391C515.136 137.91 517.871 139.81 519.632 142.258C521.419 144.741 521.997 147.496 521.997 150.301C521.997 153.25 521.01 155.986 518.867 158.344C516.784 160.636 513.723 162.451 509.742 163.893C501.814 166.764 489.45 168.428 471.392 168.812L468.676 168.87V130.372ZM473.995 135.984V163.419C490.406 162.933 501.223 161.315 507.932 158.885C511.452 157.611 513.64 156.182 514.932 154.76C516.165 153.404 516.678 151.953 516.678 150.301C516.678 148.249 516.266 146.691 515.317 145.371C514.341 144.016 512.591 142.625 509.377 141.333C503.155 138.829 492.341 137.033 473.995 135.984Z" fill="white"/>
</svg>
