<svg width="12" height="21" viewBox="0 0 12 21" fill="none" xmlns="http://www.w3.org/2000/svg">
<path d="M10.6694 0.00428409L8.01017 0C5.0226 0 3.0919 1.98889 3.0919 5.06723V7.40356H0.418141C0.187097 7.40356 0 7.59163 0 7.82361V11.2087C0 11.4407 0.18731 11.6285 0.418141 11.6285H3.0919V20.1702C3.0919 20.4021 3.27899 20.59 3.51004 20.59H6.99853C7.22957 20.59 7.41667 20.4019 7.41667 20.1702V11.6285H10.5429C10.774 11.6285 10.9611 11.4407 10.9611 11.2087L10.9623 7.82361C10.9623 7.71223 10.9182 7.60555 10.8399 7.52673C10.7616 7.4479 10.6549 7.40356 10.544 7.40356H7.41667V5.42302C7.41667 4.47109 7.64259 3.98785 8.8776 3.98785L10.669 3.98721C10.8998 3.98721 11.0869 3.79913 11.0869 3.56737V0.424125C11.0869 0.19257 10.9 0.0047125 10.6694 0.00428409Z" fill="#282A2D"/>
</svg>
