<svg width="11" height="19" viewBox="0 0 11 19" fill="none" xmlns="http://www.w3.org/2000/svg">
<path d="M9.84066 0.34551L7.53584 0.341797C4.94645 0.341797 3.27307 2.06561 3.27307 4.73366V6.75861H0.955673C0.755422 6.75861 0.593262 6.92161 0.593262 7.12268V10.0566C0.593262 10.2577 0.755607 10.4205 0.955673 10.4205H3.27307V17.8237C3.27307 18.0247 3.43523 18.1876 3.63548 18.1876H6.65902C6.85927 18.1876 7.02143 18.0245 7.02143 17.8237V10.4205H9.73101C9.93126 10.4205 10.0934 10.2577 10.0934 10.0566L10.0945 7.12268C10.0945 7.02613 10.0563 6.93368 9.9884 6.86536C9.92054 6.79704 9.82808 6.75861 9.73194 6.75861H7.02143V5.04204C7.02143 4.21698 7.21725 3.79814 8.28765 3.79814L9.84029 3.79759C10.0404 3.79759 10.2025 3.63458 10.2025 3.4337V0.709395C10.2025 0.508701 10.0405 0.345881 9.84066 0.34551Z" fill="white"/>
</svg>
