<svg width="21" height="21" viewBox="0 0 21 21" fill="none" xmlns="http://www.w3.org/2000/svg">
<path d="M15.0276 0H5.5637C2.49589 0 0 2.49589 0 5.5637V15.0276C0 18.0954 2.49589 20.5913 5.5637 20.5913H15.0276C18.0954 20.5913 20.5913 18.0954 20.5913 15.0276V5.5637C20.5913 2.49589 18.0954 0 15.0276 0ZM18.9277 15.0276C18.9277 17.1781 17.1781 18.9277 15.0276 18.9277H5.5637C3.41316 18.9277 1.66355 17.1781 1.66355 15.0276V5.5637C1.66355 3.41316 3.41312 1.66355 5.5637 1.66355H15.0276C17.1781 1.66355 18.9277 3.41312 18.9277 5.5637V15.0276Z" fill="#282A2D"/>
<path d="M14.9025 9.57692C14.7561 8.58971 14.3057 7.69495 13.6 6.98926C12.8943 6.28361 11.9996 5.83317 11.0124 5.68682C10.5629 5.62018 10.1072 5.62018 9.65779 5.68682C8.43776 5.86776 7.36126 6.51292 6.62653 7.50352C5.8918 8.49411 5.58675 9.71157 5.76769 10.9315C5.94863 12.1515 6.59379 13.228 7.58439 13.9628C8.38857 14.5592 9.34212 14.8725 10.3253 14.8725C10.5532 14.8725 10.7828 14.8556 11.0123 14.8216C12.2324 14.6406 13.3089 13.9955 14.0436 13.0049C14.7784 12.0143 15.0834 10.7969 14.9025 9.57692ZM10.7683 13.176C9.98793 13.2919 9.20912 13.0967 8.57542 12.6266C7.94172 12.1566 7.52901 11.4679 7.4133 10.6875C7.29756 9.9071 7.49265 9.1283 7.96267 8.49459C8.43273 7.86089 9.12137 7.44818 9.90183 7.33243C10.0456 7.31112 10.1903 7.30046 10.335 7.30046C10.4798 7.30046 10.6246 7.31112 10.7683 7.33247C12.0646 7.52467 13.0646 8.52471 13.2569 9.821C13.4958 11.432 12.3795 12.9371 10.7683 13.176Z" fill="#282A2D"/>
<path d="M16.0869 4.50304C15.9319 4.34816 15.7174 4.2594 15.4984 4.2594C15.2794 4.2594 15.0648 4.34812 14.9098 4.50304C14.7548 4.65795 14.666 4.87199 14.666 5.09121C14.666 5.31044 14.7548 5.52447 14.9098 5.67939C15.0648 5.83427 15.2794 5.92303 15.4984 5.92303C15.7174 5.92303 15.9319 5.83431 16.0869 5.67939C16.2419 5.52447 16.3307 5.31008 16.3307 5.09121C16.3307 4.87231 16.2419 4.65791 16.0869 4.50304Z" fill="#282A2D"/>
</svg>
