<svg width="22" height="21" viewBox="0 0 22 21" fill="none" xmlns="http://www.w3.org/2000/svg">
<path d="M15.6535 0H6.18968C3.12186 0 0.625977 2.49589 0.625977 5.5637V15.0276C0.625977 18.0954 3.12186 20.5913 6.18968 20.5913H15.6535C18.7213 20.5913 21.2172 18.0954 21.2172 15.0276V5.5637C21.2172 2.49589 18.7213 0 15.6535 0ZM19.5537 15.0276C19.5537 17.1781 17.8041 18.9277 15.6535 18.9277H6.18968C4.03914 18.9277 2.28952 17.1781 2.28952 15.0276V5.5637C2.28952 3.41316 4.0391 1.66355 6.18968 1.66355H15.6535C17.8041 1.66355 19.5537 3.41312 19.5537 5.5637V15.0276V15.0276Z" fill="white"/>
<path d="M15.529 9.5768C15.3826 8.58958 14.9322 7.69483 14.2265 6.98914C13.5208 6.28348 12.626 5.83305 11.6389 5.6867C11.1894 5.62006 10.7337 5.62006 10.2843 5.6867C9.06422 5.86764 7.98772 6.5128 7.25299 7.50339C6.51827 8.49399 6.21322 9.71144 6.39415 10.9314C6.57509 12.1514 7.22026 13.2279 8.21085 13.9627C9.01504 14.5591 9.96859 14.8723 10.9518 14.8723C11.1797 14.8723 11.4093 14.8555 11.6388 14.8215C12.8588 14.6405 13.9353 13.9954 14.6701 13.0048C15.4048 12.0142 15.7099 10.7968 15.529 9.5768ZM11.3948 13.1759C10.6144 13.2918 9.83559 13.0965 9.20189 12.6265C8.56818 12.1565 8.15547 11.4678 8.03977 10.6874C7.92402 9.90698 8.11911 9.12817 8.58913 8.49447C9.05919 7.86077 9.74783 7.44806 10.5283 7.33231C10.672 7.31099 10.8168 7.30034 10.9615 7.30034C11.1063 7.30034 11.251 7.31099 11.3948 7.33235C12.691 7.52455 13.6911 8.52459 13.8833 9.82088C14.1222 11.4319 13.0059 12.937 11.3948 13.1759Z" fill="white"/>
<path d="M16.7134 4.50291C16.5584 4.34804 16.3438 4.25928 16.1248 4.25928C15.9058 4.25928 15.6913 4.348 15.5363 4.50291C15.3813 4.65783 15.2925 4.87187 15.2925 5.09109C15.2925 5.31032 15.3813 5.52435 15.5363 5.67927C15.6913 5.83415 15.9058 5.92291 16.1248 5.92291C16.3438 5.92291 16.5584 5.83419 16.7134 5.67927C16.8684 5.52435 16.9572 5.30995 16.9572 5.09109C16.9572 4.87219 16.8684 4.65779 16.7134 4.50291Z" fill="white"/>
</svg>
