<svg width="27" height="21" viewBox="0 0 27 21" fill="none" xmlns="http://www.w3.org/2000/svg">
<path d="M2.9664 6.39501C3.2979 6.62893 4.29716 7.32368 5.96423 8.47891C7.63135 9.63413 8.90848 10.5236 9.79567 11.1474C9.89314 11.2158 10.1002 11.3645 10.417 11.5936C10.7339 11.8228 10.9971 12.0081 11.2066 12.1494C11.4163 12.2907 11.6697 12.4492 11.9672 12.6246C12.2646 12.7999 12.5449 12.9317 12.8081 13.019C13.0714 13.107 13.3151 13.1506 13.5393 13.1506H13.554H13.5688C13.793 13.1506 14.0368 13.1069 14.3 13.019C14.5632 12.9317 14.8437 12.7997 15.1409 12.6246C15.4382 12.4489 15.6916 12.2906 15.9012 12.1494C16.1109 12.0081 16.374 11.8228 16.6909 11.5936C17.0077 11.3643 17.215 11.2158 17.3125 11.1474C18.2092 10.5236 20.4907 8.93933 24.1563 6.3947C24.8679 5.89771 25.4625 5.29802 25.9401 4.59604C26.4181 3.89438 26.6569 3.15829 26.6569 2.38819C26.6569 1.74466 26.4252 1.19378 25.9621 0.735615C25.499 0.277346 24.9505 0.0483398 24.317 0.0483398H2.79087C2.04023 0.0483398 1.46257 0.301778 1.05798 0.808655C0.653441 1.31563 0.451172 1.94933 0.451172 2.7097C0.451172 3.32388 0.719362 3.98944 1.25549 4.70596C1.79156 5.42254 2.36205 5.9856 2.9664 6.39501Z" fill="#282A2D"/>
<path d="M25.1943 7.95959C21.9969 10.1237 19.5691 11.8056 17.9119 13.0049C17.3563 13.4142 16.9055 13.7337 16.5593 13.9626C16.2131 14.1917 15.7526 14.4257 15.1773 14.6644C14.6022 14.9035 14.0663 15.0227 13.569 15.0227H13.5541H13.5394C13.0422 15.0227 12.5059 14.9035 11.9308 14.6644C11.3557 14.4257 10.895 14.1917 10.5489 13.9626C10.2029 13.7337 9.75192 13.4142 9.19629 13.0049C7.88007 12.0398 5.45745 10.3578 1.92832 7.95959C1.37247 7.58937 0.880143 7.16501 0.451172 6.68738V18.2983C0.451172 18.9421 0.680178 19.4927 1.13845 19.9509C1.59661 20.4093 2.14754 20.6384 2.79102 20.6384H24.3172C24.9605 20.6384 25.5114 20.4093 25.9696 19.9509C26.428 19.4925 26.6569 18.9422 26.6569 18.2983V6.68738C26.2376 7.15512 25.7503 7.57948 25.1943 7.95959Z" fill="#282A2D"/>
</svg>
