<svg width="991" height="594" viewBox="0 0 991 594" fill="none" xmlns="http://www.w3.org/2000/svg">
<g filter="url(#filter0_d)">
<rect x="4" y="4" width="963" height="566" fill="#1F3EF3"/>
<g clip-path="url(#clip0)">
<g filter="url(#filter1_f)">
<path d="M497.648 139.036C934.836 139.036 1379 131.967 1379 316.11C1379 500.252 566.579 737 129.391 737C-307.797 737 -293.951 656.599 -293.951 472.456C-293.951 288.313 60.4601 139.036 497.648 139.036Z" fill="url(#paint0_linear)"/>
</g>
<g filter="url(#filter2_f)">
<path d="M1702 633.213C1702 849.494 1020.43 828.441 634.355 828.441C248.279 828.441 -108.991 688.537 -108.991 472.256C-108.991 255.975 -309.423 -11 76.6531 -11C462.73 -11 1702 416.932 1702 633.213Z" fill="url(#paint1_linear)"/>
</g>
<g style="mix-blend-mode:overlay" opacity="0.4">
<path fill-rule="evenodd" clip-rule="evenodd" d="M270 218.024L274.438 216.369C307.061 204.205 344.647 187.382 368.655 176.123C379.883 170.507 386.238 165.864 389.812 161.632C393.114 157.722 394.282 153.885 394.282 148.879C394.282 145.032 392.732 141.902 389.542 139.531C386.16 137.017 380.501 135.079 372.122 135.079C363.118 135.079 356.841 137.013 352.958 140.008C349.362 142.784 347.015 147.085 347.015 154.033V154.066C347.015 155.176 347.015 156.423 347.232 158.815L347.97 166.925L271.528 160.335L271.01 154.65C270.981 154.326 270.951 154.001 270.92 153.676C270.709 151.414 270.491 149.086 270.491 146.179C270.491 123.626 282.805 106.518 301.766 95.3844C320.499 84.3843 345.95 78.9818 373.841 78.9818C401.264 78.9818 425.72 83.2676 443.56 93.4026C461.855 103.795 473.016 120.307 473.016 143.233C473.016 156.349 470.104 167.193 463.154 176.635C456.36 185.863 446.154 193.131 432.795 200.063C425.992 203.749 418.254 207.152 409.966 210.294H475.472V268.109H270V218.024ZM364.754 217.112C372.897 215.014 381.04 212.745 388.919 210.294C404.09 205.574 418.28 200.179 429.596 194.04C455.632 180.541 466.193 167.287 466.193 143.233C466.193 102.735 427.631 85.7996 373.841 85.7996C319.56 85.7996 277.314 106.908 277.314 146.179C277.314 148.75 277.501 150.76 277.712 153.025C277.743 153.355 277.774 153.69 277.805 154.033L340.437 159.433C340.192 156.733 340.192 155.26 340.192 154.033C340.192 153.538 340.202 153.051 340.221 152.571C340.895 136.139 353.03 128.261 372.122 128.261C390.789 128.261 401.105 136.852 401.105 148.879C401.105 161.642 394.719 170.723 371.631 182.259C347.56 193.549 309.735 210.485 276.823 222.757V261.292H468.65V217.112H364.754ZM669.91 249.078C649.873 265.714 622.279 274 591.527 274C560.775 274 533.181 265.714 513.144 249.078C492.95 232.312 481.054 207.563 481.054 176.123C481.054 144.685 492.947 119.88 513.134 103.053C533.168 86.3534 560.763 78 591.527 78C622.291 78 649.886 86.3534 669.92 103.053C690.107 119.88 702 144.685 702 176.123C702 207.563 690.104 232.312 669.91 249.078ZM568.386 209.567C574.219 215.636 582.32 218.394 591.527 218.394C600.734 218.394 608.835 215.636 614.668 209.567C620.515 203.482 624.986 193.129 624.986 176.123C624.986 158.982 620.508 148.566 614.658 142.454C608.828 136.363 600.732 133.607 591.527 133.607C582.322 133.607 574.226 136.363 568.396 142.454C562.546 148.566 558.069 158.982 558.069 176.123C558.069 193.129 562.539 203.482 568.386 209.567ZM695.177 176.123C695.177 235.275 650.721 267.182 591.527 267.182C532.333 267.182 487.877 235.275 487.877 176.123C487.877 116.971 532.333 84.8179 591.527 84.8179C650.721 84.8179 695.177 116.971 695.177 176.123ZM551.246 176.123C551.246 212.448 570.404 225.211 591.527 225.211C612.65 225.211 631.808 212.448 631.808 176.123C631.808 139.552 612.65 126.789 591.527 126.789C570.404 126.789 551.246 139.552 551.246 176.123Z" fill="white" fill-opacity="0.7"/>
</g>
<g style="mix-blend-mode:overlay" opacity="0.4">
<path fill-rule="evenodd" clip-rule="evenodd" d="M270 440.024L274.438 438.369C307.061 426.205 344.647 409.382 368.655 398.123C379.883 392.507 386.238 387.864 389.812 383.632C393.114 379.722 394.282 375.885 394.282 370.879C394.282 367.032 392.732 363.902 389.542 361.531C386.16 359.017 380.501 357.079 372.122 357.079C363.118 357.079 356.841 359.013 352.958 362.008C349.362 364.784 347.015 369.085 347.015 376.033V376.066C347.015 377.176 347.015 378.423 347.232 380.815L347.97 388.925L271.528 382.335L271.01 376.65C270.981 376.326 270.951 376.001 270.92 375.676C270.709 373.414 270.491 371.086 270.491 368.179C270.491 345.626 282.805 328.518 301.766 317.384C320.499 306.384 345.95 300.982 373.841 300.982C401.264 300.982 425.72 305.268 443.56 315.403C461.855 325.795 473.016 342.307 473.016 365.233C473.016 378.349 470.104 389.193 463.154 398.635C456.36 407.863 446.154 415.131 432.795 422.063C425.992 425.749 418.254 429.152 409.966 432.294H475.472V490.109H270V440.024ZM364.754 439.112C372.897 437.014 381.04 434.745 388.919 432.294C404.09 427.574 418.28 422.179 429.596 416.04C455.632 402.541 466.193 389.287 466.193 365.233C466.193 324.735 427.631 307.8 373.841 307.8C319.56 307.8 277.314 328.908 277.314 368.179C277.314 370.75 277.501 372.76 277.712 375.025C277.743 375.355 277.774 375.69 277.805 376.033L340.437 381.433C340.192 378.733 340.192 377.26 340.192 376.033C340.192 375.538 340.202 375.051 340.221 374.571C340.895 358.139 353.03 350.261 372.122 350.261C390.789 350.261 401.105 358.852 401.105 370.879C401.105 383.642 394.719 392.723 371.631 404.259C347.56 415.549 309.735 432.485 276.823 444.757V483.292H468.65V439.112H364.754ZM669.91 471.078C649.873 487.714 622.279 496 591.527 496C560.775 496 533.181 487.714 513.144 471.078C492.95 454.312 481.054 429.563 481.054 398.123C481.054 366.685 492.947 341.88 513.134 325.053C533.168 308.353 560.763 300 591.527 300C622.291 300 649.886 308.353 669.92 325.053C690.107 341.88 702 366.685 702 398.123C702 429.563 690.104 454.312 669.91 471.078ZM568.386 431.567C574.219 437.636 582.32 440.394 591.527 440.394C600.734 440.394 608.835 437.636 614.668 431.567C620.515 425.482 624.986 415.129 624.986 398.123C624.986 380.982 620.508 370.566 614.658 364.454C608.828 358.363 600.732 355.607 591.527 355.607C582.322 355.607 574.226 358.363 568.396 364.454C562.546 370.566 558.069 380.982 558.069 398.123C558.069 415.129 562.539 425.482 568.386 431.567ZM695.177 398.123C695.177 457.275 650.721 489.182 591.527 489.182C532.333 489.182 487.877 457.275 487.877 398.123C487.877 338.971 532.333 306.818 591.527 306.818C650.721 306.818 695.177 338.971 695.177 398.123ZM551.246 398.123C551.246 434.448 570.404 447.211 591.527 447.211C612.65 447.211 631.808 434.448 631.808 398.123C631.808 361.552 612.65 348.789 591.527 348.789C570.404 348.789 551.246 361.552 551.246 398.123Z" fill="white" fill-opacity="0.7"/>
</g>
<mask id="mask0" mask-type="alpha" maskUnits="userSpaceOnUse" x="169" y="102" width="637" height="363">
<path d="M579.008 368.591V296.863L604.766 287.719V358.545C604.766 375.163 614.429 383.195 632.859 376.655C651.29 370.114 660.762 355.288 660.762 338.67V267.844L686.699 258.636V330.187C686.699 359.862 669.171 386.317 632.859 399.208C596.548 412.099 579.008 397.926 579.008 368.591Z" fill="black"/>
<path d="M710.123 369.624V250.316L765.913 230.504C791.85 221.297 805.979 233.808 805.979 254.736C805.979 275.485 791.668 298.26 765.913 307.42L735.502 318.214V360.607L710.123 369.624ZM780.063 263.943C780.063 253.928 772.545 250.514 762.53 254.051L735.521 263.638V295.834L762.53 286.247C772.549 282.71 780.063 273.783 780.063 263.943Z" fill="black"/>
<path d="M169.521 393.551L181.851 369.854C189.369 375.947 201.069 379.128 215.8 373.897C228.291 369.466 234.396 360.864 234.396 354.066C234.396 332.961 172.901 369.28 172.901 324.39C172.901 304.535 188.277 282.623 213.418 273.696C230.392 267.67 244.486 268.39 255.055 275.552L242.393 298.644C233.744 292.772 222.214 292.748 211.325 296.614C201.555 300.084 196.111 306.846 196.111 314C196.111 332.961 257.441 298.489 257.441 343.027C257.441 364.848 243.509 386.254 214.684 396.487C194.18 403.755 179.449 401.294 169.521 393.551Z" fill="black"/>
<path d="M308.725 363.677V266.736L273.846 279.121V256.741L369.006 222.958V245.318L334.305 257.635V354.576L308.725 363.677Z" fill="black"/>
<path d="M466.513 309.028L431.579 224.844L396.925 333.592L368.342 343.879L414.493 208.19L446.334 196.886L492.319 299.868L466.513 309.028Z" fill="black"/>
<path d="M578.247 270.512L554.835 236.441L536.238 243.044V285.437L510.836 294.455V175.142L566.626 155.331C591.49 146.503 606.696 157.385 606.696 179.566C606.696 200.671 593.457 216.641 580.582 224.254L607.416 260.161L578.247 270.512ZM580.752 188.773C580.752 178.755 573.06 175.404 562.863 179.024L536.211 188.485V220.685L562.863 211.236C573.06 207.604 580.752 198.788 580.752 188.773Z" fill="black"/>
<path d="M660.875 242.699V145.758L625.992 158.139V135.783L721.156 102V124.356L686.452 136.677V233.618L660.875 242.699Z" fill="black"/>
<path d="M536.211 314.002L536.231 334.656L169.02 459.389L169 438.782L536.211 314.002Z" fill="black"/>
<path d="M806 366.242V386.904L578.945 464.03V443.399L806 366.242Z" fill="black"/>
</mask>
<g mask="url(#mask0)">
<rect x="169" y="102" width="637.26" height="362.02" fill="white"/>
</g>
</g>
</g>
<defs>
<filter id="filter0_d" x="0" y="0" width="991" height="594" filterUnits="userSpaceOnUse" color-interpolation-filters="sRGB">
<feFlood flood-opacity="0" result="BackgroundImageFix"/>
<feColorMatrix in="SourceAlpha" type="matrix" values="0 0 0 0 0 0 0 0 0 0 0 0 0 0 0 0 0 0 127 0"/>
<feOffset dx="10" dy="10"/>
<feGaussianBlur stdDeviation="7"/>
<feColorMatrix type="matrix" values="0 0 0 0 0 0 0 0 0 0 0 0 0 0 0 0 0 0 0.25 0"/>
<feBlend mode="normal" in2="BackgroundImageFix" result="effect1_dropShadow"/>
<feBlend mode="normal" in="SourceGraphic" in2="effect1_dropShadow" result="shape"/>
</filter>
<filter id="filter1_f" x="-544" y="-111" width="2173" height="1098" filterUnits="userSpaceOnUse" color-interpolation-filters="sRGB">
<feFlood flood-opacity="0" result="BackgroundImageFix"/>
<feBlend mode="normal" in="SourceGraphic" in2="BackgroundImageFix" result="shape"/>
<feGaussianBlur stdDeviation="125" result="effect1_foregroundBlur"/>
</filter>
<filter id="filter2_f" x="-411" y="-261" width="2363" height="1340" filterUnits="userSpaceOnUse" color-interpolation-filters="sRGB">
<feFlood flood-opacity="0" result="BackgroundImageFix"/>
<feBlend mode="normal" in="SourceGraphic" in2="BackgroundImageFix" result="shape"/>
<feGaussianBlur stdDeviation="125" result="effect1_foregroundBlur"/>
</filter>
<linearGradient id="paint0_linear" x1="-293.95" y1="472.456" x2="1289.25" y2="472.456" gradientUnits="userSpaceOnUse">
<stop stop-color="#EAB802"/>
<stop offset="0.90625" stop-color="#EAB802" stop-opacity="0"/>
</linearGradient>
<linearGradient id="paint1_linear" x1="590.063" y1="80.6454" x2="590.063" y2="659.854" gradientUnits="userSpaceOnUse">
<stop stop-color="#DE45B3"/>
<stop offset="0.838542" stop-color="#DE45B3" stop-opacity="0.161458"/>
<stop offset="1" stop-color="#DE45B3" stop-opacity="0"/>
</linearGradient>
<clipPath id="clip0">
<rect x="4" y="4" width="963" height="566" fill="white"/>
</clipPath>
</defs>
</svg>
