<svg width="749" height="381" viewBox="0 0 749 381" fill="none" xmlns="http://www.w3.org/2000/svg">
<path d="M0 0.464355H748.368V380.464H0V0.464355Z" fill="#82AB4B"/>
<mask id="mask0" mask-type="alpha" maskUnits="userSpaceOnUse" x="0" y="0" width="748" height="380">
<path d="M0 0H748V380H0V0Z" fill="#82AB4B"/>
</mask>
<g mask="url(#mask0)">
<g opacity="0.2" filter="url(#filter0_f)">
<rect x="3.11152" y="-3.11152" width="16.4972" height="16.5092" transform="matrix(1 0 0 -1 357 386.313)" stroke="#FAEB6B" stroke-width="6.22305"/>
<rect x="3.11152" y="-3.11152" width="16.4972" height="16.5092" transform="matrix(1 0 0 -1 394.539 386.313)" stroke="#FAEB6B" stroke-width="6.22305"/>
<rect x="3.11152" y="-3.11152" width="16.4972" height="16.5092" transform="matrix(1 0 0 -1 432.078 386.312)" stroke="#FAEB6B" stroke-width="6.22305"/>
<rect x="3.11152" y="-3.11152" width="16.4972" height="16.5092" transform="matrix(1 0 0 -1 469.615 386.312)" stroke="#FAEB6B" stroke-width="6.22305"/>
<rect x="3.11152" y="-3.11152" width="16.4972" height="16.5092" transform="matrix(1 0 0 -1 507.154 386.312)" stroke="#FAEB6B" stroke-width="6.22305"/>
<rect x="3.11152" y="-3.11152" width="16.4972" height="16.5092" transform="matrix(1 0 0 -1 544.689 386.312)" stroke="#FAEB6B" stroke-width="6.22305"/>
<rect x="3.11152" y="-3.11152" width="16.4972" height="16.5092" transform="matrix(1 0 0 -1 582.227 386.312)" stroke="#FAEB6B" stroke-width="6.22305"/>
<rect x="3.11152" y="-3.11152" width="16.4972" height="16.5092" transform="matrix(1 0 0 -1 619.764 386.312)" stroke="#FAEB6B" stroke-width="6.22305"/>
<rect x="3.11152" y="-3.11152" width="16.4972" height="16.5092" transform="matrix(1 0 0 -1 657.303 386.312)" stroke="#FAEB6B" stroke-width="6.22305"/>
<rect x="3.11152" y="-3.11152" width="16.4972" height="16.5092" transform="matrix(1 0 0 -1 394.539 348.754)" stroke="#FAEB6B" stroke-width="6.22305"/>
<rect x="3.11152" y="-3.11152" width="16.4972" height="16.5092" transform="matrix(1 0 0 -1 432.078 348.753)" stroke="#FAEB6B" stroke-width="6.22305"/>
<rect x="3.11152" y="-3.11152" width="16.4972" height="16.5092" transform="matrix(1 0 0 -1 469.615 348.753)" stroke="#FAEB6B" stroke-width="6.22305"/>
<rect x="3.11152" y="-3.11152" width="16.4972" height="16.5092" transform="matrix(1 0 0 -1 507.154 348.753)" stroke="#FAEB6B" stroke-width="6.22305"/>
<rect x="3.11152" y="-3.11152" width="16.4972" height="16.5092" transform="matrix(1 0 0 -1 544.689 348.753)" stroke="#FAEB6B" stroke-width="6.22305"/>
<rect x="3.11152" y="-3.11152" width="16.4972" height="16.5092" transform="matrix(1 0 0 -1 582.227 348.753)" stroke="#FAEB6B" stroke-width="6.22305"/>
<rect x="3.11152" y="-3.11152" width="16.4972" height="16.5092" transform="matrix(1 0 0 -1 619.766 348.753)" stroke="#FAEB6B" stroke-width="6.22305"/>
<rect x="3.11152" y="-3.11152" width="16.4972" height="16.5092" transform="matrix(1 0 0 -1 657.303 348.753)" stroke="#FAEB6B" stroke-width="6.22305"/>
<rect x="3.11152" y="-3.11152" width="16.4972" height="16.5092" transform="matrix(1 0 0 -1 694.84 348.753)" stroke="#FAEB6B" stroke-width="6.22305"/>
<rect x="3.11152" y="-3.11152" width="16.4972" height="16.5092" transform="matrix(1 0 0 -1 432.078 311.195)" stroke="#FAEB6B" stroke-width="6.22305"/>
<rect x="3.11152" y="-3.11152" width="16.4972" height="16.5092" transform="matrix(1 0 0 -1 469.615 311.195)" stroke="#FAEB6B" stroke-width="6.22305"/>
<rect x="3.11152" y="-3.11152" width="16.4972" height="16.5092" transform="matrix(1 0 0 -1 507.154 311.195)" stroke="#FAEB6B" stroke-width="6.22305"/>
<rect x="3.11152" y="-3.11152" width="16.4972" height="16.5092" transform="matrix(1 0 0 -1 544.689 311.195)" stroke="#FAEB6B" stroke-width="6.22305"/>
<rect x="3.11152" y="-3.11152" width="16.4972" height="16.5092" transform="matrix(1 0 0 -1 582.227 311.195)" stroke="#FAEB6B" stroke-width="6.22305"/>
<rect x="3.11152" y="-3.11152" width="16.4972" height="16.5092" transform="matrix(1 0 0 -1 619.766 311.195)" stroke="#FAEB6B" stroke-width="6.22305"/>
<rect x="3.11152" y="-3.11152" width="16.4972" height="16.5092" transform="matrix(1 0 0 -1 657.303 311.195)" stroke="#FAEB6B" stroke-width="6.22305"/>
<rect x="3.11152" y="-3.11152" width="16.4972" height="16.5092" transform="matrix(1 0 0 -1 694.84 311.195)" stroke="#FAEB6B" stroke-width="6.22305"/>
<rect x="3.11152" y="-3.11152" width="16.4972" height="16.5092" transform="matrix(1 0 0 -1 732.377 311.195)" stroke="#FAEB6B" stroke-width="6.22305"/>
<rect x="3.11152" y="-3.11152" width="16.4972" height="16.5092" transform="matrix(1 0 0 -1 469.615 273.635)" stroke="#FAEB6B" stroke-width="6.22305"/>
<rect x="3.11152" y="-3.11152" width="16.4972" height="16.5092" transform="matrix(1 0 0 -1 507.154 273.635)" stroke="#FAEB6B" stroke-width="6.22305"/>
<rect x="3.11152" y="-3.11152" width="16.4972" height="16.5092" transform="matrix(1 0 0 -1 544.689 273.635)" stroke="#FAEB6B" stroke-width="6.22305"/>
<rect x="3.11152" y="-3.11152" width="16.4972" height="16.5092" transform="matrix(1 0 0 -1 582.227 273.635)" stroke="#FAEB6B" stroke-width="6.22305"/>
<rect x="3.11152" y="-3.11152" width="16.4972" height="16.5092" transform="matrix(1 0 0 -1 619.766 273.635)" stroke="#FAEB6B" stroke-width="6.22305"/>
<rect x="3.11152" y="-3.11152" width="16.4972" height="16.5092" transform="matrix(1 0 0 -1 657.303 273.635)" stroke="#FAEB6B" stroke-width="6.22305"/>
<rect x="3.11152" y="-3.11152" width="16.4972" height="16.5092" transform="matrix(1 0 0 -1 694.842 273.635)" stroke="#FAEB6B" stroke-width="6.22305"/>
<rect x="3.11152" y="-3.11152" width="16.4972" height="16.5092" transform="matrix(1 0 0 -1 732.377 273.635)" stroke="#FAEB6B" stroke-width="6.22305"/>
<rect x="3.11152" y="-3.11152" width="16.4972" height="16.5092" transform="matrix(1 0 0 -1 507.154 238.054)" stroke="#FAEB6B" stroke-width="6.22305"/>
<rect x="3.11152" y="-3.11152" width="16.4972" height="16.5092" transform="matrix(1 0 0 -1 544.689 238.054)" stroke="#FAEB6B" stroke-width="6.22305"/>
<rect x="3.11152" y="-3.11152" width="16.4972" height="16.5092" transform="matrix(1 0 0 -1 582.227 238.054)" stroke="#FAEB6B" stroke-width="6.22305"/>
<rect x="3.11152" y="-3.11152" width="16.4972" height="16.5092" transform="matrix(1 0 0 -1 619.766 238.054)" stroke="#FAEB6B" stroke-width="6.22305"/>
<rect x="3.11152" y="-3.11152" width="16.4972" height="16.5092" transform="matrix(1 0 0 -1 657.303 238.054)" stroke="#FAEB6B" stroke-width="6.22305"/>
<rect x="3.11152" y="-3.11152" width="16.4972" height="16.5092" transform="matrix(1 0 0 -1 694.842 238.054)" stroke="#FAEB6B" stroke-width="6.22305"/>
<rect x="3.11152" y="-3.11152" width="16.4972" height="16.5092" transform="matrix(1 0 0 -1 732.377 238.054)" stroke="#FAEB6B" stroke-width="6.22305"/>
<rect x="3.11152" y="-3.11152" width="16.4972" height="16.5092" transform="matrix(1 0 0 -1 694.697 386.312)" stroke="#FAEB6B" stroke-width="6.22305"/>
<rect x="3.11152" y="-3.11152" width="16.4972" height="16.5092" transform="matrix(1 0 0 -1 732.234 386.312)" stroke="#FAEB6B" stroke-width="6.22305"/>
<rect x="3.11152" y="-3.11152" width="16.4972" height="16.5092" transform="matrix(1 0 0 -1 732.234 348.753)" stroke="#FAEB6B" stroke-width="6.22305"/>
<rect x="3.11152" y="-3.11152" width="16.4972" height="16.5092" transform="matrix(1 0 0 -1 544.607 202.768)" stroke="#FAEB6B" stroke-width="6.22305"/>
<rect x="3.11152" y="-3.11152" width="16.4972" height="16.5092" transform="matrix(1 0 0 -1 582.146 202.768)" stroke="#FAEB6B" stroke-width="6.22305"/>
<rect x="3.11152" y="-3.11152" width="16.4972" height="16.5092" transform="matrix(1 0 0 -1 619.686 202.768)" stroke="#FAEB6B" stroke-width="6.22305"/>
<rect x="3.11152" y="-3.11152" width="16.4972" height="16.5092" transform="matrix(1 0 0 -1 657.225 202.768)" stroke="#FAEB6B" stroke-width="6.22305"/>
<rect x="3.11152" y="-3.11152" width="16.4972" height="16.5092" transform="matrix(1 0 0 -1 694.76 202.768)" stroke="#FAEB6B" stroke-width="6.22305"/>
<rect x="3.11152" y="-3.11152" width="16.4972" height="16.5092" transform="matrix(1 0 0 -1 732.299 202.768)" stroke="#FAEB6B" stroke-width="6.22305"/>
<rect x="3.11152" y="-3.11152" width="16.4972" height="16.5092" transform="matrix(1 0 0 -1 582.146 165.209)" stroke="#FAEB6B" stroke-width="6.22305"/>
<rect x="3.11152" y="-3.11152" width="16.4972" height="16.5092" transform="matrix(1 0 0 -1 619.686 165.209)" stroke="#FAEB6B" stroke-width="6.22305"/>
<rect x="3.11152" y="-3.11152" width="16.4972" height="16.5092" transform="matrix(1 0 0 -1 657.225 165.209)" stroke="#FAEB6B" stroke-width="6.22305"/>
<rect x="3.11152" y="-3.11152" width="16.4972" height="16.5092" transform="matrix(1 0 0 -1 694.76 165.209)" stroke="#FAEB6B" stroke-width="6.22305"/>
<rect x="3.11152" y="-3.11152" width="16.4972" height="16.5092" transform="matrix(1 0 0 -1 732.299 165.209)" stroke="#FAEB6B" stroke-width="6.22305"/>
<rect x="3.11152" y="-3.11152" width="16.4972" height="16.5092" transform="matrix(1 0 0 -1 619.686 127.651)" stroke="#FAEB6B" stroke-width="6.22305"/>
<rect x="3.11152" y="-3.11152" width="16.4972" height="16.5092" transform="matrix(1 0 0 -1 657.225 127.651)" stroke="#FAEB6B" stroke-width="6.22305"/>
<rect x="3.11152" y="-3.11152" width="16.4972" height="16.5092" transform="matrix(1 0 0 -1 694.76 127.651)" stroke="#FAEB6B" stroke-width="6.22305"/>
<rect x="3.11152" y="-3.11152" width="16.4972" height="16.5092" transform="matrix(1 0 0 -1 732.299 127.651)" stroke="#FAEB6B" stroke-width="6.22305"/>
<rect x="3.11152" y="-3.11152" width="16.4972" height="16.5092" transform="matrix(1 0 0 -1 657.225 90.0907)" stroke="#FAEB6B" stroke-width="6.22305"/>
<rect x="3.11152" y="-3.11152" width="16.4972" height="16.5092" transform="matrix(1 0 0 -1 694.76 90.0907)" stroke="#FAEB6B" stroke-width="6.22305"/>
<rect x="3.11152" y="-3.11152" width="16.4972" height="16.5092" transform="matrix(1 0 0 -1 732.299 90.0907)" stroke="#FAEB6B" stroke-width="6.22305"/>
<rect x="3.11152" y="-3.11152" width="16.4972" height="16.5092" transform="matrix(1 0 0 -1 694.76 54.5091)" stroke="#FAEB6B" stroke-width="6.22305"/>
<rect x="3.11152" y="-3.11152" width="16.4972" height="16.5092" transform="matrix(1 0 0 -1 732.299 54.5091)" stroke="#FAEB6B" stroke-width="6.22305"/>
</g>
</g>
<defs>
<filter id="filter0_f" x="350" y="31" width="1012.48" height="368.536" filterUnits="userSpaceOnUse" color-interpolation-filters="sRGB">
<feFlood flood-opacity="0" result="BackgroundImageFix"/>
<feBlend mode="normal" in="SourceGraphic" in2="BackgroundImageFix" result="shape"/>
<feGaussianBlur stdDeviation="3.5" result="effect1_foregroundBlur"/>
</filter>
</defs>
</svg>
