<svg width="51" height="32" viewBox="0 0 51 32" fill="none" xmlns="http://www.w3.org/2000/svg">
<mask id="mask0" mask-type="alpha" maskUnits="userSpaceOnUse" x="3" y="4" width="45" height="25">
<path d="M31.4746 22.45V17.5327L33.2405 16.9058V21.7613C33.2405 22.9006 33.9029 23.4512 35.1664 23.0029C36.4299 22.5545 37.0793 21.5381 37.0793 20.3988V15.5433L38.8574 14.9121V19.8172C38.8574 21.8517 37.6557 23.6653 35.1664 24.549C32.6771 25.4328 31.4746 24.4611 31.4746 22.45Z" fill="#2C4DFF"/>
<path d="M40.4609 22.5209V14.3417L44.2856 12.9836C46.0637 12.3523 47.0324 13.2101 47.0324 14.6447C47.0324 16.0672 46.0512 17.6285 44.2856 18.2565L42.2008 18.9965V21.9027L40.4609 22.5209ZM45.2557 15.2759C45.2557 14.5894 44.7403 14.3553 44.0537 14.5978L42.2021 15.255V17.4623L44.0537 16.805C44.7405 16.5625 45.2557 15.9505 45.2557 15.2759Z" fill="#2C4DFF"/>
<path d="M3.40234 24.1612L4.24758 22.5366C4.76296 22.9544 5.56507 23.1724 6.57495 22.8138C7.43131 22.51 7.84985 21.9203 7.84985 21.4543C7.84985 20.0074 3.634 22.4973 3.634 19.4199C3.634 18.0587 4.6881 16.5565 6.41166 15.9446C7.57534 15.5314 8.54156 15.5808 9.26608 16.0718L8.39806 17.6548C7.8051 17.2523 7.01466 17.2506 6.26816 17.5157C5.59843 17.7536 5.22518 18.2171 5.22518 18.7076C5.22518 20.0074 9.42965 17.6442 9.42965 20.6975C9.42965 22.1935 8.47456 23.661 6.49846 24.3624C5.09281 24.8607 4.08292 24.692 3.40234 24.1612Z" fill="#2C4DFF"/>
<path d="M12.9439 22.1131V15.4674L10.5527 16.3164V14.7822L17.0764 12.4662V13.9991L14.6975 14.8435V21.4892L12.9439 22.1131Z" fill="#2C4DFF"/>
<path d="M23.7614 18.3668L21.3665 12.5955L18.9908 20.0507L17.0312 20.756L20.1952 11.4538L22.378 10.6788L25.5305 17.7388L23.7614 18.3668Z" fill="#2C4DFF"/>
<path d="M31.4222 15.7262L29.8171 13.3904L28.5422 13.8431V16.7493L26.8008 17.3675V9.18809L30.6255 7.82991C32.3301 7.22474 33.3725 7.97069 33.3725 9.49135C33.3725 10.9382 32.4649 12.033 31.5822 12.5549L33.4219 15.0166L31.4222 15.7262ZM31.5939 10.1226C31.5939 9.43574 31.0666 9.20599 30.3675 9.45419L28.5403 10.1028V12.3102L30.3675 11.6625C31.0666 11.4135 31.5939 10.8091 31.5939 10.1226Z" fill="#2C4DFF"/>
<path d="M37.0848 13.8195V7.17377L34.6934 8.02253V6.48993L41.2173 4.17395V5.70655L38.8382 6.55124V13.197L37.0848 13.8195Z" fill="#2C4DFF"/>
<path d="M28.5394 18.7076L28.5408 20.1236L3.36659 28.6747L3.36523 27.262L28.5394 18.7076Z" fill="#2C4DFF"/>
<path d="M47.0345 22.2891V23.7056L31.4688 28.9929V27.5786L47.0345 22.2891Z" fill="#2C4DFF"/>
</mask>
<g mask="url(#mask0)">
<rect x="3.36523" y="4.17383" width="43.6874" height="24.8183" fill="#2C4DFF"/>
</g>
</svg>
