<svg width="84" height="76" viewBox="0 0 84 76" fill="none" xmlns="http://www.w3.org/2000/svg">
<path d="M52.2042 39.8432V28.4659H36.077V15.3212H22.8219V28.4659H6.30811V39.8432H22.9323V52.8775H36.0218V39.8432H52.2042Z" fill="#ECB835"/>
<path d="M52.2042 39.8432V42.4196H54.7806V39.8432H52.2042ZM52.2042 28.4659H54.7806V25.8895H52.2042V28.4659ZM36.077 28.4659H33.5006V31.0423H36.077V28.4659ZM36.077 15.3212H38.6534V12.7448H36.077V15.3212ZM22.8219 15.3212V12.7448H20.2455V15.3212H22.8219ZM22.8219 28.4659V31.0423H25.3983V28.4659H22.8219ZM6.30811 28.4659V25.8895H3.73172V28.4659H6.30811ZM6.30811 39.8432H3.73172V42.4196H6.30811V39.8432ZM22.9323 39.8432H25.5087V37.2668H22.9323V39.8432ZM22.9323 52.8775H20.3559V55.4539H22.9323V52.8775ZM36.0218 52.8775V55.4539H38.5982V52.8775H36.0218ZM36.0218 39.8432V37.2668H33.4454V39.8432H36.0218ZM54.7806 39.8432V28.4659H49.6278V39.8432H54.7806ZM52.2042 25.8895H36.077V31.0423H52.2042V25.8895ZM38.6534 28.4659V15.3212H33.5006V28.4659H38.6534ZM36.077 12.7448H22.8219V17.8976H36.077V12.7448ZM20.2455 15.3212V28.4659H25.3983V15.3212H20.2455ZM22.8219 25.8895H6.30811V31.0423H22.8219V25.8895ZM3.73172 28.4659V39.8432H8.88451V28.4659H3.73172ZM6.30811 42.4196H22.9323V37.2668H6.30811V42.4196ZM20.3559 39.8432V52.8775H25.5087V39.8432H20.3559ZM22.9323 55.4539H36.0218V50.3011H22.9323V55.4539ZM38.5982 52.8775V39.8432H33.4454V52.8775H38.5982ZM36.0218 42.4196H52.2042V37.2668H36.0218V42.4196Z" fill="black"/>
<path d="M65.0889 39.8432V28.4659H48.9618V15.3212H35.7066V28.4659H19.1929V39.8432H35.8171V52.8775H48.9066V39.8432H65.0889Z" fill="#B67B71"/>
<path d="M65.0889 39.8432V42.4196H67.6653V39.8432H65.0889ZM65.0889 28.4659H67.6653V25.8895H65.0889V28.4659ZM48.9618 28.4659H46.3854V31.0423H48.9618V28.4659ZM48.9618 15.3212H51.5382V12.7448H48.9618V15.3212ZM35.7066 15.3212V12.7448H33.1302V15.3212H35.7066ZM35.7066 28.4659V31.0423H38.283V28.4659H35.7066ZM19.1929 28.4659V25.8895H16.6165V28.4659H19.1929ZM19.1929 39.8432H16.6165V42.4196H19.1929V39.8432ZM35.8171 39.8432H38.3935V37.2668H35.8171V39.8432ZM35.8171 52.8775H33.2407V55.4539H35.8171V52.8775ZM48.9066 52.8775V55.4539H51.483V52.8775H48.9066ZM48.9066 39.8432V37.2668H46.3302V39.8432H48.9066ZM67.6653 39.8432V28.4659H62.5125V39.8432H67.6653ZM65.0889 25.8895H48.9618V31.0423H65.0889V25.8895ZM51.5382 28.4659V15.3212H46.3854V28.4659H51.5382ZM48.9618 12.7448H35.7066V17.8976H48.9618V12.7448ZM33.1302 15.3212V28.4659H38.283V15.3212H33.1302ZM35.7066 25.8895H19.1929V31.0423H35.7066V25.8895ZM16.6165 28.4659V39.8432H21.7693V28.4659H16.6165ZM19.1929 42.4196H35.8171V37.2668H19.1929V42.4196ZM33.2407 39.8432V52.8775H38.3935V39.8432H33.2407ZM35.8171 55.4539H48.9066V50.3011H35.8171V55.4539ZM51.483 52.8775V39.8432H46.3302V52.8775H51.483ZM48.9066 42.4196H65.0889V37.2668H48.9066V42.4196Z" fill="black"/>
<path d="M77.9678 39.8432V28.4659H61.8407V15.3212H48.5855V28.4659H32.0718V39.8432H48.696V52.8775H61.7855V39.8432H77.9678Z" fill="#A0629C"/>
<path d="M77.9678 39.8432V42.4196H80.5442V39.8432H77.9678ZM77.9678 28.4659H80.5442V25.8895H77.9678V28.4659ZM61.8407 28.4659H59.2643V31.0423H61.8407V28.4659ZM61.8407 15.3212H64.4171V12.7448H61.8407V15.3212ZM48.5855 15.3212V12.7448H46.0091V15.3212H48.5855ZM48.5855 28.4659V31.0423H51.1619V28.4659H48.5855ZM32.0718 28.4659V25.8895H29.4954V28.4659H32.0718ZM32.0718 39.8432H29.4954V42.4196H32.0718V39.8432ZM48.696 39.8432H51.2724V37.2668H48.696V39.8432ZM48.696 52.8775H46.1196V55.4539H48.696V52.8775ZM61.7855 52.8775V55.4539H64.3619V52.8775H61.7855ZM61.7855 39.8432V37.2668H59.2091V39.8432H61.7855ZM80.5442 39.8432V28.4659H75.3914V39.8432H80.5442ZM77.9678 25.8895H61.8407V31.0423H77.9678V25.8895ZM64.4171 28.4659V15.3212H59.2643V28.4659H64.4171ZM61.8407 12.7448H48.5855V17.8976H61.8407V12.7448ZM46.0091 15.3212V28.4659H51.1619V15.3212H46.0091ZM48.5855 25.8895H32.0718V31.0423H48.5855V25.8895ZM29.4954 28.4659V39.8432H34.6482V28.4659H29.4954ZM32.0718 42.4196H48.696V37.2668H32.0718V42.4196ZM46.1196 39.8432V52.8775H51.2724V39.8432H46.1196ZM48.696 55.4539H61.7855V50.3011H48.696V55.4539ZM64.3619 52.8775V39.8432H59.2091V52.8775H64.3619ZM61.7855 42.4196H77.9678V37.2668H61.7855V42.4196Z" fill="black"/>
</svg>
