<svg width="212" height="212" viewBox="0 0 212 212" fill="none" xmlns="http://www.w3.org/2000/svg">
<g style="mix-blend-mode:overlay">
<ellipse cx="29.6968" cy="43.7603" rx="1.71291" ry="1.71539" transform="rotate(-90 29.6968 43.7603)" fill="white"/>
<ellipse cx="36.5567" cy="43.7603" rx="1.71291" ry="1.71539" transform="rotate(-90 36.5567 43.7603)" fill="white"/>
<ellipse cx="43.418" cy="43.7603" rx="1.71291" ry="1.71539" transform="rotate(-90 43.418 43.7603)" fill="white"/>
<ellipse cx="50.2808" cy="43.7603" rx="1.71291" ry="1.71539" transform="rotate(-90 50.2808 43.7603)" fill="white"/>
<ellipse cx="57.1407" cy="43.7603" rx="1.71291" ry="1.71539" transform="rotate(-90 57.1407 43.7603)" fill="white"/>
<ellipse cx="64.0054" cy="43.7603" rx="1.71291" ry="1.71539" transform="rotate(-90 64.0054 43.7603)" fill="white"/>
<ellipse cx="70.8648" cy="43.7603" rx="1.71291" ry="1.71539" transform="rotate(-90 70.8648 43.7603)" fill="white"/>
<circle cx="29.7139" cy="50.2783" r="1.71291" fill="white"/>
<circle cx="29.7139" cy="57.1294" r="1.71291" fill="white"/>
<circle cx="29.7139" cy="63.981" r="1.71291" fill="white"/>
<circle cx="29.7139" cy="70.8326" r="1.71291" fill="white"/>
<circle cx="29.7139" cy="77.6846" r="1.71291" fill="white"/>
<circle cx="29.7139" cy="84.5362" r="1.71291" fill="white"/>
<circle cx="29.7139" cy="91.3878" r="1.71291" fill="white"/>
<circle cx="29.7139" cy="98.2398" r="1.71291" fill="white"/>
<circle cx="29.7139" cy="105.091" r="1.71291" fill="white"/>
<circle cx="29.7139" cy="111.942" r="1.71291" fill="white"/>
<circle cx="29.7139" cy="118.795" r="1.71291" fill="white"/>
<circle cx="29.7139" cy="125.646" r="1.71291" fill="white"/>
<circle cx="29.7139" cy="132.498" r="1.71291" fill="white"/>
<circle cx="29.7139" cy="139.349" r="1.71291" fill="white"/>
<circle cx="29.7139" cy="146.201" r="1.71291" fill="white"/>
<circle cx="29.7139" cy="153.052" r="1.71291" fill="white"/>
<circle cx="29.7139" cy="159.904" r="1.71291" fill="white"/>
<circle cx="29.7139" cy="166.756" r="1.71291" fill="white"/>
<circle cx="36.5645" cy="50.2783" r="1.71291" fill="white"/>
<circle cx="43.417" cy="50.2783" r="1.71291" fill="white"/>
<circle cx="43.417" cy="57.1294" r="1.71291" fill="white"/>
<circle cx="36.5645" cy="57.1294" r="1.71291" fill="white"/>
<circle cx="36.5645" cy="63.981" r="1.71291" fill="white"/>
<circle cx="43.417" cy="63.981" r="1.71291" fill="white"/>
<circle cx="43.417" cy="70.8326" r="1.71291" fill="white"/>
<circle cx="36.5645" cy="70.8326" r="1.71291" fill="white"/>
<circle cx="36.5645" cy="77.6846" r="1.71291" fill="white"/>
<circle cx="43.417" cy="77.6846" r="1.71291" fill="white"/>
<circle cx="43.417" cy="84.5362" r="1.71291" fill="white"/>
<circle cx="36.5645" cy="84.5362" r="1.71291" fill="white"/>
<circle cx="36.5645" cy="91.3878" r="1.71291" fill="white"/>
<circle cx="43.417" cy="91.3878" r="1.71291" fill="white"/>
<circle cx="43.417" cy="98.2398" r="1.71291" fill="white"/>
<circle cx="36.5645" cy="98.2398" r="1.71291" fill="white"/>
<circle cx="36.5645" cy="105.091" r="1.71291" fill="white"/>
<circle cx="43.417" cy="105.091" r="1.71291" fill="white"/>
<circle cx="43.417" cy="111.942" r="1.71291" fill="white"/>
<circle cx="36.5645" cy="111.942" r="1.71291" fill="white"/>
<circle cx="36.5645" cy="118.795" r="1.71291" fill="white"/>
<circle cx="43.417" cy="118.795" r="1.71291" fill="white"/>
<circle cx="43.417" cy="125.646" r="1.71291" fill="white"/>
<circle cx="36.5645" cy="125.646" r="1.71291" fill="white"/>
<circle cx="36.5645" cy="132.498" r="1.71291" fill="white"/>
<circle cx="43.417" cy="132.498" r="1.71291" fill="white"/>
<circle cx="43.417" cy="139.349" r="1.71291" fill="white"/>
<circle cx="36.5645" cy="139.349" r="1.71291" fill="white"/>
<circle cx="36.5645" cy="146.201" r="1.71291" fill="white"/>
<circle cx="43.417" cy="146.201" r="1.71291" fill="white"/>
<circle cx="43.417" cy="153.052" r="1.71291" fill="white"/>
<circle cx="36.5645" cy="153.052" r="1.71291" fill="white"/>
<circle cx="36.5645" cy="159.904" r="1.71291" fill="white"/>
<circle cx="43.417" cy="159.904" r="1.71291" fill="white"/>
<circle cx="43.417" cy="166.756" r="1.71291" fill="white"/>
<circle cx="36.5645" cy="166.756" r="1.71291" fill="white"/>
<circle cx="50.2696" cy="50.2783" r="1.71291" fill="white"/>
<circle cx="57.1201" cy="50.2783" r="1.71291" fill="white"/>
<circle cx="57.1201" cy="57.1294" r="1.71291" fill="white"/>
<circle cx="50.2696" cy="57.1294" r="1.71291" fill="white"/>
<circle cx="50.2696" cy="63.981" r="1.71291" fill="white"/>
<circle cx="57.1201" cy="63.981" r="1.71291" fill="white"/>
<circle cx="57.1201" cy="70.8326" r="1.71291" fill="white"/>
<circle cx="50.2696" cy="70.8326" r="1.71291" fill="white"/>
<circle cx="50.2696" cy="77.6846" r="1.71291" fill="white"/>
<circle cx="57.1201" cy="77.6846" r="1.71291" fill="white"/>
<circle cx="57.1201" cy="84.5362" r="1.71291" fill="white"/>
<circle cx="50.2696" cy="84.5362" r="1.71291" fill="white"/>
<circle cx="50.2696" cy="91.3878" r="1.71291" fill="white"/>
<circle cx="57.1201" cy="91.3878" r="1.71291" fill="white"/>
<circle cx="57.1201" cy="98.2398" r="1.71291" fill="white"/>
<circle cx="50.2696" cy="98.2398" r="1.71291" fill="white"/>
<circle cx="50.2696" cy="105.091" r="1.71291" fill="white"/>
<circle cx="57.1201" cy="105.091" r="1.71291" fill="white"/>
<circle cx="57.1201" cy="111.942" r="1.71291" fill="white"/>
<circle cx="50.2696" cy="111.942" r="1.71291" fill="white"/>
<circle cx="50.2696" cy="118.795" r="1.71291" fill="white"/>
<circle cx="57.1201" cy="118.795" r="1.71291" fill="white"/>
<circle cx="57.1201" cy="125.646" r="1.71291" fill="white"/>
<circle cx="50.2696" cy="125.646" r="1.71291" fill="white"/>
<circle cx="50.2696" cy="132.498" r="1.71291" fill="white"/>
<circle cx="57.1201" cy="132.498" r="1.71291" fill="white"/>
<circle cx="57.1201" cy="139.349" r="1.71291" fill="white"/>
<circle cx="50.2696" cy="139.349" r="1.71291" fill="white"/>
<circle cx="50.2696" cy="146.201" r="1.71291" fill="white"/>
<circle cx="57.1201" cy="146.201" r="1.71291" fill="white"/>
<circle cx="57.1201" cy="153.052" r="1.71291" fill="white"/>
<circle cx="50.2696" cy="153.052" r="1.71291" fill="white"/>
<circle cx="50.2696" cy="159.904" r="1.71291" fill="white"/>
<circle cx="57.1201" cy="159.904" r="1.71291" fill="white"/>
<circle cx="57.1201" cy="166.756" r="1.71291" fill="white"/>
<circle cx="50.2696" cy="166.756" r="1.71291" fill="white"/>
<circle cx="63.9727" cy="50.2783" r="1.71291" fill="white"/>
<circle cx="70.8252" cy="50.2783" r="1.71291" fill="white"/>
<circle cx="70.8252" cy="57.1303" r="1.71291" fill="white"/>
<circle cx="63.9727" cy="57.1303" r="1.71291" fill="white"/>
<circle cx="63.9727" cy="63.9819" r="1.71291" fill="white"/>
<circle cx="70.8252" cy="63.9819" r="1.71291" fill="white"/>
<circle cx="70.8252" cy="70.8335" r="1.71291" fill="white"/>
<circle cx="63.9727" cy="70.8335" r="1.71291" fill="white"/>
<circle cx="63.9727" cy="77.6851" r="1.71291" fill="white"/>
<circle cx="70.8252" cy="77.6851" r="1.71291" fill="white"/>
<circle cx="70.8252" cy="84.5366" r="1.71291" fill="white"/>
<circle cx="63.9727" cy="84.5366" r="1.71291" fill="white"/>
<circle cx="63.9727" cy="91.3882" r="1.71291" fill="white"/>
<circle cx="70.8252" cy="91.3882" r="1.71291" fill="white"/>
<circle cx="70.8252" cy="98.2398" r="1.71291" fill="white"/>
<circle cx="63.9727" cy="98.2398" r="1.71291" fill="white"/>
<circle cx="63.9727" cy="105.091" r="1.71291" fill="white"/>
<circle cx="70.8252" cy="105.091" r="1.71291" fill="white"/>
<circle cx="70.8252" cy="111.943" r="1.71291" fill="white"/>
<circle cx="63.9727" cy="111.943" r="1.71291" fill="white"/>
<circle cx="63.9727" cy="118.795" r="1.71291" fill="white"/>
<circle cx="70.8252" cy="118.795" r="1.71291" fill="white"/>
<circle cx="70.8252" cy="125.647" r="1.71291" fill="white"/>
<circle cx="63.9727" cy="125.647" r="1.71291" fill="white"/>
<circle cx="63.9727" cy="132.498" r="1.71291" fill="white"/>
<circle cx="70.8252" cy="132.498" r="1.71291" fill="white"/>
<circle cx="70.8252" cy="139.35" r="1.71291" fill="white"/>
<circle cx="63.9727" cy="139.35" r="1.71291" fill="white"/>
<circle cx="63.9727" cy="146.201" r="1.71291" fill="white"/>
<circle cx="70.8252" cy="146.201" r="1.71291" fill="white"/>
<circle cx="70.8252" cy="153.053" r="1.71291" fill="white"/>
<circle cx="63.9727" cy="153.053" r="1.71291" fill="white"/>
<circle cx="63.9727" cy="159.904" r="1.71291" fill="white"/>
<circle cx="70.8252" cy="159.904" r="1.71291" fill="white"/>
<circle cx="70.8252" cy="166.756" r="1.71291" fill="white"/>
<circle cx="63.9727" cy="166.756" r="1.71291" fill="white"/>
<circle cx="29.563" cy="173.882" r="1.71291" fill="white"/>
<circle cx="43.2661" cy="173.882" r="1.71291" fill="white"/>
<circle cx="36.4155" cy="173.882" r="1.71291" fill="white"/>
<circle cx="56.9693" cy="173.882" r="1.71291" fill="white"/>
<circle cx="50.1187" cy="173.882" r="1.71291" fill="white"/>
<circle cx="29.563" cy="180.73" r="1.71291" fill="white"/>
<circle cx="43.2661" cy="180.73" r="1.71291" fill="white"/>
<circle cx="36.4155" cy="180.73" r="1.71291" fill="white"/>
<circle cx="29.563" cy="187.122" r="1.71291" fill="white"/>
<circle cx="29.563" cy="193.514" r="1.71291" fill="white"/>
<circle cx="36.4155" cy="187.122" r="1.71291" fill="white"/>
<circle cx="36.415" cy="23.2144" r="1.71291" transform="rotate(-180 36.415 23.2144)" fill="white"/>
<circle cx="29.5644" cy="16.3659" r="1.71291" transform="rotate(-180 29.5644 16.3659)" fill="white"/>
<circle cx="29.5644" cy="23.2144" r="1.71291" transform="rotate(-180 29.5644 23.2144)" fill="white"/>
<circle cx="50.1187" cy="180.73" r="1.71291" fill="white"/>
<circle cx="29.563" cy="30.0634" r="1.71291" fill="white"/>
<circle cx="43.2661" cy="30.0634" r="1.71291" fill="white"/>
<circle cx="36.4155" cy="30.0634" r="1.71291" fill="white"/>
<circle cx="50.1187" cy="30.0634" r="1.71291" fill="white"/>
<circle cx="29.563" cy="36.9114" r="1.71291" fill="white"/>
<circle cx="43.2661" cy="36.9114" r="1.71291" fill="white"/>
<circle cx="36.4155" cy="36.9114" r="1.71291" fill="white"/>
<circle cx="56.9693" cy="36.9114" r="1.71291" fill="white"/>
<circle cx="50.1187" cy="36.9114" r="1.71291" fill="white"/>
<circle cx="77.6758" cy="50.2783" r="1.71291" fill="white"/>
<circle cx="84.5264" cy="50.2783" r="1.71291" fill="white"/>
<circle cx="84.5264" cy="57.1294" r="1.71291" fill="white"/>
<circle cx="77.6758" cy="57.1294" r="1.71291" fill="white"/>
<circle cx="77.6758" cy="63.981" r="1.71291" fill="white"/>
<circle cx="84.5264" cy="63.981" r="1.71291" fill="white"/>
<circle cx="84.5264" cy="70.8326" r="1.71291" fill="white"/>
<circle cx="77.6758" cy="70.8326" r="1.71291" fill="white"/>
<circle cx="77.6758" cy="77.6846" r="1.71291" fill="white"/>
<circle cx="84.5264" cy="77.6846" r="1.71291" fill="white"/>
<circle cx="84.5264" cy="84.5362" r="1.71291" fill="white"/>
<circle cx="77.6758" cy="84.5362" r="1.71291" fill="white"/>
<circle cx="77.6758" cy="91.3878" r="1.71291" fill="white"/>
<circle cx="84.5264" cy="91.3878" r="1.71291" fill="white"/>
<circle cx="84.5264" cy="98.2398" r="1.71291" fill="white"/>
<circle cx="77.6758" cy="98.2398" r="1.71291" fill="white"/>
<circle cx="77.6758" cy="105.091" r="1.71291" fill="white"/>
<circle cx="84.5264" cy="105.091" r="1.71291" fill="white"/>
<circle cx="84.5264" cy="111.942" r="1.71291" fill="white"/>
<circle cx="77.6758" cy="111.942" r="1.71291" fill="white"/>
<circle cx="77.6758" cy="118.795" r="1.71291" fill="white"/>
<circle cx="84.5264" cy="118.795" r="1.71291" fill="white"/>
<circle cx="84.5264" cy="125.646" r="1.71291" fill="white"/>
<circle cx="77.6758" cy="125.646" r="1.71291" fill="white"/>
<circle cx="77.6758" cy="132.498" r="1.71291" fill="white"/>
<circle cx="84.5264" cy="132.498" r="1.71291" fill="white"/>
<circle cx="84.5264" cy="139.349" r="1.71291" fill="white"/>
<circle cx="77.6758" cy="139.349" r="1.71291" fill="white"/>
<circle cx="77.6758" cy="146.201" r="1.71291" fill="white"/>
<circle cx="84.5264" cy="146.201" r="1.71291" fill="white"/>
<circle cx="84.5264" cy="153.052" r="1.71291" fill="white"/>
<circle cx="77.6758" cy="153.052" r="1.71291" fill="white"/>
<circle cx="77.6758" cy="159.904" r="1.71291" fill="white"/>
<circle cx="84.5264" cy="159.904" r="1.71291" fill="white"/>
<circle cx="91.3809" cy="57.1303" r="1.71291" fill="white"/>
<circle cx="91.3809" cy="63.9819" r="1.71291" fill="white"/>
<circle cx="98.2315" cy="63.9819" r="1.71291" fill="white"/>
<circle cx="98.2315" cy="70.8335" r="1.71291" fill="white"/>
<circle cx="91.3809" cy="70.8335" r="1.71291" fill="white"/>
<circle cx="91.3809" cy="77.6851" r="1.71291" fill="white"/>
<circle cx="98.2315" cy="77.6851" r="1.71291" fill="white"/>
<circle cx="98.2315" cy="84.5366" r="1.71291" fill="white"/>
<circle cx="91.3809" cy="84.5366" r="1.71291" fill="white"/>
<circle cx="91.3809" cy="91.3882" r="1.71291" fill="white"/>
<circle cx="98.2315" cy="91.3882" r="1.71291" fill="white"/>
<circle cx="98.2315" cy="98.2398" r="1.71291" fill="white"/>
<circle cx="91.3809" cy="98.2398" r="1.71291" fill="white"/>
<circle cx="91.3809" cy="105.091" r="1.71291" fill="white"/>
<circle cx="98.2315" cy="105.091" r="1.71291" fill="white"/>
<circle cx="98.2315" cy="111.943" r="1.71291" fill="white"/>
<circle cx="91.3809" cy="111.943" r="1.71291" fill="white"/>
<circle cx="91.3809" cy="118.795" r="1.71291" fill="white"/>
<circle cx="98.2315" cy="118.795" r="1.71291" fill="white"/>
<circle cx="98.2315" cy="125.647" r="1.71291" fill="white"/>
<circle cx="91.3809" cy="125.647" r="1.71291" fill="white"/>
<circle cx="91.3809" cy="132.498" r="1.71291" fill="white"/>
<circle cx="98.2315" cy="132.498" r="1.71291" fill="white"/>
<circle cx="98.2315" cy="139.35" r="1.71291" fill="white"/>
<circle cx="91.3809" cy="139.35" r="1.71291" fill="white"/>
<circle cx="91.3809" cy="146.201" r="1.71291" fill="white"/>
<circle cx="98.2315" cy="146.201" r="1.71291" fill="white"/>
<circle cx="98.2315" cy="153.053" r="1.71291" fill="white"/>
<circle cx="91.3809" cy="153.053" r="1.71291" fill="white"/>
<circle cx="105.082" cy="63.981" r="1.71291" fill="white"/>
<circle cx="111.935" cy="70.8326" r="1.71291" fill="white"/>
<circle cx="105.082" cy="70.8326" r="1.71291" fill="white"/>
<circle cx="105.082" cy="77.6846" r="1.71291" fill="white"/>
<circle cx="111.935" cy="77.6846" r="1.71291" fill="white"/>
<circle cx="111.935" cy="84.5362" r="1.71291" fill="white"/>
<circle cx="105.082" cy="84.5362" r="1.71291" fill="white"/>
<circle cx="105.082" cy="91.3878" r="1.71291" fill="white"/>
<circle cx="111.935" cy="91.3878" r="1.71291" fill="white"/>
<circle cx="111.935" cy="98.2398" r="1.71291" fill="white"/>
<circle cx="105.082" cy="98.2398" r="1.71291" fill="white"/>
<circle cx="105.082" cy="105.091" r="1.71291" fill="white"/>
<circle cx="111.935" cy="105.091" r="1.71291" fill="white"/>
<circle cx="111.935" cy="111.942" r="1.71291" fill="white"/>
<circle cx="105.082" cy="111.942" r="1.71291" fill="white"/>
<circle cx="105.082" cy="118.795" r="1.71291" fill="white"/>
<circle cx="111.935" cy="118.795" r="1.71291" fill="white"/>
<circle cx="111.935" cy="125.646" r="1.71291" fill="white"/>
<circle cx="105.082" cy="125.646" r="1.71291" fill="white"/>
<circle cx="105.082" cy="132.498" r="1.71291" fill="white"/>
<circle cx="111.935" cy="132.498" r="1.71291" fill="white"/>
<circle cx="111.935" cy="139.349" r="1.71291" fill="white"/>
<circle cx="105.082" cy="139.349" r="1.71291" fill="white"/>
<circle cx="105.082" cy="146.201" r="1.71291" fill="white"/>
<circle cx="118.784" cy="70.833" r="1.71291" fill="white"/>
<circle cx="118.784" cy="77.6846" r="1.71291" fill="white"/>
<circle cx="125.636" cy="77.6846" r="1.71291" fill="white"/>
<circle cx="125.636" cy="84.5366" r="1.71291" fill="white"/>
<circle cx="118.784" cy="84.5366" r="1.71291" fill="white"/>
<circle cx="118.784" cy="91.3882" r="1.71291" fill="white"/>
<circle cx="125.636" cy="91.3882" r="1.71291" fill="white"/>
<circle cx="125.636" cy="98.2398" r="1.71291" fill="white"/>
<circle cx="118.784" cy="98.2398" r="1.71291" fill="white"/>
<circle cx="118.784" cy="105.091" r="1.71291" fill="white"/>
<circle cx="125.636" cy="105.091" r="1.71291" fill="white"/>
<circle cx="125.636" cy="111.943" r="1.71291" fill="white"/>
<circle cx="118.784" cy="111.943" r="1.71291" fill="white"/>
<circle cx="118.784" cy="118.795" r="1.71291" fill="white"/>
<circle cx="125.636" cy="118.795" r="1.71291" fill="white"/>
<circle cx="125.636" cy="125.647" r="1.71291" fill="white"/>
<circle cx="118.784" cy="125.647" r="1.71291" fill="white"/>
<circle cx="118.784" cy="132.498" r="1.71291" fill="white"/>
<circle cx="125.636" cy="132.498" r="1.71291" fill="white"/>
<circle cx="118.784" cy="139.35" r="1.71291" fill="white"/>
<circle cx="132.488" cy="77.6846" r="1.71291" fill="white"/>
<circle cx="139.341" cy="84.5362" r="1.71291" fill="white"/>
<circle cx="132.488" cy="84.5362" r="1.71291" fill="white"/>
<circle cx="132.488" cy="91.3878" r="1.71291" fill="white"/>
<circle cx="139.341" cy="91.3878" r="1.71291" fill="white"/>
<circle cx="139.341" cy="98.2398" r="1.71291" fill="white"/>
<circle cx="132.488" cy="98.2398" r="1.71291" fill="white"/>
<circle cx="132.488" cy="105.091" r="1.71291" fill="white"/>
<circle cx="139.341" cy="105.091" r="1.71291" fill="white"/>
<circle cx="139.341" cy="111.942" r="1.71291" fill="white"/>
<circle cx="132.488" cy="111.942" r="1.71291" fill="white"/>
<circle cx="132.488" cy="118.795" r="1.71291" fill="white"/>
<circle cx="139.341" cy="118.795" r="1.71291" fill="white"/>
<circle cx="139.341" cy="125.646" r="1.71291" fill="white"/>
<circle cx="132.488" cy="125.646" r="1.71291" fill="white"/>
<circle cx="132.488" cy="132.498" r="1.71291" fill="white"/>
<circle cx="146.192" cy="84.5366" r="1.71291" fill="white"/>
<circle cx="146.192" cy="91.3882" r="1.71291" fill="white"/>
<circle cx="153.042" cy="91.3882" r="1.71291" fill="white"/>
<circle cx="153.042" cy="98.2398" r="1.71291" fill="white"/>
<circle cx="146.192" cy="98.2398" r="1.71291" fill="white"/>
<circle cx="146.192" cy="105.091" r="1.71291" fill="white"/>
<circle cx="153.042" cy="105.091" r="1.71291" fill="white"/>
<circle cx="153.042" cy="111.943" r="1.71291" fill="white"/>
<circle cx="146.192" cy="111.943" r="1.71291" fill="white"/>
<circle cx="146.192" cy="118.795" r="1.71291" fill="white"/>
<circle cx="153.042" cy="118.795" r="1.71291" fill="white"/>
<circle cx="146.192" cy="125.647" r="1.71291" fill="white"/>
<circle cx="159.896" cy="91.3878" r="1.71291" fill="white"/>
<circle cx="166.747" cy="98.2398" r="1.71291" fill="white"/>
<circle cx="159.896" cy="98.2398" r="1.71291" fill="white"/>
<circle cx="159.896" cy="105.091" r="1.71291" fill="white"/>
<circle cx="166.747" cy="105.091" r="1.71291" fill="white"/>
<circle cx="166.747" cy="111.942" r="1.71291" fill="white"/>
<circle cx="159.896" cy="111.942" r="1.71291" fill="white"/>
<circle cx="173.598" cy="98.2398" r="1.71291" fill="white"/>
<circle cx="173.598" cy="105.091" r="1.71291" fill="white"/>
<circle cx="180.45" cy="105.091" r="1.71291" fill="white"/>
</g>
<path d="M53.9891 16.6374L209.108 106.195L53.9891 195.753L53.9891 16.6374Z" stroke="white" stroke-width="2.28283"/>
</svg>
