<svg width="182" height="293" viewBox="0 0 182 293" fill="none" xmlns="http://www.w3.org/2000/svg">
<path fill-rule="evenodd" clip-rule="evenodd" d="M64.7975 205.113V132.863L69.9926 132.621C91.8952 131.602 108.439 126.911 120.128 119.048C131.231 111.328 136.976 99.8026 136.976 83.5274V78.0345C136.976 64.5357 132.93 55.3018 125.623 49.2834L125.592 49.258L125.562 49.2321C118.208 42.9911 107.709 39.5404 93.3898 39.5404C78.7353 39.5404 67.6056 43.5445 59.4131 51.0557C50.8171 58.9369 44.785 69.0026 41.3718 81.4388L39.7945 87.1858L0 72.3262L1.48339 67.4301C4.23094 58.3613 8.08053 49.8289 13.0306 41.8454C18.0576 33.4745 24.3501 26.2041 31.8919 20.0577L31.9294 20.0272L31.9674 19.9973C39.8045 13.8384 48.8425 8.98712 59.0252 5.40869L59.0464 5.40124L59.0676 5.39396C69.6714 1.76563 81.5277 0 94.5667 0C107.613 0 119.485 1.89825 130.106 5.79951C140.9 9.40936 150.187 14.7273 157.853 21.8154C165.525 28.6473 171.462 37.021 175.675 46.8538C179.924 56.7694 182 67.7137 182 79.6039C182 92.5583 179.656 104.232 174.81 114.496L174.797 114.523L174.784 114.55C170.06 124.279 163.91 132.684 156.325 139.709C148.82 146.659 140.223 152.338 130.567 156.753L130.534 156.768L130.501 156.782C122.681 160.233 114.74 162.822 106.684 164.537V205.113H64.7975ZM101.235 160.036C110.388 158.467 119.411 155.72 128.302 151.797C137.455 147.612 145.562 142.25 152.623 135.71C159.684 129.171 165.437 121.324 169.883 112.169C174.329 102.753 176.552 91.8976 176.552 79.6039C176.552 68.3565 174.59 58.1553 170.668 49.0004C166.745 39.8456 161.253 32.1293 154.192 25.8517C147.131 19.3125 138.501 14.3427 128.302 10.9423C118.365 7.28032 107.119 5.44934 94.5667 5.44934C82.0139 5.44934 70.7688 7.14953 60.8312 10.5499C51.1551 13.9503 42.6559 18.5277 35.3334 24.2822C28.2725 30.0367 22.3884 36.8375 17.6811 44.6846C12.9739 52.2701 9.31264 60.3787 6.69748 69.0104L36.118 79.9963C36.6063 78.2169 37.1458 76.4795 37.7365 74.784C41.5744 63.7675 47.5728 54.5191 55.7316 47.0387C65.1462 38.4069 77.6989 34.0911 93.3898 34.0911C108.558 34.0911 120.457 37.753 129.087 45.0769C137.978 52.4008 142.424 63.3867 142.424 78.0345V83.5274C142.424 101.314 136.017 114.654 123.203 123.547C110.388 132.179 92.7361 137.018 70.2457 138.064V199.664H101.235V160.036ZM60.4508 284.676L60.3942 284.615C55.1476 279.04 52.637 272.027 52.637 264.01V256.947C52.637 248.929 55.1476 241.917 60.3942 236.341L60.4508 236.281L60.5091 236.223C66.496 230.235 75.9004 227.957 87.1135 227.957C98.2414 227.957 107.612 230.2 113.382 236.28C118.9 241.828 121.59 248.859 121.59 256.947V264.01C121.59 272.098 118.9 279.129 113.383 284.677C107.613 290.757 98.2418 293 87.1135 293C75.9004 293 66.496 290.722 60.5091 284.734L60.4508 284.676ZM109.473 280.881C113.919 276.434 116.142 270.81 116.142 264.01V256.947C116.142 250.146 113.919 244.523 109.473 240.076C105.289 235.629 97.8356 233.406 87.1135 233.406C76.3913 233.406 68.8074 235.629 64.3616 240.076C60.1774 244.523 58.0853 250.146 58.0853 256.947V264.01C58.0853 270.81 60.1774 276.434 64.3616 280.881C68.8074 285.327 76.3913 287.551 87.1135 287.551C97.8356 287.551 105.289 285.327 109.473 280.881Z" fill="black"/>
</svg>
