<svg width="218" height="150" viewBox="0 0 218 150" fill="none" xmlns="http://www.w3.org/2000/svg">
<mask id="mask0" mask-type="alpha" maskUnits="userSpaceOnUse" x="62" y="0" width="94" height="82">
<path d="M62.7885 0.81485H155.752V81.8788H62.7885V0.81485Z" fill="white"/>
</mask>
<g mask="url(#mask0)">
<path fill-rule="evenodd" clip-rule="evenodd" d="M155.439 80.6255L155.455 80.6016L115.23 44.7348L114.37 43.8552C114.769 43.0172 114.998 42.0853 114.998 41.0992C114.998 37.5109 112.05 34.6024 108.413 34.6024C107.499 34.6024 106.628 34.7864 105.838 35.1184L103.394 33.1236C103.518 32.3902 104.363 28.5505 108.803 25.458C113.118 22.4532 118.749 22.7644 120.96 23.8866L123.558 18.3601C123.558 18.3601 115.479 15.0629 107.505 19.0961C100.865 22.4544 98.3815 28.1686 98.1164 28.817L93.1594 24.7719C93.1856 24.7183 97.0861 16.6028 106.225 12.8154C112.67 10.1445 118.695 10.1357 126.228 12.6276L129.171 7.46789C127.247 6.51269 117.322 2.80906 105.661 6.25435C94.1336 9.65995 88.3985 19.1975 87.7412 20.3499L64.3204 1.03664L64.3121 1.04546C64.146 0.907472 63.9384 0.81485 63.7046 0.81485C63.177 0.81485 62.7496 1.23638 62.7496 1.75619C62.7496 2.02272 62.864 2.26089 63.0441 2.43227L102.357 38.5417C102.016 39.3261 101.826 40.1912 101.826 41.0992C101.826 44.6869 104.775 47.5953 108.413 47.5953C109.314 47.5953 110.174 47.4158 110.957 47.0919V47.0925L117.879 52.6089C117.693 53.5723 116.731 57.2028 112.492 60.1548C108.177 63.1603 102.547 62.8478 100.336 61.7262L97.7383 67.2527C97.7383 67.2527 105.816 70.5499 113.791 66.5167C120.347 63.2012 122.851 57.5891 123.168 56.8229L128.103 60.7565C127.747 61.4704 123.799 69.0371 115.066 72.6556C108.621 75.3259 102.596 75.3354 95.0636 72.844L92.1201 78.0031C94.0435 78.9583 103.97 82.662 115.63 79.2167C127.228 75.7897 132.961 66.1595 133.56 65.1047L154.551 81.6702C154.558 81.6772 154.565 81.6816 154.573 81.6879L154.672 81.7673L154.678 81.7584C154.788 81.8278 154.91 81.8788 155.05 81.8788C155.438 81.8788 155.752 81.5681 155.752 81.1863C155.752 80.9494 155.623 80.7509 155.439 80.6255Z" fill="#005F86"/>
</g>
<path fill-rule="evenodd" clip-rule="evenodd" d="M7.6912 134.902V135.985H3.49977V140.022H6.59335V141.104H3.49977V145.665H7.89073V146.748H2.20239V134.902H7.6912Z" fill="#414141"/>
<path fill-rule="evenodd" clip-rule="evenodd" d="M13.8583 140.138C13.7298 138.728 13.1619 138.259 12.3565 138.259C11.2397 138.259 10.7637 138.945 10.7637 142.052C10.7637 145.159 11.2397 145.844 12.3565 145.844C13.1994 145.844 13.6748 145.412 13.8948 143.786H15.1766C14.9566 145.628 14.0778 146.928 12.3565 146.928C10.3608 146.928 9.44543 145.448 9.44543 142.052C9.44543 138.656 10.3608 137.175 12.3565 137.175C14.0778 137.175 14.8836 138.295 15.1401 140.138H13.8583Z" fill="#414141"/>
<path fill-rule="evenodd" clip-rule="evenodd" d="M19.8275 145.844C20.9443 145.844 21.4202 145.159 21.4202 142.052C21.4202 138.945 20.9443 138.259 19.8275 138.259C18.7106 138.259 18.2342 138.945 18.2342 142.052C18.2342 145.159 18.7106 145.844 19.8275 145.844ZM19.8275 137.175C21.8232 137.175 22.739 138.656 22.739 142.052C22.739 145.448 21.8232 146.928 19.8275 146.928C17.8313 146.928 16.9159 145.448 16.9159 142.052C16.9159 138.656 17.8313 137.175 19.8275 137.175Z" fill="#414141"/>
<path fill-rule="evenodd" clip-rule="evenodd" d="M25.0638 137.356H26.3091V138.385C26.9315 137.753 27.8474 137.175 28.4698 137.175C29.7881 137.175 30.5579 137.898 30.5579 139.632V146.748H29.2391V139.812C29.2391 138.728 28.9097 138.259 28.1953 138.259C27.5544 138.259 26.969 138.692 26.3821 139.414V146.748H25.0638V137.356Z" fill="#414141"/>
<path fill-rule="evenodd" clip-rule="evenodd" d="M35.7753 145.844C36.8922 145.844 37.3686 145.159 37.3686 142.052C37.3686 138.945 36.8922 138.259 35.7753 138.259C34.6585 138.259 34.1826 138.945 34.1826 142.052C34.1826 145.159 34.6585 145.844 35.7753 145.844ZM35.7753 137.175C37.7715 137.175 38.6874 138.656 38.6874 142.052C38.6874 145.448 37.7715 146.928 35.7753 146.928C33.7796 146.928 32.8643 145.448 32.8643 142.052C32.8643 138.656 33.7796 137.175 35.7753 137.175Z" fill="#414141"/>
<path fill-rule="evenodd" clip-rule="evenodd" d="M41.1584 146.748V137.356H42.3672V138.385C42.8797 137.789 43.667 137.175 44.5829 137.175C45.3338 137.175 46.0477 137.663 46.2857 138.367C46.8171 137.789 47.5675 137.175 48.5018 137.175C49.7466 137.175 50.4241 138.006 50.4241 139.342V146.748H49.1057V139.523C49.1057 138.548 48.8128 138.259 48.1169 138.259C47.311 138.259 46.8536 138.819 46.4506 139.234V146.748H45.1323V139.523C45.1323 138.548 44.7844 138.259 44.0885 138.259C43.2826 138.259 42.8252 138.819 42.4772 139.234V146.748H41.1584Z" fill="#414141"/>
<path fill-rule="evenodd" clip-rule="evenodd" d="M53.6277 146.748H54.946V137.356H53.6277V146.748ZM53.6277 135.224H54.946V133.707H53.6277V135.224Z" fill="#414141"/>
<path fill-rule="evenodd" clip-rule="evenodd" d="M61.7208 140.138C61.5924 138.728 61.0245 138.259 60.2191 138.259C59.1022 138.259 58.6258 138.945 58.6258 142.052C58.6258 145.159 59.1022 145.844 60.2191 145.844C61.061 145.844 61.5374 145.412 61.7573 143.786H63.0391C62.8192 145.628 61.9403 146.928 60.2191 146.928C58.2229 146.928 57.3075 145.448 57.3075 142.052C57.3075 138.656 58.2229 137.175 60.2191 137.175C61.9403 137.175 62.7457 138.295 63.0022 140.138H61.7208Z" fill="#414141"/>
<path fill-rule="evenodd" clip-rule="evenodd" d="M70.9451 145.665H71.6434C73.5394 145.665 74.6373 144.878 74.6373 140.825C74.6373 136.773 73.5394 135.985 71.6434 135.985H70.9451V145.665ZM69.6477 134.902H71.8765C74.4051 134.902 75.9346 136.28 75.9346 140.825C75.9346 145.37 74.4051 146.748 71.8765 146.748H69.6477V134.902Z" fill="#414141"/>
<path fill-rule="evenodd" clip-rule="evenodd" d="M82.3264 141.184C82.2899 139.162 81.9244 138.259 80.7336 138.259C79.7807 138.259 79.1583 138.945 79.1403 141.184H82.3264ZM79.1403 142.268V142.792C79.1403 145.086 79.6717 145.844 80.9166 145.844C81.9244 145.844 82.3453 144.923 82.5103 144.074L83.7551 144.22C83.5537 145.628 82.4738 146.928 80.7336 146.928C78.7374 146.928 77.8225 145.448 77.8225 142.052C77.8225 138.656 78.7374 137.175 80.7336 137.175C82.7478 137.175 83.6456 138.945 83.6456 141.655V142.268H79.1403Z" fill="#414141"/>
<path fill-rule="evenodd" clip-rule="evenodd" d="M86.3002 137.356L88.2039 145.448H88.2404L90.1082 137.356H91.4274L89.0838 146.748H87.3255L84.9819 137.356H86.3002Z" fill="#414141"/>
<path fill-rule="evenodd" clip-rule="evenodd" d="M97.2674 141.184C97.2309 139.162 96.8654 138.259 95.6746 138.259C94.7227 138.259 94.0998 138.945 94.0818 141.184H97.2674ZM94.0818 142.268V142.792C94.0818 145.086 94.6127 145.844 95.8581 145.844C96.8654 145.844 97.2859 144.923 97.4513 144.074L98.6966 144.22C98.4947 145.628 97.4148 146.928 95.6746 146.928C93.6784 146.928 92.7635 145.448 92.7635 142.052C92.7635 138.656 93.6784 137.175 95.6746 137.175C97.6888 137.175 98.5867 138.945 98.5867 141.655V142.268H94.0818Z" fill="#414141"/>
<path fill-rule="evenodd" clip-rule="evenodd" d="M100.966 146.748H102.284V133.707H100.966V146.748Z" fill="#414141"/>
<path fill-rule="evenodd" clip-rule="evenodd" d="M107.558 145.844C108.674 145.844 109.15 145.159 109.15 142.052C109.15 138.945 108.674 138.259 107.558 138.259C106.441 138.259 105.964 138.945 105.964 142.052C105.964 145.159 106.441 145.844 107.558 145.844ZM107.558 137.175C109.553 137.175 110.47 138.656 110.47 142.052C110.47 145.448 109.553 146.928 107.558 146.928C105.561 146.928 104.646 145.448 104.646 142.052C104.646 138.656 105.561 137.175 107.558 137.175Z" fill="#414141"/>
<path fill-rule="evenodd" clip-rule="evenodd" d="M114.223 145.014C114.607 145.393 115.064 145.844 115.65 145.844C116.768 145.844 117.409 144.942 117.409 142.052C117.409 139.162 116.713 138.259 115.614 138.259C115.211 138.259 114.625 138.62 114.223 139.162V145.014ZM114.003 138.259H114.039C114.478 137.59 115.138 137.175 115.981 137.175C117.482 137.175 118.727 138.44 118.727 142.052C118.727 145.664 117.482 146.928 115.981 146.928C115.266 146.928 114.661 146.495 114.223 146.062V149.818H112.904V137.356H114.003V138.259Z" fill="#414141"/>
<path fill-rule="evenodd" clip-rule="evenodd" d="M121.418 146.748V137.356H122.627V138.385C123.139 137.789 123.927 137.175 124.842 137.175C125.593 137.175 126.307 137.663 126.545 138.367C127.076 137.789 127.827 137.175 128.761 137.175C130.006 137.175 130.684 138.006 130.684 139.342V146.748H129.365V139.523C129.365 138.548 129.072 138.259 128.376 138.259C127.571 138.259 127.113 138.819 126.71 139.234V146.748H125.391V139.523C125.391 138.548 125.044 138.259 124.348 138.259C123.542 138.259 123.084 138.819 122.737 139.234V146.748H121.418Z" fill="#414141"/>
<path fill-rule="evenodd" clip-rule="evenodd" d="M137.659 141.184C137.623 139.162 137.257 138.259 136.067 138.259C135.114 138.259 134.491 138.945 134.473 141.184H137.659ZM134.473 142.268V142.792C134.473 145.086 135.004 145.844 136.25 145.844C137.257 145.844 137.678 144.923 137.843 144.074L139.088 144.22C138.886 145.628 137.807 146.928 136.067 146.928C134.07 146.928 133.155 145.448 133.155 142.052C133.155 138.656 134.07 137.175 136.067 137.175C138.08 137.175 138.978 138.945 138.978 141.655V142.268H134.473Z" fill="#414141"/>
<path fill-rule="evenodd" clip-rule="evenodd" d="M141.302 137.356H142.548V138.385C143.17 137.753 144.086 137.175 144.708 137.175C146.027 137.175 146.797 137.898 146.797 139.632V146.748H145.477V139.812C145.477 138.728 145.149 138.259 144.434 138.259C143.794 138.259 143.207 138.692 142.622 139.414V146.748H141.302V137.356Z" fill="#414141"/>
<path fill-rule="evenodd" clip-rule="evenodd" d="M148.608 137.356H149.89V134.213H151.209V137.356H152.967V138.44H151.209V145.014C151.209 145.556 151.501 145.953 152.16 145.953C152.417 145.953 152.746 145.844 152.967 145.772V146.748C152.6 146.856 152.27 146.928 151.721 146.928C150.476 146.928 149.89 146.35 149.89 144.906V138.44H148.608V137.356Z" fill="#414141"/>
<path fill-rule="evenodd" clip-rule="evenodd" d="M160.658 142.154H163.353L162.022 135.788H161.989L160.658 142.154ZM162.903 134.902L165.548 146.748H164.251L163.536 143.237H160.475L159.76 146.748H158.462L161.107 134.902H162.903Z" fill="#414141"/>
<path fill-rule="evenodd" clip-rule="evenodd" d="M172.825 146.748H171.579V145.718C170.957 146.35 170.041 146.928 169.419 146.928C168.1 146.928 167.332 146.206 167.332 144.472V137.356H168.65V144.292C168.65 145.376 168.979 145.844 169.694 145.844C170.335 145.844 170.921 145.412 171.506 144.688V137.356H172.825V146.748Z" fill="#414141"/>
<path fill-rule="evenodd" clip-rule="evenodd" d="M174.636 137.356H175.918V134.213H177.236V137.356H178.994V138.44H177.236V145.014C177.236 145.556 177.529 145.953 178.189 145.953C178.445 145.953 178.775 145.844 178.994 145.772V146.748C178.628 146.856 178.299 146.928 177.749 146.928C176.504 146.928 175.918 146.35 175.918 144.906V138.44H174.636V137.356Z" fill="#414141"/>
<path fill-rule="evenodd" clip-rule="evenodd" d="M181.246 133.707H182.565V138.385C183.114 137.753 184.03 137.175 184.652 137.175C185.97 137.175 186.74 137.898 186.74 139.632V146.748H185.421V139.812C185.421 138.728 185.092 138.259 184.378 138.259C183.738 138.259 183.151 138.692 182.565 139.414V146.748H181.246V133.707Z" fill="#414141"/>
<path fill-rule="evenodd" clip-rule="evenodd" d="M191.958 145.844C193.075 145.844 193.552 145.159 193.552 142.052C193.552 138.945 193.075 138.259 191.958 138.259C190.841 138.259 190.366 138.945 190.366 142.052C190.366 145.159 190.841 145.844 191.958 145.844ZM191.958 137.175C193.955 137.175 194.87 138.656 194.87 142.052C194.87 145.448 193.955 146.928 191.958 146.928C189.963 146.928 189.047 145.448 189.047 142.052C189.047 138.656 189.963 137.175 191.958 137.175Z" fill="#414141"/>
<path fill-rule="evenodd" clip-rule="evenodd" d="M197.085 137.356H198.403V138.494H198.44C199.227 137.356 199.813 137.175 200.857 137.175V138.403C199.868 138.403 199.117 138.728 198.403 140.065V146.748H197.085V137.356Z" fill="#414141"/>
<path fill-rule="evenodd" clip-rule="evenodd" d="M202.688 146.748H204.006V137.356H202.688V146.748ZM202.688 135.224H204.006V133.707H202.688V135.224Z" fill="#414141"/>
<path fill-rule="evenodd" clip-rule="evenodd" d="M205.873 137.356H207.155V134.213H208.473V137.356H210.231V138.44H208.473V145.014C208.473 145.556 208.766 145.953 209.426 145.953C209.682 145.953 210.012 145.844 210.231 145.772V146.748C209.865 146.856 209.535 146.928 208.986 146.928C207.741 146.928 207.155 146.35 207.155 144.906V138.44H205.873V137.356Z" fill="#414141"/>
<path fill-rule="evenodd" clip-rule="evenodd" d="M212.556 137.356L214.351 144.544H214.388L215.852 137.356H217.208L215.028 146.549C214.534 148.608 213.619 149.818 212.025 149.818H211.348V148.735H211.751C212.794 148.735 213.472 147.994 213.728 146.676L211.202 137.356H212.556Z" fill="#414141"/>
<path fill-rule="evenodd" clip-rule="evenodd" d="M14.9387 105.93C11.4505 104.63 7.11065 103.013 7.11065 98.7096C7.11065 95.7729 9.1998 92.6126 13.7869 92.6126C18.1194 92.6126 21.4237 95.5982 22.8758 100.813L24.4759 100.687C24.346 99.8208 24.2292 99.0053 24.1182 98.2344C23.762 95.7599 23.4788 93.7919 23.0671 92.0692C22.8778 92.0154 22.669 91.953 22.4403 91.8854C20.7901 91.3943 18.2956 90.6522 15.1061 90.6522C7.31017 90.6522 2.07247 94.9363 2.07247 101.312C2.07247 107.416 8.3399 109.887 12.487 111.522L12.6403 111.582C15.9183 112.848 20.8753 114.761 20.8753 119.696C20.8753 123.795 17.8659 126.443 13.2097 126.443C7.52819 126.443 3.36158 120.714 2.14303 116.534L0.468018 116.661L0.772658 118.292C1.32061 121.233 1.93962 124.555 2.28124 125.642C3.17568 126.199 7.05955 128.404 12.5498 128.404C20.6611 128.404 26.3261 123.786 26.3261 117.174C26.2473 110.637 20.6577 108.035 14.9387 105.93Z" fill="#414141"/>
<path fill-rule="evenodd" clip-rule="evenodd" d="M35.0998 115.993H42.0339L38.5671 107.031H38.4474L35.0998 115.993ZM42.632 126.312L43.7673 126.194C45.4409 126.017 45.9786 125.545 44.7834 122.774L42.7512 117.998H34.4424C34.0238 118.941 33.0077 121.713 32.4101 123.482C31.6928 125.486 32.2311 126.076 33.964 126.194L35.3387 126.312V127.668H24.8784V126.312C27.5082 126.017 28.5243 125.781 30.2582 121.713L39.1049 101.017L40.5993 100.664L49.5063 122.42C50.9404 125.899 52.0762 126.135 54.706 126.312V127.668H42.632V126.312Z" fill="#414141"/>
<path fill-rule="evenodd" clip-rule="evenodd" d="M60.2345 128.081C57.1264 120.77 52.8225 110.746 50.9096 106.265C49.6545 103.317 48.9372 103.022 46.068 102.728V101.371H58.2622V102.728L56.5882 102.963C54.9745 103.14 54.7954 103.552 55.4523 105.204C56.2894 107.385 59.7567 115.404 62.5057 121.595C64.5983 116.937 67.886 108.211 68.8423 105.557C69.4997 103.671 69.2009 103.14 67.1682 102.904L65.8533 102.728V101.371H76.6134V102.728C73.4449 103.081 72.8473 103.611 70.9348 107.503C69.38 110.628 65.3754 119.767 61.9086 128.081H60.2345Z" fill="#414141"/>
<path fill-rule="evenodd" clip-rule="evenodd" d="M77.2315 115.993H84.1652L80.6988 107.031H80.5791L77.2315 115.993ZM84.7632 126.312L85.8991 126.194C87.5726 126.017 88.1108 125.545 86.9152 122.774L84.8825 117.998H76.5741C76.1551 118.941 75.1395 121.713 74.5414 123.482C73.8241 125.486 74.3628 126.076 76.0952 126.194L77.4705 126.312V127.668H67.0101V126.312C69.6399 126.017 70.656 125.781 72.3899 121.713L81.2371 101.017L82.731 100.664L91.637 122.42C93.0721 125.899 94.2075 126.135 96.8373 126.312V127.668H84.7632V126.312Z" fill="#414141"/>
<path fill-rule="evenodd" clip-rule="evenodd" d="M123.078 127.962H121.165L102.935 107.916H102.875V116.524C102.875 120.77 103.054 122.833 103.233 124.071C103.413 125.486 104.727 126.135 107.716 126.312V127.668H96.359V126.312C98.8695 126.194 100.125 125.486 100.364 124.071C100.543 122.833 100.723 120.77 100.723 116.524V108.624C100.723 103.907 99.7659 103.022 95.7015 102.728V101.371H103.054L120.807 120.651H120.926V112.514C120.926 108.27 120.748 106.206 120.568 104.909C120.329 103.494 119.014 102.904 116.026 102.728V101.371H127.443V102.728C124.932 102.845 123.676 103.494 123.437 104.909C123.258 106.206 123.078 108.27 123.078 112.514V127.962Z" fill="#414141"/>
<path fill-rule="evenodd" clip-rule="evenodd" d="M154.759 127.962H152.846L134.615 107.916H134.554V116.524C134.554 120.77 134.734 122.833 134.913 124.071C135.093 125.486 136.407 126.135 139.396 126.312V127.668H128.039V126.312C130.55 126.194 131.805 125.486 132.044 124.071C132.223 122.833 132.403 120.77 132.403 116.524V108.624C132.403 103.907 131.446 103.022 127.382 102.728V101.371H134.734L152.487 120.651H152.607V112.514C152.607 108.27 152.428 106.206 152.248 104.909C152.009 103.494 150.694 102.904 147.706 102.728V101.371H159.122V102.728C156.611 102.845 155.356 103.494 155.117 104.909C154.938 106.206 154.759 108.27 154.759 112.514V127.962Z" fill="#414141"/>
<mask id="mask1" mask-type="alpha" maskUnits="userSpaceOnUse" x="156" y="100" width="62" height="28">
<path d="M156.492 100.664H218V127.668H156.492V100.664Z" fill="#414141"/>
</mask>
<g mask="url(#mask1)">
<path fill-rule="evenodd" clip-rule="evenodd" d="M166.713 115.993H173.648L170.18 107.031H170.061L166.713 115.993ZM174.246 126.312L175.382 126.194C177.054 126.017 177.592 125.545 176.398 122.774L174.365 117.998H166.057C165.637 118.941 164.621 121.713 164.024 123.482C163.307 125.486 163.844 126.076 165.578 126.194L166.952 126.312V127.668H156.492V126.312C159.122 126.017 160.138 125.781 161.871 121.713L170.719 101.017L172.213 100.664L181.12 122.42C182.554 125.899 183.689 126.135 186.319 126.312V127.668H174.246V126.312Z" fill="#414141"/>
<path fill-rule="evenodd" clip-rule="evenodd" d="M209.153 112.692V107.621C209.153 103.258 208.795 103.022 204.789 102.728V101.371H218V102.728C214.174 103.022 213.816 103.258 213.816 107.621V121.418C213.816 125.722 214.174 126.017 218 126.312V127.668H204.789V126.312C208.795 126.017 209.153 125.722 209.153 121.418V114.814H194.987V121.418C194.987 125.722 195.345 126.017 198.991 126.312V127.668H186.08V126.312C189.966 126.017 190.324 125.722 190.324 121.418V107.621C190.324 103.258 189.966 103.022 185.96 102.728V101.371H199.17V102.728C195.345 103.022 194.987 103.258 194.987 107.621V112.692H209.153Z" fill="#414141"/>
</g>
</svg>
