<svg width="43" height="43" viewBox="0 0 43 43" fill="none" xmlns="http://www.w3.org/2000/svg">
<path d="M22.2358 2.31274C11.5193 2.31274 2.83203 11 2.83203 21.7165C2.83203 32.433 11.5193 41.1168 22.2358 41.1168C32.9505 41.1168 41.6378 32.433 41.6378 21.7165C41.6361 11 32.9488 2.31274 22.2358 2.31274ZM22.2358 38.0836C13.2109 38.0836 5.8674 30.74 5.8674 21.7169C5.8674 12.6904 13.2109 5.35026 22.2358 5.35026C31.2559 5.35026 38.6011 12.6904 38.6011 21.7169C38.5995 30.7383 31.2559 38.0836 22.2358 38.0836Z" fill="black"/>
<path d="M28.797 28.2775C25.1789 31.8939 19.2901 31.8939 15.6734 28.2775C15.0804 27.6829 14.1197 27.6829 13.5267 28.2775C12.9338 28.8721 12.9338 29.8329 13.5267 30.4241C15.9253 32.8278 19.0815 34.0254 22.2359 34.0254C25.387 34.0254 28.5466 32.8278 30.94 30.4241C31.5346 29.8329 31.5346 28.8721 30.94 28.2775C30.3488 27.6829 29.388 27.6829 28.7967 28.2775H28.797Z" fill="black"/>
<path d="M16.785 19.7162C17.9725 19.7162 18.9383 18.7554 18.9383 17.5645C18.9383 16.3753 17.9725 15.4128 16.785 15.4128C15.5941 15.4128 14.6333 16.3736 14.6333 17.5645C14.635 18.7537 15.5958 19.7162 16.785 19.7162Z" fill="black"/>
<path d="M27.6814 19.7162C28.8706 19.7162 29.8331 18.7554 29.8331 17.5645C29.8331 16.3753 28.8723 15.4128 27.6814 15.4128C26.4956 15.4128 25.5281 16.3736 25.5281 17.5645C25.5281 18.7537 26.4956 19.7162 27.6814 19.7162Z" fill="black"/>
</svg>
