<svg width="43" height="43" viewBox="0 0 43 43" fill="none" xmlns="http://www.w3.org/2000/svg">
<path d="M22.2358 2.31299C11.5193 2.31299 2.83203 11.0003 2.83203 21.7167C2.83203 32.4332 11.5193 41.1171 22.2358 41.1171C32.9505 41.1171 41.6378 32.4332 41.6378 21.7167C41.6361 11.0003 32.9488 2.31299 22.2358 2.31299ZM22.2358 38.0838C13.2109 38.0838 5.8674 30.7403 5.8674 21.7172C5.8674 12.6906 13.2109 5.35051 22.2358 5.35051C31.2559 5.35051 38.6011 12.6906 38.6011 21.7172C38.5995 30.7386 31.2559 38.0838 22.2358 38.0838Z" fill="black"/>
<path d="M28.797 28.278C25.1789 31.8944 19.2901 31.8944 15.6734 28.278C15.0804 27.6834 14.1197 27.6834 13.5267 28.278C12.9338 28.8726 12.9338 29.8334 13.5267 30.4246C15.9253 32.8283 19.0815 34.0259 22.2359 34.0259C25.387 34.0259 28.5466 32.8283 30.94 30.4246C31.5346 29.8334 31.5346 28.8726 30.94 28.278C30.3488 27.6834 29.388 27.6834 28.7967 28.278H28.797Z" fill="black"/>
<path d="M16.7845 19.7164C17.972 19.7164 18.9378 18.7556 18.9378 17.5648C18.9378 16.3756 17.972 15.4131 16.7845 15.4131C15.5936 15.4131 14.6328 16.3739 14.6328 17.5648C14.6345 18.754 15.5953 19.7164 16.7845 19.7164Z" fill="black"/>
<path d="M27.6807 19.7164C28.8699 19.7164 29.8324 18.7556 29.8324 17.5648C29.8324 16.3756 28.8716 15.4131 27.6807 15.4131C26.4948 15.4131 25.5273 16.3739 25.5273 17.5648C25.5273 18.754 26.4948 19.7164 27.6807 19.7164Z" fill="black"/>
</svg>
