<svg width="1246" height="733" viewBox="0 0 1246 733" fill="none" xmlns="http://www.w3.org/2000/svg">
<g style="mix-blend-mode:overlay" opacity="0.4">
<path fill-rule="evenodd" clip-rule="evenodd" d="M344.012 277.237L349.751 275.098C391.942 259.366 440.552 237.609 471.601 223.048C486.121 215.784 494.34 209.78 498.963 204.306C503.233 199.25 504.744 194.287 504.744 187.813C504.744 182.837 502.739 178.789 498.614 175.723C494.24 172.473 486.922 169.966 476.085 169.966C464.439 169.966 456.322 172.467 451.301 176.341C446.649 179.931 443.614 185.493 443.614 194.479V194.522C443.614 195.957 443.614 197.57 443.895 200.664L444.849 211.152L345.987 202.629L345.319 195.277C345.28 194.857 345.241 194.438 345.202 194.017C344.928 191.092 344.647 188.082 344.647 184.321C344.647 155.154 360.572 133.029 385.094 118.629C409.321 104.403 442.237 97.4162 478.308 97.4162C513.774 97.4162 545.402 102.959 568.475 116.066C592.135 129.507 606.57 150.862 606.57 180.512C606.57 197.475 602.804 211.499 593.815 223.709C585.029 235.645 571.829 245.043 554.552 254.008C545.754 258.775 535.747 263.178 525.027 267.24H609.746V342.012H344.012V277.237ZM466.555 276.058C477.087 273.345 487.618 270.41 497.808 267.24C517.429 261.136 535.78 254.159 550.416 246.22C584.087 228.761 597.746 211.62 597.746 180.512C597.746 128.136 547.874 106.234 478.308 106.234C408.107 106.234 353.471 133.532 353.471 184.321C353.471 187.646 353.713 190.246 353.986 193.176C354.025 193.602 354.066 194.035 354.106 194.479L435.108 201.462C434.79 197.97 434.79 196.066 434.79 194.479C434.79 193.839 434.803 193.209 434.828 192.588C435.699 171.337 451.394 161.149 476.085 161.149C500.226 161.149 513.568 172.259 513.568 187.813C513.568 204.319 505.309 216.064 475.449 230.983C444.319 245.585 395.401 267.487 352.835 283.359V333.195H600.922V276.058H466.555ZM861.21 317.4C835.296 338.915 799.61 349.631 759.838 349.631C720.067 349.631 684.38 338.915 658.467 317.4C632.349 295.716 616.965 263.708 616.965 223.047C616.965 182.389 632.347 150.309 658.453 128.547C684.363 106.95 720.051 96.1465 759.838 96.1465C799.625 96.1465 835.314 106.95 861.223 128.547C887.33 150.309 902.711 182.389 902.711 223.047C902.711 263.708 887.327 295.716 861.21 317.4ZM729.911 266.3C737.454 274.149 747.931 277.715 759.838 277.715C771.745 277.715 782.223 274.149 789.766 266.3C797.328 258.431 803.11 245.041 803.11 223.047C803.11 200.879 797.319 187.408 789.754 179.504C782.213 171.626 771.743 168.062 759.838 168.062C747.933 168.062 737.464 171.626 729.923 179.504C722.357 187.408 716.567 200.879 716.567 223.047C716.567 245.041 722.349 258.431 729.911 266.3ZM893.888 223.047C893.888 299.547 836.393 340.813 759.838 340.813C683.284 340.813 625.789 299.547 625.789 223.047C625.789 146.547 683.284 104.964 759.838 104.964C836.393 104.964 893.888 146.547 893.888 223.047ZM707.743 223.047C707.743 270.027 732.52 286.533 759.838 286.533C787.156 286.533 811.933 270.027 811.933 223.047C811.933 175.75 787.156 159.244 759.838 159.244C732.52 159.244 707.743 175.75 707.743 223.047Z" fill="white" fill-opacity="0.7"/>
</g>
<g style="mix-blend-mode:overlay" opacity="0.4">
<path fill-rule="evenodd" clip-rule="evenodd" d="M344.014 564.347L349.753 562.207C391.944 546.475 440.554 524.718 471.603 510.157C486.123 502.893 494.342 496.889 498.965 491.416C503.235 486.359 504.746 481.397 504.746 474.922C504.746 469.947 502.741 465.899 498.615 462.832C494.242 459.582 486.924 457.076 476.087 457.076C464.441 457.076 456.324 459.576 451.303 463.45C446.651 467.04 443.616 472.603 443.616 481.588V481.632C443.615 483.067 443.615 484.679 443.897 487.773L444.851 498.262L345.989 489.738L345.321 482.386C345.282 481.967 345.243 481.547 345.204 481.126C344.93 478.202 344.649 475.191 344.649 471.43C344.649 442.263 360.574 420.138 385.096 405.739C409.323 391.513 442.239 384.526 478.31 384.526C513.776 384.526 545.404 390.068 568.477 403.176C592.137 416.616 606.572 437.971 606.572 467.621C606.572 484.584 602.806 498.608 593.817 510.819C585.031 522.754 571.831 532.153 554.554 541.118C545.756 545.885 535.749 550.287 525.029 554.35H609.748V629.122H344.014V564.347ZM466.557 563.167C477.089 560.455 487.62 557.52 497.81 554.35C517.431 548.245 535.782 541.268 550.417 533.329C584.089 515.87 597.748 498.729 597.748 467.621C597.748 415.246 547.876 393.343 478.31 393.343C408.109 393.343 353.473 420.642 353.473 471.43C353.473 474.756 353.715 477.355 353.988 480.285C354.027 480.711 354.068 481.145 354.108 481.588L435.109 488.572C434.792 485.08 434.792 483.175 434.792 481.588C434.792 480.948 434.805 480.318 434.83 479.697C435.701 458.447 451.396 448.258 476.087 448.258C500.228 448.258 513.57 459.368 513.57 474.922C513.57 491.428 505.311 503.173 475.451 518.092C444.321 532.694 395.403 554.597 352.837 570.468V620.304H600.924V563.167H466.557ZM861.212 604.509C835.298 626.024 799.612 636.74 759.84 636.74C720.068 636.74 684.382 626.024 658.469 604.509C632.351 582.825 616.967 550.818 616.967 510.157C616.967 469.498 632.348 437.418 658.455 415.656C684.365 394.059 720.053 383.256 759.84 383.256C799.627 383.256 835.316 394.059 861.225 415.656C887.332 437.418 902.713 469.498 902.713 510.157C902.713 550.818 887.329 582.825 861.212 604.509ZM729.913 553.409C737.456 561.259 747.933 564.825 759.84 564.825C771.747 564.825 782.224 561.259 789.768 553.409C797.329 545.541 803.112 532.151 803.112 510.157C803.112 487.989 797.321 474.517 789.756 466.614C782.215 458.736 771.745 455.171 759.84 455.171C747.935 455.171 737.465 458.736 729.925 466.614C722.359 474.517 716.569 487.989 716.569 510.157C716.569 532.151 722.351 545.541 729.913 553.409ZM893.89 510.157C893.89 586.657 836.394 627.923 759.84 627.923C683.286 627.923 625.791 586.657 625.791 510.157C625.791 433.656 683.286 392.073 759.84 392.073C836.394 392.073 893.89 433.656 893.89 510.157ZM707.745 510.157C707.745 557.136 732.522 573.642 759.84 573.642C787.158 573.642 811.935 557.136 811.935 510.157C811.935 462.86 787.158 446.354 759.84 446.354C732.522 446.354 707.745 462.86 707.745 510.157Z" fill="white" fill-opacity="0.7"/>
</g>
<mask id="mask0" mask-type="alpha" maskUnits="userSpaceOnUse" x="213" y="127" width="825" height="469">
<path d="M743.646 471.964V379.199L776.96 367.373V458.972C776.96 480.464 789.456 490.852 813.292 482.393C837.128 473.934 849.379 454.76 849.379 433.268V341.67L882.922 329.762V422.296C882.922 460.676 860.253 494.889 813.292 511.561C766.331 528.233 743.646 509.903 743.646 471.964Z" fill="black"/>
<path d="M913.217 473.3V319L985.37 293.379C1018.91 281.471 1037.19 297.651 1037.19 324.716C1037.19 351.551 1018.68 381.006 985.37 392.852L946.039 406.812V461.638L913.217 473.3ZM1003.67 336.624C1003.67 323.672 993.946 319.256 980.994 323.831L946.064 336.23V377.869L980.994 365.47C993.951 360.895 1003.67 349.351 1003.67 336.624Z" fill="black"/>
<path d="M214.064 504.244L230.01 473.597C239.732 481.478 254.864 485.592 273.915 478.827C290.071 473.096 297.966 461.971 297.966 453.179C297.966 425.884 218.435 472.855 218.435 414.8C218.435 389.122 238.32 360.783 270.835 349.238C292.788 341.445 311.015 342.376 324.683 351.638L308.308 381.502C297.122 373.908 282.21 373.878 268.128 378.877C255.493 383.365 248.452 392.11 248.452 401.362C248.452 425.884 327.769 381.303 327.769 438.902C327.769 467.124 309.751 494.808 272.472 508.041C245.955 517.441 226.904 514.259 214.064 504.244Z" fill="black"/>
<path d="M394.095 465.608V340.236L348.986 356.253V327.31L472.056 283.619V312.537L427.178 328.466V453.838L394.095 465.608Z" fill="black"/>
<path d="M598.159 394.932L552.979 286.058L508.162 426.699L471.195 440.004L530.883 264.519L572.061 249.899L631.533 383.085L598.159 394.932Z" fill="black"/>
<path d="M742.665 345.121L712.386 301.056L688.335 309.597V364.423L655.482 376.085V221.78L727.635 196.158C759.792 184.742 779.457 198.814 779.457 227.501C779.457 254.797 762.335 275.45 745.684 285.295L780.389 331.734L742.665 345.121ZM745.904 239.409C745.904 226.452 735.956 222.118 722.769 226.8L688.299 239.036V280.68L722.769 268.46C735.956 263.762 745.904 252.361 745.904 239.409Z" fill="black"/>
<path d="M849.526 309.149V183.777L804.412 199.789V170.876L927.487 127.186V156.098L882.603 172.033V297.405L849.526 309.149Z" fill="black"/>
<path d="M688.3 401.364L688.325 428.076L213.416 589.392L213.391 562.741L688.3 401.364Z" fill="black"/>
<path d="M1037.22 468.926V495.648L743.568 595.393V568.712L1037.22 468.926Z" fill="black"/>
</mask>
<g mask="url(#mask0)">
<rect x="213.391" y="127.185" width="824.16" height="468.195" fill="white"/>
</g>
</svg>
