<svg width="188" height="108" viewBox="0 0 188 108" fill="none" xmlns="http://www.w3.org/2000/svg">
<path d="M120.889 79.528V58.3971L128.477 55.7033V76.5684C128.477 81.4642 131.324 83.8304 136.753 81.9036C142.183 79.9768 144.973 75.6091 144.973 70.7134V49.8482L152.614 47.1357V68.2142C152.614 76.9566 147.45 84.7501 136.753 88.5478C126.056 92.3455 120.889 88.1702 120.889 79.528Z" fill="#2C4DFF"/>
<path d="M159.515 79.8323V44.6845L175.95 38.848C183.591 36.1356 187.754 39.8214 187.754 45.9865C187.754 52.0992 183.538 58.8087 175.95 61.5071L166.991 64.687V77.1758L159.515 79.8323ZM180.119 48.699C180.119 45.7487 177.904 44.7427 174.954 45.7848L166.997 48.6092V58.0941L174.954 55.2697C177.905 54.2276 180.119 51.5979 180.119 48.699Z" fill="#2C4DFF"/>
<path d="M0.255371 86.881L3.88754 79.8999C6.10227 81.695 9.5491 82.6322 13.8888 81.0912C17.5688 79.7856 19.3674 77.2515 19.3674 75.2489C19.3674 69.0313 1.25084 79.7309 1.25084 66.5065C1.25084 60.6573 5.78055 54.2019 13.1871 51.5722C18.1877 49.7969 22.3398 50.0091 25.4532 52.1189L21.7232 58.9216C19.175 57.1918 15.7783 57.1848 12.5705 58.3237C9.69248 59.3459 8.08854 61.338 8.08854 63.4455C8.08854 69.0313 26.1561 58.8762 26.1561 71.9968C26.1561 78.4253 22.0519 84.7315 13.5601 87.7459C7.5197 89.8872 3.17999 89.1621 0.255371 86.881Z" fill="#2C4DFF"/>
<path d="M41.264 78.0803V49.5219L30.9888 53.1704V46.5775L59.0227 36.6251V43.2122L48.7999 46.8409V75.3993L41.264 78.0803Z" fill="#2C4DFF"/>
<path d="M87.7481 61.9815L77.4566 37.1811L67.2478 69.2178L58.8271 72.2485L72.4233 32.2748L81.8033 28.9446L95.3505 59.283L87.7481 61.9815Z" fill="#2C4DFF"/>
<path d="M120.665 50.6351L113.768 40.5976L108.289 42.5431V55.0319L100.806 57.6884V22.5394L117.241 16.7029C124.566 14.1024 129.046 17.3079 129.046 23.8426C129.046 30.0601 125.146 34.7647 121.353 37.0074L129.258 47.5857L120.665 50.6351ZM121.403 26.555C121.403 23.6036 119.137 22.6163 116.133 23.6829L108.281 26.4699V35.956L116.133 33.1724C119.137 32.1024 121.403 29.5053 121.403 26.555Z" fill="#2C4DFF"/>
<path d="M145.007 42.4406V13.8822L134.731 17.5295V10.9435L162.766 0.991211V7.57714L152.542 11.207V39.7654L145.007 42.4406Z" fill="#2C4DFF"/>
<path d="M108.281 63.4467L108.287 69.5314L0.107393 106.277L0.101562 100.207L108.281 63.4467Z" fill="#2C4DFF"/>
<path d="M187.76 78.8357V84.9227L120.87 107.644V101.566L187.76 78.8357Z" fill="#2C4DFF"/>
</svg>
