<svg width="464" height="282" viewBox="0 0 464 282" fill="none" xmlns="http://www.w3.org/2000/svg">
<mask id="mask0" mask-type="alpha" maskUnits="userSpaceOnUse" x="11" y="12" width="443" height="252">
<path d="M296.098 197.377V147.638L313.96 141.298V190.41C313.96 201.934 320.66 207.504 333.44 202.968C346.221 198.433 352.789 188.152 352.789 176.629V127.516L370.774 121.131V170.746C370.774 191.324 358.619 209.668 333.44 218.608C308.261 227.547 296.098 217.719 296.098 197.377Z" fill="white"/>
<path d="M387.017 198.094V115.362L425.704 101.624C443.689 95.2394 453.487 103.915 453.487 118.427C453.487 132.815 443.563 148.608 425.704 154.959L404.616 162.444V191.841L387.017 198.094ZM435.516 124.811C435.516 117.867 430.302 115.499 423.358 117.952L404.629 124.6V146.926L423.358 140.278C430.305 137.825 435.516 131.635 435.516 124.811Z" fill="white"/>
<path d="M12.1491 214.685L20.6986 198.253C25.9116 202.478 34.0248 204.684 44.2397 201.057C52.9017 197.984 57.1352 192.019 57.1352 187.305C57.1352 172.67 14.4923 197.855 14.4923 166.727C14.4923 152.959 25.1544 137.765 42.588 131.575C54.3586 127.396 64.1317 127.895 71.4602 132.862L62.6803 148.874C56.6825 144.802 48.6873 144.786 41.1366 147.466C34.3623 149.873 30.587 154.562 30.587 159.522C30.587 172.67 73.1147 148.767 73.1147 179.65C73.1147 194.782 63.454 209.626 43.466 216.721C29.248 221.761 19.0331 220.054 12.1491 214.685Z" fill="white"/>
<path d="M108.677 193.969V126.747L84.4907 135.335V119.817L150.477 96.3909V111.896L126.415 120.437V187.658L108.677 193.969Z" fill="white"/>
<path d="M218.091 156.075L193.867 97.6992L169.837 173.108L150.017 180.242L182.019 86.1508L204.098 78.312L235.986 149.723L218.091 156.075Z" fill="white"/>
<path d="M295.571 129.367L279.337 105.741L266.441 110.32V139.716L248.826 145.969V63.2349L287.513 49.4971C304.754 43.3758 315.299 50.9211 315.299 66.3024C315.299 80.9375 306.118 92.0112 297.19 97.2901L315.798 122.189L295.571 129.367ZM297.308 72.6871C297.308 65.74 291.974 63.416 284.904 65.9265L266.422 72.4868V94.8152L284.904 88.2632C291.974 85.7445 297.308 79.6314 297.308 72.6871V72.6871Z" fill="white"/>
<path d="M352.868 110.08V42.8583L328.679 51.4434V35.9413L394.668 12.5154V28.0174L370.603 36.5614V103.783L352.868 110.08Z" fill="white"/>
<path d="M266.422 159.523L266.436 173.845L11.8015 260.339L11.7878 246.049L266.422 159.523Z" fill="white"/>
<path d="M453.502 195.748V210.076L296.055 263.556V249.25L453.502 195.748Z" fill="white"/>
</mask>
<g mask="url(#mask0)">
<rect x="11.788" y="12.5149" width="441.894" height="251.035" fill="white"/>
</g>
</svg>
