<svg width="727" height="414" viewBox="0 0 727 414" fill="none" xmlns="http://www.w3.org/2000/svg">
<path d="M467.745 304.132V222.303L497.131 211.871V292.671C497.131 311.63 508.154 320.793 529.18 313.331C550.206 305.87 561.013 288.956 561.013 269.997V189.198L590.602 178.694V260.319C590.602 294.174 570.605 324.354 529.18 339.061C487.755 353.767 467.745 337.598 467.745 304.132Z" fill="black"/>
<path d="M617.323 305.311V169.202L680.97 146.601C710.559 136.097 726.678 150.37 726.678 174.244C726.678 197.915 710.351 223.898 680.97 234.347L646.276 246.661V295.024L617.323 305.311ZM697.112 184.748C697.112 173.323 688.535 169.428 677.111 173.463L646.298 184.401V221.131L677.111 210.193C688.54 206.158 697.112 195.974 697.112 184.748Z" fill="black"/>
<path d="M0.595703 332.607L14.6612 305.573C23.2377 312.524 36.5854 316.154 53.3909 310.186C67.6414 305.13 74.6065 295.317 74.6065 287.562C74.6065 263.485 4.45062 304.918 4.45062 253.707C4.45062 231.056 21.9918 206.058 50.6735 195.875C70.0384 189 86.117 189.821 98.1738 197.992L83.7292 224.335C73.8617 217.636 60.708 217.609 48.2856 222.02C37.1407 225.978 30.9295 233.693 30.9295 241.854C30.9295 263.485 100.896 224.159 100.896 274.968C100.896 299.863 85.0021 324.283 52.118 335.956C28.7267 344.248 11.9212 341.441 0.595703 332.607Z" fill="black"/>
<path d="M159.4 298.525V187.933L119.61 202.062V176.531L228.17 137.991V163.499L188.583 177.551V288.143L159.4 298.525Z" fill="black"/>
<path d="M339.409 236.182L299.555 140.143L260.022 264.205L227.413 275.941L280.064 121.144L316.388 108.248L368.849 225.733L339.409 236.182Z" fill="black"/>
<path d="M466.878 192.243L440.169 153.373L418.954 160.907V209.269L389.974 219.556V83.4427L453.621 60.8413C481.987 50.7707 499.334 63.1841 499.334 88.4893C499.334 112.567 484.23 130.785 469.542 139.47L500.155 180.434L466.878 192.243ZM469.736 98.9933C469.736 87.5639 460.961 83.7406 449.328 87.8709L418.922 98.6637V135.398L449.328 124.619C460.961 120.475 469.736 110.418 469.736 98.9933Z" fill="black"/>
<path d="M561.144 160.512V49.9199L521.349 64.044V38.5402L629.914 0V25.5039L590.322 39.5603V150.152L561.144 160.512Z" fill="black"/>
<path d="M418.922 241.856L418.945 265.419L0.022578 407.717L0 384.208L418.922 241.856Z" fill="black"/>
<path d="M726.702 301.452V325.024L467.673 413.01V389.474L726.702 301.452Z" fill="black"/>
</svg>
