<svg width="640" height="458" viewBox="0 0 640 458" fill="none" xmlns="http://www.w3.org/2000/svg">
<path opacity="0.25" fill-rule="evenodd" clip-rule="evenodd" d="M91.0003 152.812L95.8448 151.007C131.459 137.732 172.493 119.372 198.701 107.085C210.959 100.955 217.896 95.8886 221.798 91.2698C225.403 87.0029 226.679 82.8154 226.679 77.3519C226.679 73.1536 224.986 69.7377 221.504 67.1502C217.812 64.4075 211.634 62.2923 202.487 62.2923C192.656 62.2923 185.804 64.4022 181.566 67.6716C177.639 70.7006 175.077 75.3948 175.077 82.977V83.0137C175.077 84.2246 175.077 85.5854 175.314 88.1963L176.12 97.0468L92.668 89.8546L92.1035 83.6506C92.0712 83.2966 92.0381 82.9427 92.0049 82.5873C91.7741 80.1194 91.5366 77.5788 91.5366 74.4055C91.5366 49.7929 104.979 31.1229 125.679 18.9721C146.13 6.96742 173.915 1.07144 204.364 1.07144C234.301 1.07144 260.999 5.74867 280.476 16.8094C300.447 28.1511 312.632 46.1712 312.632 71.1912C312.632 85.5051 309.453 97.3393 301.866 107.643C294.449 117.714 283.307 125.646 268.723 133.211C261.296 137.233 252.849 140.948 243.8 144.376H315.314V207.472H91.0003V152.812ZM194.442 151.817C203.332 149.528 212.222 147.051 220.823 144.376C237.386 139.225 252.877 133.338 265.231 126.638C293.654 111.906 305.184 97.4414 305.184 71.1912C305.184 26.9943 263.086 8.51199 204.364 8.51199C145.105 8.51199 98.9849 31.5479 98.9849 74.4055C98.9849 77.2116 99.1892 79.4052 99.4195 81.8775C99.4531 82.2372 99.4871 82.6028 99.5212 82.977L167.897 88.8699C167.629 85.9234 167.628 84.3163 167.628 82.977C167.628 82.4372 167.639 81.9053 167.661 81.3814C168.396 63.4493 181.644 54.8517 202.487 54.8517C222.865 54.8517 234.127 64.2268 234.127 77.3519C234.127 91.2806 227.155 101.191 201.95 113.781C175.673 126.102 134.379 144.585 98.4486 157.978V200.032H307.865V151.817H194.442ZM527.58 186.703C505.706 204.858 475.582 213.901 442.01 213.901C408.438 213.901 378.314 204.858 356.44 186.703C334.394 168.405 321.407 141.396 321.407 107.084C321.407 72.7753 334.391 45.7047 356.429 27.341C378.299 9.11627 408.425 0 442.01 0C475.596 0 505.721 9.11627 527.592 27.341C549.629 45.7047 562.613 72.7753 562.613 107.084C562.613 141.396 549.627 168.405 527.58 186.703ZM416.748 143.583C423.115 150.206 431.959 153.216 442.01 153.216C452.061 153.216 460.905 150.206 467.273 143.583C473.656 136.943 478.537 125.644 478.537 107.084C478.537 88.378 473.649 77.0105 467.263 70.3409C460.897 63.6931 452.059 60.6851 442.01 60.6851C431.961 60.6851 423.123 63.6931 416.758 70.3409C410.371 77.0105 405.484 88.378 405.484 107.084C405.484 125.644 410.364 136.943 416.748 143.583ZM555.165 107.084C555.165 171.639 506.632 206.46 442.01 206.46C377.389 206.46 328.855 171.639 328.855 107.084C328.855 42.5302 377.389 7.44055 442.01 7.44055C506.632 7.44055 555.165 42.5302 555.165 107.084ZM398.035 107.084C398.035 146.728 418.95 160.656 442.01 160.656C465.07 160.656 485.985 146.728 485.985 107.084C485.985 67.1733 465.07 53.2446 442.01 53.2446C418.95 53.2446 398.035 67.1733 398.035 107.084Z" fill="white"/>
<path opacity="0.25" fill-rule="evenodd" clip-rule="evenodd" d="M91 395.92L95.8445 394.115C131.459 380.839 172.492 362.48 198.701 350.193C210.958 344.063 217.896 338.996 221.798 334.378C225.403 330.111 226.678 325.923 226.678 320.46C226.678 316.262 224.986 312.846 221.503 310.258C217.812 307.515 211.634 305.4 202.486 305.4C192.656 305.4 185.804 307.51 181.565 310.78C177.639 313.809 175.076 318.503 175.076 326.085V326.122C175.076 327.333 175.076 328.693 175.314 331.304L176.119 340.155L92.6677 332.962L92.1031 326.759C92.0709 326.404 92.0378 326.051 92.0046 325.695C91.7738 323.227 91.5363 320.687 91.5363 317.513C91.5363 292.901 104.979 274.231 125.678 262.08C146.129 250.075 173.914 244.179 204.363 244.179C234.301 244.179 260.998 248.857 280.475 259.917C300.447 271.259 312.632 289.279 312.632 314.299C312.632 328.613 309.453 340.447 301.865 350.751C294.449 360.822 283.306 368.753 268.723 376.319C261.296 380.341 252.848 384.056 243.8 387.484H315.313V450.58H91V395.92ZM194.442 394.925C203.332 392.636 212.222 390.159 220.823 387.484C237.386 382.333 252.877 376.446 265.231 369.746C293.654 355.014 305.184 340.549 305.184 314.299C305.184 270.102 263.086 251.62 204.363 251.62C145.104 251.62 98.9846 274.656 98.9846 317.513C98.9846 320.319 99.1889 322.513 99.4192 324.985C99.4528 325.345 99.4868 325.711 99.5209 326.085L167.896 331.978C167.628 329.031 167.628 327.424 167.628 326.085C167.628 325.545 167.639 325.013 167.66 324.489C168.396 306.557 181.644 297.96 202.486 297.96C222.865 297.96 234.127 307.335 234.127 320.46C234.127 334.389 227.155 344.299 201.95 356.889C175.672 369.21 134.379 387.693 98.4483 401.086V443.14H307.865V394.925H194.442ZM527.58 429.811C505.706 447.966 475.582 457.009 442.01 457.009C408.438 457.009 378.314 447.966 356.44 429.811C334.393 411.513 321.407 384.504 321.407 350.192C321.407 315.883 334.391 288.813 356.428 270.449C378.299 252.224 408.424 243.108 442.01 243.108C475.595 243.108 505.721 252.224 527.591 270.449C549.629 288.813 562.613 315.883 562.613 350.192C562.613 384.504 549.626 411.513 527.58 429.811ZM416.747 386.691C423.115 393.314 431.959 396.324 442.01 396.324C452.061 396.324 460.905 393.314 467.272 386.691C473.656 380.051 478.536 368.752 478.536 350.192C478.536 331.486 473.649 320.118 467.262 313.449C460.897 306.801 452.059 303.793 442.01 303.793C431.961 303.793 423.123 306.801 416.757 313.449C410.371 320.118 405.483 331.486 405.483 350.192C405.483 368.752 410.364 380.051 416.747 386.691ZM555.165 350.192C555.165 414.746 506.631 449.568 442.01 449.568C377.388 449.568 328.855 414.746 328.855 350.192C328.855 285.638 377.388 250.548 442.01 250.548C506.631 250.548 555.165 285.638 555.165 350.192ZM398.035 350.192C398.035 389.836 418.95 403.764 442.01 403.764C465.07 403.764 485.985 389.836 485.985 350.192C485.985 310.281 465.07 296.352 442.01 296.352C418.95 296.352 398.035 310.281 398.035 350.192Z" fill="white"/>
<mask id="mask0" mask-type="alpha" maskUnits="userSpaceOnUse" x="16" y="46" width="610" height="348">
<path d="M408.603 301.97V233.333L433.251 224.583V292.357C433.251 308.259 442.497 315.945 460.133 309.686C477.77 303.428 486.834 289.241 486.834 273.338V205.565L511.653 196.754V265.221C511.653 293.617 494.88 318.932 460.133 331.268C425.387 343.603 408.603 330.041 408.603 301.97Z" fill="white"/>
<path d="M534.068 302.959V188.793L587.453 169.835C612.272 161.025 625.793 172.997 625.793 193.022C625.793 212.877 612.098 234.67 587.453 243.436L558.352 253.764V294.33L534.068 302.959ZM600.993 201.833C600.993 192.25 593.799 188.982 584.216 192.367L558.371 201.541V232.35L584.216 223.175C593.803 219.791 600.993 211.249 600.993 201.833Z" fill="white"/>
<path d="M16.7652 325.855L28.5631 303.179C35.7569 309.01 46.9528 312.054 61.0489 307.048C73.002 302.808 78.8441 294.577 78.8441 288.072C78.8441 267.876 19.9986 302.63 19.9986 259.675C19.9986 240.676 34.7119 219.708 58.7696 211.166C75.0125 205.399 88.499 206.089 98.612 212.942L86.4961 235.038C78.2194 229.419 67.1864 229.397 56.7667 233.096C47.4185 236.416 42.2086 242.887 42.2086 249.732C42.2086 267.876 100.895 234.89 100.895 277.508C100.895 298.389 87.5638 318.873 59.9812 328.664C40.3609 335.619 26.2648 333.264 16.7652 325.855Z" fill="white"/>
<path d="M149.969 297.267V204.505L116.594 216.356V194.941L207.652 162.614V184.01L174.447 195.796V288.559L149.969 297.267Z" fill="white"/>
<path d="M300.957 244.975L267.528 164.419L234.368 268.48L207.017 278.324L251.179 148.483L281.647 137.666L325.65 236.21L300.957 244.975Z" fill="white"/>
<path d="M407.876 208.12L385.473 175.516L367.677 181.836V222.401L343.37 231.03V116.86L396.756 97.9024C420.548 89.4554 435.099 99.8675 435.099 121.093C435.099 141.289 422.43 156.57 410.11 163.855L435.788 198.215L407.876 208.12ZM410.272 129.904C410.272 120.317 402.912 117.11 393.155 120.574L367.651 129.627V160.44L393.155 151.398C402.912 147.922 410.272 139.487 410.272 129.904Z" fill="white"/>
<path d="M486.942 181.504V88.741L453.563 100.588V79.196L544.626 46.8691V68.2613L511.417 80.0516V172.814L486.942 181.504Z" fill="white"/>
<path d="M367.651 249.733L367.67 269.498L16.2855 388.855L16.2666 369.136L367.651 249.733Z" fill="white"/>
<path d="M625.813 299.722V319.494L408.544 393.295V373.554L625.813 299.722Z" fill="white"/>
</mask>
<g mask="url(#mask0)">
<rect x="16.2666" y="46.8691" width="609.795" height="346.417" fill="white"/>
</g>
</svg>
