<svg width="711" height="515" viewBox="0 0 711 515" fill="none" xmlns="http://www.w3.org/2000/svg">
<g style="mix-blend-mode:overlay">
<circle cx="129.752" cy="291.753" r="3.75172" fill="white"/>
<circle cx="144.758" cy="291.752" r="3.75172" fill="white"/>
<circle cx="144.758" cy="306.759" r="3.75172" fill="white"/>
<circle cx="129.752" cy="306.759" r="3.75172" fill="white"/>
<circle cx="129.752" cy="321.765" r="3.75172" fill="white"/>
<circle cx="144.758" cy="321.765" r="3.75172" fill="white"/>
<circle cx="129.752" cy="245.753" r="3.75172" fill="white"/>
<circle cx="144.758" cy="245.752" r="3.75172" fill="white"/>
<circle cx="144.758" cy="260.759" r="3.75172" fill="white"/>
<circle cx="129.752" cy="260.759" r="3.75172" fill="white"/>
<circle cx="129.752" cy="275.765" r="3.75172" fill="white"/>
<circle cx="144.758" cy="275.765" r="3.75172" fill="white"/>
<circle cx="144.758" cy="336.772" r="3.75172" fill="white"/>
<circle cx="129.752" cy="336.772" r="3.75172" fill="white"/>
<circle cx="129.752" cy="351.779" r="3.75172" fill="white"/>
<circle cx="144.758" cy="351.779" r="3.75172" fill="white"/>
<circle cx="144.758" cy="366.786" r="3.75172" fill="white"/>
<circle cx="129.752" cy="366.786" r="3.75172" fill="white"/>
<circle cx="129.752" cy="381.793" r="3.75172" fill="white"/>
<circle cx="144.758" cy="381.793" r="3.75172" fill="white"/>
<circle cx="144.758" cy="396.8" r="3.75172" fill="white"/>
<circle cx="129.752" cy="396.8" r="3.75172" fill="white"/>
<circle cx="129.752" cy="411.807" r="3.75172" fill="white"/>
<circle cx="144.758" cy="411.807" r="3.75172" fill="white"/>
</g>
<g style="mix-blend-mode:overlay">
<circle cx="113.758" cy="306.759" r="3.75172" fill="white"/>
<circle cx="98.7517" cy="306.759" r="3.75172" fill="white"/>
<circle cx="98.7517" cy="321.765" r="3.75172" fill="white"/>
<circle cx="113.758" cy="321.765" r="3.75172" fill="white"/>
<circle cx="113.758" cy="336.772" r="3.75172" fill="white"/>
<circle cx="98.7517" cy="336.772" r="3.75172" fill="white"/>
<circle cx="98.7517" cy="351.779" r="3.75172" fill="white"/>
<circle cx="113.758" cy="351.779" r="3.75172" fill="white"/>
</g>
<g style="mix-blend-mode:overlay">
<circle cx="82.7576" cy="306.759" r="3.75172" fill="white"/>
<circle cx="67.7517" cy="306.759" r="3.75172" fill="white"/>
<circle cx="67.7517" cy="321.765" r="3.75172" fill="white"/>
<circle cx="82.7576" cy="321.765" r="3.75172" fill="white"/>
<circle cx="82.7576" cy="336.772" r="3.75172" fill="white"/>
<circle cx="67.7517" cy="336.772" r="3.75172" fill="white"/>
<circle cx="67.7517" cy="351.779" r="3.75172" fill="white"/>
<circle cx="82.7576" cy="351.779" r="3.75172" fill="white"/>
</g>
<g style="mix-blend-mode:overlay">
<circle cx="238.758" cy="306.759" r="3.75172" fill="white"/>
<circle cx="223.752" cy="306.759" r="3.75172" fill="white"/>
<circle cx="223.752" cy="321.765" r="3.75172" fill="white"/>
<circle cx="238.758" cy="321.765" r="3.75172" fill="white"/>
<circle cx="238.758" cy="336.772" r="3.75172" fill="white"/>
<circle cx="223.752" cy="336.772" r="3.75172" fill="white"/>
<circle cx="223.752" cy="351.779" r="3.75172" fill="white"/>
<circle cx="238.758" cy="351.779" r="3.75172" fill="white"/>
</g>
<g style="mix-blend-mode:overlay">
<circle cx="207.758" cy="306.759" r="3.75172" fill="white"/>
<circle cx="192.752" cy="306.759" r="3.75172" fill="white"/>
<circle cx="192.752" cy="321.765" r="3.75172" fill="white"/>
<circle cx="207.758" cy="321.765" r="3.75172" fill="white"/>
<circle cx="207.758" cy="336.772" r="3.75172" fill="white"/>
<circle cx="192.752" cy="336.772" r="3.75172" fill="white"/>
<circle cx="192.752" cy="351.779" r="3.75172" fill="white"/>
<circle cx="207.758" cy="351.779" r="3.75172" fill="white"/>
</g>
<g style="mix-blend-mode:overlay">
<circle cx="161.752" cy="291.753" r="3.75172" fill="white"/>
<circle cx="176.758" cy="291.752" r="3.75172" fill="white"/>
<circle cx="176.758" cy="306.759" r="3.75172" fill="white"/>
<circle cx="161.752" cy="306.759" r="3.75172" fill="white"/>
<circle cx="161.752" cy="321.765" r="3.75172" fill="white"/>
<circle cx="176.758" cy="321.765" r="3.75172" fill="white"/>
<circle cx="161.752" cy="245.753" r="3.75172" fill="white"/>
<circle cx="176.758" cy="245.752" r="3.75172" fill="white"/>
<circle cx="176.758" cy="260.759" r="3.75172" fill="white"/>
<circle cx="161.752" cy="260.759" r="3.75172" fill="white"/>
<circle cx="161.752" cy="275.765" r="3.75172" fill="white"/>
<circle cx="176.758" cy="275.765" r="3.75172" fill="white"/>
<circle cx="176.758" cy="336.772" r="3.75172" fill="white"/>
<circle cx="161.752" cy="336.772" r="3.75172" fill="white"/>
<circle cx="161.752" cy="351.779" r="3.75172" fill="white"/>
<circle cx="176.758" cy="351.779" r="3.75172" fill="white"/>
<circle cx="176.758" cy="366.786" r="3.75172" fill="white"/>
<circle cx="161.752" cy="366.786" r="3.75172" fill="white"/>
<circle cx="161.752" cy="381.793" r="3.75172" fill="white"/>
<circle cx="176.758" cy="381.793" r="3.75172" fill="white"/>
<circle cx="176.758" cy="396.8" r="3.75172" fill="white"/>
<circle cx="161.752" cy="396.8" r="3.75172" fill="white"/>
<circle cx="161.752" cy="411.807" r="3.75172" fill="white"/>
<circle cx="176.758" cy="411.807" r="3.75172" fill="white"/>
</g>
<g style="mix-blend-mode:overlay">
<circle cx="277.752" cy="49.7527" r="3.75172" fill="white"/>
<circle cx="292.758" cy="49.7517" r="3.75172" fill="white"/>
<circle cx="292.758" cy="64.7586" r="3.75172" fill="white"/>
<circle cx="277.752" cy="64.7586" r="3.75172" fill="white"/>
<circle cx="277.752" cy="79.7654" r="3.75172" fill="white"/>
<circle cx="292.758" cy="79.7654" r="3.75172" fill="white"/>
<circle cx="277.752" cy="3.7527" r="3.75172" fill="white"/>
<circle cx="292.758" cy="3.75172" r="3.75172" fill="white"/>
<circle cx="292.758" cy="18.7586" r="3.75172" fill="white"/>
<circle cx="277.752" cy="18.7586" r="3.75172" fill="white"/>
<circle cx="277.752" cy="33.7654" r="3.75172" fill="white"/>
<circle cx="292.758" cy="33.7654" r="3.75172" fill="white"/>
<circle cx="292.758" cy="94.7722" r="3.75172" fill="white"/>
<circle cx="277.752" cy="94.7722" r="3.75172" fill="white"/>
<circle cx="277.752" cy="109.779" r="3.75172" fill="white"/>
<circle cx="292.758" cy="109.779" r="3.75172" fill="white"/>
<circle cx="292.758" cy="124.786" r="3.75172" fill="white"/>
<circle cx="277.752" cy="124.786" r="3.75172" fill="white"/>
<circle cx="277.752" cy="139.793" r="3.75172" fill="white"/>
<circle cx="292.758" cy="139.793" r="3.75172" fill="white"/>
<circle cx="292.758" cy="154.8" r="3.75172" fill="white"/>
<circle cx="277.752" cy="154.8" r="3.75172" fill="white"/>
<circle cx="277.752" cy="169.807" r="3.75172" fill="white"/>
<circle cx="292.758" cy="169.807" r="3.75172" fill="white"/>
</g>
<g style="mix-blend-mode:overlay">
<circle cx="261.758" cy="64.7586" r="3.75172" fill="white"/>
<circle cx="246.752" cy="64.7586" r="3.75172" fill="white"/>
<circle cx="246.752" cy="79.7654" r="3.75172" fill="white"/>
<circle cx="261.758" cy="79.7654" r="3.75172" fill="white"/>
<circle cx="261.758" cy="94.7722" r="3.75172" fill="white"/>
<circle cx="246.752" cy="94.7722" r="3.75172" fill="white"/>
<circle cx="246.752" cy="109.779" r="3.75172" fill="white"/>
<circle cx="261.758" cy="109.779" r="3.75172" fill="white"/>
</g>
<g style="mix-blend-mode:overlay">
<circle cx="230.758" cy="64.7586" r="3.75172" fill="white"/>
<circle cx="215.752" cy="64.7586" r="3.75172" fill="white"/>
<circle cx="215.752" cy="79.7654" r="3.75172" fill="white"/>
<circle cx="230.758" cy="79.7654" r="3.75172" fill="white"/>
<circle cx="230.758" cy="94.7722" r="3.75172" fill="white"/>
<circle cx="215.752" cy="94.7722" r="3.75172" fill="white"/>
<circle cx="215.752" cy="109.779" r="3.75172" fill="white"/>
<circle cx="230.758" cy="109.779" r="3.75172" fill="white"/>
</g>
<g style="mix-blend-mode:overlay">
<circle cx="386.758" cy="64.7586" r="3.75172" fill="white"/>
<circle cx="371.752" cy="64.7586" r="3.75172" fill="white"/>
<circle cx="371.752" cy="79.7654" r="3.75172" fill="white"/>
<circle cx="386.758" cy="79.7654" r="3.75172" fill="white"/>
<circle cx="386.758" cy="94.7722" r="3.75172" fill="white"/>
<circle cx="371.752" cy="94.7722" r="3.75172" fill="white"/>
<circle cx="371.752" cy="109.779" r="3.75172" fill="white"/>
<circle cx="386.758" cy="109.779" r="3.75172" fill="white"/>
</g>
<g style="mix-blend-mode:overlay">
<circle cx="355.758" cy="64.7586" r="3.75172" fill="white"/>
<circle cx="340.752" cy="64.7586" r="3.75172" fill="white"/>
<circle cx="340.752" cy="79.7654" r="3.75172" fill="white"/>
<circle cx="355.758" cy="79.7654" r="3.75172" fill="white"/>
<circle cx="355.758" cy="94.7722" r="3.75172" fill="white"/>
<circle cx="340.752" cy="94.7722" r="3.75172" fill="white"/>
<circle cx="340.752" cy="109.779" r="3.75172" fill="white"/>
<circle cx="355.758" cy="109.779" r="3.75172" fill="white"/>
</g>
<g style="mix-blend-mode:overlay">
<circle cx="309.752" cy="49.7527" r="3.75172" fill="white"/>
<circle cx="324.758" cy="49.7517" r="3.75172" fill="white"/>
<circle cx="324.758" cy="64.7586" r="3.75172" fill="white"/>
<circle cx="309.752" cy="64.7586" r="3.75172" fill="white"/>
<circle cx="309.752" cy="79.7654" r="3.75172" fill="white"/>
<circle cx="324.758" cy="79.7654" r="3.75172" fill="white"/>
<circle cx="309.752" cy="3.7527" r="3.75172" fill="white"/>
<circle cx="324.758" cy="3.75172" r="3.75172" fill="white"/>
<circle cx="324.758" cy="18.7586" r="3.75172" fill="white"/>
<circle cx="309.752" cy="18.7586" r="3.75172" fill="white"/>
<circle cx="309.752" cy="33.7654" r="3.75172" fill="white"/>
<circle cx="324.758" cy="33.7654" r="3.75172" fill="white"/>
<circle cx="324.758" cy="94.7722" r="3.75172" fill="white"/>
<circle cx="309.752" cy="94.7722" r="3.75172" fill="white"/>
<circle cx="309.752" cy="109.779" r="3.75172" fill="white"/>
<circle cx="324.758" cy="109.779" r="3.75172" fill="white"/>
<circle cx="324.758" cy="124.786" r="3.75172" fill="white"/>
<circle cx="309.752" cy="124.786" r="3.75172" fill="white"/>
<circle cx="309.752" cy="139.793" r="3.75172" fill="white"/>
<circle cx="324.758" cy="139.793" r="3.75172" fill="white"/>
<circle cx="324.758" cy="154.8" r="3.75172" fill="white"/>
<circle cx="309.752" cy="154.8" r="3.75172" fill="white"/>
<circle cx="309.752" cy="169.807" r="3.75172" fill="white"/>
<circle cx="324.758" cy="169.807" r="3.75172" fill="white"/>
</g>
<g style="mix-blend-mode:overlay">
<circle cx="410.752" cy="390.753" r="3.75172" fill="white"/>
<circle cx="425.758" cy="390.752" r="3.75172" fill="white"/>
<circle cx="425.758" cy="405.759" r="3.75172" fill="white"/>
<circle cx="410.752" cy="405.759" r="3.75172" fill="white"/>
<circle cx="410.752" cy="420.765" r="3.75172" fill="white"/>
<circle cx="425.758" cy="420.765" r="3.75172" fill="white"/>
<circle cx="410.752" cy="344.753" r="3.75172" fill="white"/>
<circle cx="425.758" cy="344.752" r="3.75172" fill="white"/>
<circle cx="425.758" cy="359.759" r="3.75172" fill="white"/>
<circle cx="410.752" cy="359.759" r="3.75172" fill="white"/>
<circle cx="410.752" cy="374.765" r="3.75172" fill="white"/>
<circle cx="425.758" cy="374.765" r="3.75172" fill="white"/>
<circle cx="425.758" cy="435.772" r="3.75172" fill="white"/>
<circle cx="410.752" cy="435.772" r="3.75172" fill="white"/>
<circle cx="410.752" cy="450.779" r="3.75172" fill="white"/>
<circle cx="425.758" cy="450.779" r="3.75172" fill="white"/>
<circle cx="425.758" cy="465.786" r="3.75172" fill="white"/>
<circle cx="410.752" cy="465.786" r="3.75172" fill="white"/>
<circle cx="410.752" cy="480.793" r="3.75172" fill="white"/>
<circle cx="425.758" cy="480.793" r="3.75172" fill="white"/>
<circle cx="425.758" cy="495.8" r="3.75172" fill="white"/>
<circle cx="410.752" cy="495.8" r="3.75172" fill="white"/>
<circle cx="410.752" cy="510.807" r="3.75172" fill="white"/>
<circle cx="425.758" cy="510.807" r="3.75172" fill="white"/>
</g>
<g style="mix-blend-mode:overlay">
<circle cx="394.758" cy="405.759" r="3.75172" fill="white"/>
<circle cx="379.752" cy="405.759" r="3.75172" fill="white"/>
<circle cx="379.752" cy="420.765" r="3.75172" fill="white"/>
<circle cx="394.758" cy="420.765" r="3.75172" fill="white"/>
<circle cx="394.758" cy="435.772" r="3.75172" fill="white"/>
<circle cx="379.752" cy="435.772" r="3.75172" fill="white"/>
<circle cx="379.752" cy="450.779" r="3.75172" fill="white"/>
<circle cx="394.758" cy="450.779" r="3.75172" fill="white"/>
</g>
<g style="mix-blend-mode:overlay">
<circle cx="363.758" cy="405.759" r="3.75172" fill="white"/>
<circle cx="348.752" cy="405.759" r="3.75172" fill="white"/>
<circle cx="348.752" cy="420.765" r="3.75172" fill="white"/>
<circle cx="363.758" cy="420.765" r="3.75172" fill="white"/>
<circle cx="363.758" cy="435.772" r="3.75172" fill="white"/>
<circle cx="348.752" cy="435.772" r="3.75172" fill="white"/>
<circle cx="348.752" cy="450.779" r="3.75172" fill="white"/>
<circle cx="363.758" cy="450.779" r="3.75172" fill="white"/>
</g>
<g style="mix-blend-mode:overlay">
<circle cx="519.758" cy="405.759" r="3.75172" fill="white"/>
<circle cx="504.752" cy="405.759" r="3.75172" fill="white"/>
<circle cx="504.752" cy="420.765" r="3.75172" fill="white"/>
<circle cx="519.758" cy="420.765" r="3.75172" fill="white"/>
<circle cx="519.758" cy="435.772" r="3.75172" fill="white"/>
<circle cx="504.752" cy="435.772" r="3.75172" fill="white"/>
<circle cx="504.752" cy="450.779" r="3.75172" fill="white"/>
<circle cx="519.758" cy="450.779" r="3.75172" fill="white"/>
</g>
<g style="mix-blend-mode:overlay">
<circle cx="488.758" cy="405.759" r="3.75172" fill="white"/>
<circle cx="473.752" cy="405.759" r="3.75172" fill="white"/>
<circle cx="473.752" cy="420.765" r="3.75172" fill="white"/>
<circle cx="488.758" cy="420.765" r="3.75172" fill="white"/>
<circle cx="488.758" cy="435.772" r="3.75172" fill="white"/>
<circle cx="473.752" cy="435.772" r="3.75172" fill="white"/>
<circle cx="473.752" cy="450.779" r="3.75172" fill="white"/>
<circle cx="488.758" cy="450.779" r="3.75172" fill="white"/>
</g>
<g style="mix-blend-mode:overlay">
<circle cx="442.752" cy="390.753" r="3.75172" fill="white"/>
<circle cx="457.758" cy="390.752" r="3.75172" fill="white"/>
<circle cx="457.758" cy="405.759" r="3.75172" fill="white"/>
<circle cx="442.752" cy="405.759" r="3.75172" fill="white"/>
<circle cx="442.752" cy="420.765" r="3.75172" fill="white"/>
<circle cx="457.758" cy="420.765" r="3.75172" fill="white"/>
<circle cx="442.752" cy="344.753" r="3.75172" fill="white"/>
<circle cx="457.758" cy="344.752" r="3.75172" fill="white"/>
<circle cx="457.758" cy="359.759" r="3.75172" fill="white"/>
<circle cx="442.752" cy="359.759" r="3.75172" fill="white"/>
<circle cx="442.752" cy="374.765" r="3.75172" fill="white"/>
<circle cx="457.758" cy="374.765" r="3.75172" fill="white"/>
<circle cx="457.758" cy="435.772" r="3.75172" fill="white"/>
<circle cx="442.752" cy="435.772" r="3.75172" fill="white"/>
<circle cx="442.752" cy="450.779" r="3.75172" fill="white"/>
<circle cx="457.758" cy="450.779" r="3.75172" fill="white"/>
<circle cx="457.758" cy="465.786" r="3.75172" fill="white"/>
<circle cx="442.752" cy="465.786" r="3.75172" fill="white"/>
<circle cx="442.752" cy="480.793" r="3.75172" fill="white"/>
<circle cx="457.758" cy="480.793" r="3.75172" fill="white"/>
<circle cx="457.758" cy="495.8" r="3.75172" fill="white"/>
<circle cx="442.752" cy="495.8" r="3.75172" fill="white"/>
<circle cx="442.752" cy="510.807" r="3.75172" fill="white"/>
<circle cx="457.758" cy="510.807" r="3.75172" fill="white"/>
</g>
<g style="mix-blend-mode:overlay">
<circle cx="597.752" cy="159.753" r="3.75172" fill="white"/>
<circle cx="612.758" cy="159.752" r="3.75172" fill="white"/>
<circle cx="612.758" cy="174.759" r="3.75172" fill="white"/>
<circle cx="597.752" cy="174.759" r="3.75172" fill="white"/>
<circle cx="597.752" cy="189.765" r="3.75172" fill="white"/>
<circle cx="612.758" cy="189.765" r="3.75172" fill="white"/>
<circle cx="597.752" cy="113.753" r="3.75172" fill="white"/>
<circle cx="612.758" cy="113.752" r="3.75172" fill="white"/>
<circle cx="612.758" cy="128.759" r="3.75172" fill="white"/>
<circle cx="597.752" cy="128.759" r="3.75172" fill="white"/>
<circle cx="597.752" cy="143.765" r="3.75172" fill="white"/>
<circle cx="612.758" cy="143.765" r="3.75172" fill="white"/>
<circle cx="612.758" cy="204.772" r="3.75172" fill="white"/>
<circle cx="597.752" cy="204.772" r="3.75172" fill="white"/>
<circle cx="597.752" cy="219.779" r="3.75172" fill="white"/>
<circle cx="612.758" cy="219.779" r="3.75172" fill="white"/>
<circle cx="612.758" cy="234.786" r="3.75172" fill="white"/>
<circle cx="597.752" cy="234.786" r="3.75172" fill="white"/>
<circle cx="597.752" cy="249.793" r="3.75172" fill="white"/>
<circle cx="612.758" cy="249.793" r="3.75172" fill="white"/>
<circle cx="612.758" cy="264.8" r="3.75172" fill="white"/>
<circle cx="597.752" cy="264.8" r="3.75172" fill="white"/>
<circle cx="597.752" cy="279.807" r="3.75172" fill="white"/>
<circle cx="612.758" cy="279.807" r="3.75172" fill="white"/>
</g>
<g style="mix-blend-mode:overlay">
<circle cx="581.758" cy="174.759" r="3.75172" fill="white"/>
<circle cx="566.752" cy="174.759" r="3.75172" fill="white"/>
<circle cx="566.752" cy="189.765" r="3.75172" fill="white"/>
<circle cx="581.758" cy="189.765" r="3.75172" fill="white"/>
<circle cx="581.758" cy="204.772" r="3.75172" fill="white"/>
<circle cx="566.752" cy="204.772" r="3.75172" fill="white"/>
<circle cx="566.752" cy="219.779" r="3.75172" fill="white"/>
<circle cx="581.758" cy="219.779" r="3.75172" fill="white"/>
</g>
<g style="mix-blend-mode:overlay">
<circle cx="550.758" cy="174.759" r="3.75172" fill="white"/>
<circle cx="535.752" cy="174.759" r="3.75172" fill="white"/>
<circle cx="535.752" cy="189.765" r="3.75172" fill="white"/>
<circle cx="550.758" cy="189.765" r="3.75172" fill="white"/>
<circle cx="550.758" cy="204.772" r="3.75172" fill="white"/>
<circle cx="535.752" cy="204.772" r="3.75172" fill="white"/>
<circle cx="535.752" cy="219.779" r="3.75172" fill="white"/>
<circle cx="550.758" cy="219.779" r="3.75172" fill="white"/>
</g>
<g style="mix-blend-mode:overlay">
<circle cx="706.758" cy="174.759" r="3.75172" fill="white"/>
<circle cx="691.752" cy="174.759" r="3.75172" fill="white"/>
<circle cx="691.752" cy="189.765" r="3.75172" fill="white"/>
<circle cx="706.758" cy="189.765" r="3.75172" fill="white"/>
<circle cx="706.758" cy="204.772" r="3.75172" fill="white"/>
<circle cx="691.752" cy="204.772" r="3.75172" fill="white"/>
<circle cx="691.752" cy="219.779" r="3.75172" fill="white"/>
<circle cx="706.758" cy="219.779" r="3.75172" fill="white"/>
</g>
<g style="mix-blend-mode:overlay">
<circle cx="675.758" cy="174.759" r="3.75172" fill="white"/>
<circle cx="660.752" cy="174.759" r="3.75172" fill="white"/>
<circle cx="660.752" cy="189.765" r="3.75172" fill="white"/>
<circle cx="675.758" cy="189.765" r="3.75172" fill="white"/>
<circle cx="675.758" cy="204.772" r="3.75172" fill="white"/>
<circle cx="660.752" cy="204.772" r="3.75172" fill="white"/>
<circle cx="660.752" cy="219.779" r="3.75172" fill="white"/>
<circle cx="675.758" cy="219.779" r="3.75172" fill="white"/>
</g>
<g style="mix-blend-mode:overlay">
<circle cx="629.752" cy="159.753" r="3.75172" fill="white"/>
<circle cx="644.758" cy="159.752" r="3.75172" fill="white"/>
<circle cx="644.758" cy="174.759" r="3.75172" fill="white"/>
<circle cx="629.752" cy="174.759" r="3.75172" fill="white"/>
<circle cx="629.752" cy="189.765" r="3.75172" fill="white"/>
<circle cx="644.758" cy="189.765" r="3.75172" fill="white"/>
<circle cx="629.752" cy="113.753" r="3.75172" fill="white"/>
<circle cx="644.758" cy="113.752" r="3.75172" fill="white"/>
<circle cx="644.758" cy="128.759" r="3.75172" fill="white"/>
<circle cx="629.752" cy="128.759" r="3.75172" fill="white"/>
<circle cx="629.752" cy="143.765" r="3.75172" fill="white"/>
<circle cx="644.758" cy="143.765" r="3.75172" fill="white"/>
<circle cx="644.758" cy="204.772" r="3.75172" fill="white"/>
<circle cx="629.752" cy="204.772" r="3.75172" fill="white"/>
<circle cx="629.752" cy="219.779" r="3.75172" fill="white"/>
<circle cx="644.758" cy="219.779" r="3.75172" fill="white"/>
<circle cx="644.758" cy="234.786" r="3.75172" fill="white"/>
<circle cx="629.752" cy="234.786" r="3.75172" fill="white"/>
<circle cx="629.752" cy="249.793" r="3.75172" fill="white"/>
<circle cx="644.758" cy="249.793" r="3.75172" fill="white"/>
<circle cx="644.758" cy="264.8" r="3.75172" fill="white"/>
<circle cx="629.752" cy="264.8" r="3.75172" fill="white"/>
<circle cx="629.752" cy="279.807" r="3.75172" fill="white"/>
<circle cx="644.758" cy="279.807" r="3.75172" fill="white"/>
</g>
<path fill-rule="evenodd" clip-rule="evenodd" d="M74.9017 201H142.852V266.251H216V331.297H142.601V396H75.4027V331.297H0V266.251H74.9017V201ZM82.7301 209.568V274.819H7.82835V322.729H83.2311V387.432H134.773V322.729H208.172V274.819H135.023V209.568H82.7301Z" fill="white"/>
<path fill-rule="evenodd" clip-rule="evenodd" d="M556.902 74H624.852V139.251H698V204.297H624.601V269H557.403V204.297H482V139.251H556.902V74ZM564.73 82.5677V147.819H489.828V195.729H565.231V260.432H616.773V195.729H690.172V147.819H617.023V82.5677H564.73Z" fill="white"/>
</svg>
