<svg width="463" height="463" viewBox="0 0 463 463" fill="none" xmlns="http://www.w3.org/2000/svg">
<g style="mix-blend-mode:overlay">
<ellipse cx="65.0423" cy="94.7522" rx="3.75172" ry="3.75715" transform="rotate(-90 65.0423 94.7522)" fill="white"/>
<ellipse cx="80.0716" cy="94.7522" rx="3.75172" ry="3.75715" transform="rotate(-90 80.0716 94.7522)" fill="white"/>
<ellipse cx="95.0989" cy="94.7522" rx="3.75172" ry="3.75715" transform="rotate(-90 95.0989 94.7522)" fill="white"/>
<ellipse cx="110.128" cy="94.7522" rx="3.75172" ry="3.75715" transform="rotate(-90 110.128 94.7522)" fill="white"/>
<ellipse cx="125.156" cy="94.7522" rx="3.75172" ry="3.75715" transform="rotate(-90 125.156 94.7522)" fill="white"/>
<ellipse cx="140.187" cy="94.7522" rx="3.75172" ry="3.75715" transform="rotate(-90 140.187 94.7522)" fill="white"/>
<ellipse cx="155.214" cy="94.7522" rx="3.75172" ry="3.75715" transform="rotate(-90 155.214 94.7522)" fill="white"/>
<circle cx="65.0818" cy="109.028" r="3.75172" fill="white"/>
<circle cx="65.0818" cy="124.034" r="3.75172" fill="white"/>
<circle cx="65.0818" cy="139.041" r="3.75172" fill="white"/>
<circle cx="65.0818" cy="154.048" r="3.75172" fill="white"/>
<circle cx="65.0818" cy="169.055" r="3.75172" fill="white"/>
<circle cx="65.0818" cy="184.062" r="3.75172" fill="white"/>
<circle cx="65.0818" cy="199.069" r="3.75172" fill="white"/>
<circle cx="65.0818" cy="214.076" r="3.75172" fill="white"/>
<circle cx="65.0818" cy="229.083" r="3.75172" fill="white"/>
<circle cx="65.0818" cy="244.09" r="3.75172" fill="white"/>
<circle cx="65.0818" cy="259.096" r="3.75172" fill="white"/>
<circle cx="65.0818" cy="274.103" r="3.75172" fill="white"/>
<circle cx="65.0818" cy="289.11" r="3.75172" fill="white"/>
<circle cx="65.0818" cy="304.117" r="3.75172" fill="white"/>
<circle cx="65.0818" cy="319.124" r="3.75172" fill="white"/>
<circle cx="65.0818" cy="334.131" r="3.75172" fill="white"/>
<circle cx="65.0818" cy="349.137" r="3.75172" fill="white"/>
<circle cx="65.0818" cy="364.144" r="3.75172" fill="white"/>
<circle cx="80.0877" cy="109.028" r="3.75172" fill="white"/>
<circle cx="95.0955" cy="109.028" r="3.75172" fill="white"/>
<circle cx="95.0955" cy="124.034" r="3.75172" fill="white"/>
<circle cx="80.0896" cy="124.034" r="3.75172" fill="white"/>
<circle cx="80.0896" cy="139.041" r="3.75172" fill="white"/>
<circle cx="95.0955" cy="139.041" r="3.75172" fill="white"/>
<circle cx="95.0955" cy="154.048" r="3.75172" fill="white"/>
<circle cx="80.0896" cy="154.048" r="3.75172" fill="white"/>
<circle cx="80.0896" cy="169.055" r="3.75172" fill="white"/>
<circle cx="95.0955" cy="169.055" r="3.75172" fill="white"/>
<circle cx="95.0955" cy="184.062" r="3.75172" fill="white"/>
<circle cx="80.0896" cy="184.062" r="3.75172" fill="white"/>
<circle cx="80.0896" cy="199.069" r="3.75172" fill="white"/>
<circle cx="95.0955" cy="199.069" r="3.75172" fill="white"/>
<circle cx="95.0955" cy="214.076" r="3.75172" fill="white"/>
<circle cx="80.0896" cy="214.076" r="3.75172" fill="white"/>
<circle cx="80.0896" cy="229.083" r="3.75172" fill="white"/>
<circle cx="95.0955" cy="229.083" r="3.75172" fill="white"/>
<circle cx="95.0955" cy="244.09" r="3.75172" fill="white"/>
<circle cx="80.0896" cy="244.09" r="3.75172" fill="white"/>
<circle cx="80.0896" cy="259.096" r="3.75172" fill="white"/>
<circle cx="95.0955" cy="259.096" r="3.75172" fill="white"/>
<circle cx="95.0955" cy="274.103" r="3.75172" fill="white"/>
<circle cx="80.0896" cy="274.103" r="3.75172" fill="white"/>
<circle cx="80.0896" cy="289.11" r="3.75172" fill="white"/>
<circle cx="95.0955" cy="289.11" r="3.75172" fill="white"/>
<circle cx="95.0955" cy="304.117" r="3.75172" fill="white"/>
<circle cx="80.0896" cy="304.117" r="3.75172" fill="white"/>
<circle cx="80.0896" cy="319.124" r="3.75172" fill="white"/>
<circle cx="95.0955" cy="319.124" r="3.75172" fill="white"/>
<circle cx="95.0955" cy="334.131" r="3.75172" fill="white"/>
<circle cx="80.0896" cy="334.131" r="3.75172" fill="white"/>
<circle cx="80.0896" cy="349.137" r="3.75172" fill="white"/>
<circle cx="95.0955" cy="349.137" r="3.75172" fill="white"/>
<circle cx="95.0955" cy="364.144" r="3.75172" fill="white"/>
<circle cx="80.0896" cy="364.144" r="3.75172" fill="white"/>
<circle cx="110.103" cy="109.028" r="3.75172" fill="white"/>
<circle cx="125.109" cy="109.028" r="3.75172" fill="white"/>
<circle cx="125.109" cy="124.034" r="3.75172" fill="white"/>
<circle cx="110.103" cy="124.034" r="3.75172" fill="white"/>
<circle cx="110.103" cy="139.041" r="3.75172" fill="white"/>
<circle cx="125.109" cy="139.041" r="3.75172" fill="white"/>
<circle cx="125.109" cy="154.048" r="3.75172" fill="white"/>
<circle cx="110.103" cy="154.048" r="3.75172" fill="white"/>
<circle cx="110.103" cy="169.055" r="3.75172" fill="white"/>
<circle cx="125.109" cy="169.055" r="3.75172" fill="white"/>
<circle cx="125.109" cy="184.062" r="3.75172" fill="white"/>
<circle cx="110.103" cy="184.062" r="3.75172" fill="white"/>
<circle cx="110.103" cy="199.069" r="3.75172" fill="white"/>
<circle cx="125.109" cy="199.069" r="3.75172" fill="white"/>
<circle cx="125.109" cy="214.076" r="3.75172" fill="white"/>
<circle cx="110.103" cy="214.076" r="3.75172" fill="white"/>
<circle cx="110.103" cy="229.083" r="3.75172" fill="white"/>
<circle cx="125.109" cy="229.083" r="3.75172" fill="white"/>
<circle cx="125.109" cy="244.09" r="3.75172" fill="white"/>
<circle cx="110.103" cy="244.09" r="3.75172" fill="white"/>
<circle cx="110.103" cy="259.096" r="3.75172" fill="white"/>
<circle cx="125.109" cy="259.096" r="3.75172" fill="white"/>
<circle cx="125.109" cy="274.103" r="3.75172" fill="white"/>
<circle cx="110.103" cy="274.103" r="3.75172" fill="white"/>
<circle cx="110.103" cy="289.11" r="3.75172" fill="white"/>
<circle cx="125.109" cy="289.11" r="3.75172" fill="white"/>
<circle cx="125.109" cy="304.117" r="3.75172" fill="white"/>
<circle cx="110.103" cy="304.117" r="3.75172" fill="white"/>
<circle cx="110.103" cy="319.124" r="3.75172" fill="white"/>
<circle cx="125.109" cy="319.124" r="3.75172" fill="white"/>
<circle cx="125.109" cy="334.131" r="3.75172" fill="white"/>
<circle cx="110.103" cy="334.131" r="3.75172" fill="white"/>
<circle cx="110.103" cy="349.137" r="3.75172" fill="white"/>
<circle cx="125.109" cy="349.137" r="3.75172" fill="white"/>
<circle cx="125.109" cy="364.144" r="3.75172" fill="white"/>
<circle cx="110.103" cy="364.144" r="3.75172" fill="white"/>
<circle cx="140.119" cy="109.028" r="3.75172" fill="white"/>
<circle cx="155.125" cy="109.028" r="3.75172" fill="white"/>
<circle cx="155.125" cy="124.035" r="3.75172" fill="white"/>
<circle cx="140.117" cy="124.035" r="3.75172" fill="white"/>
<circle cx="140.117" cy="139.042" r="3.75172" fill="white"/>
<circle cx="155.125" cy="139.042" r="3.75172" fill="white"/>
<circle cx="155.125" cy="154.049" r="3.75172" fill="white"/>
<circle cx="140.117" cy="154.049" r="3.75172" fill="white"/>
<circle cx="140.117" cy="169.056" r="3.75172" fill="white"/>
<circle cx="155.125" cy="169.056" r="3.75172" fill="white"/>
<circle cx="155.125" cy="184.063" r="3.75172" fill="white"/>
<circle cx="140.117" cy="184.063" r="3.75172" fill="white"/>
<circle cx="140.117" cy="199.07" r="3.75172" fill="white"/>
<circle cx="155.125" cy="199.07" r="3.75172" fill="white"/>
<circle cx="155.125" cy="214.076" r="3.75172" fill="white"/>
<circle cx="140.117" cy="214.076" r="3.75172" fill="white"/>
<circle cx="140.117" cy="229.083" r="3.75172" fill="white"/>
<circle cx="155.125" cy="229.083" r="3.75172" fill="white"/>
<circle cx="155.125" cy="244.09" r="3.75172" fill="white"/>
<circle cx="140.117" cy="244.09" r="3.75172" fill="white"/>
<circle cx="140.117" cy="259.097" r="3.75172" fill="white"/>
<circle cx="155.125" cy="259.097" r="3.75172" fill="white"/>
<circle cx="155.125" cy="274.104" r="3.75172" fill="white"/>
<circle cx="140.117" cy="274.104" r="3.75172" fill="white"/>
<circle cx="140.117" cy="289.111" r="3.75172" fill="white"/>
<circle cx="155.125" cy="289.111" r="3.75172" fill="white"/>
<circle cx="155.125" cy="304.118" r="3.75172" fill="white"/>
<circle cx="140.117" cy="304.118" r="3.75172" fill="white"/>
<circle cx="140.117" cy="319.125" r="3.75172" fill="white"/>
<circle cx="155.125" cy="319.125" r="3.75172" fill="white"/>
<circle cx="155.125" cy="334.132" r="3.75172" fill="white"/>
<circle cx="140.117" cy="334.132" r="3.75172" fill="white"/>
<circle cx="140.117" cy="349.138" r="3.75172" fill="white"/>
<circle cx="155.125" cy="349.138" r="3.75172" fill="white"/>
<circle cx="155.125" cy="364.145" r="3.75172" fill="white"/>
<circle cx="140.117" cy="364.145" r="3.75172" fill="white"/>
<circle cx="64.7517" cy="379.752" r="3.75172" fill="white"/>
<circle cx="94.7654" cy="379.752" r="3.75172" fill="white"/>
<circle cx="79.7595" cy="379.752" r="3.75172" fill="white"/>
<circle cx="124.779" cy="379.752" r="3.75172" fill="white"/>
<circle cx="109.773" cy="379.752" r="3.75172" fill="white"/>
<circle cx="64.7517" cy="394.752" r="3.75172" fill="white"/>
<circle cx="94.7654" cy="394.752" r="3.75172" fill="white"/>
<circle cx="79.7595" cy="394.752" r="3.75172" fill="white"/>
<circle cx="64.7517" cy="408.752" r="3.75172" fill="white"/>
<circle cx="64.7517" cy="422.752" r="3.75172" fill="white"/>
<circle cx="79.7595" cy="408.752" r="3.75172" fill="white"/>
<circle cx="79.76" cy="49.7517" r="3.75172" transform="rotate(-180 79.76 49.7517)" fill="white"/>
<circle cx="64.7522" cy="34.7517" r="3.75172" transform="rotate(-180 64.7522 34.7517)" fill="white"/>
<circle cx="64.7522" cy="49.7517" r="3.75172" transform="rotate(-180 64.7522 49.7517)" fill="white"/>
<circle cx="109.773" cy="394.752" r="3.75172" fill="white"/>
<circle cx="64.7517" cy="64.7517" r="3.75172" fill="white"/>
<circle cx="94.7654" cy="64.7517" r="3.75172" fill="white"/>
<circle cx="79.7595" cy="64.7517" r="3.75172" fill="white"/>
<circle cx="109.773" cy="64.7517" r="3.75172" fill="white"/>
<circle cx="64.7517" cy="79.7517" r="3.75172" fill="white"/>
<circle cx="94.7654" cy="79.7517" r="3.75172" fill="white"/>
<circle cx="79.7595" cy="79.7517" r="3.75172" fill="white"/>
<circle cx="124.779" cy="79.7517" r="3.75172" fill="white"/>
<circle cx="109.773" cy="79.7517" r="3.75172" fill="white"/>
<circle cx="170.131" cy="109.028" r="3.75172" fill="white"/>
<circle cx="185.136" cy="109.028" r="3.75172" fill="white"/>
<circle cx="185.136" cy="124.034" r="3.75172" fill="white"/>
<circle cx="170.131" cy="124.034" r="3.75172" fill="white"/>
<circle cx="170.131" cy="139.041" r="3.75172" fill="white"/>
<circle cx="185.136" cy="139.041" r="3.75172" fill="white"/>
<circle cx="185.136" cy="154.048" r="3.75172" fill="white"/>
<circle cx="170.131" cy="154.048" r="3.75172" fill="white"/>
<circle cx="170.131" cy="169.055" r="3.75172" fill="white"/>
<circle cx="185.136" cy="169.055" r="3.75172" fill="white"/>
<circle cx="185.136" cy="184.062" r="3.75172" fill="white"/>
<circle cx="170.131" cy="184.062" r="3.75172" fill="white"/>
<circle cx="170.131" cy="199.069" r="3.75172" fill="white"/>
<circle cx="185.136" cy="199.069" r="3.75172" fill="white"/>
<circle cx="185.136" cy="214.076" r="3.75172" fill="white"/>
<circle cx="170.131" cy="214.076" r="3.75172" fill="white"/>
<circle cx="170.131" cy="229.083" r="3.75172" fill="white"/>
<circle cx="185.136" cy="229.083" r="3.75172" fill="white"/>
<circle cx="185.136" cy="244.09" r="3.75172" fill="white"/>
<circle cx="170.131" cy="244.09" r="3.75172" fill="white"/>
<circle cx="170.131" cy="259.096" r="3.75172" fill="white"/>
<circle cx="185.136" cy="259.096" r="3.75172" fill="white"/>
<circle cx="185.136" cy="274.103" r="3.75172" fill="white"/>
<circle cx="170.131" cy="274.103" r="3.75172" fill="white"/>
<circle cx="170.131" cy="289.11" r="3.75172" fill="white"/>
<circle cx="185.136" cy="289.11" r="3.75172" fill="white"/>
<circle cx="185.136" cy="304.117" r="3.75172" fill="white"/>
<circle cx="170.131" cy="304.117" r="3.75172" fill="white"/>
<circle cx="170.131" cy="319.124" r="3.75172" fill="white"/>
<circle cx="185.136" cy="319.124" r="3.75172" fill="white"/>
<circle cx="185.136" cy="334.131" r="3.75172" fill="white"/>
<circle cx="170.131" cy="334.131" r="3.75172" fill="white"/>
<circle cx="170.131" cy="349.137" r="3.75172" fill="white"/>
<circle cx="185.136" cy="349.137" r="3.75172" fill="white"/>
<circle cx="200.146" cy="124.035" r="3.75172" fill="white"/>
<circle cx="200.146" cy="139.042" r="3.75172" fill="white"/>
<circle cx="215.152" cy="139.042" r="3.75172" fill="white"/>
<circle cx="215.152" cy="154.049" r="3.75172" fill="white"/>
<circle cx="200.146" cy="154.049" r="3.75172" fill="white"/>
<circle cx="200.146" cy="169.056" r="3.75172" fill="white"/>
<circle cx="215.152" cy="169.056" r="3.75172" fill="white"/>
<circle cx="215.152" cy="184.063" r="3.75172" fill="white"/>
<circle cx="200.146" cy="184.063" r="3.75172" fill="white"/>
<circle cx="200.146" cy="199.07" r="3.75172" fill="white"/>
<circle cx="215.152" cy="199.07" r="3.75172" fill="white"/>
<circle cx="215.152" cy="214.076" r="3.75172" fill="white"/>
<circle cx="200.146" cy="214.076" r="3.75172" fill="white"/>
<circle cx="200.146" cy="229.083" r="3.75172" fill="white"/>
<circle cx="215.152" cy="229.083" r="3.75172" fill="white"/>
<circle cx="215.152" cy="244.09" r="3.75172" fill="white"/>
<circle cx="200.146" cy="244.09" r="3.75172" fill="white"/>
<circle cx="200.146" cy="259.097" r="3.75172" fill="white"/>
<circle cx="215.152" cy="259.097" r="3.75172" fill="white"/>
<circle cx="215.152" cy="274.104" r="3.75172" fill="white"/>
<circle cx="200.146" cy="274.104" r="3.75172" fill="white"/>
<circle cx="200.146" cy="289.111" r="3.75172" fill="white"/>
<circle cx="215.152" cy="289.111" r="3.75172" fill="white"/>
<circle cx="215.152" cy="304.118" r="3.75172" fill="white"/>
<circle cx="200.146" cy="304.118" r="3.75172" fill="white"/>
<circle cx="200.146" cy="319.125" r="3.75172" fill="white"/>
<circle cx="215.152" cy="319.125" r="3.75172" fill="white"/>
<circle cx="215.152" cy="334.132" r="3.75172" fill="white"/>
<circle cx="200.146" cy="334.132" r="3.75172" fill="white"/>
<circle cx="230.158" cy="139.041" r="3.75172" fill="white"/>
<circle cx="245.166" cy="154.048" r="3.75172" fill="white"/>
<circle cx="230.158" cy="154.048" r="3.75172" fill="white"/>
<circle cx="230.158" cy="169.055" r="3.75172" fill="white"/>
<circle cx="245.166" cy="169.055" r="3.75172" fill="white"/>
<circle cx="245.166" cy="184.062" r="3.75172" fill="white"/>
<circle cx="230.158" cy="184.062" r="3.75172" fill="white"/>
<circle cx="230.158" cy="199.069" r="3.75172" fill="white"/>
<circle cx="245.166" cy="199.069" r="3.75172" fill="white"/>
<circle cx="245.166" cy="214.076" r="3.75172" fill="white"/>
<circle cx="230.158" cy="214.076" r="3.75172" fill="white"/>
<circle cx="230.158" cy="229.083" r="3.75172" fill="white"/>
<circle cx="245.166" cy="229.083" r="3.75172" fill="white"/>
<circle cx="245.166" cy="244.09" r="3.75172" fill="white"/>
<circle cx="230.158" cy="244.09" r="3.75172" fill="white"/>
<circle cx="230.158" cy="259.096" r="3.75172" fill="white"/>
<circle cx="245.166" cy="259.096" r="3.75172" fill="white"/>
<circle cx="245.166" cy="274.103" r="3.75172" fill="white"/>
<circle cx="230.158" cy="274.103" r="3.75172" fill="white"/>
<circle cx="230.158" cy="289.11" r="3.75172" fill="white"/>
<circle cx="245.166" cy="289.11" r="3.75172" fill="white"/>
<circle cx="245.166" cy="304.117" r="3.75172" fill="white"/>
<circle cx="230.158" cy="304.117" r="3.75172" fill="white"/>
<circle cx="230.158" cy="319.124" r="3.75172" fill="white"/>
<circle cx="260.17" cy="154.049" r="3.75172" fill="white"/>
<circle cx="260.17" cy="169.055" r="3.75172" fill="white"/>
<circle cx="275.176" cy="169.055" r="3.75172" fill="white"/>
<circle cx="275.176" cy="184.063" r="3.75172" fill="white"/>
<circle cx="260.17" cy="184.063" r="3.75172" fill="white"/>
<circle cx="260.17" cy="199.07" r="3.75172" fill="white"/>
<circle cx="275.176" cy="199.07" r="3.75172" fill="white"/>
<circle cx="275.176" cy="214.076" r="3.75172" fill="white"/>
<circle cx="260.17" cy="214.076" r="3.75172" fill="white"/>
<circle cx="260.17" cy="229.083" r="3.75172" fill="white"/>
<circle cx="275.176" cy="229.083" r="3.75172" fill="white"/>
<circle cx="275.176" cy="244.09" r="3.75172" fill="white"/>
<circle cx="260.17" cy="244.09" r="3.75172" fill="white"/>
<circle cx="260.17" cy="259.097" r="3.75172" fill="white"/>
<circle cx="275.176" cy="259.097" r="3.75172" fill="white"/>
<circle cx="275.176" cy="274.104" r="3.75172" fill="white"/>
<circle cx="260.17" cy="274.104" r="3.75172" fill="white"/>
<circle cx="260.17" cy="289.111" r="3.75172" fill="white"/>
<circle cx="275.176" cy="289.111" r="3.75172" fill="white"/>
<circle cx="260.17" cy="304.117" r="3.75172" fill="white"/>
<circle cx="290.187" cy="169.055" r="3.75172" fill="white"/>
<circle cx="305.193" cy="184.062" r="3.75172" fill="white"/>
<circle cx="290.187" cy="184.062" r="3.75172" fill="white"/>
<circle cx="290.187" cy="199.069" r="3.75172" fill="white"/>
<circle cx="305.193" cy="199.069" r="3.75172" fill="white"/>
<circle cx="305.193" cy="214.076" r="3.75172" fill="white"/>
<circle cx="290.187" cy="214.076" r="3.75172" fill="white"/>
<circle cx="290.187" cy="229.083" r="3.75172" fill="white"/>
<circle cx="305.193" cy="229.083" r="3.75172" fill="white"/>
<circle cx="305.193" cy="244.09" r="3.75172" fill="white"/>
<circle cx="290.187" cy="244.09" r="3.75172" fill="white"/>
<circle cx="290.187" cy="259.096" r="3.75172" fill="white"/>
<circle cx="305.193" cy="259.096" r="3.75172" fill="white"/>
<circle cx="305.193" cy="274.103" r="3.75172" fill="white"/>
<circle cx="290.187" cy="274.103" r="3.75172" fill="white"/>
<circle cx="290.187" cy="289.11" r="3.75172" fill="white"/>
<circle cx="320.201" cy="184.063" r="3.75172" fill="white"/>
<circle cx="320.201" cy="199.07" r="3.75172" fill="white"/>
<circle cx="335.207" cy="199.07" r="3.75172" fill="white"/>
<circle cx="335.207" cy="214.076" r="3.75172" fill="white"/>
<circle cx="320.201" cy="214.076" r="3.75172" fill="white"/>
<circle cx="320.201" cy="229.083" r="3.75172" fill="white"/>
<circle cx="335.207" cy="229.083" r="3.75172" fill="white"/>
<circle cx="335.207" cy="244.09" r="3.75172" fill="white"/>
<circle cx="320.201" cy="244.09" r="3.75172" fill="white"/>
<circle cx="320.201" cy="259.097" r="3.75172" fill="white"/>
<circle cx="335.207" cy="259.097" r="3.75172" fill="white"/>
<circle cx="320.201" cy="274.104" r="3.75172" fill="white"/>
<circle cx="350.215" cy="199.069" r="3.75172" fill="white"/>
<circle cx="365.22" cy="214.076" r="3.75172" fill="white"/>
<circle cx="350.215" cy="214.076" r="3.75172" fill="white"/>
<circle cx="350.215" cy="229.083" r="3.75172" fill="white"/>
<circle cx="365.22" cy="229.083" r="3.75172" fill="white"/>
<circle cx="365.22" cy="244.09" r="3.75172" fill="white"/>
<circle cx="350.215" cy="244.09" r="3.75172" fill="white"/>
<circle cx="380.226" cy="214.076" r="3.75172" fill="white"/>
<circle cx="380.226" cy="229.083" r="3.75172" fill="white"/>
<circle cx="395.232" cy="229.083" r="3.75172" fill="white"/>
</g>
<path d="M118.25 35.3452L458 231.5L118.25 427.655L118.25 35.3452Z" stroke="white" stroke-width="5"/>
</svg>
