<svg width="43" height="43" viewBox="0 0 43 43" fill="none" xmlns="http://www.w3.org/2000/svg">
<path d="M22.2358 2.31287C11.5193 2.31287 2.83203 11.0002 2.83203 21.7166C2.83203 32.4331 11.5193 41.1169 22.2358 41.1169C32.9505 41.1169 41.6378 32.4331 41.6378 21.7166C41.6361 11.0002 32.9488 2.31287 22.2358 2.31287ZM22.2358 38.0837C13.2109 38.0837 5.8674 30.7402 5.8674 21.717C5.8674 12.6905 13.2109 5.35039 22.2358 5.35039C31.2559 5.35039 38.6011 12.6905 38.6011 21.717C38.5995 30.7384 31.2559 38.0837 22.2358 38.0837Z" fill="white"/>
<path d="M28.797 28.2776C25.179 31.894 19.2902 31.894 15.6734 28.2776C15.0805 27.683 14.1197 27.683 13.5268 28.2776C12.9339 28.8722 12.9339 29.833 13.5268 30.4243C15.9254 32.8279 19.0815 34.0255 22.236 34.0255C25.3871 34.0255 28.5467 32.8279 30.9401 30.4243C31.5347 29.833 31.5347 28.8722 30.9401 28.2776C30.3488 27.683 29.388 27.683 28.7968 28.2776H28.797Z" fill="white"/>
<path d="M16.7851 19.7163C17.9726 19.7163 18.9385 18.7555 18.9385 17.5646C18.9385 16.3754 17.9726 15.4129 16.7851 15.4129C15.5942 15.4129 14.6334 16.3737 14.6334 17.5646C14.6351 18.7538 15.5959 19.7163 16.7851 19.7163Z" fill="white"/>
<path d="M27.6814 19.7163C28.8706 19.7163 29.833 18.7555 29.833 17.5646C29.833 16.3754 28.8723 15.4129 27.6814 15.4129C26.4955 15.4129 25.528 16.3737 25.528 17.5646C25.528 18.7538 26.4955 19.7163 27.6814 19.7163Z" fill="white"/>
</svg>
