<svg width="327" height="189" viewBox="0 0 327 189" fill="none" xmlns="http://www.w3.org/2000/svg">
<g style="mix-blend-mode:overlay">
<circle cx="65.2669" cy="126.437" r="1.88308" fill="white"/>
<circle cx="72.7986" cy="126.437" r="1.88308" fill="white"/>
<circle cx="72.7986" cy="133.969" r="1.88308" fill="white"/>
<circle cx="65.2669" cy="133.969" r="1.88308" fill="white"/>
<circle cx="65.2669" cy="141.502" r="1.88308" fill="white"/>
<circle cx="72.7986" cy="141.502" r="1.88308" fill="white"/>
<circle cx="65.2669" cy="103.349" r="1.88308" fill="white"/>
<circle cx="72.7986" cy="103.348" r="1.88308" fill="white"/>
<circle cx="72.7986" cy="110.88" r="1.88308" fill="white"/>
<circle cx="65.2669" cy="110.88" r="1.88308" fill="white"/>
<circle cx="65.2669" cy="118.413" r="1.88308" fill="white"/>
<circle cx="72.7986" cy="118.413" r="1.88308" fill="white"/>
<circle cx="72.7986" cy="149.034" r="1.88308" fill="white"/>
<circle cx="65.2669" cy="149.034" r="1.88308" fill="white"/>
<circle cx="65.2669" cy="156.566" r="1.88308" fill="white"/>
<circle cx="72.7986" cy="156.566" r="1.88308" fill="white"/>
<circle cx="72.7986" cy="164.098" r="1.88308" fill="white"/>
<circle cx="65.2669" cy="164.098" r="1.88308" fill="white"/>
<circle cx="65.2669" cy="171.63" r="1.88308" fill="white"/>
<circle cx="72.7986" cy="171.63" r="1.88308" fill="white"/>
<circle cx="72.7986" cy="179.163" r="1.88308" fill="white"/>
<circle cx="65.2669" cy="179.163" r="1.88308" fill="white"/>
<circle cx="65.2669" cy="186.696" r="1.88308" fill="white"/>
<circle cx="72.7986" cy="186.696" r="1.88308" fill="white"/>
</g>
<g style="mix-blend-mode:overlay">
<circle cx="57.2381" cy="133.969" r="1.88308" fill="white"/>
<circle cx="49.7063" cy="133.969" r="1.88308" fill="white"/>
<circle cx="49.7063" cy="141.501" r="1.88308" fill="white"/>
<circle cx="57.2381" cy="141.501" r="1.88308" fill="white"/>
<circle cx="57.2381" cy="149.034" r="1.88308" fill="white"/>
<circle cx="49.7063" cy="149.034" r="1.88308" fill="white"/>
<circle cx="49.7063" cy="156.566" r="1.88308" fill="white"/>
<circle cx="57.2381" cy="156.566" r="1.88308" fill="white"/>
</g>
<g style="mix-blend-mode:overlay">
<circle cx="41.6795" cy="133.969" r="1.88308" fill="white"/>
<circle cx="34.1467" cy="133.97" r="1.88308" fill="white"/>
<circle cx="34.1472" cy="141.501" r="1.88308" fill="white"/>
<circle cx="41.6795" cy="141.501" r="1.88308" fill="white"/>
<circle cx="41.6795" cy="149.034" r="1.88308" fill="white"/>
<circle cx="34.1472" cy="149.034" r="1.88308" fill="white"/>
<circle cx="34.1472" cy="156.566" r="1.88308" fill="white"/>
<circle cx="41.6795" cy="156.566" r="1.88308" fill="white"/>
</g>
<g style="mix-blend-mode:overlay">
<circle cx="119.98" cy="133.969" r="1.88308" fill="white"/>
<circle cx="112.448" cy="133.969" r="1.88308" fill="white"/>
<circle cx="112.449" cy="141.501" r="1.88308" fill="white"/>
<circle cx="119.98" cy="141.501" r="1.88308" fill="white"/>
<circle cx="119.98" cy="149.034" r="1.88308" fill="white"/>
<circle cx="112.449" cy="149.034" r="1.88308" fill="white"/>
<circle cx="112.449" cy="156.566" r="1.88308" fill="white"/>
<circle cx="119.98" cy="156.566" r="1.88308" fill="white"/>
</g>
<g style="mix-blend-mode:overlay">
<circle cx="104.421" cy="133.969" r="1.88308" fill="white"/>
<circle cx="96.8894" cy="133.969" r="1.88308" fill="white"/>
<circle cx="96.8889" cy="141.501" r="1.88308" fill="white"/>
<circle cx="104.421" cy="141.501" r="1.88308" fill="white"/>
<circle cx="104.421" cy="149.034" r="1.88308" fill="white"/>
<circle cx="96.8889" cy="149.034" r="1.88308" fill="white"/>
<circle cx="96.8889" cy="156.566" r="1.88308" fill="white"/>
<circle cx="104.421" cy="156.566" r="1.88308" fill="white"/>
</g>
<g style="mix-blend-mode:overlay">
<circle cx="81.3284" cy="126.437" r="1.88308" fill="white"/>
<circle cx="88.8601" cy="126.437" r="1.88308" fill="white"/>
<circle cx="88.8601" cy="133.969" r="1.88308" fill="white"/>
<circle cx="81.3284" cy="133.969" r="1.88308" fill="white"/>
<circle cx="81.3284" cy="141.502" r="1.88308" fill="white"/>
<circle cx="88.8601" cy="141.502" r="1.88308" fill="white"/>
<circle cx="81.3279" cy="103.349" r="1.88308" fill="white"/>
<circle cx="88.8601" cy="103.348" r="1.88308" fill="white"/>
<circle cx="88.8601" cy="110.88" r="1.88308" fill="white"/>
<circle cx="81.3284" cy="110.88" r="1.88308" fill="white"/>
<circle cx="81.3284" cy="118.413" r="1.88308" fill="white"/>
<circle cx="88.8601" cy="118.413" r="1.88308" fill="white"/>
<circle cx="88.8601" cy="149.034" r="1.88308" fill="white"/>
<circle cx="81.3284" cy="149.034" r="1.88308" fill="white"/>
<circle cx="81.3284" cy="156.566" r="1.88308" fill="white"/>
<circle cx="88.8601" cy="156.566" r="1.88308" fill="white"/>
<circle cx="88.8601" cy="164.098" r="1.88308" fill="white"/>
<circle cx="81.3284" cy="164.098" r="1.88308" fill="white"/>
<circle cx="81.3284" cy="171.63" r="1.88308" fill="white"/>
<circle cx="88.8601" cy="171.63" r="1.88308" fill="white"/>
<circle cx="88.8601" cy="179.163" r="1.88308" fill="white"/>
<circle cx="81.3284" cy="179.163" r="1.88308" fill="white"/>
<circle cx="81.3284" cy="186.696" r="1.88308" fill="white"/>
<circle cx="88.8601" cy="186.696" r="1.88308" fill="white"/>
</g>
<g style="mix-blend-mode:overlay">
<circle cx="129.55" cy="24.9726" r="1.88308" fill="white"/>
<circle cx="137.082" cy="24.9718" r="1.88308" fill="white"/>
<circle cx="137.082" cy="32.5041" r="1.88308" fill="white"/>
<circle cx="129.55" cy="32.5041" r="1.88308" fill="white"/>
<circle cx="129.55" cy="40.0364" r="1.88308" fill="white"/>
<circle cx="137.082" cy="40.0364" r="1.88308" fill="white"/>
<circle cx="129.55" cy="1.88376" r="1.88308" fill="white"/>
<circle cx="137.082" cy="1.88344" r="1.88308" fill="white"/>
<circle cx="137.082" cy="9.41574" r="1.88308" fill="white"/>
<circle cx="129.55" cy="9.41574" r="1.88308" fill="white"/>
<circle cx="129.55" cy="16.948" r="1.88308" fill="white"/>
<circle cx="137.082" cy="16.948" r="1.88308" fill="white"/>
<circle cx="137.082" cy="47.5691" r="1.88308" fill="white"/>
<circle cx="129.55" cy="47.5691" r="1.88308" fill="white"/>
<circle cx="129.55" cy="55.101" r="1.88308" fill="white"/>
<circle cx="137.082" cy="55.101" r="1.88308" fill="white"/>
<circle cx="137.082" cy="62.6329" r="1.88308" fill="white"/>
<circle cx="129.55" cy="62.6329" r="1.88308" fill="white"/>
<circle cx="129.55" cy="70.1656" r="1.88308" fill="white"/>
<circle cx="137.082" cy="70.1656" r="1.88308" fill="white"/>
<circle cx="137.082" cy="77.6983" r="1.88308" fill="white"/>
<circle cx="129.55" cy="77.6983" r="1.88308" fill="white"/>
<circle cx="129.55" cy="85.2302" r="1.88308" fill="white"/>
<circle cx="137.082" cy="85.2302" r="1.88308" fill="white"/>
</g>
<g style="mix-blend-mode:overlay">
<circle cx="121.524" cy="32.5041" r="1.88308" fill="white"/>
<circle cx="113.991" cy="32.5041" r="1.88308" fill="white"/>
<circle cx="113.992" cy="40.0365" r="1.88308" fill="white"/>
<circle cx="121.524" cy="40.0365" r="1.88308" fill="white"/>
<circle cx="121.524" cy="47.5691" r="1.88308" fill="white"/>
<circle cx="113.992" cy="47.5691" r="1.88308" fill="white"/>
<circle cx="113.992" cy="55.1011" r="1.88308" fill="white"/>
<circle cx="121.524" cy="55.1011" r="1.88308" fill="white"/>
</g>
<g style="mix-blend-mode:overlay">
<circle cx="105.965" cy="32.504" r="1.88308" fill="white"/>
<circle cx="98.4319" cy="32.504" r="1.88308" fill="white"/>
<circle cx="98.4329" cy="40.0364" r="1.88308" fill="white"/>
<circle cx="105.965" cy="40.0364" r="1.88308" fill="white"/>
<circle cx="105.965" cy="47.569" r="1.88308" fill="white"/>
<circle cx="98.4329" cy="47.569" r="1.88308" fill="white"/>
<circle cx="98.4329" cy="55.101" r="1.88308" fill="white"/>
<circle cx="105.965" cy="55.101" r="1.88308" fill="white"/>
</g>
<g style="mix-blend-mode:overlay">
<circle cx="184.263" cy="32.5041" r="1.88308" fill="white"/>
<circle cx="176.732" cy="32.5047" r="1.88308" fill="white"/>
<circle cx="176.731" cy="40.0364" r="1.88308" fill="white"/>
<circle cx="184.263" cy="40.0364" r="1.88308" fill="white"/>
<circle cx="184.263" cy="47.5691" r="1.88308" fill="white"/>
<circle cx="176.731" cy="47.5691" r="1.88308" fill="white"/>
<circle cx="176.731" cy="55.101" r="1.88308" fill="white"/>
<circle cx="184.263" cy="55.101" r="1.88308" fill="white"/>
</g>
<g style="mix-blend-mode:overlay">
<circle cx="168.704" cy="32.5039" r="1.88308" fill="white"/>
<circle cx="161.172" cy="32.5037" r="1.88308" fill="white"/>
<circle cx="161.172" cy="40.0358" r="1.88308" fill="white"/>
<circle cx="168.704" cy="40.0358" r="1.88308" fill="white"/>
<circle cx="168.704" cy="47.5685" r="1.88308" fill="white"/>
<circle cx="161.172" cy="47.5685" r="1.88308" fill="white"/>
<circle cx="161.172" cy="55.1004" r="1.88308" fill="white"/>
<circle cx="168.704" cy="55.1004" r="1.88308" fill="white"/>
</g>
<g style="mix-blend-mode:overlay">
<circle cx="145.614" cy="24.9723" r="1.88308" fill="white"/>
<circle cx="153.146" cy="24.9715" r="1.88308" fill="white"/>
<circle cx="153.146" cy="32.5038" r="1.88308" fill="white"/>
<circle cx="145.614" cy="32.5038" r="1.88308" fill="white"/>
<circle cx="145.614" cy="40.0365" r="1.88308" fill="white"/>
<circle cx="153.146" cy="40.0365" r="1.88308" fill="white"/>
<circle cx="145.613" cy="1.88333" r="1.88308" fill="white"/>
<circle cx="153.146" cy="1.88317" r="1.88308" fill="white"/>
<circle cx="153.146" cy="9.41547" r="1.88308" fill="white"/>
<circle cx="145.614" cy="9.41547" r="1.88308" fill="white"/>
<circle cx="145.614" cy="16.9478" r="1.88308" fill="white"/>
<circle cx="153.146" cy="16.9478" r="1.88308" fill="white"/>
<circle cx="153.146" cy="47.5684" r="1.88308" fill="white"/>
<circle cx="145.614" cy="47.5684" r="1.88308" fill="white"/>
<circle cx="145.614" cy="55.1004" r="1.88308" fill="white"/>
<circle cx="153.146" cy="55.1004" r="1.88308" fill="white"/>
<circle cx="153.146" cy="62.633" r="1.88308" fill="white"/>
<circle cx="145.614" cy="62.633" r="1.88308" fill="white"/>
<circle cx="145.614" cy="70.165" r="1.88308" fill="white"/>
<circle cx="153.146" cy="70.165" r="1.88308" fill="white"/>
<circle cx="153.146" cy="77.6976" r="1.88308" fill="white"/>
<circle cx="145.614" cy="77.6976" r="1.88308" fill="white"/>
<circle cx="145.614" cy="85.2303" r="1.88308" fill="white"/>
<circle cx="153.146" cy="85.2303" r="1.88308" fill="white"/>
</g>
<g style="mix-blend-mode:overlay">
<circle cx="186.308" cy="126.127" r="1.88308" fill="white"/>
<circle cx="193.84" cy="126.127" r="1.88308" fill="white"/>
<circle cx="193.84" cy="133.659" r="1.88308" fill="white"/>
<circle cx="186.308" cy="133.659" r="1.88308" fill="white"/>
<circle cx="186.308" cy="141.191" r="1.88308" fill="white"/>
<circle cx="193.84" cy="141.191" r="1.88308" fill="white"/>
<circle cx="186.307" cy="103.039" r="1.88308" fill="white"/>
<circle cx="193.84" cy="103.038" r="1.88308" fill="white"/>
<circle cx="193.84" cy="110.57" r="1.88308" fill="white"/>
<circle cx="186.308" cy="110.57" r="1.88308" fill="white"/>
<circle cx="186.308" cy="118.102" r="1.88308" fill="white"/>
<circle cx="193.84" cy="118.102" r="1.88308" fill="white"/>
<circle cx="193.84" cy="148.723" r="1.88308" fill="white"/>
<circle cx="186.308" cy="148.723" r="1.88308" fill="white"/>
<circle cx="186.308" cy="156.255" r="1.88308" fill="white"/>
<circle cx="193.84" cy="156.255" r="1.88308" fill="white"/>
<circle cx="193.84" cy="163.788" r="1.88308" fill="white"/>
<circle cx="186.308" cy="163.788" r="1.88308" fill="white"/>
<circle cx="186.308" cy="171.32" r="1.88308" fill="white"/>
<circle cx="193.84" cy="171.32" r="1.88308" fill="white"/>
<circle cx="193.84" cy="178.852" r="1.88308" fill="white"/>
<circle cx="186.308" cy="178.852" r="1.88308" fill="white"/>
<circle cx="186.308" cy="186.385" r="1.88308" fill="white"/>
<circle cx="193.84" cy="186.385" r="1.88308" fill="white"/>
</g>
<g style="mix-blend-mode:overlay">
<circle cx="178.28" cy="133.659" r="1.88308" fill="white"/>
<circle cx="170.747" cy="133.659" r="1.88308" fill="white"/>
<circle cx="170.748" cy="141.191" r="1.88308" fill="white"/>
<circle cx="178.28" cy="141.191" r="1.88308" fill="white"/>
<circle cx="178.28" cy="148.724" r="1.88308" fill="white"/>
<circle cx="170.748" cy="148.724" r="1.88308" fill="white"/>
<circle cx="170.748" cy="156.256" r="1.88308" fill="white"/>
<circle cx="178.28" cy="156.256" r="1.88308" fill="white"/>
</g>
<g style="mix-blend-mode:overlay">
<circle cx="162.72" cy="133.659" r="1.88308" fill="white"/>
<circle cx="155.188" cy="133.659" r="1.88308" fill="white"/>
<circle cx="155.188" cy="141.19" r="1.88308" fill="white"/>
<circle cx="162.72" cy="141.19" r="1.88308" fill="white"/>
<circle cx="162.72" cy="148.723" r="1.88308" fill="white"/>
<circle cx="155.188" cy="148.723" r="1.88308" fill="white"/>
<circle cx="155.188" cy="156.255" r="1.88308" fill="white"/>
<circle cx="162.72" cy="156.255" r="1.88308" fill="white"/>
</g>
<g style="mix-blend-mode:overlay">
<circle cx="241.02" cy="133.659" r="1.88308" fill="white"/>
<circle cx="233.487" cy="133.659" r="1.88308" fill="white"/>
<circle cx="233.488" cy="141.19" r="1.88308" fill="white"/>
<circle cx="241.02" cy="141.19" r="1.88308" fill="white"/>
<circle cx="241.02" cy="148.723" r="1.88308" fill="white"/>
<circle cx="233.488" cy="148.723" r="1.88308" fill="white"/>
<circle cx="233.488" cy="156.255" r="1.88308" fill="white"/>
<circle cx="241.02" cy="156.255" r="1.88308" fill="white"/>
</g>
<g style="mix-blend-mode:overlay">
<circle cx="225.461" cy="133.659" r="1.88308" fill="white"/>
<circle cx="217.928" cy="133.659" r="1.88308" fill="white"/>
<circle cx="217.929" cy="141.191" r="1.88308" fill="white"/>
<circle cx="225.461" cy="141.191" r="1.88308" fill="white"/>
<circle cx="225.461" cy="148.724" r="1.88308" fill="white"/>
<circle cx="217.929" cy="148.724" r="1.88308" fill="white"/>
<circle cx="217.929" cy="156.256" r="1.88308" fill="white"/>
<circle cx="225.461" cy="156.256" r="1.88308" fill="white"/>
</g>
<g style="mix-blend-mode:overlay">
<circle cx="202.369" cy="126.127" r="1.88308" fill="white"/>
<circle cx="209.901" cy="126.127" r="1.88308" fill="white"/>
<circle cx="209.901" cy="133.659" r="1.88308" fill="white"/>
<circle cx="202.369" cy="133.659" r="1.88308" fill="white"/>
<circle cx="202.369" cy="141.191" r="1.88308" fill="white"/>
<circle cx="209.901" cy="141.191" r="1.88308" fill="white"/>
<circle cx="202.369" cy="103.038" r="1.88308" fill="white"/>
<circle cx="209.901" cy="103.038" r="1.88308" fill="white"/>
<circle cx="209.901" cy="110.57" r="1.88308" fill="white"/>
<circle cx="202.369" cy="110.57" r="1.88308" fill="white"/>
<circle cx="202.369" cy="118.102" r="1.88308" fill="white"/>
<circle cx="209.901" cy="118.102" r="1.88308" fill="white"/>
<circle cx="209.901" cy="148.723" r="1.88308" fill="white"/>
<circle cx="202.369" cy="148.723" r="1.88308" fill="white"/>
<circle cx="202.369" cy="156.255" r="1.88308" fill="white"/>
<circle cx="209.901" cy="156.255" r="1.88308" fill="white"/>
<circle cx="209.901" cy="163.788" r="1.88308" fill="white"/>
<circle cx="202.369" cy="163.788" r="1.88308" fill="white"/>
<circle cx="202.369" cy="171.32" r="1.88308" fill="white"/>
<circle cx="209.901" cy="171.32" r="1.88308" fill="white"/>
<circle cx="209.901" cy="178.852" r="1.88308" fill="white"/>
<circle cx="202.369" cy="178.852" r="1.88308" fill="white"/>
<circle cx="202.369" cy="186.385" r="1.88308" fill="white"/>
<circle cx="209.901" cy="186.385" r="1.88308" fill="white"/>
</g>
<g style="mix-blend-mode:overlay">
<circle cx="270.169" cy="43.1837" r="1.88308" fill="white"/>
<circle cx="277.701" cy="43.1837" r="1.88308" fill="white"/>
<circle cx="277.701" cy="50.7157" r="1.88308" fill="white"/>
<circle cx="270.169" cy="50.7157" r="1.88308" fill="white"/>
<circle cx="270.169" cy="58.2483" r="1.88308" fill="white"/>
<circle cx="277.701" cy="58.2483" r="1.88308" fill="white"/>
<circle cx="270.17" cy="20.0954" r="1.88308" fill="white"/>
<circle cx="277.701" cy="20.095" r="1.88308" fill="white"/>
<circle cx="277.701" cy="27.6269" r="1.88308" fill="white"/>
<circle cx="270.169" cy="27.6269" r="1.88308" fill="white"/>
<circle cx="270.169" cy="35.1596" r="1.88308" fill="white"/>
<circle cx="277.701" cy="35.1596" r="1.88308" fill="white"/>
<circle cx="277.701" cy="65.7803" r="1.88308" fill="white"/>
<circle cx="270.169" cy="65.7803" r="1.88308" fill="white"/>
<circle cx="270.169" cy="73.3122" r="1.88308" fill="white"/>
<circle cx="277.701" cy="73.3122" r="1.88308" fill="white"/>
<circle cx="277.701" cy="80.8449" r="1.88308" fill="white"/>
<circle cx="270.169" cy="80.8449" r="1.88308" fill="white"/>
<circle cx="270.169" cy="88.3768" r="1.88308" fill="white"/>
<circle cx="277.701" cy="88.3768" r="1.88308" fill="white"/>
<circle cx="277.701" cy="95.9095" r="1.88308" fill="white"/>
<circle cx="270.169" cy="95.9095" r="1.88308" fill="white"/>
<circle cx="270.169" cy="103.442" r="1.88308" fill="white"/>
<circle cx="277.701" cy="103.442" r="1.88308" fill="white"/>
</g>
<g style="mix-blend-mode:overlay">
<circle cx="262.14" cy="50.7154" r="1.88308" fill="white"/>
<circle cx="254.608" cy="50.716" r="1.88308" fill="white"/>
<circle cx="254.609" cy="58.2473" r="1.88308" fill="white"/>
<circle cx="262.14" cy="58.2473" r="1.88308" fill="white"/>
<circle cx="262.14" cy="65.78" r="1.88308" fill="white"/>
<circle cx="254.609" cy="65.78" r="1.88308" fill="white"/>
<circle cx="254.609" cy="73.3119" r="1.88308" fill="white"/>
<circle cx="262.14" cy="73.3119" r="1.88308" fill="white"/>
</g>
<g style="mix-blend-mode:overlay">
<circle cx="246.581" cy="50.715" r="1.88308" fill="white"/>
<circle cx="239.05" cy="50.7149" r="1.88308" fill="white"/>
<circle cx="239.049" cy="58.247" r="1.88308" fill="white"/>
<circle cx="246.581" cy="58.247" r="1.88308" fill="white"/>
<circle cx="246.581" cy="65.7796" r="1.88308" fill="white"/>
<circle cx="239.049" cy="65.7796" r="1.88308" fill="white"/>
<circle cx="239.049" cy="73.3116" r="1.88308" fill="white"/>
<circle cx="246.581" cy="73.3116" r="1.88308" fill="white"/>
</g>
<g style="mix-blend-mode:overlay">
<circle cx="324.88" cy="50.7156" r="1.88308" fill="white"/>
<circle cx="317.348" cy="50.7162" r="1.88308" fill="white"/>
<circle cx="317.349" cy="58.2475" r="1.88308" fill="white"/>
<circle cx="324.88" cy="58.2475" r="1.88308" fill="white"/>
<circle cx="324.88" cy="65.7802" r="1.88308" fill="white"/>
<circle cx="317.349" cy="65.7802" r="1.88308" fill="white"/>
<circle cx="317.349" cy="73.3121" r="1.88308" fill="white"/>
<circle cx="324.88" cy="73.3121" r="1.88308" fill="white"/>
</g>
<g style="mix-blend-mode:overlay">
<circle cx="309.32" cy="50.7154" r="1.88308" fill="white"/>
<circle cx="301.788" cy="50.7159" r="1.88308" fill="white"/>
<circle cx="301.789" cy="58.2473" r="1.88308" fill="white"/>
<circle cx="309.32" cy="58.2473" r="1.88308" fill="white"/>
<circle cx="309.32" cy="65.78" r="1.88308" fill="white"/>
<circle cx="301.789" cy="65.78" r="1.88308" fill="white"/>
<circle cx="301.789" cy="73.3119" r="1.88308" fill="white"/>
<circle cx="309.32" cy="73.3119" r="1.88308" fill="white"/>
</g>
<g style="mix-blend-mode:overlay">
<circle cx="286.23" cy="43.1837" r="1.88308" fill="white"/>
<circle cx="293.762" cy="43.1837" r="1.88308" fill="white"/>
<circle cx="293.762" cy="50.7157" r="1.88308" fill="white"/>
<circle cx="286.23" cy="50.7157" r="1.88308" fill="white"/>
<circle cx="286.23" cy="58.2483" r="1.88308" fill="white"/>
<circle cx="293.762" cy="58.2483" r="1.88308" fill="white"/>
<circle cx="286.23" cy="20.0956" r="1.88308" fill="white"/>
<circle cx="293.762" cy="20.095" r="1.88308" fill="white"/>
<circle cx="293.762" cy="27.6269" r="1.88308" fill="white"/>
<circle cx="286.23" cy="27.6269" r="1.88308" fill="white"/>
<circle cx="286.23" cy="35.1596" r="1.88308" fill="white"/>
<circle cx="293.762" cy="35.1596" r="1.88308" fill="white"/>
<circle cx="293.762" cy="65.7803" r="1.88308" fill="white"/>
<circle cx="286.23" cy="65.7803" r="1.88308" fill="white"/>
<circle cx="286.23" cy="73.3122" r="1.88308" fill="white"/>
<circle cx="293.762" cy="73.3122" r="1.88308" fill="white"/>
<circle cx="293.762" cy="80.8449" r="1.88308" fill="white"/>
<circle cx="286.23" cy="80.8449" r="1.88308" fill="white"/>
<circle cx="286.23" cy="88.3768" r="1.88308" fill="white"/>
<circle cx="293.762" cy="88.3768" r="1.88308" fill="white"/>
<circle cx="293.762" cy="95.9095" r="1.88308" fill="white"/>
<circle cx="286.23" cy="95.9095" r="1.88308" fill="white"/>
<circle cx="286.23" cy="103.442" r="1.88308" fill="white"/>
<circle cx="293.762" cy="103.442" r="1.88308" fill="white"/>
</g>
<path fill-rule="evenodd" clip-rule="evenodd" d="M37.7375 80.8867H71.8432V113.638H108.558V146.286H71.7175V178.762H37.9889V146.286H0.142578V113.638H37.7375V80.8867ZM41.6667 85.187V117.938H4.07181V141.985H41.9182V174.461H67.7882V141.985H104.629V117.938H67.914V85.187H41.6667Z" fill="white"/>
<path fill-rule="evenodd" clip-rule="evenodd" d="M249.663 0.142578H283.769V32.8937H320.484V65.5416H283.643V98.0175H249.915V65.5416H212.068V32.8937H249.663V0.142578ZM253.592 4.44288V37.194H215.998V61.2413H253.844V93.7172H279.714V61.2413H316.554V37.194H279.84V4.44288H253.592Z" fill="white"/>
</svg>
